<svg width="84" height="83" viewBox="0 0 84 83" fill="none" xmlns="http://www.w3.org/2000/svg">
<g filter="url(#filter0_d_714_416)">
<mask id="mask0_714_416" style="mask-type:luminance" maskUnits="userSpaceOnUse" x="6" y="3" width="66" height="66">
<path d="M6.22974 3.02264H71.7797V68.5726H6.22974V3.02264Z" fill="white"/>
</mask>
<g mask="url(#mask0_714_416)">
<path d="M71.7797 35.7976C71.7797 36.3344 71.7665 36.8703 71.7399 37.4062C71.7133 37.9414 71.6743 38.4766 71.6219 39.0101C71.5688 39.5437 71.5032 40.0765 71.425 40.607C71.3461 41.1375 71.2547 41.6656 71.15 42.1922C71.0454 42.718 70.9274 43.2414 70.7969 43.7617C70.6672 44.282 70.5243 44.7984 70.368 45.3117C70.2126 45.825 70.0446 46.3344 69.8633 46.8391C69.6829 47.3445 69.4899 47.8445 69.2844 48.3398C69.0797 48.8359 68.8618 49.3258 68.6329 49.8109C68.4032 50.2961 68.1625 50.775 67.9094 51.2476C67.6563 51.7211 67.3922 52.1875 67.1165 52.6476C66.8407 53.1078 66.554 53.5609 66.2555 54.0062C65.9579 54.4523 65.6493 54.8906 65.3297 55.3219C65.0102 55.7523 64.6805 56.175 64.3399 56.5898C63.9993 57.0047 63.6493 57.4109 63.2891 57.8078C62.929 58.2055 62.5594 58.5937 62.1797 58.9734C61.8008 59.3523 61.4125 59.7219 61.0149 60.0828C60.6172 60.443 60.211 60.793 59.7969 61.1328C59.3821 61.4734 58.9594 61.8031 58.5282 62.1226C58.0977 62.4422 57.6594 62.7516 57.2133 63.0492C56.7672 63.3469 56.3141 63.6344 55.854 63.9101C55.3938 64.1859 54.9274 64.45 54.4547 64.7031C53.9813 64.9555 53.5024 65.1969 53.0172 65.4258C52.5329 65.6555 52.0422 65.8726 51.5469 66.0781C51.0516 66.2828 50.5508 66.4758 50.0461 66.657C49.5407 66.8375 49.0321 67.0055 48.5188 67.1617C48.0055 67.3172 47.4883 67.4601 46.968 67.5906C46.4477 67.7211 45.9243 67.8383 45.3985 67.943C44.8727 68.0476 44.3438 68.1391 43.8133 68.218C43.2829 68.2969 42.7508 68.3625 42.2172 68.4148C41.6829 68.4672 41.1485 68.507 40.6125 68.5336C40.0766 68.5594 39.5407 68.5726 39.0047 68.5726C38.468 68.5726 37.9321 68.5594 37.3961 68.5336C36.8602 68.507 36.3258 68.4672 35.7922 68.4148C35.2579 68.3625 34.7258 68.2969 34.1954 68.218C33.6649 68.1391 33.1368 68.0476 32.6102 67.943C32.0844 67.8383 31.561 67.7211 31.0407 67.5906C30.5204 67.4601 30.004 67.3172 29.4907 67.1617C28.9774 67.0055 28.468 66.8375 27.9625 66.657C27.4579 66.4758 26.9579 66.2828 26.4618 66.0781C25.9665 65.8726 25.4766 65.6555 24.9915 65.4258C24.5063 65.1969 24.0274 64.9555 23.5547 64.7031C23.0813 64.45 22.6149 64.1859 22.1547 63.9101C21.6946 63.6344 21.2415 63.3469 20.7954 63.0492C20.35 62.7516 19.911 62.4422 19.4805 62.1226C19.0493 61.8031 18.6266 61.4734 18.2125 61.1328C17.7977 60.793 17.3915 60.443 16.9938 60.0828C16.5969 59.7219 16.2086 59.3523 15.829 58.9734C15.45 58.5937 15.0797 58.2055 14.7196 57.8078C14.3594 57.4109 14.0094 57.0047 13.6688 56.5898C13.329 56.175 12.9993 55.7523 12.6797 55.3219C12.3602 54.8906 12.0508 54.4523 11.7532 54.0062C11.4547 53.5609 11.168 53.1078 10.8922 52.6476C10.6165 52.1875 10.3524 51.7211 10.0993 51.2476C9.84692 50.775 9.60552 50.2961 9.37661 49.8109C9.14692 49.3258 8.92974 48.8359 8.72427 48.3398C8.5188 47.8445 8.32583 47.3445 8.14536 46.8391C7.96489 46.3344 7.79614 45.825 7.64067 45.3117C7.4852 44.7984 7.34224 44.282 7.21177 43.7617C7.0813 43.2414 6.96411 42.718 6.85942 42.1922C6.75474 41.6656 6.66255 41.1375 6.58442 40.607C6.50552 40.0765 6.43989 39.5437 6.38755 39.0101C6.33442 38.4766 6.29536 37.9414 6.2688 37.4062C6.24302 36.8703 6.22974 36.3344 6.22974 35.7976C6.22974 35.2617 6.24302 34.725 6.2688 34.1898C6.29536 33.6539 6.33442 33.1187 6.38755 32.5851C6.43989 32.0515 6.50552 31.5195 6.58442 30.989C6.66255 30.4578 6.75474 29.9297 6.85942 29.4039C6.96411 28.8773 7.0813 28.3547 7.21177 27.8344C7.34224 27.3141 7.4852 26.7969 7.64067 26.2836C7.79614 25.7703 7.96489 25.2609 8.14536 24.7562C8.32583 24.2516 8.5188 23.7508 8.72427 23.2555C8.92974 22.7601 9.14692 22.2695 9.37661 21.7844C9.60552 21.3 9.84692 20.8211 10.0993 20.3476C10.3524 19.875 10.6165 19.4078 10.8922 18.9484C11.168 18.4883 11.4547 18.0351 11.7532 17.5891C12.0508 17.143 12.3602 16.7047 12.6797 16.2734C12.9993 15.843 13.329 15.4203 13.6688 15.0055C14.0094 14.5906 14.3594 14.1851 14.7196 13.7875C15.0797 13.3898 15.45 13.0016 15.829 12.6226C16.2086 12.243 16.5969 11.8734 16.9938 11.5133C17.3915 11.1531 17.7977 10.8023 18.2125 10.4625C18.6266 10.1219 19.0493 9.79218 19.4805 9.47264C19.911 9.15311 20.35 8.84452 20.7954 8.54608C21.2415 8.24843 21.6946 7.96171 22.1547 7.68593C22.6149 7.41014 23.0813 7.1453 23.5547 6.89296C24.0274 6.63983 24.5063 6.39921 24.9915 6.16952C25.4766 5.93983 25.9665 5.72264 26.4618 5.51796C26.9579 5.31249 27.4579 5.11952 27.9625 4.93827C28.468 4.7578 28.9774 4.58983 29.4907 4.43436C30.004 4.27811 30.5204 4.13514 31.0407 4.00468C31.561 3.87499 32.0844 3.75702 32.6102 3.65233C33.1368 3.54764 33.6649 3.45624 34.1954 3.37733C34.7258 3.29843 35.2579 3.2328 35.7922 3.18046C36.3258 3.12811 36.8602 3.08827 37.3961 3.06249C37.9321 3.03593 38.468 3.02264 39.0047 3.02264C39.5407 3.02264 40.0766 3.03593 40.6125 3.06249C41.1485 3.08827 41.6829 3.12811 42.2172 3.18046C42.7508 3.2328 43.2829 3.29843 43.8133 3.37733C44.3438 3.45624 44.8727 3.54764 45.3985 3.65233C45.9243 3.75702 46.4477 3.87499 46.968 4.00468C47.4883 4.13514 48.0055 4.27811 48.5188 4.43436C49.0321 4.58983 49.5407 4.7578 50.0461 4.93827C50.5508 5.11952 51.0516 5.31249 51.5469 5.51796C52.0422 5.72264 52.5329 5.93983 53.0172 6.16952C53.5024 6.39921 53.9813 6.63983 54.4547 6.89296C54.9274 7.1453 55.3938 7.41014 55.854 7.68593C56.3141 7.96171 56.7672 8.24843 57.2133 8.54608C57.6594 8.84452 58.0977 9.15311 58.5282 9.47264C58.9594 9.79218 59.3821 10.1219 59.7969 10.4625C60.211 10.8023 60.6172 11.1531 61.0149 11.5133C61.4125 11.8734 61.8008 12.243 62.1797 12.6226C62.5594 13.0016 62.929 13.3898 63.2891 13.7875C63.6493 14.1851 63.9993 14.5906 64.3399 15.0055C64.6805 15.4203 65.0102 15.843 65.3297 16.2734C65.6493 16.7047 65.9579 17.143 66.2555 17.5891C66.554 18.0351 66.8407 18.4883 67.1165 18.9484C67.3922 19.4078 67.6563 19.875 67.9094 20.3476C68.1625 20.8211 68.4032 21.3 68.6329 21.7844C68.8618 22.2695 69.0797 22.7601 69.2844 23.2555C69.4899 23.7508 69.6829 24.2516 69.8633 24.7562C70.0446 25.2609 70.2126 25.7703 70.368 26.2836C70.5243 26.7969 70.6672 27.3141 70.7969 27.8344C70.9274 28.3547 71.0454 28.8773 71.15 29.4039C71.2547 29.9297 71.3461 30.4578 71.425 30.989C71.5032 31.5195 71.5688 32.0515 71.6219 32.5851C71.6743 33.1187 71.7133 33.6539 71.7399 34.1898C71.7665 34.725 71.7797 35.2617 71.7797 35.7976Z" fill="#C3EDEF"/>
</g>
<path fill-rule="evenodd" clip-rule="evenodd" d="M10.1399 22.3875L38.5469 7.55157L66.954 22.3875V25.8781H10.1696L10.1399 22.3875Z" fill="white"/>
<path fill-rule="evenodd" clip-rule="evenodd" d="M14.1804 22.3875H62.9125L38.5468 9.8414L14.1804 22.3875Z" fill="#ECF0F1"/>
<path fill-rule="evenodd" clip-rule="evenodd" d="M14.1804 22.3875H18.8007L38.5468 9.8414L14.1804 22.3875Z" fill="#D1D2D4"/>
<path fill-rule="evenodd" clip-rule="evenodd" d="M19.3398 25.8781H57.7531V57.5836H19.3398V25.8781Z" fill="#C3EDEF"/>
<path fill-rule="evenodd" clip-rule="evenodd" d="M13.8438 57.5469H65.0211V60.8398H13.8438V57.5469Z" fill="white"/>
<path fill-rule="evenodd" clip-rule="evenodd" d="M10.9961 60.1281H67.8688V64.0437H10.9961V60.1281Z" fill="#D1D2D4"/>
<path fill-rule="evenodd" clip-rule="evenodd" d="M14.4156 25.8781H23.0969V26.7328H21.9875V27.5867H15.5258V26.7328H14.4156V25.8781Z" fill="#D1D2D4"/>
<path fill-rule="evenodd" clip-rule="evenodd" d="M16.4172 27.5867H20.936V57.5469H16.4172V27.5867Z" fill="white"/>
<path fill-rule="evenodd" clip-rule="evenodd" d="M25.5149 25.8781H34.1961V26.7328H33.086V27.5867H26.625V26.7328H25.5149V25.8781Z" fill="#D1D2D4"/>
<path fill-rule="evenodd" clip-rule="evenodd" d="M27.5164 27.5867H32.0351V57.5469H27.5164V27.5867Z" fill="white"/>
<path fill-rule="evenodd" clip-rule="evenodd" d="M42.8969 25.8781H51.5781V26.7328H50.4679V27.5867H44.007V26.7328H42.8969V25.8781Z" fill="#D1D2D4"/>
<path fill-rule="evenodd" clip-rule="evenodd" d="M44.8984 27.5867H49.4172V57.5469H44.8984V27.5867Z" fill="white"/>
<path fill-rule="evenodd" clip-rule="evenodd" d="M53.9961 25.8781H62.6773V26.7328H61.5672V27.5867H55.1062V26.7328H53.9961V25.8781Z" fill="#D1D2D4"/>
<path fill-rule="evenodd" clip-rule="evenodd" d="M55.9977 27.5867H60.5164V57.5469H55.9977V27.5867Z" fill="white"/>
<path fill-rule="evenodd" clip-rule="evenodd" d="M38.5469 43.3508C40.3094 43.3508 41.7508 44.793 41.7508 46.5547V57.5836H35.3422V46.5547C35.3422 44.793 36.7844 43.3508 38.5469 43.3508Z" fill="#0F7986"/>
<mask id="mask1_714_416" style="mask-type:luminance" maskUnits="userSpaceOnUse" x="53" y="3" width="13" height="12">
<path d="M53.3 3.02264H65.5V15H53.3V3.02264Z" fill="white"/>
</mask>
<g mask="url(#mask1_714_416)">
<path fill-rule="evenodd" clip-rule="evenodd" d="M59.436 3.02264C62.7368 3.02264 65.411 5.69764 65.411 8.99764C65.411 12.2976 62.7368 14.9726 59.436 14.9726C56.136 14.9726 53.4618 12.2976 53.4618 8.99764C53.4618 5.69764 56.136 3.02264 59.436 3.02264Z" fill="#FFBB1C"/>
</g>
<path fill-rule="evenodd" clip-rule="evenodd" d="M59.4359 4.65155C61.8367 4.65155 63.782 6.59764 63.782 8.99764C63.782 11.3984 61.8367 13.3437 59.4359 13.3437C57.0359 13.3437 55.0898 11.3984 55.0898 8.99764C55.0898 6.59764 57.0359 4.65155 59.4359 4.65155Z" fill="#F5A30A"/>
<path fill-rule="evenodd" clip-rule="evenodd" d="M60.9641 7.24843C60.9641 7.24843 60.6079 6.75858 59.9008 6.65389V6.01093H59.15V6.69139C59.0985 6.70311 59.0461 6.71718 58.9922 6.7328C57.6821 7.12811 57.968 8.13905 57.9805 8.29843C57.993 8.45702 58.2735 8.87733 58.8711 9.16952C59.4696 9.46249 60.1563 9.69764 60.2071 9.98358C60.2579 10.2695 60.0102 10.6773 59.4883 10.6258C58.9665 10.575 58.3305 10.0914 58.3305 10.0914L57.8157 10.7023C57.8157 10.7023 58.2219 11.2234 59.15 11.3391V11.9844H59.9008V11.3344C60.8602 11.1836 61.0055 10.4547 61.0055 10.4547C61.0055 10.4547 61.2665 9.63358 60.6172 9.16327C59.9688 8.69218 59.0016 8.56483 58.843 8.09452C58.6836 7.62343 59.2055 7.22264 59.6696 7.37577C60.1336 7.52811 60.5157 7.85936 60.5157 7.85936L60.9641 7.24843Z" fill="white"/>
<path fill-rule="evenodd" clip-rule="evenodd" d="M39.3016 13.0195C41.4274 13.0195 43.1516 14.743 43.1516 16.8695C43.1516 18.9961 41.4274 20.7195 39.3016 20.7195C37.175 20.7195 35.4508 18.9961 35.4508 16.8695C35.4508 14.743 37.175 13.0195 39.3016 13.0195Z" fill="#D1D2D4"/>
<path d="M58.6188 62.5289L63.6688 47.4859L71.6094 50.1727L66.5586 65.2156L58.6188 62.5289Z" fill="#4CBF9A"/>
<path d="M64.9289 49.0219C64.8234 49.3344 64.4781 49.5078 64.1664 49.4055L60.1648 61.3234C60.4726 61.4305 60.6437 61.7758 60.5421 62.0867L65.2851 63.6914C65.2867 63.6867 65.2875 63.6805 65.2898 63.6758C65.3953 63.3609 65.7445 63.1875 66.0585 63.293C66.0601 63.2938 66.0617 63.2945 66.0632 63.2953L70.0578 51.3984C70.0554 51.3977 70.0539 51.3977 70.0523 51.3977C69.739 51.2914 69.5656 50.9399 69.671 50.6258C69.6726 50.6203 69.675 50.6156 69.6765 50.6102L64.9335 49.0047C64.932 49.0109 64.9304 49.0156 64.9289 49.0219Z" fill="#457350"/>
<path d="M67.4632 56.35C67.4632 56.5055 67.4484 56.6586 67.4179 56.8102C67.3882 56.9625 67.3437 57.1094 67.2843 57.2524C67.2257 57.3953 67.1531 57.5313 67.0671 57.6602C66.982 57.7891 66.8843 57.9078 66.775 58.0172C66.6664 58.1266 66.5476 58.2242 66.4195 58.3109C66.2914 58.3969 66.1562 58.4695 66.0132 58.5281C65.871 58.5875 65.7242 58.632 65.5726 58.6625C65.4218 58.693 65.2687 58.7078 65.1148 58.7078C64.9609 58.7078 64.8078 58.693 64.6562 58.6625C64.5054 58.632 64.3585 58.5875 64.2164 58.5281C64.0734 58.4695 63.9382 58.3969 63.8101 58.3109C63.682 58.2242 63.5632 58.1266 63.4539 58.0172C63.3453 57.9078 63.2476 57.7891 63.1625 57.6602C63.0765 57.5313 63.0039 57.3953 62.9453 57.2524C62.8859 57.1094 62.8414 56.9625 62.8117 56.8102C62.7812 56.6586 62.7664 56.5055 62.7664 56.35C62.7664 56.1953 62.7812 56.0422 62.8117 55.8906C62.8414 55.7383 62.8859 55.5914 62.9453 55.4484C63.0039 55.3055 63.0765 55.1695 63.1625 55.0406C63.2476 54.9117 63.3453 54.793 63.4539 54.6836C63.5632 54.5742 63.682 54.4758 63.8101 54.3899C63.9382 54.3039 64.0734 54.2313 64.2164 54.1727C64.3585 54.1133 64.5054 54.068 64.6562 54.0383C64.8078 54.0078 64.9609 53.993 65.1148 53.993C65.2687 53.993 65.4218 54.0078 65.5726 54.0383C65.7242 54.068 65.871 54.1133 66.0132 54.1727C66.1562 54.2313 66.2914 54.3039 66.4195 54.3899C66.5476 54.4758 66.6664 54.5742 66.775 54.6836C66.8843 54.793 66.982 54.9117 67.0671 55.0406C67.1531 55.1695 67.2257 55.3055 67.2843 55.4484C67.3437 55.5914 67.3882 55.7383 67.4179 55.8906C67.4484 56.0422 67.4632 56.1953 67.4632 56.35Z" fill="#00BF63"/>
<path d="M66.989 50.768C67.525 50.95 67.8133 51.5336 67.6328 52.0719C67.4515 52.6102 66.8703 52.8992 66.3344 52.718C65.7976 52.5367 65.5101 51.9531 65.6906 51.4149C65.8703 50.8758 66.4523 50.5867 66.989 50.768Z" fill="#00836D"/>
<path d="M64.6289 60.85C64.6289 60.918 64.6226 60.9844 64.6093 61.0508C64.596 61.1172 64.5765 61.1813 64.5507 61.2438C64.525 61.3063 64.4937 61.3656 64.4562 61.4219C64.4187 61.4781 64.3765 61.5297 64.3289 61.5781C64.2812 61.6258 64.2289 61.668 64.1734 61.7055C64.1171 61.743 64.0585 61.775 63.996 61.8008C63.9335 61.8266 63.8695 61.8461 63.8039 61.8594C63.7375 61.8727 63.671 61.8789 63.6039 61.8789C63.5367 61.8789 63.4695 61.8727 63.4039 61.8594C63.3375 61.8461 63.2734 61.8266 63.2117 61.8008C63.1492 61.775 63.0906 61.743 63.0343 61.7055C62.9781 61.668 62.9265 61.6258 62.8789 61.5781C62.8312 61.5297 62.789 61.4781 62.7515 61.4219C62.714 61.3656 62.6828 61.3063 62.657 61.2438C62.6312 61.1813 62.6117 61.1172 62.5984 61.0508C62.5851 60.9844 62.5789 60.918 62.5789 60.85C62.5789 60.7828 62.5851 60.7156 62.5984 60.6492C62.6117 60.5828 62.6312 60.5188 62.657 60.4563C62.6828 60.3938 62.714 60.3344 62.7515 60.2781C62.789 60.2227 62.8312 60.1703 62.8789 60.1227C62.9265 60.075 62.9781 60.032 63.0343 59.9945C63.0906 59.957 63.1492 59.925 63.2117 59.8992C63.2734 59.8734 63.3375 59.8539 63.4039 59.8406C63.4695 59.8281 63.5367 59.8211 63.6039 59.8211C63.671 59.8211 63.7375 59.8281 63.8039 59.8406C63.8695 59.8539 63.9335 59.8734 63.996 59.8992C64.0585 59.925 64.1171 59.957 64.1734 59.9945C64.2289 60.032 64.2812 60.075 64.3289 60.1227C64.3765 60.1703 64.4187 60.2227 64.4562 60.2781C64.4937 60.3344 64.525 60.3938 64.5507 60.4563C64.5765 60.5188 64.596 60.5828 64.6093 60.6492C64.6226 60.7156 64.6289 60.7828 64.6289 60.85Z" fill="#00BF63"/>
<mask id="mask2_714_416" style="mask-type:luminance" maskUnits="userSpaceOnUse" x="60" y="53" width="19" height="16">
<path d="M60.3 53.8H78.1993V68.6485H60.3V53.8Z" fill="white"/>
</mask>
<g mask="url(#mask2_714_416)">
<path d="M60.3063 61.211L74.3086 53.8352L78.2016 61.2844L64.2 68.6602L60.3063 61.211Z" fill="#4CBF9A"/>
</g>
<path d="M74.1641 55.8188C73.8727 55.9719 73.5031 55.8578 73.3477 55.5672L62.2547 61.4109C62.4031 61.7024 62.2891 62.0695 62.0016 62.225L64.3274 66.6742C64.3321 66.6711 64.3367 66.668 64.3422 66.6656C64.6344 66.5117 65.0071 66.6281 65.161 66.9219C65.1617 66.9234 65.1625 66.925 65.1633 66.9266L76.2367 61.0938C76.236 61.0922 76.2344 61.0906 76.2336 61.0891C76.0805 60.7953 76.1961 60.4211 76.4891 60.2672C76.4938 60.2649 76.4992 60.2625 76.5047 60.2602L74.1789 55.8102C74.1735 55.8125 74.1688 55.8164 74.1641 55.8188Z" fill="#457350"/>
<path d="M71.6039 61.2469C71.6039 61.4016 71.5882 61.5555 71.5585 61.707C71.5281 61.8586 71.4835 62.0062 71.425 62.1492C71.3656 62.2922 71.2937 62.4281 71.2078 62.557C71.1226 62.6851 71.025 62.8047 70.9156 62.9141C70.807 63.0234 70.6882 63.1211 70.5601 63.207C70.432 63.293 70.2968 63.3656 70.1539 63.425C70.0117 63.4844 69.8648 63.5289 69.7132 63.5594C69.5625 63.5891 69.4093 63.6047 69.2554 63.6047C69.1015 63.6047 68.9484 63.5891 68.7976 63.5594C68.646 63.5289 68.4992 63.4844 68.357 63.425C68.214 63.3656 68.0789 63.293 67.9507 63.207C67.8226 63.1211 67.7039 63.0234 67.5953 62.9141C67.4859 62.8047 67.3882 62.6851 67.3031 62.557C67.2171 62.4281 67.1453 62.2922 67.0859 62.1492C67.0273 62.0062 66.982 61.8586 66.9523 61.707C66.9218 61.5555 66.907 61.4016 66.907 61.2469C66.907 61.0922 66.9218 60.9391 66.9523 60.7875C66.982 60.6351 67.0265 60.4883 67.0859 60.3445C67.1453 60.2016 67.2171 60.0664 67.3031 59.9375C67.3882 59.8086 67.4859 59.6898 67.5953 59.5805C67.7039 59.4703 67.8226 59.3726 67.9507 59.2867C68.0789 59.2008 68.214 59.1281 68.357 59.0687C68.4992 59.0101 68.646 58.9648 68.7976 58.9351C68.9484 58.9047 69.1015 58.8898 69.2554 58.8898C69.4093 58.8898 69.5625 58.9047 69.7132 58.9351C69.8648 58.9648 70.0117 59.0101 70.1539 59.0687C70.2968 59.1281 70.432 59.2008 70.5601 59.2867C70.6882 59.3726 70.807 59.4703 70.9156 59.5805C71.025 59.6898 71.1226 59.8086 71.2078 59.9375C71.2937 60.0664 71.3656 60.2016 71.425 60.3445C71.4835 60.4883 71.5281 60.6351 71.5585 60.7875C71.5882 60.9391 71.6039 61.0922 71.6039 61.2469Z" fill="#23C9AD"/>
<path d="M74.4515 58.5102C74.714 59.0133 74.5211 59.6352 74.0203 59.8992C73.5187 60.1633 72.8992 59.9695 72.6367 59.4664C72.3734 58.9633 72.5664 58.3414 73.0679 58.0774C73.5687 57.8133 74.1883 58.007 74.4515 58.5102Z" fill="#00836D"/>
<path d="M66.0915 63.4531C66.0915 63.5211 66.0852 63.5883 66.0719 63.6539C66.0586 63.7203 66.0399 63.7844 66.0141 63.8469C65.9883 63.9094 65.9563 63.9687 65.9188 64.025C65.8821 64.0812 65.8391 64.1328 65.7915 64.1812C65.7438 64.2289 65.6922 64.2711 65.636 64.3086C65.5805 64.3461 65.5211 64.3781 65.4594 64.4039C65.3969 64.4297 65.3329 64.4492 65.2672 64.4625C65.2008 64.4758 65.1344 64.482 65.0672 64.482C64.9993 64.482 64.9329 64.4758 64.8672 64.4625C64.8008 64.4492 64.7368 64.4297 64.675 64.4039C64.6125 64.3781 64.5532 64.3461 64.4977 64.3086C64.4415 64.2711 64.3899 64.2289 64.3422 64.1812C64.2946 64.1328 64.2524 64.0812 64.2149 64.025C64.1774 63.9687 64.1461 63.9094 64.1204 63.8469C64.0946 63.7844 64.075 63.7203 64.0618 63.6539C64.0485 63.5883 64.0422 63.5211 64.0422 63.4531C64.0422 63.3859 64.0485 63.3187 64.0618 63.2523C64.075 63.1867 64.0946 63.1219 64.1204 63.0594C64.1461 62.9976 64.1774 62.9383 64.2149 62.882C64.2524 62.8258 64.2946 62.7734 64.3422 62.7258C64.3899 62.6781 64.4415 62.6351 64.4977 62.5976C64.5532 62.5601 64.6125 62.5289 64.675 62.5031C64.7368 62.4773 64.8008 62.4578 64.8672 62.4445C64.9329 62.4312 64.9993 62.425 65.0672 62.425C65.1344 62.425 65.2008 62.4312 65.2672 62.4445C65.3329 62.4578 65.3969 62.4773 65.4594 62.5031C65.5211 62.5289 65.5805 62.5601 65.636 62.5976C65.6922 62.6351 65.7438 62.6781 65.7915 62.7258C65.8391 62.7734 65.8821 62.8258 65.9188 62.882C65.9563 62.9383 65.9883 62.9976 66.0141 63.0594C66.0399 63.1219 66.0586 63.1867 66.0719 63.2523C66.0852 63.3187 66.0915 63.3859 66.0915 63.4531Z" fill="#00836D"/>
<mask id="mask3_714_416" style="mask-type:luminance" maskUnits="userSpaceOnUse" x="35" y="35" width="12" height="5">
<path d="M35.4492 35.8H46.9V39.8H35.4492V35.8Z" fill="white"/>
</mask>
<g mask="url(#mask3_714_416)">
<path d="M46.7225 35.8056H38.0537C36.6373 35.8056 35.4873 37.5517 35.4459 39.7298H46.7225V35.8056Z" fill="#737373"/>
</g>
<path d="M62.5562 60.861L62.5547 59.9899V43.4414C62.4992 39.3492 60.6242 36.1609 57.8679 35.818L45.0687 35.8055H37.9281V35.8234C39.7859 36.0852 41.2594 39.3766 41.3148 43.4414L41.3164 44.3078V60.861C41.3726 64.9531 43.2476 68.1422 46.0039 68.4844L58.8031 68.4977H65.9437V68.4789C64.0859 68.2172 62.6125 64.9266 62.5562 60.861Z" fill="#D9D9D9"/>
<path d="M46.8899 40.7172H59.2844V41.8008H46.8899V40.7172Z" fill="#737373"/>
<path d="M45.1227 45.0039H51.7969V46.0875H45.1227V45.0039Z" fill="#737373"/>
<path d="M53.0875 45.0039H59.761V46.0875H53.0875V45.0039Z" fill="#737373"/>
<path d="M45.1227 46.8758H51.7969V47.9594H45.1227V46.8758Z" fill="#737373"/>
<path d="M53.0875 46.8758H59.761V47.9594H53.0875V46.8758Z" fill="#737373"/>
<path d="M45.1227 48.7484H51.7969V49.8313H45.1227V48.7484Z" fill="#737373"/>
<path d="M53.0875 48.7484H59.761V49.8313H53.0875V48.7484Z" fill="#737373"/>
<path d="M45.1227 50.6195H51.7969V51.7031H45.1227V50.6195Z" fill="#737373"/>
<path d="M45.1227 52.4422H56.8516V53.5258H45.1227V52.4422Z" fill="#737373"/>
<path d="M53.0875 50.6195H59.761V51.7031H53.0875V50.6195Z" fill="#737373"/>
<path d="M53.0875 55.9891H59.761V57.0719H53.0875V55.9891Z" fill="#737373"/>
<mask id="mask4_714_416" style="mask-type:luminance" maskUnits="userSpaceOnUse" x="52" y="2" width="14" height="14">
<path d="M52.975 2.72266H65.575V15.3227H52.975V2.72266Z" fill="white"/>
</mask>
<g mask="url(#mask4_714_416)">
<path d="M65.5755 9.02249C65.5755 9.22874 65.5653 9.43499 65.545 9.64046C65.5255 9.84593 65.495 10.0498 65.4544 10.2522C65.4146 10.4545 65.3646 10.6545 65.3044 10.8514C65.2442 11.0491 65.1747 11.2436 65.0958 11.4342C65.0169 11.6248 64.9286 11.8108 64.8317 11.9928C64.7341 12.1748 64.6286 12.3522 64.5138 12.5233C64.3989 12.6951 64.2763 12.8608 64.145 13.0201C64.0146 13.1795 63.8763 13.3326 63.7302 13.478C63.5841 13.6241 63.4317 13.7623 63.2716 13.8936C63.1122 14.0248 62.9466 14.1475 62.7755 14.2616C62.6036 14.3764 62.4271 14.4826 62.245 14.5795C62.063 14.6772 61.8763 14.7655 61.6856 14.8444C61.495 14.9233 61.3013 14.9928 61.1036 15.0522C60.906 15.1123 60.706 15.1623 60.5036 15.203C60.3013 15.2428 60.0974 15.2733 59.8919 15.2936C59.6864 15.3139 59.481 15.3241 59.2747 15.3241C59.0685 15.3241 58.8622 15.3139 58.6567 15.2936C58.4513 15.2733 58.2474 15.2428 58.045 15.203C57.8427 15.1623 57.6427 15.1123 57.445 15.0522C57.2481 14.9928 57.0536 14.9233 56.863 14.8444C56.6724 14.7655 56.4864 14.6772 56.3044 14.5795C56.1224 14.4826 55.945 14.3764 55.7739 14.2616C55.6021 14.1475 55.4364 14.0248 55.2771 13.8936C55.1177 13.7623 54.9646 13.6241 54.8185 13.478C54.6731 13.3326 54.5349 13.1795 54.4036 13.0201C54.2724 12.8608 54.1497 12.6951 54.0349 12.5233C53.9208 12.3522 53.8146 12.1748 53.7177 11.9928C53.62 11.8108 53.5317 11.6248 53.4528 11.4342C53.3739 11.2436 53.3044 11.0491 53.2442 10.8514C53.1849 10.6545 53.1349 10.4545 53.0942 10.2522C53.0544 10.0498 53.0239 9.84593 53.0036 9.64046C52.9833 9.43499 52.9731 9.22874 52.9731 9.02249C52.9731 8.81624 52.9833 8.60999 53.0036 8.4053C53.0239 8.19984 53.0544 7.99593 53.0942 7.79359C53.1349 7.59124 53.1849 7.39124 53.2442 7.19359C53.3044 6.99593 53.3739 6.80218 53.4528 6.61155C53.5317 6.42093 53.62 6.23421 53.7177 6.05218C53.8146 5.87015 53.9208 5.69359 54.0349 5.52171C54.1497 5.35062 54.2724 5.18499 54.4036 5.02484C54.5349 4.86546 54.6731 4.71312 54.8185 4.56702C54.9646 4.42093 55.1177 4.28265 55.2771 4.1514C55.4364 4.02093 55.6021 3.89827 55.7739 3.78343C55.945 3.66859 56.1224 3.56234 56.3044 3.46546C56.4864 3.3678 56.6724 3.2803 56.863 3.2014C57.0536 3.12171 57.2481 3.05296 57.445 2.9928C57.6427 2.93265 57.8427 2.88265 58.045 2.8428C58.2474 2.80218 58.4513 2.77171 58.6567 2.7514C58.8622 2.73187 59.0685 2.72171 59.2747 2.72171C59.481 2.72171 59.6864 2.73187 59.8919 2.7514C60.0974 2.77171 60.3013 2.80218 60.5036 2.8428C60.706 2.88265 60.906 2.93265 61.1036 2.9928C61.3013 3.05296 61.495 3.12171 61.6856 3.2014C61.8763 3.2803 62.063 3.3678 62.245 3.46546C62.4271 3.56234 62.6036 3.66859 62.7755 3.78343C62.9466 3.89827 63.1122 4.02093 63.2716 4.1514C63.4317 4.28265 63.5841 4.42093 63.7302 4.56702C63.8763 4.71312 64.0146 4.86546 64.145 5.02484C64.2763 5.18499 64.3989 5.35062 64.5138 5.52171C64.6286 5.69359 64.7341 5.87015 64.8317 6.05218C64.9286 6.23421 65.0169 6.42093 65.0958 6.61155C65.1747 6.80218 65.2442 6.99593 65.3044 7.19359C65.3646 7.39124 65.4146 7.59124 65.4544 7.79359C65.495 7.99593 65.5255 8.19984 65.545 8.4053C65.5653 8.60999 65.5755 8.81624 65.5755 9.02249Z" fill="#54C0D3"/>
<path d="M65.5755 9.02249C65.5755 9.22874 65.5653 9.43499 65.545 9.64046C65.5255 9.84593 65.495 10.0498 65.4544 10.2522C65.4146 10.4545 65.3646 10.6545 65.3044 10.8514C65.2442 11.0491 65.1747 11.2436 65.0958 11.4342C65.0169 11.6248 64.9286 11.8108 64.8317 11.9928C64.7341 12.1748 64.6286 12.3522 64.5138 12.5233C64.3989 12.6951 64.2763 12.8608 64.145 13.0201C64.0146 13.1795 63.8763 13.3326 63.7302 13.478C63.5841 13.6241 63.4317 13.7623 63.2716 13.8936C63.1122 14.0248 62.9466 14.1475 62.7755 14.2616C62.6036 14.3764 62.4271 14.4826 62.245 14.5795C62.063 14.6772 61.8763 14.7655 61.6856 14.8444C61.495 14.9233 61.3013 14.9928 61.1036 15.0522C60.906 15.1123 60.706 15.1623 60.5036 15.203C60.3013 15.2428 60.0974 15.2733 59.8919 15.2936C59.6864 15.3139 59.481 15.3241 59.2747 15.3241C59.0685 15.3241 58.8622 15.3139 58.6567 15.2936C58.4513 15.2733 58.2474 15.2428 58.045 15.203C57.8427 15.1623 57.6427 15.1123 57.445 15.0522C57.2481 14.9928 57.0536 14.9233 56.863 14.8444C56.6724 14.7655 56.4864 14.6772 56.3044 14.5795C56.1224 14.4826 55.945 14.3764 55.7739 14.2616C55.6021 14.1475 55.4364 14.0248 55.2771 13.8936C55.1177 13.7623 54.9646 13.6241 54.8185 13.478C54.6731 13.3326 54.5349 13.1795 54.4036 13.0201C54.2724 12.8608 54.1497 12.6951 54.0349 12.5233C53.9208 12.3522 53.8146 12.1748 53.7177 11.9928C53.62 11.8108 53.5317 11.6248 53.4528 11.4342C53.3739 11.2436 53.3044 11.0491 53.2442 10.8514C53.1849 10.6545 53.1349 10.4545 53.0942 10.2522C53.0544 10.0498 53.0239 9.84593 53.0036 9.64046C52.9833 9.43499 52.9731 9.22874 52.9731 9.02249C52.9731 8.81624 52.9833 8.60999 53.0036 8.4053C53.0239 8.19984 53.0544 7.99593 53.0942 7.79359C53.1349 7.59124 53.1849 7.39124 53.2442 7.19359C53.3044 6.99593 53.3739 6.80218 53.4528 6.61155C53.5317 6.42093 53.62 6.23421 53.7177 6.05218C53.8146 5.87015 53.9208 5.69359 54.0349 5.52171C54.1497 5.35062 54.2724 5.18499 54.4036 5.02484C54.5349 4.86546 54.6731 4.71312 54.8185 4.56702C54.9646 4.42093 55.1177 4.28265 55.2771 4.1514C55.4364 4.02093 55.6021 3.89827 55.7739 3.78343C55.945 3.66859 56.1224 3.56234 56.3044 3.46546C56.4864 3.3678 56.6724 3.2803 56.863 3.2014C57.0536 3.12171 57.2481 3.05296 57.445 2.9928C57.6427 2.93265 57.8427 2.88265 58.045 2.8428C58.2474 2.80218 58.4513 2.77171 58.6567 2.7514C58.8622 2.73187 59.0685 2.72171 59.2747 2.72171C59.481 2.72171 59.6864 2.73187 59.8919 2.7514C60.0974 2.77171 60.3013 2.80218 60.5036 2.8428C60.706 2.88265 60.906 2.93265 61.1036 2.9928C61.3013 3.05296 61.495 3.12171 61.6856 3.2014C61.8763 3.2803 62.063 3.3678 62.245 3.46546C62.4271 3.56234 62.6036 3.66859 62.7755 3.78343C62.9466 3.89827 63.1122 4.02093 63.2716 4.1514C63.4317 4.28265 63.5841 4.42093 63.7302 4.56702C63.8763 4.71312 64.0146 4.86546 64.145 5.02484C64.2763 5.18499 64.3989 5.35062 64.5138 5.52171C64.6286 5.69359 64.7341 5.87015 64.8317 6.05218C64.9286 6.23421 65.0169 6.42093 65.0958 6.61155C65.1747 6.80218 65.2442 6.99593 65.3044 7.19359C65.3646 7.39124 65.4146 7.59124 65.4544 7.79359C65.495 7.99593 65.5255 8.19984 65.545 8.4053C65.5653 8.60999 65.5755 8.81624 65.5755 9.02249Z" fill="#54C0D3"/>
</g>
<mask id="mask5_714_416" style="mask-type:luminance" maskUnits="userSpaceOnUse" x="55" y="9" width="5" height="3">
<path d="M55.5 9.79999H59.9V11.2H55.5V9.79999Z" fill="white"/>
</mask>
<g mask="url(#mask5_714_416)">
<mask id="mask6_714_416" style="mask-type:luminance" maskUnits="userSpaceOnUse" x="52" y="2" width="14" height="14">
<path d="M52.9734 9.02264C52.9734 8.60936 53.014 8.19921 53.0945 7.79374C53.175 7.38749 53.2945 6.99374 53.4531 6.61171C53.6117 6.22889 53.8054 5.86561 54.0351 5.52186C54.2656 5.17811 54.5265 4.85936 54.8187 4.56718C55.1117 4.27421 55.4296 4.01327 55.7742 3.78358C56.1179 3.55389 56.4812 3.35936 56.8632 3.20155C57.2453 3.04296 57.6398 2.92343 58.0453 2.84296C58.4515 2.76171 58.8609 2.72186 59.275 2.72186C59.6882 2.72186 60.0984 2.76171 60.5039 2.84296C60.9101 2.92343 61.3039 3.04296 61.6859 3.20155C62.0687 3.35936 62.4312 3.55389 62.7757 3.78358C63.1195 4.01327 63.4375 4.27421 63.7304 4.56718C64.0226 4.85936 64.2843 5.17811 64.514 5.52186C64.7437 5.86561 64.9382 6.22889 65.096 6.61171C65.2546 6.99374 65.3742 7.38749 65.4546 7.79374C65.5359 8.19921 65.5757 8.60936 65.5757 9.02264C65.5757 9.43671 65.5359 9.84608 65.4546 10.2523C65.3742 10.6578 65.2546 11.0515 65.096 11.4344C64.9382 11.8164 64.7437 12.1797 64.514 12.5234C64.2843 12.8672 64.0226 13.1859 63.7304 13.4781C63.4375 13.7711 63.1195 14.032 62.7757 14.2617C62.4312 14.4922 62.0687 14.6859 61.6859 14.8445C61.3039 15.0023 60.9101 15.1219 60.5039 15.2031C60.0984 15.2836 59.6882 15.3242 59.275 15.3242C58.8609 15.3242 58.4515 15.2836 58.0453 15.2031C57.6398 15.1219 57.2453 15.0023 56.8632 14.8445C56.4812 14.6859 56.1179 14.4922 55.7742 14.2617C55.4296 14.032 55.1117 13.7711 54.8187 13.4781C54.5265 13.1859 54.2656 12.8672 54.0351 12.5234C53.8054 12.1797 53.6117 11.8164 53.4531 11.4344C53.2945 11.0515 53.175 10.6578 53.0945 10.2523C53.014 9.84608 52.9734 9.43671 52.9734 9.02264Z" fill="white"/>
</mask>
<g mask="url(#mask6_714_416)">
<path d="M59.8054 10.018C59.8054 10.018 59.7562 9.80545 58.4929 10.1492C58.4929 10.1492 58.0054 10.1726 57.2983 10.4523C57.2983 10.4523 56.6937 10.3133 56.403 10.1953C56.1194 10.5203 55.8952 10.7883 55.6663 11.1539C55.628 11.2148 55.6507 11.1414 55.6421 11.157C55.9772 11.1601 56.8866 11.3195 58.603 10.5883C58.603 10.5883 59.2593 10.357 59.5187 10.3586C59.5187 10.3586 59.9452 10.3328 59.8054 10.018Z" fill="#D2998B"/>
</g>
</g>
<mask id="mask7_714_416" style="mask-type:luminance" maskUnits="userSpaceOnUse" x="55" y="10" width="6" height="2">
<path d="M55.7 10.2H60.1V11.4H55.7V10.2Z" fill="white"/>
</mask>
<g mask="url(#mask7_714_416)">
<mask id="mask8_714_416" style="mask-type:luminance" maskUnits="userSpaceOnUse" x="52" y="2" width="14" height="14">
<path d="M52.9734 9.02267C52.9734 8.60939 53.014 8.19924 53.0945 7.79377C53.175 7.38752 53.2945 6.99377 53.4531 6.61174C53.6117 6.22892 53.8054 5.86564 54.0351 5.52189C54.2656 5.17814 54.5265 4.85939 54.8187 4.56721C55.1117 4.27424 55.4296 4.0133 55.7742 3.78361C56.1179 3.55392 56.4812 3.35939 56.8632 3.20158C57.2453 3.04299 57.6398 2.92346 58.0453 2.84299C58.4515 2.76174 58.8609 2.72189 59.275 2.72189C59.6882 2.72189 60.0984 2.76174 60.5039 2.84299C60.9101 2.92346 61.3039 3.04299 61.6859 3.20158C62.0687 3.35939 62.4312 3.55392 62.7757 3.78361C63.1195 4.0133 63.4375 4.27424 63.7304 4.56721C64.0226 4.85939 64.2843 5.17814 64.514 5.52189C64.7437 5.86564 64.9382 6.22892 65.096 6.61174C65.2546 6.99377 65.3742 7.38752 65.4546 7.79377C65.5359 8.19924 65.5757 8.60939 65.5757 9.02267C65.5757 9.43674 65.5359 9.84611 65.4546 10.2524C65.3742 10.6578 65.2546 11.0516 65.096 11.4344C64.9382 11.8164 64.7437 12.1797 64.514 12.5235C64.2843 12.8672 64.0226 13.186 63.7304 13.4781C63.4375 13.7711 63.1195 14.032 62.7757 14.2617C62.4312 14.4922 62.0687 14.686 61.6859 14.8446C61.3039 15.0024 60.9101 15.1219 60.5039 15.2031C60.0984 15.2836 59.6882 15.3242 59.275 15.3242C58.8609 15.3242 58.4515 15.2836 58.0453 15.2031C57.6398 15.1219 57.2453 15.0024 56.8632 14.8446C56.4812 14.686 56.1179 14.4922 55.7742 14.2617C55.4296 14.032 55.1117 13.7711 54.8187 13.4781C54.5265 13.186 54.2656 12.8672 54.0351 12.5235C53.8054 12.1797 53.6117 11.8164 53.4531 11.4344C53.2945 11.0516 53.175 10.6578 53.0945 10.2524C53.014 9.84611 52.9734 9.43674 52.9734 9.02267Z" fill="white"/>
</mask>
<g mask="url(#mask8_714_416)">
<path d="M60.0069 10.4102C60.0069 10.4102 59.9624 10.1664 58.6749 10.4078C58.6749 10.4078 58.1874 10.3914 57.4601 10.6141C57.4601 10.6141 56.8804 10.4555 56.6007 10.3149C56.2921 10.6164 56.0468 10.8649 55.789 11.211C55.7468 11.2688 55.7749 11.1969 55.7655 11.2125C56.0991 11.2422 56.9929 11.4735 58.7624 10.8828C58.7624 10.8828 59.4351 10.7039 59.6937 10.7274C59.6937 10.7274 60.121 10.7344 60.0069 10.4102Z" fill="#E4A697"/>
</g>
</g>
<mask id="mask9_714_416" style="mask-type:luminance" maskUnits="userSpaceOnUse" x="53" y="8" width="8" height="4">
<path d="M53.1 8.20001H60.1V11.4H53.1V8.20001Z" fill="white"/>
</mask>
<g mask="url(#mask9_714_416)">
<mask id="mask10_714_416" style="mask-type:luminance" maskUnits="userSpaceOnUse" x="52" y="2" width="14" height="14">
<path d="M52.9734 9.02267C52.9734 8.60939 53.014 8.19924 53.0945 7.79377C53.175 7.38752 53.2945 6.99377 53.4531 6.61174C53.6117 6.22892 53.8054 5.86564 54.0351 5.52189C54.2656 5.17814 54.5265 4.85939 54.8187 4.56721C55.1117 4.27424 55.4296 4.0133 55.7742 3.78361C56.1179 3.55392 56.4812 3.35939 56.8632 3.20158C57.2453 3.04299 57.6398 2.92346 58.0453 2.84299C58.4515 2.76174 58.8609 2.72189 59.275 2.72189C59.6882 2.72189 60.0984 2.76174 60.5039 2.84299C60.9101 2.92346 61.3039 3.04299 61.6859 3.20158C62.0687 3.35939 62.4312 3.55392 62.7757 3.78361C63.1195 4.0133 63.4375 4.27424 63.7304 4.56721C64.0226 4.85939 64.2843 5.17814 64.514 5.52189C64.7437 5.86564 64.9382 6.22892 65.096 6.61174C65.2546 6.99377 65.3742 7.38752 65.4546 7.79377C65.5359 8.19924 65.5757 8.60939 65.5757 9.02267C65.5757 9.43674 65.5359 9.84611 65.4546 10.2524C65.3742 10.6578 65.2546 11.0516 65.096 11.4344C64.9382 11.8164 64.7437 12.1797 64.514 12.5235C64.2843 12.8672 64.0226 13.186 63.7304 13.4781C63.4375 13.7711 63.1195 14.032 62.7757 14.2617C62.4312 14.4922 62.0687 14.686 61.6859 14.8446C61.3039 15.0024 60.9101 15.1219 60.5039 15.2031C60.0984 15.2836 59.6882 15.3242 59.275 15.3242C58.8609 15.3242 58.4515 15.2836 58.0453 15.2031C57.6398 15.1219 57.2453 15.0024 56.8632 14.8446C56.4812 14.686 56.1179 14.4922 55.7742 14.2617C55.4296 14.032 55.1117 13.7711 54.8187 13.4781C54.5265 13.186 54.2656 12.8672 54.0351 12.5235C53.8054 12.1797 53.6117 11.8164 53.4531 11.4344C53.2945 11.0516 53.175 10.6578 53.0945 10.2524C53.014 9.84611 52.9734 9.43674 52.9734 9.02267Z" fill="white"/>
</mask>
<g mask="url(#mask10_714_416)">
<path d="M53.1538 11.2625C53.1538 11.2625 54.5288 11.0594 55.3897 11.1438C55.3897 11.1438 56.3929 11.4953 58.678 11.075C58.678 11.075 59.3687 10.9922 59.6218 11.0516C59.6218 11.0516 60.0444 11.1188 59.9765 10.7813C59.9765 10.7813 59.9515 10.4492 58.6437 10.5086C58.6437 10.5086 58.1624 10.4242 57.4116 10.5422C57.4116 10.5422 56.546 10.2156 56.521 9.96252C56.521 9.96252 56.9187 9.42111 57.0569 9.08517C57.0569 9.08517 57.4233 8.51095 57.1874 8.3172C57.1874 8.3172 56.9804 8.05158 56.7741 8.60392C56.7741 8.60392 56.571 8.93283 56.053 9.21798C56.053 9.21798 55.6093 9.40548 55.1194 9.78517C55.1194 9.78517 53.4741 9.9797 53.1538 9.86173V11.2625Z" fill="#F6B2A2"/>
</g>
</g>
<mask id="mask11_714_416" style="mask-type:luminance" maskUnits="userSpaceOnUse" x="53" y="9" width="3" height="3">
<path d="M53.3 9.39999H55.1V11.6H53.3V9.39999Z" fill="white"/>
</mask>
<g mask="url(#mask11_714_416)">
<mask id="mask12_714_416" style="mask-type:luminance" maskUnits="userSpaceOnUse" x="52" y="2" width="14" height="14">
<path d="M52.9735 9.02264C52.9735 8.60936 53.0141 8.19921 53.0946 7.79374C53.1751 7.38749 53.2946 6.99374 53.4532 6.61171C53.6118 6.22889 53.8055 5.86561 54.0352 5.52186C54.2657 5.17811 54.5266 4.85936 54.8188 4.56718C55.1118 4.27421 55.4298 4.01327 55.7743 3.78358C56.118 3.55389 56.4813 3.35936 56.8634 3.20155C57.2454 3.04296 57.6399 2.92343 58.0454 2.84296C58.4516 2.76171 58.861 2.72186 59.2751 2.72186C59.6884 2.72186 60.0985 2.76171 60.504 2.84296C60.9102 2.92343 61.304 3.04296 61.686 3.20155C62.0688 3.35936 62.4313 3.55389 62.7759 3.78358C63.1196 4.01327 63.4376 4.27421 63.7305 4.56718C64.0227 4.85936 64.2844 5.17811 64.5141 5.52186C64.7438 5.86561 64.9384 6.22889 65.0962 6.61171C65.2548 6.99374 65.3743 7.38749 65.4548 7.79374C65.536 8.19921 65.5759 8.60936 65.5759 9.02264C65.5759 9.43671 65.536 9.84608 65.4548 10.2523C65.3743 10.6578 65.2548 11.0515 65.0962 11.4344C64.9384 11.8164 64.7438 12.1797 64.5141 12.5234C64.2844 12.8672 64.0227 13.1859 63.7305 13.4781C63.4376 13.7711 63.1196 14.032 62.7759 14.2617C62.4313 14.4922 62.0688 14.6859 61.686 14.8445C61.304 15.0023 60.9102 15.1219 60.504 15.2031C60.0985 15.2836 59.6884 15.3242 59.2751 15.3242C58.861 15.3242 58.4516 15.2836 58.0454 15.2031C57.6399 15.1219 57.2454 15.0023 56.8634 14.8445C56.4813 14.6859 56.118 14.4922 55.7743 14.2617C55.4298 14.032 55.1118 13.7711 54.8188 13.4781C54.5266 13.1859 54.2657 12.8672 54.0352 12.5234C53.8055 12.1797 53.6118 11.8164 53.4532 11.4344C53.2946 11.0515 53.1751 10.6578 53.0946 10.2523C53.0141 9.84608 52.9735 9.43671 52.9735 9.02264Z" fill="white"/>
</mask>
<g mask="url(#mask12_714_416)">
<path d="M53.3712 9.41248H54.9072V11.4211H53.3712V9.41248Z" fill="white"/>
</g>
</g>
<mask id="mask13_714_416" style="mask-type:luminance" maskUnits="userSpaceOnUse" x="52" y="9" width="3" height="3">
<path d="M52.975 9H54.7V11.8H52.975V9Z" fill="white"/>
</mask>
<g mask="url(#mask13_714_416)">
<mask id="mask14_714_416" style="mask-type:luminance" maskUnits="userSpaceOnUse" x="52" y="2" width="14" height="14">
<path d="M52.9734 9.02264C52.9734 8.60936 53.014 8.19921 53.0945 7.79374C53.175 7.38749 53.2945 6.99374 53.4531 6.61171C53.6117 6.22889 53.8054 5.86561 54.0351 5.52186C54.2656 5.17811 54.5265 4.85936 54.8187 4.56718C55.1117 4.27421 55.4296 4.01327 55.7742 3.78358C56.1179 3.55389 56.4812 3.35936 56.8632 3.20155C57.2453 3.04296 57.6398 2.92343 58.0453 2.84296C58.4515 2.76171 58.8609 2.72186 59.275 2.72186C59.6882 2.72186 60.0984 2.76171 60.5039 2.84296C60.9101 2.92343 61.3039 3.04296 61.6859 3.20155C62.0687 3.35936 62.4312 3.55389 62.7757 3.78358C63.1195 4.01327 63.4375 4.27421 63.7304 4.56718C64.0226 4.85936 64.2843 5.17811 64.514 5.52186C64.7437 5.86561 64.9382 6.22889 65.096 6.61171C65.2546 6.99374 65.3742 7.38749 65.4546 7.79374C65.5359 8.19921 65.5757 8.60936 65.5757 9.02264C65.5757 9.43671 65.5359 9.84608 65.4546 10.2523C65.3742 10.6578 65.2546 11.0515 65.096 11.4344C64.9382 11.8164 64.7437 12.1797 64.514 12.5234C64.2843 12.8672 64.0226 13.1859 63.7304 13.4781C63.4375 13.7711 63.1195 14.032 62.7757 14.2617C62.4312 14.4922 62.0687 14.6859 61.6859 14.8445C61.3039 15.0023 60.9101 15.1219 60.5039 15.2031C60.0984 15.2836 59.6882 15.3242 59.275 15.3242C58.8609 15.3242 58.4515 15.2836 58.0453 15.2031C57.6398 15.1219 57.2453 15.0023 56.8632 14.8445C56.4812 14.6859 56.1179 14.4922 55.7742 14.2617C55.4296 14.032 55.1117 13.7711 54.8187 13.4781C54.5265 13.1859 54.2656 12.8672 54.0351 12.5234C53.8054 12.1797 53.6117 11.8164 53.4531 11.4344C53.2945 11.0515 53.175 10.6578 53.0945 10.2523C53.014 9.84608 52.9734 9.43671 52.9734 9.02264Z" fill="white"/>
</mask>
<g mask="url(#mask14_714_416)">
<path d="M52.9663 9.19296H54.5022V11.6578H52.9663V9.19296Z" fill="#364B9B"/>
</g>
</g>
<mask id="mask15_714_416" style="mask-type:luminance" maskUnits="userSpaceOnUse" x="58" y="6" width="6" height="3">
<path d="M58.9 6.79999H63.3V8.19999H58.9V6.79999Z" fill="white"/>
</mask>
<g mask="url(#mask15_714_416)">
<mask id="mask16_714_416" style="mask-type:luminance" maskUnits="userSpaceOnUse" x="52" y="2" width="14" height="14">
<path d="M52.9735 9.02264C52.9735 8.60936 53.0141 8.19921 53.0946 7.79374C53.1751 7.38749 53.2946 6.99374 53.4532 6.61171C53.6118 6.22889 53.8055 5.86561 54.0352 5.52186C54.2657 5.17811 54.5266 4.85936 54.8188 4.56718C55.1118 4.27421 55.4298 4.01327 55.7743 3.78358C56.118 3.55389 56.4813 3.35936 56.8634 3.20155C57.2454 3.04296 57.6399 2.92343 58.0454 2.84296C58.4516 2.76171 58.861 2.72186 59.2751 2.72186C59.6884 2.72186 60.0985 2.76171 60.504 2.84296C60.9102 2.92343 61.304 3.04296 61.686 3.20155C62.0688 3.35936 62.4313 3.55389 62.7759 3.78358C63.1196 4.01327 63.4376 4.27421 63.7305 4.56718C64.0227 4.85936 64.2844 5.17811 64.5141 5.52186C64.7438 5.86561 64.9384 6.22889 65.0962 6.61171C65.2548 6.99374 65.3743 7.38749 65.4548 7.79374C65.536 8.19921 65.5759 8.60936 65.5759 9.02264C65.5759 9.43671 65.536 9.84608 65.4548 10.2523C65.3743 10.6578 65.2548 11.0515 65.0962 11.4344C64.9384 11.8164 64.7438 12.1797 64.5141 12.5234C64.2844 12.8672 64.0227 13.1859 63.7305 13.4781C63.4376 13.7711 63.1196 14.032 62.7759 14.2617C62.4313 14.4922 62.0688 14.6859 61.686 14.8445C61.304 15.0023 60.9102 15.1219 60.504 15.2031C60.0985 15.2836 59.6884 15.3242 59.2751 15.3242C58.861 15.3242 58.4516 15.2836 58.0454 15.2031C57.6399 15.1219 57.2454 15.0023 56.8634 14.8445C56.4813 14.6859 56.118 14.4922 55.7743 14.2617C55.4298 14.032 55.1118 13.7711 54.8188 13.4781C54.5266 13.1859 54.2657 12.8672 54.0352 12.5234C53.8055 12.1797 53.6118 11.8164 53.4532 11.4344C53.2946 11.0515 53.1751 10.6578 53.0946 10.2523C53.0141 9.84608 52.9735 9.43671 52.9735 9.02264Z" fill="white"/>
</mask>
<g mask="url(#mask16_714_416)">
<path d="M59.1094 8.08514C59.1094 8.08514 59.1625 8.29061 60.3829 7.92577C60.3829 7.92577 60.8563 7.89139 61.5375 7.60233C61.5375 7.60233 62.129 7.72342 62.4141 7.83046C62.6821 7.5078 62.8938 7.24217 63.1079 6.88124C63.1438 6.82108 63.1227 6.89296 63.1313 6.87733C62.8047 6.88202 61.9165 6.74921 60.2649 7.50155C60.2649 7.50155 59.6329 7.74217 59.3797 7.74608C59.3797 7.74608 58.9657 7.78202 59.1094 8.08514Z" fill="#D2998B"/>
</g>
</g>
<mask id="mask17_714_416" style="mask-type:luminance" maskUnits="userSpaceOnUse" x="58" y="6" width="5" height="2">
<path d="M58.9 6.60001H62.9V8.00001H58.9V6.60001Z" fill="white"/>
</mask>
<g mask="url(#mask17_714_416)">
<mask id="mask18_714_416" style="mask-type:luminance" maskUnits="userSpaceOnUse" x="52" y="2" width="14" height="14">
<path d="M52.9735 9.02267C52.9735 8.60939 53.0141 8.19924 53.0946 7.79377C53.1751 7.38752 53.2946 6.99377 53.4532 6.61174C53.6118 6.22892 53.8055 5.86564 54.0352 5.52189C54.2657 5.17814 54.5266 4.85939 54.8188 4.56721C55.1118 4.27424 55.4298 4.0133 55.7743 3.78361C56.118 3.55392 56.4813 3.35939 56.8634 3.20158C57.2454 3.04299 57.6399 2.92346 58.0454 2.84299C58.4516 2.76174 58.861 2.72189 59.2751 2.72189C59.6884 2.72189 60.0985 2.76174 60.504 2.84299C60.9102 2.92346 61.304 3.04299 61.686 3.20158C62.0688 3.35939 62.4313 3.55392 62.7759 3.78361C63.1196 4.0133 63.4376 4.27424 63.7305 4.56721C64.0227 4.85939 64.2844 5.17814 64.5141 5.52189C64.7438 5.86564 64.9384 6.22892 65.0962 6.61174C65.2548 6.99377 65.3743 7.38752 65.4548 7.79377C65.536 8.19924 65.5759 8.60939 65.5759 9.02267C65.5759 9.43674 65.536 9.84611 65.4548 10.2524C65.3743 10.6578 65.2548 11.0516 65.0962 11.4344C64.9384 11.8164 64.7438 12.1797 64.5141 12.5235C64.2844 12.8672 64.0227 13.186 63.7305 13.4781C63.4376 13.7711 63.1196 14.032 62.7759 14.2617C62.4313 14.4922 62.0688 14.686 61.686 14.8446C61.304 15.0024 60.9102 15.1219 60.504 15.2031C60.0985 15.2836 59.6884 15.3242 59.2751 15.3242C58.861 15.3242 58.4516 15.2836 58.0454 15.2031C57.6399 15.1219 57.2454 15.0024 56.8634 14.8446C56.4813 14.686 56.118 14.4922 55.7743 14.2617C55.4298 14.032 55.1118 13.7711 54.8188 13.4781C54.5266 13.186 54.2657 12.8672 54.0352 12.5235C53.8055 12.1797 53.6118 11.8164 53.4532 11.4344C53.2946 11.0516 53.1751 10.6578 53.0946 10.2524C53.0141 9.84611 52.9735 9.43674 52.9735 9.02267Z" fill="white"/>
</mask>
<g mask="url(#mask18_714_416)">
<path d="M58.9571 7.95079C58.9571 7.95079 59.1782 8.06876 60.1103 7.55158C60.1103 7.55158 60.5853 7.53204 61.2743 7.26408C61.2743 7.26408 61.8478 7.37579 62.129 7.4922C62.4071 7.17736 62.4751 7.32501 62.6337 6.93673C62.8165 6.48829 62.6306 7.19064 62.6978 6.80079C62.372 6.79611 61.6657 6.39611 59.9915 7.09689C59.9915 7.09689 59.4267 7.21095 59.0431 7.45158C59.0431 7.45158 58.8228 7.64376 58.9571 7.95079Z" fill="#E4A697"/>
</g>
</g>
<mask id="mask19_714_416" style="mask-type:luminance" maskUnits="userSpaceOnUse" x="57" y="7" width="7" height="4">
<path d="M57.3 7H63.1V10.6H57.3V7Z" fill="white"/>
</mask>
<g mask="url(#mask19_714_416)">
<mask id="mask20_714_416" style="mask-type:luminance" maskUnits="userSpaceOnUse" x="52" y="2" width="14" height="14">
<path d="M52.9735 9.02264C52.9735 8.60936 53.0141 8.19921 53.0946 7.79374C53.1751 7.38749 53.2946 6.99374 53.4532 6.61171C53.6118 6.22889 53.8055 5.86561 54.0352 5.52186C54.2657 5.17811 54.5266 4.85936 54.8188 4.56718C55.1118 4.27421 55.4298 4.01327 55.7743 3.78358C56.118 3.55389 56.4813 3.35936 56.8634 3.20155C57.2454 3.04296 57.6399 2.92343 58.0454 2.84296C58.4516 2.76171 58.861 2.72186 59.2751 2.72186C59.6884 2.72186 60.0985 2.76171 60.504 2.84296C60.9102 2.92343 61.304 3.04296 61.686 3.20155C62.0688 3.35936 62.4313 3.55389 62.7759 3.78358C63.1196 4.01327 63.4376 4.27421 63.7305 4.56718C64.0227 4.85936 64.2844 5.17811 64.5141 5.52186C64.7438 5.86561 64.9384 6.22889 65.0962 6.61171C65.2548 6.99374 65.3743 7.38749 65.4548 7.79374C65.536 8.19921 65.5759 8.60936 65.5759 9.02264C65.5759 9.43671 65.536 9.84608 65.4548 10.2523C65.3743 10.6578 65.2548 11.0515 65.0962 11.4344C64.9384 11.8164 64.7438 12.1797 64.5141 12.5234C64.2844 12.8672 64.0227 13.1859 63.7305 13.4781C63.4376 13.7711 63.1196 14.032 62.7759 14.2617C62.4313 14.4922 62.0688 14.6859 61.686 14.8445C61.304 15.0023 60.9102 15.1219 60.504 15.2031C60.0985 15.2836 59.6884 15.3242 59.2751 15.3242C58.861 15.3242 58.4516 15.2836 58.0454 15.2031C57.6399 15.1219 57.2454 15.0023 56.8634 14.8445C56.4813 14.6859 56.118 14.4922 55.7743 14.2617C55.4298 14.032 55.1118 13.7711 54.8188 13.4781C54.5266 13.1859 54.2657 12.8672 54.0352 12.5234C53.8055 12.1797 53.6118 11.8164 53.4532 11.4344C53.2946 11.0515 53.1751 10.6578 53.0946 10.2523C53.0141 9.84608 52.9735 9.43671 52.9735 9.02264Z" fill="white"/>
</mask>
<g mask="url(#mask20_714_416)">
<path d="M63.0656 8.32187L59.2492 10.4391L57.3571 8.86093L61.1625 7.11093L63.0656 8.32187Z" fill="#3A7752"/>
</g>
</g>
<mask id="mask21_714_416" style="mask-type:luminance" maskUnits="userSpaceOnUse" x="57" y="6" width="7" height="5">
<path d="M57.3 6.79999H63.3V10.4H57.3V6.79999Z" fill="white"/>
</mask>
<g mask="url(#mask21_714_416)">
<mask id="mask22_714_416" style="mask-type:luminance" maskUnits="userSpaceOnUse" x="52" y="2" width="14" height="14">
<path d="M52.9735 9.02264C52.9735 8.60936 53.0141 8.19921 53.0946 7.79374C53.1751 7.38749 53.2946 6.99374 53.4532 6.61171C53.6118 6.22889 53.8055 5.86561 54.0352 5.52186C54.2657 5.17811 54.5266 4.85936 54.8188 4.56718C55.1118 4.27421 55.4298 4.01327 55.7743 3.78358C56.118 3.55389 56.4813 3.35936 56.8634 3.20155C57.2454 3.04296 57.6399 2.92343 58.0454 2.84296C58.4516 2.76171 58.861 2.72186 59.2751 2.72186C59.6884 2.72186 60.0985 2.76171 60.504 2.84296C60.9102 2.92343 61.304 3.04296 61.686 3.20155C62.0688 3.35936 62.4313 3.55389 62.7759 3.78358C63.1196 4.01327 63.4376 4.27421 63.7305 4.56718C64.0227 4.85936 64.2844 5.17811 64.5141 5.52186C64.7438 5.86561 64.9384 6.22889 65.0962 6.61171C65.2548 6.99374 65.3743 7.38749 65.4548 7.79374C65.536 8.19921 65.5759 8.60936 65.5759 9.02264C65.5759 9.43671 65.536 9.84608 65.4548 10.2523C65.3743 10.6578 65.2548 11.0515 65.0962 11.4344C64.9384 11.8164 64.7438 12.1797 64.5141 12.5234C64.2844 12.8672 64.0227 13.1859 63.7305 13.4781C63.4376 13.7711 63.1196 14.032 62.7759 14.2617C62.4313 14.4922 62.0688 14.6859 61.686 14.8445C61.304 15.0023 60.9102 15.1219 60.504 15.2031C60.0985 15.2836 59.6884 15.3242 59.2751 15.3242C58.861 15.3242 58.4516 15.2836 58.0454 15.2031C57.6399 15.1219 57.2454 15.0023 56.8634 14.8445C56.4813 14.6859 56.118 14.4922 55.7743 14.2617C55.4298 14.032 55.1118 13.7711 54.8188 13.4781C54.5266 13.1859 54.2657 12.8672 54.0352 12.5234C53.8055 12.1797 53.6118 11.8164 53.4532 11.4344C53.2946 11.0515 53.1751 10.6578 53.0946 10.2523C53.0141 9.84608 52.9735 9.43671 52.9735 9.02264Z" fill="white"/>
</mask>
<g mask="url(#mask22_714_416)">
<path d="M63.1048 8.17421L59.2884 10.2906L57.397 8.71249L61.2024 6.96249L63.1048 8.17421Z" fill="#489063"/>
</g>
</g>
<mask id="mask23_714_416" style="mask-type:luminance" maskUnits="userSpaceOnUse" x="57" y="6" width="7" height="5">
<path d="M57.3 6.79999H63.3V10.2H57.3V6.79999Z" fill="white"/>
</mask>
<g mask="url(#mask23_714_416)">
<mask id="mask24_714_416" style="mask-type:luminance" maskUnits="userSpaceOnUse" x="52" y="2" width="14" height="14">
<path d="M52.9735 9.02264C52.9735 8.60936 53.0141 8.19921 53.0946 7.79374C53.1751 7.38749 53.2946 6.99374 53.4532 6.61171C53.6118 6.22889 53.8055 5.86561 54.0352 5.52186C54.2657 5.17811 54.5266 4.85936 54.8188 4.56718C55.1118 4.27421 55.4298 4.01327 55.7743 3.78358C56.118 3.55389 56.4813 3.35936 56.8634 3.20155C57.2454 3.04296 57.6399 2.92343 58.0454 2.84296C58.4516 2.76171 58.861 2.72186 59.2751 2.72186C59.6884 2.72186 60.0985 2.76171 60.504 2.84296C60.9102 2.92343 61.304 3.04296 61.686 3.20155C62.0688 3.35936 62.4313 3.55389 62.7759 3.78358C63.1196 4.01327 63.4376 4.27421 63.7305 4.56718C64.0227 4.85936 64.2844 5.17811 64.5141 5.52186C64.7438 5.86561 64.9384 6.22889 65.0962 6.61171C65.2548 6.99374 65.3743 7.38749 65.4548 7.79374C65.536 8.19921 65.5759 8.60936 65.5759 9.02264C65.5759 9.43671 65.536 9.84608 65.4548 10.2523C65.3743 10.6578 65.2548 11.0515 65.0962 11.4344C64.9384 11.8164 64.7438 12.1797 64.5141 12.5234C64.2844 12.8672 64.0227 13.1859 63.7305 13.4781C63.4376 13.7711 63.1196 14.032 62.7759 14.2617C62.4313 14.4922 62.0688 14.6859 61.686 14.8445C61.304 15.0023 60.9102 15.1219 60.504 15.2031C60.0985 15.2836 59.6884 15.3242 59.2751 15.3242C58.861 15.3242 58.4516 15.2836 58.0454 15.2031C57.6399 15.1219 57.2454 15.0023 56.8634 14.8445C56.4813 14.6859 56.118 14.4922 55.7743 14.2617C55.4298 14.032 55.1118 13.7711 54.8188 13.4781C54.5266 13.1859 54.2657 12.8672 54.0352 12.5234C53.8055 12.1797 53.6118 11.8164 53.4532 11.4344C53.2946 11.0515 53.1751 10.6578 53.0946 10.2523C53.0141 9.84608 52.9735 9.43671 52.9735 9.02264Z" fill="white"/>
</mask>
<g mask="url(#mask24_714_416)">
<path d="M63.143 8.02968L59.3266 10.1461L57.4352 8.56874L61.2406 6.81796L63.143 8.02968Z" fill="#52A471"/>
</g>
</g>
<mask id="mask25_714_416" style="mask-type:luminance" maskUnits="userSpaceOnUse" x="57" y="6" width="7" height="4">
<path d="M57.3 6.60001H63.3V10H57.3V6.60001Z" fill="white"/>
</mask>
<g mask="url(#mask25_714_416)">
<mask id="mask26_714_416" style="mask-type:luminance" maskUnits="userSpaceOnUse" x="52" y="2" width="14" height="14">
<path d="M52.9735 9.02267C52.9735 8.60939 53.0141 8.19924 53.0946 7.79377C53.1751 7.38752 53.2946 6.99377 53.4532 6.61174C53.6118 6.22892 53.8055 5.86564 54.0352 5.52189C54.2657 5.17814 54.5266 4.85939 54.8188 4.56721C55.1118 4.27424 55.4298 4.0133 55.7743 3.78361C56.118 3.55392 56.4813 3.35939 56.8634 3.20158C57.2454 3.04299 57.6399 2.92346 58.0454 2.84299C58.4516 2.76174 58.861 2.72189 59.2751 2.72189C59.6884 2.72189 60.0985 2.76174 60.504 2.84299C60.9102 2.92346 61.304 3.04299 61.686 3.20158C62.0688 3.35939 62.4313 3.55392 62.7759 3.78361C63.1196 4.0133 63.4376 4.27424 63.7305 4.56721C64.0227 4.85939 64.2844 5.17814 64.5141 5.52189C64.7438 5.86564 64.9384 6.22892 65.0962 6.61174C65.2548 6.99377 65.3743 7.38752 65.4548 7.79377C65.536 8.19924 65.5759 8.60939 65.5759 9.02267C65.5759 9.43674 65.536 9.84611 65.4548 10.2524C65.3743 10.6578 65.2548 11.0516 65.0962 11.4344C64.9384 11.8164 64.7438 12.1797 64.5141 12.5235C64.2844 12.8672 64.0227 13.186 63.7305 13.4781C63.4376 13.7711 63.1196 14.032 62.7759 14.2617C62.4313 14.4922 62.0688 14.686 61.686 14.8446C61.304 15.0024 60.9102 15.1219 60.504 15.2031C60.0985 15.2836 59.6884 15.3242 59.2751 15.3242C58.861 15.3242 58.4516 15.2836 58.0454 15.2031C57.6399 15.1219 57.2454 15.0024 56.8634 14.8446C56.4813 14.686 56.118 14.4922 55.7743 14.2617C55.4298 14.032 55.1118 13.7711 54.8188 13.4781C54.5266 13.186 54.2657 12.8672 54.0352 12.5235C53.8055 12.1797 53.6118 11.8164 53.4532 11.4344C53.2946 11.0516 53.1751 10.6578 53.0946 10.2524C53.0141 9.84611 52.9735 9.43674 52.9735 9.02267Z" fill="white"/>
</mask>
<g mask="url(#mask26_714_416)">
<path d="M63.1844 7.87659L59.368 9.99377L57.4758 8.41565L61.2813 6.66565L63.1844 7.87659Z" fill="#58B079"/>
</g>
</g>
<mask id="mask27_714_416" style="mask-type:luminance" maskUnits="userSpaceOnUse" x="57" y="6" width="6" height="4">
<path d="M57.9 6.79999H62.7V9.59999H57.9V6.79999Z" fill="white"/>
</mask>
<g mask="url(#mask27_714_416)">
<mask id="mask28_714_416" style="mask-type:luminance" maskUnits="userSpaceOnUse" x="52" y="2" width="14" height="14">
<path d="M52.9735 9.02264C52.9735 8.60936 53.0141 8.19921 53.0946 7.79374C53.1751 7.38749 53.2946 6.99374 53.4532 6.61171C53.6118 6.22889 53.8055 5.86561 54.0352 5.52186C54.2657 5.17811 54.5266 4.85936 54.8188 4.56718C55.1118 4.27421 55.4298 4.01327 55.7743 3.78358C56.118 3.55389 56.4813 3.35936 56.8634 3.20155C57.2454 3.04296 57.6399 2.92343 58.0454 2.84296C58.4516 2.76171 58.861 2.72186 59.2751 2.72186C59.6884 2.72186 60.0985 2.76171 60.504 2.84296C60.9102 2.92343 61.304 3.04296 61.686 3.20155C62.0688 3.35936 62.4313 3.55389 62.7759 3.78358C63.1196 4.01327 63.4376 4.27421 63.7305 4.56718C64.0227 4.85936 64.2844 5.17811 64.5141 5.52186C64.7438 5.86561 64.9384 6.22889 65.0962 6.61171C65.2548 6.99374 65.3743 7.38749 65.4548 7.79374C65.536 8.19921 65.5759 8.60936 65.5759 9.02264C65.5759 9.43671 65.536 9.84608 65.4548 10.2523C65.3743 10.6578 65.2548 11.0515 65.0962 11.4344C64.9384 11.8164 64.7438 12.1797 64.5141 12.5234C64.2844 12.8672 64.0227 13.1859 63.7305 13.4781C63.4376 13.7711 63.1196 14.032 62.7759 14.2617C62.4313 14.4922 62.0688 14.6859 61.686 14.8445C61.304 15.0023 60.9102 15.1219 60.504 15.2031C60.0985 15.2836 59.6884 15.3242 59.2751 15.3242C58.861 15.3242 58.4516 15.2836 58.0454 15.2031C57.6399 15.1219 57.2454 15.0023 56.8634 14.8445C56.4813 14.6859 56.118 14.4922 55.7743 14.2617C55.4298 14.032 55.1118 13.7711 54.8188 13.4781C54.5266 13.1859 54.2657 12.8672 54.0352 12.5234C53.8055 12.1797 53.6118 11.8164 53.4532 11.4344C53.2946 11.0515 53.1751 10.6578 53.0946 10.2523C53.0141 9.84608 52.9735 9.43671 52.9735 9.02264Z" fill="white"/>
</mask>
<g mask="url(#mask28_714_416)">
<path d="M62.5298 7.77968C62.5368 7.75234 62.5486 7.72812 62.5642 7.70624L61.3657 6.94296C61.3095 6.98749 61.2329 7.00624 61.1595 6.98671C61.1423 6.98203 61.1259 6.97578 61.1111 6.96796L58.072 8.36796C58.0704 8.37812 58.0689 8.38828 58.0665 8.39765C58.0509 8.45624 58.0134 8.5039 57.965 8.53515L59.1931 9.54296C59.2501 9.47343 59.3454 9.43906 59.4368 9.46328C59.5064 9.48203 59.5618 9.53203 59.59 9.59453L62.5532 7.95703C62.5236 7.9039 62.5134 7.8414 62.5298 7.77968Z" fill="#457350"/>
</g>
</g>
<mask id="mask29_714_416" style="mask-type:luminance" maskUnits="userSpaceOnUse" x="59" y="7" width="3" height="2">
<path d="M59.5 7.60001H61.1V8.80001H59.5V7.60001Z" fill="white"/>
</mask>
<g mask="url(#mask29_714_416)">
<mask id="mask30_714_416" style="mask-type:luminance" maskUnits="userSpaceOnUse" x="52" y="2" width="14" height="14">
<path d="M52.9734 9.02267C52.9734 8.60939 53.014 8.19924 53.0945 7.79377C53.175 7.38752 53.2945 6.99377 53.4531 6.61174C53.6117 6.22892 53.8054 5.86564 54.0351 5.52189C54.2656 5.17814 54.5265 4.85939 54.8187 4.56721C55.1117 4.27424 55.4296 4.0133 55.7742 3.78361C56.1179 3.55392 56.4812 3.35939 56.8632 3.20158C57.2453 3.04299 57.6398 2.92346 58.0453 2.84299C58.4515 2.76174 58.8609 2.72189 59.275 2.72189C59.6882 2.72189 60.0984 2.76174 60.5039 2.84299C60.9101 2.92346 61.3039 3.04299 61.6859 3.20158C62.0687 3.35939 62.4312 3.55392 62.7757 3.78361C63.1195 4.0133 63.4375 4.27424 63.7304 4.56721C64.0226 4.85939 64.2843 5.17814 64.514 5.52189C64.7437 5.86564 64.9382 6.22892 65.096 6.61174C65.2546 6.99377 65.3742 7.38752 65.4546 7.79377C65.5359 8.19924 65.5757 8.60939 65.5757 9.02267C65.5757 9.43674 65.5359 9.84611 65.4546 10.2524C65.3742 10.6578 65.2546 11.0516 65.096 11.4344C64.9382 11.8164 64.7437 12.1797 64.514 12.5235C64.2843 12.8672 64.0226 13.186 63.7304 13.4781C63.4375 13.7711 63.1195 14.032 62.7757 14.2617C62.4312 14.4922 62.0687 14.686 61.6859 14.8446C61.3039 15.0024 60.9101 15.1219 60.5039 15.2031C60.0984 15.2836 59.6882 15.3242 59.275 15.3242C58.8609 15.3242 58.4515 15.2836 58.0453 15.2031C57.6398 15.1219 57.2453 15.0024 56.8632 14.8446C56.4812 14.686 56.1179 14.4922 55.7742 14.2617C55.4296 14.032 55.1117 13.7711 54.8187 13.4781C54.5265 13.186 54.2656 12.8672 54.0351 12.5235C53.8054 12.1797 53.6117 11.8164 53.4531 11.4344C53.2945 11.0516 53.175 10.6578 53.0945 10.2524C53.014 9.84611 52.9734 9.43674 52.9734 9.02267Z" fill="white"/>
</mask>
<g mask="url(#mask30_714_416)">
<path d="M60.9242 7.94845C60.9516 8.01329 60.9625 8.08204 60.9562 8.1547C60.95 8.22814 60.9281 8.29923 60.8906 8.36876C60.8523 8.43907 60.8016 8.50157 60.7367 8.55782C60.6727 8.61329 60.6 8.65782 60.5195 8.69142C60.4383 8.72501 60.3555 8.74532 60.2703 8.75157C60.1859 8.75704 60.1055 8.74923 60.0289 8.72735C59.9523 8.7047 59.8867 8.67032 59.8305 8.62267C59.775 8.57579 59.7336 8.51954 59.7062 8.45392C59.6789 8.38907 59.6687 8.32032 59.675 8.24689C59.6805 8.17423 59.7023 8.10314 59.7406 8.03282C59.7789 7.96329 59.8297 7.90079 59.8937 7.84454C59.9586 7.78907 60.0305 7.74376 60.1117 7.71017C60.1922 7.67735 60.275 7.65704 60.3602 7.65079C60.4453 7.64454 60.5258 7.65314 60.6023 7.67501C60.6781 7.69767 60.7445 7.73204 60.8 7.7797C60.8562 7.82657 60.8977 7.88282 60.9242 7.94845Z" fill="#58B079"/>
</g>
</g>
<mask id="mask31_714_416" style="mask-type:luminance" maskUnits="userSpaceOnUse" x="61" y="7" width="1" height="1">
<path d="M61.1 7.20001H61.9V7.80001H61.1V7.20001Z" fill="white"/>
</mask>
<g mask="url(#mask31_714_416)">
<mask id="mask32_714_416" style="mask-type:luminance" maskUnits="userSpaceOnUse" x="52" y="2" width="14" height="14">
<path d="M52.9734 9.02267C52.9734 8.60939 53.014 8.19924 53.0945 7.79377C53.175 7.38752 53.2945 6.99377 53.4531 6.61174C53.6117 6.22892 53.8054 5.86564 54.0351 5.52189C54.2656 5.17814 54.5265 4.85939 54.8187 4.56721C55.1117 4.27424 55.4296 4.0133 55.7742 3.78361C56.1179 3.55392 56.4812 3.35939 56.8632 3.20158C57.2453 3.04299 57.6398 2.92346 58.0453 2.84299C58.4515 2.76174 58.8609 2.72189 59.275 2.72189C59.6882 2.72189 60.0984 2.76174 60.5039 2.84299C60.9101 2.92346 61.3039 3.04299 61.6859 3.20158C62.0687 3.35939 62.4312 3.55392 62.7757 3.78361C63.1195 4.0133 63.4375 4.27424 63.7304 4.56721C64.0226 4.85939 64.2843 5.17814 64.514 5.52189C64.7437 5.86564 64.9382 6.22892 65.096 6.61174C65.2546 6.99377 65.3742 7.38752 65.4546 7.79377C65.5359 8.19924 65.5757 8.60939 65.5757 9.02267C65.5757 9.43674 65.5359 9.84611 65.4546 10.2524C65.3742 10.6578 65.2546 11.0516 65.096 11.4344C64.9382 11.8164 64.7437 12.1797 64.514 12.5235C64.2843 12.8672 64.0226 13.186 63.7304 13.4781C63.4375 13.7711 63.1195 14.032 62.7757 14.2617C62.4312 14.4922 62.0687 14.686 61.6859 14.8446C61.3039 15.0024 60.9101 15.1219 60.5039 15.2031C60.0984 15.2836 59.6882 15.3242 59.275 15.3242C58.8609 15.3242 58.4515 15.2836 58.0453 15.2031C57.6398 15.1219 57.2453 15.0024 56.8632 14.8446C56.4812 14.686 56.1179 14.4922 55.7742 14.2617C55.4296 14.032 55.1117 13.7711 54.8187 13.4781C54.5265 13.186 54.2656 12.8672 54.0351 12.5235C53.8054 12.1797 53.6117 11.8164 53.4531 11.4344C53.2945 11.0516 53.175 10.6578 53.0945 10.2524C53.014 9.84611 52.9734 9.43674 52.9734 9.02267Z" fill="white"/>
</mask>
<g mask="url(#mask32_714_416)">
<path d="M61.7116 7.45079C61.7218 7.47969 61.7249 7.51016 61.721 7.54219C61.7163 7.57344 61.7054 7.60391 61.6874 7.6336C61.6694 7.66328 61.6452 7.68907 61.6163 7.7125C61.5866 7.73516 61.5546 7.75313 61.5187 7.76641C61.4827 7.77891 61.446 7.78594 61.4085 7.78672C61.3718 7.7875 61.3366 7.78204 61.3038 7.77032C61.271 7.75938 61.2429 7.74297 61.2194 7.7211C61.1968 7.69922 61.1796 7.67344 61.1694 7.64454C61.1593 7.61563 61.1562 7.58516 61.1601 7.55391C61.164 7.52188 61.1757 7.49141 61.1937 7.46172C61.2116 7.43203 61.2351 7.40625 61.2648 7.38282C61.2937 7.36016 61.3265 7.34219 61.3624 7.32969C61.3984 7.31641 61.4351 7.31016 61.4718 7.30938C61.5093 7.3086 61.5444 7.31328 61.5773 7.325C61.6101 7.33594 61.6374 7.35313 61.6609 7.375C61.6843 7.39688 61.7015 7.42188 61.7116 7.45079Z" fill="#58B079"/>
</g>
</g>
<mask id="mask33_714_416" style="mask-type:luminance" maskUnits="userSpaceOnUse" x="58" y="8" width="2" height="2">
<path d="M58.7 8.39999H59.5V9.19999H58.7V8.39999Z" fill="white"/>
</mask>
<g mask="url(#mask33_714_416)">
<mask id="mask34_714_416" style="mask-type:luminance" maskUnits="userSpaceOnUse" x="52" y="2" width="14" height="14">
<path d="M52.9734 9.02264C52.9734 8.60936 53.014 8.19921 53.0945 7.79374C53.175 7.38749 53.2945 6.99374 53.4531 6.61171C53.6117 6.22889 53.8054 5.86561 54.0351 5.52186C54.2656 5.17811 54.5265 4.85936 54.8187 4.56718C55.1117 4.27421 55.4296 4.01327 55.7742 3.78358C56.1179 3.55389 56.4812 3.35936 56.8632 3.20155C57.2453 3.04296 57.6398 2.92343 58.0453 2.84296C58.4515 2.76171 58.8609 2.72186 59.275 2.72186C59.6882 2.72186 60.0984 2.76171 60.5039 2.84296C60.9101 2.92343 61.3039 3.04296 61.6859 3.20155C62.0687 3.35936 62.4312 3.55389 62.7757 3.78358C63.1195 4.01327 63.4375 4.27421 63.7304 4.56718C64.0226 4.85936 64.2843 5.17811 64.514 5.52186C64.7437 5.86561 64.9382 6.22889 65.096 6.61171C65.2546 6.99374 65.3742 7.38749 65.4546 7.79374C65.5359 8.19921 65.5757 8.60936 65.5757 9.02264C65.5757 9.43671 65.5359 9.84608 65.4546 10.2523C65.3742 10.6578 65.2546 11.0515 65.096 11.4344C64.9382 11.8164 64.7437 12.1797 64.514 12.5234C64.2843 12.8672 64.0226 13.1859 63.7304 13.4781C63.4375 13.7711 63.1195 14.032 62.7757 14.2617C62.4312 14.4922 62.0687 14.6859 61.6859 14.8445C61.3039 15.0023 60.9101 15.1219 60.5039 15.2031C60.0984 15.2836 59.6882 15.3242 59.275 15.3242C58.8609 15.3242 58.4515 15.2836 58.0453 15.2031C57.6398 15.1219 57.2453 15.0023 56.8632 14.8445C56.4812 14.6859 56.1179 14.4922 55.7742 14.2617C55.4296 14.032 55.1117 13.7711 54.8187 13.4781C54.5265 13.1859 54.2656 12.8672 54.0351 12.5234C53.8054 12.1797 53.6117 11.8164 53.4531 11.4344C53.2945 11.0515 53.175 10.6578 53.0945 10.2523C53.014 9.84608 52.9734 9.43671 52.9734 9.02264Z" fill="white"/>
</mask>
<g mask="url(#mask34_714_416)">
<path d="M59.3844 8.70544C59.3984 8.73279 59.4055 8.76248 59.4055 8.79451C59.4062 8.82654 59.3992 8.85857 59.3852 8.88982C59.3711 8.92185 59.3508 8.95076 59.325 8.97732C59.2992 9.00466 59.2695 9.02654 59.2352 9.04373C59.2016 9.06169 59.1656 9.07341 59.1289 9.07888C59.0922 9.08435 59.057 9.08435 59.0234 9.07732C58.9891 9.07029 58.9594 9.05779 58.9336 9.03904C58.907 9.02029 58.8875 8.99763 58.8727 8.97029C58.8586 8.94294 58.8516 8.91326 58.8516 8.88123C58.8516 8.84919 58.8586 8.81794 58.8727 8.78591C58.8867 8.75388 58.9063 8.72498 58.9328 8.69841C58.9586 8.67185 58.9883 8.64919 59.0227 8.63201C59.0563 8.61482 59.0914 8.6031 59.1281 8.59685C59.1648 8.59138 59.2 8.59216 59.2344 8.59919C59.268 8.60544 59.2984 8.61873 59.3242 8.63669C59.35 8.65544 59.3703 8.6781 59.3844 8.70544Z" fill="#58B079"/>
</g>
</g>
<mask id="mask35_714_416" style="mask-type:luminance" maskUnits="userSpaceOnUse" x="59" y="7" width="4" height="3">
<path d="M59.1 7.20001H62.1V9.20001H59.1V7.20001Z" fill="white"/>
</mask>
<g mask="url(#mask35_714_416)">
<mask id="mask36_714_416" style="mask-type:luminance" maskUnits="userSpaceOnUse" x="52" y="2" width="14" height="14">
<path d="M52.9734 9.02267C52.9734 8.60939 53.014 8.19924 53.0945 7.79377C53.175 7.38752 53.2945 6.99377 53.4531 6.61174C53.6117 6.22892 53.8054 5.86564 54.0351 5.52189C54.2656 5.17814 54.5265 4.85939 54.8187 4.56721C55.1117 4.27424 55.4296 4.0133 55.7742 3.78361C56.1179 3.55392 56.4812 3.35939 56.8632 3.20158C57.2453 3.04299 57.6398 2.92346 58.0453 2.84299C58.4515 2.76174 58.8609 2.72189 59.275 2.72189C59.6882 2.72189 60.0984 2.76174 60.5039 2.84299C60.9101 2.92346 61.3039 3.04299 61.6859 3.20158C62.0687 3.35939 62.4312 3.55392 62.7757 3.78361C63.1195 4.0133 63.4375 4.27424 63.7304 4.56721C64.0226 4.85939 64.2843 5.17814 64.514 5.52189C64.7437 5.86564 64.9382 6.22892 65.096 6.61174C65.2546 6.99377 65.3742 7.38752 65.4546 7.79377C65.5359 8.19924 65.5757 8.60939 65.5757 9.02267C65.5757 9.43674 65.5359 9.84611 65.4546 10.2524C65.3742 10.6578 65.2546 11.0516 65.096 11.4344C64.9382 11.8164 64.7437 12.1797 64.514 12.5235C64.2843 12.8672 64.0226 13.186 63.7304 13.4781C63.4375 13.7711 63.1195 14.032 62.7757 14.2617C62.4312 14.4922 62.0687 14.686 61.6859 14.8446C61.3039 15.0024 60.9101 15.1219 60.5039 15.2031C60.0984 15.2836 59.6882 15.3242 59.275 15.3242C58.8609 15.3242 58.4515 15.2836 58.0453 15.2031C57.6398 15.1219 57.2453 15.0024 56.8632 14.8446C56.4812 14.686 56.1179 14.4922 55.7742 14.2617C55.4296 14.032 55.1117 13.7711 54.8187 13.4781C54.5265 13.186 54.2656 12.8672 54.0351 12.5235C53.8054 12.1797 53.6117 11.8164 53.4531 11.4344C53.2945 11.0516 53.175 10.6578 53.0945 10.2524C53.014 9.84611 52.9734 9.43674 52.9734 9.02267Z" fill="white"/>
</mask>
<g mask="url(#mask36_714_416)">
<path d="M59.1351 7.65313L60.907 9.13985L61.9226 8.57657L60.0906 7.21329L59.1351 7.65313Z" fill="#F9B342"/>
</g>
</g>
<mask id="mask37_714_416" style="mask-type:luminance" maskUnits="userSpaceOnUse" x="60" y="8" width="3" height="2">
<path d="M60.7 8.39999H62.1V9.59999H60.7V8.39999Z" fill="white"/>
</mask>
<g mask="url(#mask37_714_416)">
<mask id="mask38_714_416" style="mask-type:luminance" maskUnits="userSpaceOnUse" x="52" y="2" width="14" height="14">
<path d="M52.9734 9.02264C52.9734 8.60936 53.014 8.19921 53.0945 7.79374C53.175 7.38749 53.2945 6.99374 53.4531 6.61171C53.6117 6.22889 53.8054 5.86561 54.0351 5.52186C54.2656 5.17811 54.5265 4.85936 54.8187 4.56718C55.1117 4.27421 55.4296 4.01327 55.7742 3.78358C56.1179 3.55389 56.4812 3.35936 56.8632 3.20155C57.2453 3.04296 57.6398 2.92343 58.0453 2.84296C58.4515 2.76171 58.8609 2.72186 59.275 2.72186C59.6882 2.72186 60.0984 2.76171 60.5039 2.84296C60.9101 2.92343 61.3039 3.04296 61.6859 3.20155C62.0687 3.35936 62.4312 3.55389 62.7757 3.78358C63.1195 4.01327 63.4375 4.27421 63.7304 4.56718C64.0226 4.85936 64.2843 5.17811 64.514 5.52186C64.7437 5.86561 64.9382 6.22889 65.096 6.61171C65.2546 6.99374 65.3742 7.38749 65.4546 7.79374C65.5359 8.19921 65.5757 8.60936 65.5757 9.02264C65.5757 9.43671 65.5359 9.84608 65.4546 10.2523C65.3742 10.6578 65.2546 11.0515 65.096 11.4344C64.9382 11.8164 64.7437 12.1797 64.514 12.5234C64.2843 12.8672 64.0226 13.1859 63.7304 13.4781C63.4375 13.7711 63.1195 14.032 62.7757 14.2617C62.4312 14.4922 62.0687 14.6859 61.6859 14.8445C61.3039 15.0023 60.9101 15.1219 60.5039 15.2031C60.0984 15.2836 59.6882 15.3242 59.275 15.3242C58.8609 15.3242 58.4515 15.2836 58.0453 15.2031C57.6398 15.1219 57.2453 15.0023 56.8632 14.8445C56.4812 14.6859 56.1179 14.4922 55.7742 14.2617C55.4296 14.032 55.1117 13.7711 54.8187 13.4781C54.5265 13.1859 54.2656 12.8672 54.0351 12.5234C53.8054 12.1797 53.6117 11.8164 53.4531 11.4344C53.2945 11.0515 53.175 10.6578 53.0945 10.2523C53.014 9.84608 52.9734 9.43671 52.9734 9.02264Z" fill="white"/>
</mask>
<g mask="url(#mask38_714_416)">
<path d="M60.907 9.13982L60.8344 9.55935L61.8617 8.98982L61.9226 8.57654L60.907 9.13982Z" fill="#F59F40"/>
</g>
</g>
<mask id="mask39_714_416" style="mask-type:luminance" maskUnits="userSpaceOnUse" x="58" y="6" width="8" height="4">
<path d="M58.9 6.39999H65.5V9.19999H58.9V6.39999Z" fill="white"/>
</mask>
<g mask="url(#mask39_714_416)">
<mask id="mask40_714_416" style="mask-type:luminance" maskUnits="userSpaceOnUse" x="52" y="2" width="14" height="14">
<path d="M52.9735 9.02264C52.9735 8.60936 53.0141 8.19921 53.0946 7.79374C53.1751 7.38749 53.2946 6.99374 53.4532 6.61171C53.6118 6.22889 53.8055 5.86561 54.0352 5.52186C54.2657 5.17811 54.5266 4.85936 54.8188 4.56718C55.1118 4.27421 55.4298 4.01327 55.7743 3.78358C56.118 3.55389 56.4813 3.35936 56.8634 3.20155C57.2454 3.04296 57.6399 2.92343 58.0454 2.84296C58.4516 2.76171 58.861 2.72186 59.2751 2.72186C59.6884 2.72186 60.0985 2.76171 60.504 2.84296C60.9102 2.92343 61.304 3.04296 61.686 3.20155C62.0688 3.35936 62.4313 3.55389 62.7759 3.78358C63.1196 4.01327 63.4376 4.27421 63.7305 4.56718C64.0227 4.85936 64.2844 5.17811 64.5141 5.52186C64.7438 5.86561 64.9384 6.22889 65.0962 6.61171C65.2548 6.99374 65.3743 7.38749 65.4548 7.79374C65.536 8.19921 65.5759 8.60936 65.5759 9.02264C65.5759 9.43671 65.536 9.84608 65.4548 10.2523C65.3743 10.6578 65.2548 11.0515 65.0962 11.4344C64.9384 11.8164 64.7438 12.1797 64.5141 12.5234C64.2844 12.8672 64.0227 13.1859 63.7305 13.4781C63.4376 13.7711 63.1196 14.032 62.7759 14.2617C62.4313 14.4922 62.0688 14.6859 61.686 14.8445C61.304 15.0023 60.9102 15.1219 60.504 15.2031C60.0985 15.2836 59.6884 15.3242 59.2751 15.3242C58.861 15.3242 58.4516 15.2836 58.0454 15.2031C57.6399 15.1219 57.2454 15.0023 56.8634 14.8445C56.4813 14.6859 56.118 14.4922 55.7743 14.2617C55.4298 14.032 55.1118 13.7711 54.8188 13.4781C54.5266 13.1859 54.2657 12.8672 54.0352 12.5234C53.8055 12.1797 53.6118 11.8164 53.4532 11.4344C53.2946 11.0515 53.1751 10.6578 53.0946 10.2523C53.0141 9.84608 52.9735 9.43671 52.9735 9.02264Z" fill="white"/>
</mask>
<g mask="url(#mask40_714_416)">
<path d="M65.4298 6.87187C65.4298 6.87187 64.0814 6.96484 63.2525 6.81796C63.2525 6.81796 62.3064 6.40234 60.0579 6.63827C60.0579 6.63827 59.4743 7.07499 59.1157 7.29999C59.1157 7.29999 58.8603 7.44843 59.0353 7.6289C59.0353 7.6289 59.1993 7.89843 60.1532 7.1414C60.1532 7.1414 60.4571 7.23437 61.1946 7.17655C61.1946 7.17655 62.1845 7.7453 62.1907 7.99218C62.1907 7.99218 61.6806 8.25624 61.2767 8.55077C61.2767 8.55077 60.7275 8.91171 60.9493 9.14921C60.9493 9.14921 61.0462 9.33046 61.5032 8.95937C61.5032 8.95937 61.8954 8.77812 62.4642 8.63671C62.4642 8.63671 62.9087 8.48749 63.4118 8.15624C63.4118 8.15624 65.0228 8.0914 65.3251 8.23046L65.4298 6.87187Z" fill="#F6B2A2"/>
</g>
</g>
<mask id="mask41_714_416" style="mask-type:luminance" maskUnits="userSpaceOnUse" x="63" y="6" width="3" height="3">
<path d="M63.5 6.60001H65.3V8.80001H63.5V6.60001Z" fill="white"/>
</mask>
<g mask="url(#mask41_714_416)">
<mask id="mask42_714_416" style="mask-type:luminance" maskUnits="userSpaceOnUse" x="52" y="2" width="14" height="14">
<path d="M52.9734 9.02267C52.9734 8.60939 53.014 8.19924 53.0945 7.79377C53.175 7.38752 53.2945 6.99377 53.4531 6.61174C53.6117 6.22892 53.8054 5.86564 54.0351 5.52189C54.2656 5.17814 54.5265 4.85939 54.8187 4.56721C55.1117 4.27424 55.4296 4.0133 55.7742 3.78361C56.1179 3.55392 56.4812 3.35939 56.8632 3.20158C57.2453 3.04299 57.6398 2.92346 58.0453 2.84299C58.4515 2.76174 58.8609 2.72189 59.275 2.72189C59.6882 2.72189 60.0984 2.76174 60.5039 2.84299C60.9101 2.92346 61.3039 3.04299 61.6859 3.20158C62.0687 3.35939 62.4312 3.55392 62.7757 3.78361C63.1195 4.0133 63.4375 4.27424 63.7304 4.56721C64.0226 4.85939 64.2843 5.17814 64.514 5.52189C64.7437 5.86564 64.9382 6.22892 65.096 6.61174C65.2546 6.99377 65.3742 7.38752 65.4546 7.79377C65.5359 8.19924 65.5757 8.60939 65.5757 9.02267C65.5757 9.43674 65.5359 9.84611 65.4546 10.2524C65.3742 10.6578 65.2546 11.0516 65.096 11.4344C64.9382 11.8164 64.7437 12.1797 64.514 12.5235C64.2843 12.8672 64.0226 13.186 63.7304 13.4781C63.4375 13.7711 63.1195 14.032 62.7757 14.2617C62.4312 14.4922 62.0687 14.686 61.6859 14.8446C61.3039 15.0024 60.9101 15.1219 60.5039 15.2031C60.0984 15.2836 59.6882 15.3242 59.275 15.3242C58.8609 15.3242 58.4515 15.2836 58.0453 15.2031C57.6398 15.1219 57.2453 15.0024 56.8632 14.8446C56.4812 14.686 56.1179 14.4922 55.7742 14.2617C55.4296 14.032 55.1117 13.7711 54.8187 13.4781C54.5265 13.186 54.2656 12.8672 54.0351 12.5235C53.8054 12.1797 53.6117 11.8164 53.4531 11.4344C53.2945 11.0516 53.175 10.6578 53.0945 10.2524C53.014 9.84611 52.9734 9.43674 52.9734 9.02267Z" fill="white"/>
</mask>
<g mask="url(#mask42_714_416)">
<path d="M65.2187 8.63518H63.6827V6.62659H65.2187V8.63518Z" fill="white"/>
</g>
</g>
<mask id="mask43_714_416" style="mask-type:luminance" maskUnits="userSpaceOnUse" x="63" y="6" width="3" height="3">
<path d="M63.9 6.20001H65.575V9.00001H63.9V6.20001Z" fill="white"/>
</mask>
<g mask="url(#mask43_714_416)">
<mask id="mask44_714_416" style="mask-type:luminance" maskUnits="userSpaceOnUse" x="52" y="2" width="14" height="14">
<path d="M52.9735 9.02267C52.9735 8.60939 53.0141 8.19924 53.0946 7.79377C53.1751 7.38752 53.2946 6.99377 53.4532 6.61174C53.6118 6.22892 53.8055 5.86564 54.0352 5.52189C54.2657 5.17814 54.5266 4.85939 54.8188 4.56721C55.1118 4.27424 55.4298 4.0133 55.7743 3.78361C56.118 3.55392 56.4813 3.35939 56.8634 3.20158C57.2454 3.04299 57.6399 2.92346 58.0454 2.84299C58.4516 2.76174 58.861 2.72189 59.2751 2.72189C59.6884 2.72189 60.0985 2.76174 60.504 2.84299C60.9102 2.92346 61.304 3.04299 61.686 3.20158C62.0688 3.35939 62.4313 3.55392 62.7759 3.78361C63.1196 4.0133 63.4376 4.27424 63.7305 4.56721C64.0227 4.85939 64.2844 5.17814 64.5141 5.52189C64.7438 5.86564 64.9384 6.22892 65.0962 6.61174C65.2548 6.99377 65.3743 7.38752 65.4548 7.79377C65.536 8.19924 65.5759 8.60939 65.5759 9.02267C65.5759 9.43674 65.536 9.84611 65.4548 10.2524C65.3743 10.6578 65.2548 11.0516 65.0962 11.4344C64.9384 11.8164 64.7438 12.1797 64.5141 12.5235C64.2844 12.8672 64.0227 13.186 63.7305 13.4781C63.4376 13.7711 63.1196 14.032 62.7759 14.2617C62.4313 14.4922 62.0688 14.686 61.686 14.8446C61.304 15.0024 60.9102 15.1219 60.504 15.2031C60.0985 15.2836 59.6884 15.3242 59.2751 15.3242C58.861 15.3242 58.4516 15.2836 58.0454 15.2031C57.6399 15.1219 57.2454 15.0024 56.8634 14.8446C56.4813 14.686 56.118 14.4922 55.7743 14.2617C55.4298 14.032 55.1118 13.7711 54.8188 13.4781C54.5266 13.186 54.2657 12.8672 54.0352 12.5235C53.8055 12.1797 53.6118 11.8164 53.4532 11.4344C53.2946 11.0516 53.1751 10.6578 53.0946 10.2524C53.0141 9.84611 52.9735 9.43674 52.9735 9.02267Z" fill="white"/>
</mask>
<g mask="url(#mask44_714_416)">
<path d="M65.5837 6.39534L64.0946 6.38831L64.0829 8.85237L65.5837 8.82502V6.39534Z" fill="#F9B342"/>
</g>
</g>
<g filter="url(#filter1_d_714_416)">
<path d="M37.6925 19V13.841H40.4575L41.1855 14.576V15.787L40.8635 16.221L41.4585 16.823V18.265L40.7235 19H37.6925ZM38.3295 16.004H40.2545L40.5485 15.605V14.793L40.1705 14.401L38.3295 14.408V16.004ZM38.3295 18.433H40.4365L40.8215 18.048V16.991L40.4155 16.571H38.3295V18.433Z" fill="black"/>
</g>
</g>
<defs>
<filter id="filter0_d_714_416" x="0.5" y="0" width="83" height="83" filterUnits="userSpaceOnUse" color-interpolation-filters="sRGB">
<feFlood flood-opacity="0" result="BackgroundImageFix"/>
<feColorMatrix in="SourceAlpha" type="matrix" values="0 0 0 0 0 0 0 0 0 0 0 0 0 0 0 0 0 0 127 0" result="hardAlpha"/>
<feOffset dy="4"/>
<feGaussianBlur stdDeviation="2"/>
<feComposite in2="hardAlpha" operator="out"/>
<feColorMatrix type="matrix" values="0 0 0 0 0 0 0 0 0 0 0 0 0 0 0 0 0 0 0.25 0"/>
<feBlend mode="normal" in2="BackgroundImageFix" result="effect1_dropShadow_714_416"/>
<feBlend mode="normal" in="SourceGraphic" in2="effect1_dropShadow_714_416" result="shape"/>
</filter>
<filter id="filter1_d_714_416" x="33.6925" y="13.841" width="11.766" height="13.159" filterUnits="userSpaceOnUse" color-interpolation-filters="sRGB">
<feFlood flood-opacity="0" result="BackgroundImageFix"/>
<feColorMatrix in="SourceAlpha" type="matrix" values="0 0 0 0 0 0 0 0 0 0 0 0 0 0 0 0 0 0 127 0" result="hardAlpha"/>
<feOffset dy="4"/>
<feGaussianBlur stdDeviation="2"/>
<feComposite in2="hardAlpha" operator="out"/>
<feColorMatrix type="matrix" values="0 0 0 0 0 0 0 0 0 0 0 0 0 0 0 0 0 0 0.25 0"/>
<feBlend mode="normal" in2="BackgroundImageFix" result="effect1_dropShadow_714_416"/>
<feBlend mode="normal" in="SourceGraphic" in2="effect1_dropShadow_714_416" result="shape"/>
</filter>
</defs>
</svg>
