<svg width="83" height="84" viewBox="0 0 83 84" fill="none" xmlns="http://www.w3.org/2000/svg">
<g filter="url(#filter0_d_714_762)">
<path d="M79 38.0005C79 38.6135 78.9854 39.2275 78.9552 39.8405C78.925 40.4534 78.8792 41.0654 78.8198 41.6752C78.7594 42.2861 78.6844 42.8949 78.5937 43.5026C78.5042 44.1094 78.3989 44.714 78.2791 45.3155C78.1593 45.918 78.025 46.5164 77.876 47.1116C77.7271 47.7069 77.5635 48.298 77.3854 48.8859C77.2072 49.4728 77.0145 50.0556 76.8083 50.6331C76.601 51.2106 76.3801 51.784 76.1458 52.35C75.9103 52.9171 75.6624 53.478 75.3999 54.0336C75.1374 54.5882 74.8613 55.1355 74.5718 55.6776C74.2832 56.2186 73.9801 56.7523 73.6644 57.2788C73.3488 57.8052 73.0207 58.3233 72.68 58.8341C72.3394 59.3439 71.9863 59.8453 71.6206 60.3384C71.255 60.8315 70.8769 61.3152 70.4883 61.7895C70.0987 62.2638 69.6977 62.7288 69.2851 63.1833C68.8737 63.6378 68.4507 64.0819 68.0164 64.5166C67.583 64.9503 67.1382 65.3735 66.683 65.7853C66.2288 66.1971 65.7642 66.5984 65.2892 66.9873C64.8152 67.3771 64.3319 67.7545 63.8392 68.1204C63.3454 68.4853 62.8443 68.8387 62.3339 69.1796C61.8235 69.5204 61.3047 69.8488 60.7787 70.1647C60.2526 70.4795 59.7182 70.7829 59.1776 71.0716C58.6359 71.3614 58.088 71.6366 57.5338 71.8993C56.9786 72.162 56.4181 72.4101 55.8504 72.6447C55.2837 72.8803 54.7108 73.1013 54.1337 73.3077C53.5555 73.5141 52.9732 73.707 52.3857 73.8852C51.7982 74.0635 51.2076 74.2271 50.6117 74.3762C50.0169 74.5253 49.4179 74.6598 48.8158 74.7786C48.2137 74.8985 47.6095 75.0038 47.0022 75.0934C46.3949 75.1841 45.7866 75.2592 45.1761 75.3186C44.5647 75.3791 43.9532 75.4239 43.3396 75.4541C42.7271 75.4844 42.1136 75.5 41.5 75.5C40.8864 75.5 40.2729 75.4844 39.6604 75.4541C39.0468 75.4239 38.4353 75.3791 37.8239 75.3186C37.2134 75.2592 36.6051 75.1841 35.9978 75.0934C35.3905 75.0038 34.7863 74.8985 34.1842 74.7786C33.5821 74.6598 32.9831 74.5253 32.3883 74.3762C31.7924 74.2271 31.2018 74.0635 30.6143 73.8852C30.0268 73.707 29.4445 73.5141 28.8663 73.3077C28.2892 73.1013 27.7163 72.8803 27.1496 72.6447C26.5819 72.4101 26.0214 72.162 25.4662 71.8993C24.912 71.6366 24.3641 71.3614 23.8224 71.0716C23.2818 70.7829 22.7474 70.4795 22.2213 70.1647C21.6942 69.8488 21.1765 69.5204 20.6661 69.1796C20.1557 68.8387 19.6546 68.4853 19.1608 68.1204C18.6681 67.7545 18.1848 67.3771 17.7098 66.9873C17.2358 66.5984 16.7712 66.1971 16.317 65.7853C15.8618 65.3735 15.417 64.9503 14.9836 64.5166C14.5493 64.0819 14.1263 63.6378 13.7149 63.1833C13.3023 62.7288 12.9013 62.2638 12.5117 61.7895C12.1231 61.3152 11.745 60.8315 11.3794 60.3384C11.0137 59.8453 10.6606 59.3439 10.32 58.8341C9.97933 58.3233 9.6512 57.8052 9.33556 57.2788C9.01993 56.7523 8.7168 56.2186 8.42825 55.6776C8.13866 55.1355 7.86261 54.5882 7.6001 54.0336C7.33759 53.478 7.08967 52.9171 6.85425 52.35C6.61986 51.784 6.39902 51.2106 6.19173 50.6331C5.98547 50.0556 5.79276 49.4728 5.61463 48.8859C5.4365 48.298 5.27295 47.7069 5.12399 47.1116C4.97503 46.5164 4.84065 45.918 4.72085 45.3155C4.60106 44.714 4.49585 44.1094 4.40626 43.5026C4.31563 42.8949 4.24063 42.2861 4.18021 41.6752C4.12084 41.0654 4.075 40.4534 4.04479 39.8405C4.01458 39.2275 4 38.6135 4 38.0005C4 37.3865 4.01458 36.7725 4.04479 36.1595C4.075 35.5466 4.12084 34.9346 4.18021 34.3248C4.24063 33.7139 4.31563 33.1051 4.40626 32.4974C4.49585 31.8906 4.60106 31.286 4.72085 30.6845C4.84065 30.082 4.97503 29.4836 5.12399 28.8884C5.27295 28.2931 5.4365 27.702 5.61463 27.1141C5.79276 26.5272 5.98547 25.9444 6.19173 25.3669C6.39902 24.7894 6.61986 24.216 6.85425 23.65C7.08967 23.0829 7.33759 22.522 7.6001 21.9664C7.86261 21.4118 8.13866 20.8645 8.42825 20.3224C8.7168 19.7814 9.01993 19.2477 9.33556 18.7212C9.6512 18.1948 9.97933 17.6767 10.32 17.1659C10.6606 16.6561 11.0137 16.1547 11.3794 15.6616C11.745 15.1685 12.1231 14.6848 12.5117 14.2105C12.9013 13.7362 13.3023 13.2712 13.7149 12.8167C14.1263 12.3622 14.5493 11.9181 14.9836 11.4834C15.417 11.0497 15.8618 10.6265 16.317 10.2147C16.7712 9.80294 17.2358 9.40159 17.7098 9.01275C18.1848 8.62287 18.6681 8.2455 19.1608 7.8796C19.6546 7.51473 20.1557 7.16134 20.6661 6.82045C21.1765 6.47957 21.6942 6.15119 22.2213 5.83533C22.7474 5.5205 23.2818 5.21715 23.8224 4.92838C24.3641 4.63858 24.912 4.36337 25.4662 4.10067C26.0214 3.83797 26.5819 3.58986 27.1496 3.35531C27.7163 3.11971 28.2892 2.89871 28.8663 2.6923C29.4445 2.48589 30.0268 2.29304 30.6143 2.11478C31.2018 1.93651 31.7924 1.77285 32.3883 1.62378C32.9831 1.4747 33.5821 1.34023 34.1842 1.22138C34.7863 1.1015 35.3905 0.996213 35.9978 0.906561C36.6051 0.815866 37.2134 0.740809 37.8239 0.681389C38.4353 0.620926 39.0468 0.5761 39.6604 0.545868C40.2729 0.515637 40.8864 0.5 41.5 0.5C42.1136 0.5 42.7271 0.515637 43.3396 0.545868C43.9532 0.5761 44.5647 0.620926 45.1761 0.681389C45.7866 0.740809 46.3949 0.815866 47.0022 0.906561C47.6095 0.996213 48.2137 1.1015 48.8158 1.22138C49.4179 1.34023 50.0169 1.4747 50.6117 1.62378C51.2076 1.77285 51.7982 1.93651 52.3857 2.11478C52.9732 2.29304 53.5555 2.48589 54.1337 2.6923C54.7108 2.89871 55.2837 3.11971 55.8504 3.35531C56.4181 3.58986 56.9786 3.83797 57.5338 4.10067C58.088 4.36337 58.6359 4.63858 59.1776 4.92838C59.7182 5.21715 60.2526 5.5205 60.7787 5.83533C61.3047 6.15119 61.8235 6.47957 62.3339 6.82045C62.8443 7.16134 63.3454 7.51473 63.8392 7.8796C64.3319 8.2455 64.8152 8.62287 65.2892 9.01275C65.7642 9.40159 66.2288 9.80294 66.683 10.2147C67.1382 10.6265 67.583 11.0497 68.0164 11.4834C68.4507 11.9181 68.8737 12.3622 69.2851 12.8167C69.6977 13.2712 70.0987 13.7362 70.4883 14.2105C70.8769 14.6848 71.255 15.1685 71.6206 15.6616C71.9863 16.1547 72.3394 16.6561 72.68 17.1659C73.0207 17.6767 73.3488 18.1948 73.6644 18.7212C73.9801 19.2477 74.2832 19.7814 74.5718 20.3224C74.8613 20.8645 75.1374 21.4118 75.3999 21.9664C75.6624 22.522 75.9103 23.0829 76.1458 23.65C76.3801 24.216 76.601 24.7894 76.8083 25.3669C77.0145 25.9444 77.2072 26.5272 77.3854 27.1141C77.5635 27.702 77.7271 28.2931 77.876 28.8884C78.025 29.4836 78.1593 30.082 78.2791 30.6845C78.3989 31.286 78.5042 31.8906 78.5937 32.4974C78.6844 33.1051 78.7594 33.7139 78.8198 34.3248C78.8792 34.9346 78.925 35.5466 78.9552 36.1595C78.9854 36.7725 79 37.3865 79 38.0005Z" fill="#C3EDEF"/>
<path d="M46.1345 32.2576H49.3346V42.6655H46.1345V32.2576Z" fill="white"/>
<path d="M39.7344 34.6595H42.9345V42.6656H39.7344V34.6595Z" fill="white"/>
<path d="M33.3342 37.8619H36.5343V42.6655H33.3342V37.8619Z" fill="white"/>
<path d="M60.3872 35.4723L58.2427 34.7745C57.4816 34.5271 56.8932 33.8989 56.6643 33.1038C56.5899 32.8458 56.5099 32.5912 56.4243 32.3393C56.1571 31.5532 56.2765 30.682 56.7549 30.0126L58.0332 28.224C57.2438 26.8112 56.2871 25.5091 55.1882 24.3443L53.2553 25.0243C52.4964 25.2906 51.6642 25.1411 51.028 24.634C50.8275 24.4739 50.6225 24.3188 50.4147 24.1692C49.758 23.6961 49.3658 22.9194 49.3752 22.0882L49.398 20.1339C47.9468 19.4495 46.3985 18.9458 44.7795 18.6472L43.7451 20.1667C43.2823 20.8456 42.5267 21.2342 41.7267 21.2142C41.5967 21.2108 41.4656 21.2092 41.3344 21.2092C41.2033 21.2092 41.0728 21.2108 40.9422 21.2142C40.1422 21.2342 39.3866 20.8456 38.9238 20.1667L37.8893 18.6472C36.2704 18.9458 34.722 19.4495 33.2726 20.1334L33.2948 22.0876C33.3048 22.9183 32.9125 23.695 32.2559 24.1681C32.0475 24.3188 31.8431 24.4733 31.642 24.6335C31.0064 25.14 30.1736 25.2906 29.4147 25.0232L27.4818 24.3438C26.3835 25.5086 25.4268 26.8101 24.6373 28.2234L25.9157 30.012C26.394 30.6814 26.5135 31.5521 26.2462 32.3382C26.1607 32.5906 26.0807 32.8453 26.0062 33.1033C25.7773 33.8989 25.189 34.5266 24.4273 34.774L22.2834 35.4712C22.1884 36.2557 22.1339 37.0524 22.1339 37.8619C22.1339 38.6714 22.1884 39.4681 22.2817 40.2509L24.4262 40.9481C25.1873 41.1956 25.7757 41.8244 26.0046 42.6189C26.079 42.8768 26.159 43.1315 26.2446 43.3839C26.5118 44.17 26.3924 45.0407 25.914 45.7101L24.6356 47.4987C25.4251 48.912 26.3818 50.2136 27.4807 51.3789L29.4136 50.6989C30.1725 50.4321 31.0047 50.5822 31.6408 51.0887C31.8414 51.2488 32.0464 51.4045 32.2542 51.554C32.9109 52.0272 33.3031 52.8039 33.2937 53.6345L33.2709 55.5888C34.7215 56.2726 36.2693 56.7763 37.8888 57.0749L38.9233 55.5554C39.3855 54.8754 40.1416 54.4879 40.9417 54.5079C41.0722 54.5129 41.2033 54.5146 41.3344 54.5146C41.4656 54.5146 41.5961 54.5129 41.7267 54.5096C42.5267 54.4896 43.2823 54.8782 43.7451 55.5571L44.7795 57.0766C46.3985 56.778 47.9468 56.2743 49.3963 55.5904L49.3741 53.6362C49.3641 52.8055 49.7563 52.0288 50.413 51.5557C50.6214 51.4056 50.8258 51.2505 51.0269 51.0903C51.6625 50.5838 52.4953 50.4332 53.2542 50.7006L55.187 51.38C56.2854 50.2152 57.2421 48.9137 58.0316 47.5004L56.7532 45.7118C56.2749 45.0424 56.1554 44.1717 56.4226 43.3856C56.5082 43.1331 56.5882 42.8785 56.6626 42.6205C56.8915 41.8249 57.4799 41.1972 58.2416 40.9498L60.3855 40.2526C60.4805 39.4681 60.535 38.6714 60.535 37.8619C60.535 37.0524 60.4805 36.2557 60.3872 35.4723ZM41.3344 50.6717C34.2648 50.6717 28.5341 44.9367 28.5341 37.8619C28.5341 30.787 34.2648 25.0521 41.3344 25.0521C48.4041 25.0521 54.1348 30.787 54.1348 37.8619C54.1348 44.9367 48.4041 50.6717 41.3344 50.6717Z" fill="#00CCCC"/>
<path d="M41.3344 23.4509C33.3814 23.4509 26.934 29.903 26.934 37.8619C26.934 45.8207 33.3814 52.2729 41.3344 52.2729C49.2874 52.2729 55.7348 45.8207 55.7348 37.8619C55.7348 29.903 49.2874 23.4509 41.3344 23.4509ZM41.3344 50.6717C34.2647 50.6717 28.534 44.9367 28.534 37.8619C28.534 30.787 34.2647 25.0521 41.3344 25.0521C48.404 25.0521 54.1347 30.787 54.1347 37.8619C54.1347 44.9367 48.404 50.6717 41.3344 50.6717Z" fill="#737373"/>
<mask id="mask0_714_762" style="mask-type:luminance" maskUnits="userSpaceOnUse" x="18" y="13" width="48" height="21">
<path d="M18.7915 13.8435H65.335V33.9478H18.7915V13.8435Z" fill="white"/>
</mask>
<g mask="url(#mask0_714_762)">
<path d="M63.5661 28.8444C59.9154 19.8448 51.0913 13.8435 41.3344 13.8435C31.3108 13.8435 22.2544 20.1678 18.8004 29.5794L20.3016 30.131C23.5267 21.347 31.9791 15.4448 41.3344 15.4448C50.4068 15.4448 58.6154 21.004 62.0461 29.3515L59.7349 29.8558L64.535 33.8588L65.335 28.2545L63.5661 28.8444Z" fill="#737373"/>
</g>
<mask id="mask1_714_762" style="mask-type:luminance" maskUnits="userSpaceOnUse" x="17" y="41" width="47" height="21">
<path d="M17.3337 41.776H63.8772V61.8802H17.3337V41.776Z" fill="white"/>
</mask>
<g mask="url(#mask1_714_762)">
<path d="M41.3344 60.279C32.4475 60.279 24.3862 54.9477 20.8344 46.8855L22.9339 46.6686L18.9338 41.865L17.3337 47.4692L19.2171 47.1557C22.9339 56.0013 31.6775 61.8802 41.3344 61.8802C51.358 61.8802 60.4144 55.556 63.8684 46.1443L62.3672 45.5928C59.1421 54.3767 50.6897 60.279 41.3344 60.279Z" fill="#737373"/>
</g>
<mask id="mask2_714_762" style="mask-type:luminance" maskUnits="userSpaceOnUse" x="32" y="29" width="18" height="18">
<path d="M32.8164 29.2837H49.8835V46.4701H32.8164V29.2837Z" fill="white"/>
</mask>
<g mask="url(#mask2_714_762)">
<path d="M48.4841 32.6257H41.1684V30.9116C41.1684 30.781 41.12 30.6637 41.0278 30.5714L39.8833 29.4266C39.7917 29.3343 39.6739 29.2854 39.5433 29.2854H33.297C33.032 29.2854 32.8159 29.5011 32.8159 29.7663V39.4732C32.8159 39.7384 33.0315 39.9547 33.297 39.9547H34.7293V41.7533C34.7293 42.5255 35.3571 43.1538 36.1288 43.1538H39.735V44.3836H38.3038C37.6233 44.3836 37.0694 44.8517 37.0694 45.4261V46.1916C37.0694 46.3445 37.1933 46.4691 37.3466 46.4691H47.2663C47.4197 46.4691 47.5435 46.3445 47.5435 46.1916V45.4261C47.5435 44.8517 46.9896 44.3836 46.3091 44.3836H44.8779V43.1538H48.4841C49.2558 43.1538 49.8836 42.5255 49.8836 41.7533V34.0257C49.8836 33.254 49.2558 32.6257 48.4841 32.6257ZM36.2216 39.9547H40.6878C40.9528 39.9547 41.1684 39.7389 41.1684 39.4732V34.1191H48.3914V40.7075H36.2216V39.9547ZM39.905 30.2317L40.2228 30.5497H39.905V30.2317ZM33.3698 29.8397H39.3511V30.7248C39.3511 30.9339 39.5211 31.104 39.73 31.104H40.6145V39.4003H33.3698V29.8397ZM46.9896 45.4261V45.9148H37.6233V45.4261C37.6233 45.1614 37.9349 44.9379 38.3038 44.9379H46.3091C46.678 44.9379 46.9896 45.162 46.9896 45.4261ZM44.324 44.3836H40.2889V43.1538H44.324V44.3836ZM49.3297 41.7533C49.3297 42.2197 48.9503 42.5995 48.4841 42.5995H36.1288C35.6627 42.5995 35.2832 42.2197 35.2832 41.7533V39.9547H35.6677V40.9843C35.6677 41.1372 35.7921 41.2618 35.9449 41.2618H48.668C48.8208 41.2618 48.9453 41.1372 48.9453 40.9843V33.9979C48.9453 33.7588 48.7508 33.5648 48.5125 33.5648H41.1684V33.18H48.4841C48.9503 33.18 49.3297 33.5592 49.3297 34.0257V41.7533ZM36.566 32.6813C36.566 32.5279 36.6905 32.4039 36.8433 32.4039H39.8478C40.0006 32.4039 40.125 32.5279 40.125 32.6813C40.125 32.8342 40.0006 32.9582 39.8478 32.9582H36.8433C36.6905 32.9582 36.566 32.8342 36.566 32.6813ZM36.566 31.6416C36.566 31.4887 36.6905 31.3648 36.8433 31.3648H39.8478C40.0006 31.3648 40.125 31.4887 40.125 31.6416C40.125 31.7951 40.0006 31.9191 39.8478 31.9191H36.8433C36.6905 31.9191 36.566 31.7951 36.566 31.6416ZM36.566 35.1399C36.566 34.9864 36.6905 34.8624 36.8433 34.8624H39.8478C40.0006 34.8624 40.125 34.9864 40.125 35.1399C40.125 35.2928 40.0006 35.4168 39.8478 35.4168H36.8433C36.6905 35.4168 36.566 35.2928 36.566 35.1399ZM36.566 34.1002C36.566 33.9473 36.6905 33.8233 36.8433 33.8233H39.8478C40.0006 33.8233 40.125 33.9473 40.125 34.1002C40.125 34.2531 40.0006 34.3776 39.8478 34.3776H36.8433C36.6905 34.3776 36.566 34.2531 36.566 34.1002ZM36.566 37.5979C36.566 37.445 36.6905 37.321 36.8433 37.321H39.8478C40.0006 37.321 40.125 37.445 40.125 37.5979C40.125 37.7513 40.0006 37.8753 39.8478 37.8753H36.8433C36.6905 37.8753 36.566 37.7513 36.566 37.5979ZM36.566 36.5587C36.566 36.4058 36.6905 36.2813 36.8433 36.2813H39.8478C40.0006 36.2813 40.125 36.4058 40.125 36.5587C40.125 36.7116 40.0006 36.8356 39.8478 36.8356H36.8433C36.6905 36.8356 36.566 36.7116 36.566 36.5587ZM34.426 33.1661H35.3015C35.6138 33.1661 35.8677 32.9121 35.8677 32.5996V31.7234C35.8677 31.4109 35.6138 31.1568 35.3015 31.1568H34.426C34.1137 31.1568 33.8598 31.4109 33.8598 31.7234V32.5996C33.8598 32.9121 34.1137 33.1661 34.426 33.1661ZM34.4137 31.7234C34.4137 31.7173 34.4199 31.7111 34.426 31.7111H35.3015C35.3077 31.7111 35.3138 31.7173 35.3138 31.7234V32.5996C35.3138 32.6057 35.3077 32.6118 35.3015 32.6118H34.426C34.4199 32.6118 34.4137 32.6057 34.4137 32.5996V31.7234ZM34.426 35.6247H35.3015C35.6138 35.6247 35.8677 35.3706 35.8677 35.0581V34.1819C35.8677 33.8695 35.6138 33.6154 35.3015 33.6154H34.426C34.1137 33.6154 33.8598 33.8695 33.8598 34.1819V35.0581C33.8598 35.3706 34.1137 35.6247 34.426 35.6247ZM34.4137 34.1819C34.4137 34.1758 34.4199 34.1697 34.426 34.1697H35.3015C35.3077 34.1697 35.3138 34.1758 35.3138 34.1819V35.0581C35.3138 35.0643 35.3077 35.0704 35.3015 35.0704H34.426C34.4199 35.0704 34.4137 35.0643 34.4137 35.0581V34.1819ZM35.8677 37.5167V36.6399C35.8677 36.328 35.6138 36.0739 35.3015 36.0739H34.426C34.1137 36.0739 33.8598 36.328 33.8598 36.6399V37.5167C33.8598 37.8291 34.1137 38.0832 34.426 38.0832H35.3015C35.6138 38.0827 35.8677 37.8286 35.8677 37.5167ZM34.4137 37.5167V36.6399C34.4137 36.6343 34.4199 36.6282 34.426 36.6282H35.3015C35.3077 36.6282 35.3138 36.6343 35.3138 36.6399V37.5167C35.3138 37.5228 35.3077 37.5289 35.3015 37.5289H34.426C34.4199 37.5284 34.4137 37.5228 34.4137 37.5167ZM47.4752 39.7011C47.4752 39.854 47.3513 39.978 47.198 39.978H42.3612C42.2084 39.978 42.0845 39.854 42.0845 39.7011C42.0845 39.5482 42.2084 39.4237 42.3612 39.4237H47.198C47.3513 39.4237 47.4752 39.5482 47.4752 39.7011ZM47.4752 38.1761C47.4752 38.329 47.3513 38.453 47.198 38.453H42.3612C42.2084 38.453 42.0845 38.329 42.0845 38.1761C42.0845 38.0226 42.2084 37.8986 42.3612 37.8986H47.198C47.3513 37.8986 47.4752 38.0226 47.4752 38.1761ZM47.4752 36.6505C47.4752 36.8034 47.3513 36.9273 47.198 36.9273H42.3612C42.2084 36.9273 42.0845 36.8034 42.0845 36.6505C42.0845 36.4976 42.2084 36.3736 42.3612 36.3736H47.198C47.3513 36.3736 47.4752 36.4976 47.4752 36.6505ZM47.4752 35.1249C47.4752 35.2783 47.3513 35.4023 47.198 35.4023H42.3612C42.2084 35.4023 42.0845 35.2783 42.0845 35.1249C42.0845 34.972 42.2084 34.848 42.3612 34.848H47.198C47.3513 34.848 47.4752 34.972 47.4752 35.1249Z" fill="#00CCCC"/>
</g>
</g>
<defs>
<filter id="filter0_d_714_762" x="0" y="0.5" width="83" height="83" filterUnits="userSpaceOnUse" color-interpolation-filters="sRGB">
<feFlood flood-opacity="0" result="BackgroundImageFix"/>
<feColorMatrix in="SourceAlpha" type="matrix" values="0 0 0 0 0 0 0 0 0 0 0 0 0 0 0 0 0 0 127 0" result="hardAlpha"/>
<feOffset dy="4"/>
<feGaussianBlur stdDeviation="2"/>
<feComposite in2="hardAlpha" operator="out"/>
<feColorMatrix type="matrix" values="0 0 0 0 0 0 0 0 0 0 0 0 0 0 0 0 0 0 0.25 0"/>
<feBlend mode="normal" in2="BackgroundImageFix" result="effect1_dropShadow_714_762"/>
<feBlend mode="normal" in="SourceGraphic" in2="effect1_dropShadow_714_762" result="shape"/>
</filter>
</defs>
</svg>
