<svg width="83" height="83" viewBox="0 0 83 83" fill="none" xmlns="http://www.w3.org/2000/svg">
<g filter="url(#filter0_d_714_903)">
<path d="M79 37.5005C79 38.1135 78.9854 38.7275 78.9552 39.3405C78.925 39.9534 78.8792 40.5654 78.8198 41.1752C78.7594 41.7861 78.6844 42.3949 78.5937 43.0026C78.5042 43.6094 78.3989 44.214 78.2791 44.8155C78.1593 45.418 78.025 46.0164 77.876 46.6116C77.7271 47.2069 77.5635 47.798 77.3854 48.3859C77.2072 48.9728 77.0145 49.5556 76.8083 50.1331C76.601 50.7106 76.3801 51.284 76.1458 51.85C75.9103 52.4171 75.6624 52.978 75.3999 53.5336C75.1374 54.0882 74.8613 54.6355 74.5718 55.1776C74.2832 55.7186 73.9801 56.2523 73.6644 56.7788C73.3488 57.3052 73.0207 57.8233 72.68 58.3341C72.3394 58.8439 71.9863 59.3453 71.6206 59.8384C71.255 60.3315 70.8769 60.8152 70.4883 61.2895C70.0987 61.7638 69.6977 62.2288 69.2851 62.6833C68.8737 63.1378 68.4507 63.5819 68.0164 64.0166C67.583 64.4503 67.1382 64.8735 66.683 65.2853C66.2288 65.6971 65.7642 66.0984 65.2892 66.4873C64.8152 66.8771 64.3319 67.2545 63.8392 67.6204C63.3454 67.9853 62.8443 68.3387 62.3339 68.6796C61.8235 69.0204 61.3047 69.3488 60.7787 69.6647C60.2526 69.9795 59.7182 70.2829 59.1776 70.5716C58.6359 70.8614 58.088 71.1366 57.5338 71.3993C56.9786 71.662 56.4181 71.9101 55.8504 72.1447C55.2837 72.3803 54.7108 72.6013 54.1337 72.8077C53.5555 73.0141 52.9732 73.207 52.3857 73.3852C51.7982 73.5635 51.2076 73.7271 50.6117 73.8762C50.0169 74.0253 49.4179 74.1598 48.8158 74.2786C48.2137 74.3985 47.6095 74.5038 47.0022 74.5934C46.3949 74.6841 45.7866 74.7592 45.1761 74.8186C44.5647 74.8791 43.9532 74.9239 43.3396 74.9541C42.7271 74.9844 42.1136 75 41.5 75C40.8864 75 40.2729 74.9844 39.6604 74.9541C39.0468 74.9239 38.4353 74.8791 37.8239 74.8186C37.2134 74.7592 36.6051 74.6841 35.9978 74.5934C35.3905 74.5038 34.7863 74.3985 34.1842 74.2786C33.5821 74.1598 32.9831 74.0253 32.3883 73.8762C31.7924 73.7271 31.2018 73.5635 30.6143 73.3852C30.0268 73.207 29.4445 73.0141 28.8663 72.8077C28.2892 72.6013 27.7163 72.3803 27.1496 72.1447C26.5819 71.9101 26.0214 71.662 25.4662 71.3993C24.912 71.1366 24.3641 70.8614 23.8224 70.5716C23.2818 70.2829 22.7474 69.9795 22.2213 69.6647C21.6942 69.3488 21.1765 69.0204 20.6661 68.6796C20.1557 68.3387 19.6546 67.9853 19.1608 67.6204C18.6681 67.2545 18.1848 66.8771 17.7098 66.4873C17.2358 66.0984 16.7712 65.6971 16.317 65.2853C15.8618 64.8735 15.417 64.4503 14.9836 64.0166C14.5493 63.5819 14.1263 63.1378 13.7149 62.6833C13.3023 62.2288 12.9013 61.7638 12.5117 61.2895C12.1231 60.8152 11.745 60.3315 11.3794 59.8384C11.0137 59.3453 10.6606 58.8439 10.32 58.3341C9.97933 57.8233 9.6512 57.3052 9.33556 56.7788C9.01993 56.2523 8.7168 55.7186 8.42825 55.1776C8.13866 54.6355 7.86261 54.0882 7.6001 53.5336C7.33759 52.978 7.08967 52.4171 6.85425 51.85C6.61986 51.284 6.39902 50.7106 6.19173 50.1331C5.98547 49.5556 5.79276 48.9728 5.61463 48.3859C5.4365 47.798 5.27295 47.2069 5.12399 46.6116C4.97503 46.0164 4.84065 45.418 4.72085 44.8155C4.60106 44.214 4.49585 43.6094 4.40626 43.0026C4.31563 42.3949 4.24063 41.7861 4.18021 41.1752C4.12084 40.5654 4.075 39.9534 4.04479 39.3405C4.01458 38.7275 4 38.1135 4 37.5005C4 36.8865 4.01458 36.2725 4.04479 35.6595C4.075 35.0466 4.12084 34.4346 4.18021 33.8248C4.24063 33.2139 4.31563 32.6051 4.40626 31.9974C4.49585 31.3906 4.60106 30.786 4.72085 30.1845C4.84065 29.582 4.97503 28.9836 5.12399 28.3884C5.27295 27.7931 5.4365 27.202 5.61463 26.6141C5.79276 26.0272 5.98547 25.4444 6.19173 24.8669C6.39902 24.2894 6.61986 23.716 6.85425 23.15C7.08967 22.5829 7.33759 22.022 7.6001 21.4664C7.86261 20.9118 8.13866 20.3645 8.42825 19.8224C8.7168 19.2814 9.01993 18.7477 9.33556 18.2212C9.6512 17.6948 9.97933 17.1767 10.32 16.6659C10.6606 16.1561 11.0137 15.6547 11.3794 15.1616C11.745 14.6685 12.1231 14.1848 12.5117 13.7105C12.9013 13.2362 13.3023 12.7712 13.7149 12.3167C14.1263 11.8622 14.5493 11.4181 14.9836 10.9834C15.417 10.5497 15.8618 10.1265 16.317 9.71471C16.7712 9.30294 17.2358 8.90159 17.7098 8.51275C18.1848 8.12287 18.6681 7.7455 19.1608 7.3796C19.6546 7.01473 20.1557 6.66134 20.6661 6.32045C21.1765 5.97957 21.6942 5.65119 22.2213 5.33533C22.7474 5.0205 23.2818 4.71715 23.8224 4.42838C24.3641 4.13858 24.912 3.86337 25.4662 3.60067C26.0214 3.33797 26.5819 3.08986 27.1496 2.85531C27.7163 2.61971 28.2892 2.39871 28.8663 2.1923C29.4445 1.98589 30.0268 1.79304 30.6143 1.61478C31.2018 1.43651 31.7924 1.27285 32.3883 1.12378C32.9831 0.974703 33.5821 0.840225 34.1842 0.721384C34.7863 0.601501 35.3905 0.496213 35.9978 0.406561C36.6051 0.315866 37.2134 0.240809 37.8239 0.181389C38.4353 0.120926 39.0468 0.0760997 39.6604 0.0458684C40.2729 0.0156367 40.8864 0 41.5 0C42.1136 0 42.7271 0.0156367 43.3396 0.0458684C43.9532 0.0760997 44.5647 0.120926 45.1761 0.181389C45.7866 0.240809 46.3949 0.315866 47.0022 0.406561C47.6095 0.496213 48.2137 0.601501 48.8158 0.721384C49.4179 0.840225 50.0169 0.974703 50.6117 1.12378C51.2076 1.27285 51.7982 1.43651 52.3857 1.61478C52.9732 1.79304 53.5555 1.98589 54.1337 2.1923C54.7108 2.39871 55.2837 2.61971 55.8504 2.85531C56.4181 3.08986 56.9786 3.33797 57.5338 3.60067C58.088 3.86337 58.6359 4.13858 59.1776 4.42838C59.7182 4.71715 60.2526 5.0205 60.7787 5.33533C61.3047 5.65119 61.8235 5.97957 62.3339 6.32045C62.8443 6.66134 63.3454 7.01473 63.8392 7.3796C64.3319 7.7455 64.8152 8.12287 65.2892 8.51275C65.7642 8.90159 66.2288 9.30294 66.683 9.71471C67.1382 10.1265 67.583 10.5497 68.0164 10.9834C68.4507 11.4181 68.8737 11.8622 69.2851 12.3167C69.6977 12.7712 70.0987 13.2362 70.4883 13.7105C70.8769 14.1848 71.255 14.6685 71.6206 15.1616C71.9863 15.6547 72.3394 16.1561 72.68 16.6659C73.0207 17.1767 73.3488 17.6948 73.6644 18.2212C73.9801 18.7477 74.2832 19.2814 74.5718 19.8224C74.8613 20.3645 75.1374 20.9118 75.3999 21.4664C75.6624 22.022 75.9103 22.5829 76.1458 23.15C76.3801 23.716 76.601 24.2894 76.8083 24.8669C77.0145 25.4444 77.2072 26.0272 77.3854 26.6141C77.5635 27.202 77.7271 27.7931 77.876 28.3884C78.025 28.9836 78.1593 29.582 78.2791 30.1845C78.3989 30.786 78.5042 31.3906 78.5937 31.9974C78.6844 32.6051 78.7594 33.2139 78.8198 33.8248C78.8792 34.4346 78.925 35.0466 78.9552 35.6595C78.9854 36.2725 79 36.8865 79 37.5005Z" fill="#C3EDEF"/>
<path d="M33.7761 57.0944H49.0195C50.1387 57.0944 51.0934 57.9504 51.2797 59.1189L51.2971 59.2208C51.3427 59.5109 51.1326 59.7738 50.8551 59.7738H31.9412C31.6637 59.7738 31.4523 59.5088 31.4992 59.2208L31.5172 59.1189C31.7035 57.9504 32.6582 57.0944 33.7774 57.0944H33.7761Z" fill="#CBEDE1" stroke="#0B5243" stroke-width="1.11088" stroke-linecap="round" stroke-linejoin="round"/>
<mask id="mask0_714_903" style="mask-type:luminance" maskUnits="userSpaceOnUse" x="12" y="14" width="59" height="40">
<path d="M12.311 14.9504H70.5296V54H12.311V14.9504Z" fill="white"/>
</mask>
<g mask="url(#mask0_714_903)">
<path d="M15.2414 15.0224H67.6481C67.7413 15.0224 67.8344 15.0279 67.9276 15.0374C68.0208 15.0469 68.1133 15.0612 68.2045 15.0809C68.2964 15.0999 68.387 15.1243 68.4763 15.1529C68.5656 15.1814 68.6536 15.2147 68.7397 15.2527C68.8264 15.2908 68.9106 15.3329 68.9928 15.3791C69.0757 15.426 69.1554 15.4769 69.2331 15.5319C69.3109 15.587 69.386 15.6454 69.458 15.7086C69.5299 15.7711 69.5993 15.8376 69.6655 15.9076C69.7317 15.9776 69.794 16.0503 69.8538 16.1271C69.9129 16.2038 69.9681 16.2826 70.0202 16.3648C70.0722 16.4477 70.1204 16.5319 70.1641 16.6196C70.2084 16.7065 70.2482 16.7962 70.2842 16.8872C70.3195 16.979 70.351 17.072 70.378 17.1665C70.4056 17.2609 70.4281 17.3567 70.4461 17.4538C70.4647 17.551 70.4782 17.6488 70.4872 17.7473C70.4969 17.8458 70.5014 17.9443 70.5014 18.0435V50.9083C70.5014 51.0068 70.4969 51.106 70.4872 51.2038C70.4782 51.3023 70.4647 51.4002 70.4461 51.4973C70.4281 51.5944 70.4056 51.6902 70.378 51.7847C70.351 51.8798 70.3195 51.9728 70.2842 52.0639C70.2482 52.1556 70.2084 52.2446 70.1641 52.3322C70.1204 52.4192 70.0722 52.5041 70.0202 52.5863C69.9681 52.6685 69.9129 52.748 69.8538 52.8241C69.794 52.9008 69.7317 52.9742 69.6655 53.0442C69.5993 53.1141 69.5299 53.18 69.458 53.2432C69.386 53.3057 69.3109 53.3648 69.2331 53.4198C69.1554 53.4742 69.0757 53.5252 68.9928 53.572C68.9106 53.6189 68.8264 53.661 68.7397 53.6984C68.6536 53.7364 68.5656 53.7697 68.4763 53.7982C68.387 53.8275 68.2964 53.8512 68.2045 53.8703C68.1133 53.89 68.0208 53.9042 67.9276 53.9144C67.8344 53.9239 67.7413 53.9287 67.6481 53.9287H15.2414C15.1476 53.9287 15.0545 53.9239 14.9619 53.9144C14.8688 53.9042 14.7763 53.89 14.685 53.8703C14.5932 53.8512 14.5026 53.8275 14.4133 53.7982C14.324 53.7697 14.2359 53.7364 14.1492 53.6984C14.0631 53.661 13.979 53.6189 13.8967 53.572C13.8138 53.5252 13.7342 53.4742 13.6564 53.4198C13.5787 53.3648 13.5035 53.3057 13.4316 53.2432C13.359 53.18 13.2902 53.1141 13.224 53.0442C13.1579 52.9742 13.0949 52.9008 13.0358 52.8241C12.9767 52.748 12.9208 52.6685 12.8694 52.5863C12.8174 52.5041 12.7692 52.4192 12.7248 52.3322C12.6812 52.2446 12.6413 52.1556 12.6053 52.0639C12.5694 51.9728 12.5385 51.8798 12.5109 51.7847C12.4839 51.6902 12.4614 51.5944 12.4428 51.4973C12.4248 51.4002 12.4113 51.3023 12.4017 51.2038C12.3927 51.106 12.3882 51.0068 12.3882 50.9083V18.0435C12.3882 17.9443 12.3927 17.8458 12.4017 17.7473C12.4113 17.6488 12.4248 17.551 12.4428 17.4538C12.4614 17.3567 12.4839 17.2609 12.5109 17.1665C12.5385 17.072 12.5694 16.979 12.6053 16.8872C12.6413 16.7962 12.6812 16.7065 12.7248 16.6196C12.7692 16.5319 12.8174 16.4477 12.8694 16.3648C12.9208 16.2826 12.9767 16.2038 13.0358 16.1271C13.0949 16.0503 13.1579 15.9776 13.224 15.9076C13.2902 15.8376 13.359 15.7711 13.4316 15.7086C13.5035 15.6454 13.5787 15.587 13.6564 15.5319C13.7342 15.4769 13.8138 15.426 13.8967 15.3791C13.979 15.3329 14.0631 15.2908 14.1492 15.2527C14.2359 15.2147 14.324 15.1814 14.4133 15.1529C14.5026 15.1243 14.5932 15.0999 14.685 15.0809C14.7763 15.0612 14.8688 15.0469 14.9619 15.0374C15.0545 15.0279 15.1476 15.0224 15.2414 15.0224Z" fill="#CBEDE1"/>
</g>
<mask id="mask1_714_903" style="mask-type:luminance" maskUnits="userSpaceOnUse" x="12" y="14" width="59" height="41">
<path d="M12.311 14.9504H70.6581V54.8696H12.311V14.9504Z" fill="white"/>
</mask>
<g mask="url(#mask1_714_903)">
<path d="M15.2414 15.0224H67.6481C67.7413 15.0224 67.8345 15.0279 67.9276 15.0374C68.0208 15.0469 68.1133 15.0612 68.2045 15.0809C68.2964 15.0999 68.387 15.1243 68.4763 15.1529C68.5656 15.1814 68.6536 15.2147 68.7397 15.2527C68.8264 15.2908 68.9106 15.3329 68.9928 15.3791C69.0757 15.426 69.1554 15.4769 69.2331 15.5319C69.3109 15.587 69.386 15.6454 69.458 15.7086C69.5299 15.7711 69.5993 15.8376 69.6655 15.9076C69.7317 15.9776 69.794 16.0503 69.8538 16.127C69.9129 16.2038 69.9681 16.2826 70.0202 16.3648C70.0722 16.4477 70.1204 16.5319 70.1641 16.6196C70.2084 16.7065 70.2482 16.7962 70.2842 16.8872C70.3195 16.979 70.351 17.072 70.378 17.1665C70.4056 17.2609 70.4281 17.3567 70.4461 17.4538C70.4647 17.551 70.4782 17.6488 70.4872 17.7473C70.4969 17.8458 70.5014 17.9443 70.5014 18.0435V50.9083C70.5014 51.0068 70.4969 51.106 70.4872 51.2038C70.4782 51.3023 70.4647 51.4001 70.4461 51.4973C70.4281 51.5944 70.4056 51.6902 70.378 51.7847C70.351 51.8798 70.3195 51.9728 70.2842 52.0639C70.2482 52.1556 70.2084 52.2446 70.1641 52.3322C70.1204 52.4192 70.0722 52.5041 70.0202 52.5863C69.9681 52.6685 69.9129 52.748 69.8538 52.8241C69.794 52.9008 69.7317 52.9742 69.6655 53.0442C69.5993 53.1141 69.5299 53.18 69.458 53.2432C69.386 53.3057 69.3109 53.3648 69.2331 53.4198C69.1554 53.4742 69.0757 53.5251 68.9928 53.572C68.9106 53.6189 68.8264 53.661 68.7397 53.6984C68.6536 53.7364 68.5656 53.7697 68.4763 53.7982C68.387 53.8275 68.2964 53.8512 68.2045 53.8703C68.1133 53.89 68.0208 53.9042 67.9276 53.9144C67.8345 53.9239 67.7413 53.9287 67.6481 53.9287H15.2414C15.1476 53.9287 15.0545 53.9239 14.9619 53.9144C14.8688 53.9042 14.7763 53.89 14.685 53.8703C14.5932 53.8512 14.5026 53.8275 14.4133 53.7982C14.324 53.7697 14.2359 53.7364 14.1492 53.6984C14.0631 53.661 13.979 53.6189 13.8967 53.572C13.8138 53.5251 13.7342 53.4742 13.6564 53.4198C13.5787 53.3648 13.5035 53.3057 13.4316 53.2432C13.359 53.18 13.2902 53.1141 13.224 53.0442C13.1579 52.9742 13.0949 52.9008 13.0358 52.8241C12.9767 52.748 12.9208 52.6685 12.8694 52.5863C12.8174 52.5041 12.7692 52.4192 12.7248 52.3322C12.6812 52.2446 12.6413 52.1556 12.6053 52.0639C12.5694 51.9728 12.5385 51.8798 12.5109 51.7847C12.4839 51.6902 12.4614 51.5944 12.4428 51.4973C12.4248 51.4001 12.4113 51.3023 12.4017 51.2038C12.3927 51.106 12.3882 51.0068 12.3882 50.9083V18.0435C12.3882 17.9443 12.3927 17.8458 12.4017 17.7473C12.4113 17.6488 12.4248 17.551 12.4428 17.4538C12.4614 17.3567 12.4839 17.2609 12.5109 17.1665C12.5385 17.072 12.5694 16.979 12.6053 16.8872C12.6413 16.7962 12.6812 16.7065 12.7248 16.6196C12.7692 16.5319 12.8174 16.4477 12.8694 16.3648C12.9208 16.2826 12.9767 16.2038 13.0358 16.127C13.0949 16.0503 13.1579 15.9776 13.224 15.9076C13.2902 15.8376 13.359 15.7711 13.4316 15.7086C13.5035 15.6454 13.5787 15.587 13.6564 15.5319C13.7342 15.4769 13.8138 15.426 13.8967 15.3791C13.979 15.3329 14.0631 15.2908 14.1492 15.2527C14.2359 15.2147 14.324 15.1814 14.4133 15.1529C14.5026 15.1243 14.5932 15.0999 14.685 15.0809C14.7763 15.0612 14.8688 15.0469 14.9619 15.0374C15.0545 15.0279 15.1476 15.0224 15.2414 15.0224Z" stroke="#0B5243" stroke-width="1.11088"/>
</g>
<path d="M15.9719 16.3036H66.9176C67.0615 16.3036 67.2041 16.3179 67.3448 16.3478C67.4862 16.3777 67.623 16.4219 67.756 16.4803C67.889 16.538 68.0156 16.61 68.1351 16.6943C68.2546 16.7792 68.3651 16.875 68.4673 16.983C68.5688 17.0903 68.6594 17.2079 68.7397 17.3342C68.8193 17.4613 68.8868 17.5944 68.942 17.7357C68.9973 17.8763 69.0384 18.021 69.0667 18.1705C69.095 18.32 69.1091 18.4708 69.1091 18.6229V50.3281C69.1091 50.4803 69.095 50.6311 69.0667 50.7806C69.0384 50.93 68.9973 51.0754 68.942 51.216C68.8868 51.3566 68.8193 51.4905 68.7397 51.6168C68.6594 51.7432 68.5688 51.8607 68.4673 51.9687C68.3651 52.0761 68.2546 52.1725 68.1351 52.2568C68.0156 52.3417 67.889 52.413 67.756 52.4715C67.623 52.5299 67.4862 52.5734 67.3448 52.6032C67.2041 52.6331 67.0615 52.6481 66.9176 52.6481H15.9719C15.828 52.6481 15.6853 52.6331 15.544 52.6032C15.4033 52.5734 15.2658 52.5299 15.1334 52.4715C15.0005 52.413 14.8739 52.3417 14.7544 52.2568C14.6349 52.1725 14.5237 52.0761 14.4222 51.9687C14.3207 51.8607 14.2295 51.7432 14.1498 51.6168C14.0702 51.4905 14.0027 51.3566 13.9474 51.216C13.8922 51.0754 13.8504 50.93 13.8228 50.7806C13.7945 50.6311 13.7804 50.4803 13.7804 50.3281V18.6229C13.7804 18.4708 13.7945 18.32 13.8228 18.1705C13.8504 18.021 13.8922 17.8763 13.9474 17.7357C14.0027 17.5944 14.0702 17.4613 14.1498 17.3342C14.2295 17.2079 14.3207 17.0903 14.4222 16.983C14.5237 16.875 14.6349 16.7792 14.7544 16.6943C14.8739 16.61 15.0005 16.538 15.1334 16.4803C15.2658 16.4219 15.4033 16.3777 15.544 16.3478C15.6853 16.3179 15.828 16.3036 15.9719 16.3036Z" fill="white"/>
<path d="M39.162 54.0013H42.9969V57.0944H39.162V54.0013Z" fill="#83BAA0"/>
<path d="M47.6279 17.6569H17.1835C16.1112 17.6569 15.2413 18.6365 15.2413 19.8451V48.7194C15.2413 49.928 16.1112 50.9083 17.1835 50.9083H47.6279C48.7008 50.9083 49.5701 49.928 49.5701 48.7194V19.8451C49.5701 18.6365 48.7008 17.6569 47.6279 17.6569Z" fill="#C3EDEF"/>
<path d="M19.4238 19.0873C18.5065 19.0873 17.7593 19.8124 17.7593 20.7047V37.3387C17.7593 38.2311 18.5065 38.9561 19.4238 38.9561H46.9232C47.8405 38.9561 48.5866 38.2311 48.5866 37.3387V20.7047C48.5866 19.8124 47.8405 19.0873 46.9232 19.0873H19.4238ZM46.9232 39.2609H19.4238C18.3333 39.2609 17.4457 38.3984 17.4457 37.3387V20.7047C17.4457 19.6451 18.3333 18.7826 19.4238 18.7826H46.9232C48.0137 18.7826 48.9013 19.6451 48.9013 20.7047V37.3387C48.9013 38.3984 48.0137 39.2609 46.9232 39.2609Z" fill="#1B2142"/>
<path d="M20.4679 37.5652C20.3663 37.5652 20.2828 37.4974 20.2828 37.4137V25.0655C20.2828 24.9818 20.3663 24.913 20.4679 24.913C20.5707 24.913 20.6529 24.9818 20.6529 25.0655V37.4137C20.6529 37.4974 20.5707 37.5652 20.4679 37.5652Z" fill="#1B2142"/>
<path d="M29.976 24.4393C28.4759 24.4393 26.9097 25.0301 25.6523 26.1126C24.2514 27.3176 23.1997 29.1205 22.6097 31.324C22.2254 32.7606 22.0539 34.2519 21.9423 35.731C22.5302 33.9898 23.521 32.4601 24.7783 31.3948C26.4943 29.941 28.9935 29.4584 31.1456 30.1666C32.1436 30.4954 33.0476 31.0579 33.9216 31.6012C34.8783 32.1961 35.867 32.8112 36.9611 33.0985C37.5841 33.2624 38.2339 33.31 38.8745 33.2523C38.1554 32.3245 37.5676 31.2946 36.9983 30.2991C36.6078 29.6162 36.2049 28.91 35.7637 28.2463C34.4526 26.2715 32.9711 25.0513 31.3625 24.6183C30.9152 24.4979 30.4492 24.4393 29.976 24.4393ZM21.6747 37.5652C21.6685 37.5652 21.6623 37.5652 21.6561 37.5642C21.5725 37.5541 21.5115 37.4833 21.5167 37.4013C21.6386 35.3658 21.7646 33.2614 22.3039 31.245C22.9104 28.9819 23.9952 27.1264 25.4436 25.8799C27.1762 24.3887 29.476 23.7908 31.4462 24.3199C33.1323 24.7731 34.6737 26.0368 36.0282 28.0774C36.4755 28.7502 36.8816 29.4614 37.2742 30.1484C37.8414 31.1408 38.4282 32.1667 39.14 33.0813C39.171 33.1228 39.2051 33.1643 39.2392 33.2078C40.3633 33.0338 41.4346 32.5319 42.2539 31.7539C43.6249 30.4529 44.2293 28.4355 43.7923 26.6155C43.7716 26.5325 43.8243 26.4485 43.91 26.4293C43.9947 26.4101 44.0795 26.4617 44.1001 26.5446C44.5609 28.4689 43.9235 30.6006 42.474 31.9765C41.6516 32.7565 40.5895 33.2735 39.4675 33.4819C40.3674 34.523 41.9347 35.903 43.972 35.99C44.4886 36.0122 45.2263 35.9495 45.812 35.5236C45.8823 35.472 45.9804 35.4861 46.0331 35.5549C46.0848 35.6237 46.0703 35.7209 46.0001 35.7714C45.3409 36.252 44.5258 36.3238 43.9586 36.2996C42.9926 36.2581 42.0338 35.9353 41.1081 35.3415C40.3994 34.8872 39.7124 34.267 39.1049 33.5386C38.3621 33.6307 37.6037 33.5882 36.8785 33.397C35.7379 33.0975 34.7285 32.4702 33.7522 31.8622C32.8947 31.329 32.0072 30.7766 31.0443 30.46C28.9966 29.7862 26.6183 30.2455 24.9849 31.6295C23.398 32.9741 22.2481 35.0916 21.8307 37.4377C21.8173 37.5116 21.7502 37.5652 21.6747 37.5652Z" fill="#1B2142"/>
<path d="M23.7368 22.2391C23.7368 22.9954 23.1018 23.6087 22.3177 23.6087C21.5346 23.6087 20.8997 22.9954 20.8997 22.2391C20.8997 21.4828 21.5346 20.8696 22.3177 20.8696C23.1018 20.8696 23.7368 21.4828 23.7368 22.2391Z" fill="#5CE1E6"/>
<path d="M38.9094 22.2391C38.9094 22.9954 38.3294 23.6087 37.6142 23.6087C36.899 23.6087 36.319 22.9954 36.319 22.2391C36.319 21.4828 36.899 20.8696 37.6142 20.8696C38.3294 20.8696 38.9094 21.4828 38.9094 22.2391Z" fill="#5CE1E6"/>
<path d="M25.9572 22.1092C25.9572 22.5778 25.5707 22.9565 25.0937 22.9565C24.6178 22.9565 24.2302 22.5778 24.2302 22.1092C24.2302 21.6406 24.6178 21.2609 25.0937 21.2609C25.5707 21.2609 25.9572 21.6406 25.9572 22.1092Z" fill="#5CE1E6"/>
<path d="M66.0624 35.4423H53.3466C52.2698 35.4423 51.396 36.4022 51.396 37.587V49.1501C51.396 50.3349 52.2698 51.2948 53.3466 51.2948H66.0624C67.1399 51.2948 68.013 50.3349 68.013 49.1501V37.587C68.013 36.4022 67.1399 35.4423 66.0624 35.4423Z" fill="#C3EDEF"/>
<path d="M55.001 41.6114H54.3309C54.0456 41.6114 53.8143 41.856 53.8143 42.1583V47.8573C53.8143 48.1596 54.0456 48.4049 54.3309 48.4049H55.001C55.2862 48.4049 55.5175 48.1596 55.5175 47.8573V42.1583C55.5175 41.856 55.2862 41.6114 55.001 41.6114Z" fill="#00CCCC"/>
<path d="M65.1661 40.4823H64.496C64.2108 40.4823 63.9795 40.7269 63.9795 41.0292V47.8573C63.9795 48.1596 64.2108 48.4049 64.496 48.4049H65.1661C65.452 48.4049 65.6827 48.1596 65.6827 47.8573V41.0292C65.6827 40.7269 65.452 40.4823 65.1661 40.4823Z" fill="#0690CF"/>
<path d="M58.5139 42.9857H57.8438C57.5586 42.9857 57.3273 43.231 57.3273 43.5326V47.8573C57.3273 48.1596 57.5586 48.4049 57.8438 48.4049H58.5139C58.7998 48.4049 59.0305 48.1596 59.0305 47.8573V43.5326C59.0305 43.231 58.7998 42.9857 58.5139 42.9857Z" fill="#0690CF"/>
<path d="M61.9179 38.1875H61.2478C60.9625 38.1875 60.7312 38.4327 60.7312 38.7344V47.8573C60.7312 48.1596 60.9625 48.4049 61.2478 48.4049H61.9179C62.2031 48.4049 62.4344 48.1596 62.4344 47.8573V38.7344C62.4344 38.4327 62.2031 38.1875 61.9179 38.1875Z" fill="#00CCCC"/>
<path d="M66.0624 17.6569H53.3466C52.2698 17.6569 51.396 18.5958 51.396 19.7547V31.7975C51.396 32.9565 52.2698 33.8961 53.3466 33.8961H66.0624C67.1399 33.8961 68.013 32.9565 68.013 31.7975V19.7547C68.013 18.5958 67.1399 17.6569 66.0624 17.6569Z" fill="#C3EDEF"/>
<path d="M58.8333 26.5523V21.2609C57.2772 21.2609 55.8785 22.0285 54.9617 23.2079C54.9617 23.2079 54.9585 23.212 54.9566 23.2133C54.9546 23.2174 54.9508 23.2194 54.9495 23.2215C54.2531 24.1318 53.8354 25.288 53.8354 26.5503C53.8354 27.7371 54.2042 28.8336 54.8287 29.7153C55.7397 31.0048 57.193 31.8376 58.8313 31.8376C60.469 31.8376 61.8786 31.0278 62.7916 29.7711L58.8313 26.5482L58.8333 26.5523Z" fill="#00CCCC"/>
<path d="M59.8362 20.0305V25.8825L64.2191 29.4477C64.9362 28.4592 65.3634 27.2242 65.3634 25.8825C65.3634 22.6501 62.8892 20.0305 59.8362 20.0305Z" fill="#1D9BD3"/>
<path d="M27.1754 41.2419H18.2809C17.8126 41.2419 17.4329 41.6318 17.4329 42.1121C17.4329 42.5924 17.8126 42.9817 18.2809 42.9817H27.1754C27.6437 42.9817 28.0234 42.5924 28.0234 42.1121C28.0234 41.6318 27.6437 41.2419 27.1754 41.2419Z" fill="#00CCCC"/>
<path d="M35.7839 44.7215H17.907C17.6449 44.7215 17.4329 44.947 17.4329 45.2242V45.3363C17.4329 45.6141 17.6449 45.839 17.907 45.839H35.7839C36.046 45.839 36.2587 45.6141 36.2587 45.3363V45.2242C36.2587 44.947 36.046 44.7215 35.7839 44.7215Z" fill="#0690CF"/>
<path d="M26.6537 47.0414H17.907C17.6449 47.0414 17.4329 47.267 17.4329 47.5442V47.6563C17.4329 47.9341 17.6449 48.159 17.907 48.159H26.6537C26.9158 48.159 27.1285 47.9341 27.1285 47.6563V47.5442C27.1285 47.267 26.9158 47.0414 26.6537 47.0414Z" fill="#83BAA0"/>
</g>
<defs>
<filter id="filter0_d_714_903" x="0" y="0" width="83" height="83" filterUnits="userSpaceOnUse" color-interpolation-filters="sRGB">
<feFlood flood-opacity="0" result="BackgroundImageFix"/>
<feColorMatrix in="SourceAlpha" type="matrix" values="0 0 0 0 0 0 0 0 0 0 0 0 0 0 0 0 0 0 127 0" result="hardAlpha"/>
<feOffset dy="4"/>
<feGaussianBlur stdDeviation="2"/>
<feComposite in2="hardAlpha" operator="out"/>
<feColorMatrix type="matrix" values="0 0 0 0 0 0 0 0 0 0 0 0 0 0 0 0 0 0 0.25 0"/>
<feBlend mode="normal" in2="BackgroundImageFix" result="effect1_dropShadow_714_903"/>
<feBlend mode="normal" in="SourceGraphic" in2="effect1_dropShadow_714_903" result="shape"/>
</filter>
</defs>
</svg>
