<svg width="305" height="265" viewBox="0 0 305 265" fill="none" xmlns="http://www.w3.org/2000/svg">
<g clip-path="url(#clip0_687_141)" filter="url(#filter0_d_687_141)">
<path opacity="0.8" d="M273.243 39.523C273.243 39.523 249.93 9.38103 209.714 12.5605C169.497 15.74 160.85 56.1271 133.862 74.7108C119.749 84.4427 87.0669 75.3107 71.4518 81.8431C21.5475 102.746 12.3909 170.496 39.719 202.231C108.664 183.087 98.7161 239.212 149.145 232.6C199.573 225.987 235.257 223.108 274.914 183.087C314.572 143.067 301.244 79.7101 273.243 39.523Z" fill="#00BFE5"/>
<path opacity="0.8" d="M251.68 207.042C251.68 207.042 228.46 237.125 188.401 233.952C148.343 230.778 139.73 190.47 112.848 171.923C98.7902 162.21 66.2371 171.324 50.6836 164.804C0.975701 143.942 -8.14481 76.3243 19.0757 44.6512C42.6282 17.2157 77.8405 7.74241 128.07 14.3418C178.3 20.9412 213.844 23.8151 253.345 63.7575C292.846 103.7 279.571 166.933 251.68 207.042Z" fill="#0080FF" fill-opacity="0.78"/>
<path d="M132.577 140.98C129.031 140.583 126.372 137.924 126.372 134.777L125.908 48.8262L127.651 45.5137C127.651 45.5137 130.812 43.6587 132.467 42.8279C133.468 42.3282 134.653 42.0963 135.891 42.2344L276.74 58.0488C280.287 58.4463 282.945 61.1046 282.945 64.2515V149.457C282.776 154.683 274.797 157.832 274.797 157.832L132.577 140.98Z" fill="#00CCCC"/>
<path d="M271.683 158.362L129.984 142.451C126.413 142.051 123.742 139.379 123.742 136.21V50.4908C123.742 47.5454 126.676 45.2681 129.997 45.6407L271.696 61.549C275.267 61.952 277.941 64.6241 277.941 67.7931V153.51C277.941 156.458 275.004 158.735 271.683 158.362Z" fill="#38B6FF"/>
<path d="M266.61 154.324L135.057 139.553C131.746 139.183 129.263 136.701 129.263 133.762V54.1815C129.263 51.4459 131.988 49.3314 135.07 49.6765L266.623 64.4475C269.937 64.8201 272.42 67.3017 272.42 70.2416V149.822C272.42 152.554 269.692 154.669 266.61 154.324Z" fill="white"/>
<path d="M253.701 79.4614C253.648 79.4614 253.598 79.4586 253.545 79.4503L206.504 74.1724C205.824 74.0951 205.344 73.5458 205.432 72.9495C205.516 72.3505 206.137 71.9254 206.818 72.0027L253.858 77.2834C254.539 77.3607 255.018 77.9072 254.934 78.5063C254.852 79.0583 254.319 79.4614 253.701 79.4614Z" fill="#C3EDEF"/>
<path d="M253.701 86.9255C253.648 86.9255 253.598 86.9228 253.545 86.9145L233.983 84.72C233.302 84.6427 232.82 84.0961 232.907 83.4971C232.995 82.8981 233.619 82.4757 234.296 82.5503L253.858 84.7476C254.539 84.8221 255.018 85.3714 254.934 85.9704C254.852 86.5225 254.319 86.9255 253.701 86.9255Z" fill="black"/>
<path d="M253.701 94.3897C253.648 94.3897 253.598 94.3869 253.545 94.3814L206.507 89.098C205.827 89.0234 205.344 88.4741 205.432 87.8751C205.516 87.2761 206.143 86.8537 206.821 86.9283L253.858 92.2089C254.539 92.2862 255.018 92.8356 254.934 93.4346C254.852 93.9867 254.319 94.3897 253.701 94.3897Z" fill="#C3EDEF"/>
<path d="M253.701 101.851C253.648 101.851 253.598 101.848 253.545 101.843L217.265 97.7712C216.584 97.6939 216.108 97.1473 216.192 96.5483C216.277 95.9493 216.904 95.527 217.581 95.6015L253.858 99.6731C254.539 99.7504 255.018 100.297 254.934 100.899C254.852 101.448 254.319 101.851 253.701 101.851Z" fill="black"/>
<path d="M253.701 116.779C253.648 116.779 253.598 116.777 253.545 116.771L206.504 111.49C205.824 111.413 205.344 110.867 205.432 110.268C205.516 109.669 206.137 109.244 206.818 109.321L253.858 114.601C254.539 114.679 255.018 115.225 254.934 115.824C254.852 116.376 254.319 116.779 253.701 116.779Z" fill="#3E4242"/>
<path d="M240.257 122.91C240.207 122.91 240.153 122.905 240.097 122.902L206.504 119.129C205.824 119.051 205.344 118.505 205.432 117.906C205.516 117.307 206.14 116.882 206.818 116.962L240.414 120.732C241.094 120.807 241.574 121.356 241.489 121.952C241.407 122.505 240.871 122.91 240.257 122.91Z" fill="#C3EDEF"/>
<path d="M253.701 131.882C253.648 131.882 253.598 131.879 253.545 131.873L206.504 126.593C205.824 126.515 205.344 125.969 205.429 125.37C205.516 124.771 206.137 124.346 206.818 124.423L253.858 129.704C254.539 129.781 255.018 130.328 254.934 130.927C254.852 131.479 254.319 131.882 253.701 131.882Z" fill="#C3EDEF"/>
<path d="M253.701 139.346C253.648 139.346 253.598 139.343 253.545 139.338L206.504 134.057C205.824 133.98 205.344 133.433 205.432 132.834C205.516 132.235 206.137 131.813 206.818 131.887L253.858 137.168C254.539 137.245 255.018 137.792 254.934 138.391C254.852 138.943 254.319 139.346 253.701 139.346Z" fill="black"/>
<path d="M195.991 110.248C195.938 110.248 195.888 110.243 195.834 110.237L164.057 106.671C163.376 106.594 162.894 106.047 162.981 105.448C163.069 104.849 163.69 104.424 164.37 104.501L196.148 108.07C196.828 108.145 197.308 108.691 197.223 109.29C197.142 109.843 196.609 110.248 195.991 110.248Z" fill="#C3EDEF"/>
<path d="M187.782 116.964C187.732 116.964 187.679 116.962 187.626 116.953L149.53 112.677C148.85 112.603 148.367 112.054 148.455 111.455C148.543 110.856 149.167 110.433 149.844 110.511L187.939 114.786C188.62 114.864 189.099 115.41 189.015 116.009C188.933 116.561 188.397 116.964 187.782 116.964Z" fill="#C3EDEF"/>
<path d="M195.991 125.348C195.938 125.348 195.884 125.345 195.831 125.339L168.65 122.289C167.97 122.212 167.49 121.665 167.578 121.066C167.662 120.465 168.286 120.045 168.964 120.12L196.148 123.173C196.825 123.247 197.308 123.794 197.22 124.393C197.142 124.945 196.605 125.348 195.991 125.348Z" fill="#C3EDEF"/>
<path d="M195.991 132.812C195.938 132.812 195.888 132.809 195.834 132.804L159.949 128.776C159.269 128.699 158.789 128.152 158.874 127.553C158.962 126.954 159.583 126.529 160.263 126.607L196.148 130.637C196.828 130.711 197.308 131.258 197.223 131.857C197.142 132.409 196.609 132.812 195.991 132.812Z" fill="black"/>
<path d="M189.087 206.57L44.2274 190.124C43.0955 189.994 42.4559 189.158 42.4684 188.324C42.481 187.747 42.5343 183.686 42.5343 183.686L119.126 145.137C122.964 143.21 127.93 142.462 132.314 142.956L275.342 159.202C276.204 159.298 276.944 159.79 277.283 160.493L277.512 160.968C277.512 160.968 277.389 164.352 277.44 165.145C277.48 165.763 277.164 166.401 276.427 166.771L201.754 204.356C197.919 206.286 193.47 207.064 189.087 206.57Z" fill="#00CCCC"/>
<path d="M189.087 202.051L44.7447 185.635C42.829 185.42 42.3242 183.184 44.0048 182.339L118.273 144.994C122.111 143.064 126.56 142.288 130.94 142.783L275.283 159.199C277.198 159.414 277.703 161.653 276.026 162.495L201.757 199.84C197.916 201.77 193.47 202.546 189.087 202.051Z" fill="white"/>
<path d="M191.639 202.604C190.767 202.604 189.893 202.557 189.027 202.457L92.4501 191.474C92.193 191.446 92.0143 191.239 92.0488 191.015C92.0801 190.792 92.3153 190.632 92.5693 190.662L189.146 201.646C193.404 202.123 197.8 201.356 201.525 199.484L275.797 162.139C276.508 161.78 276.65 161.156 276.546 160.689C276.443 160.226 276.038 159.696 275.226 159.605L130.884 143.188C126.629 142.708 122.23 143.478 118.505 145.35L87.7094 160.836C87.4868 160.946 87.2014 160.88 87.0729 160.684C86.9443 160.488 87.0227 160.237 87.2453 160.123L118.045 144.638C121.945 142.678 126.545 141.872 131 142.374L275.342 158.79C276.418 158.912 277.252 159.596 277.459 160.532C277.672 161.468 277.198 162.379 276.258 162.851L201.989 200.196C198.844 201.775 195.248 202.604 191.639 202.604Z" fill="black"/>
<path d="M217.346 181.323L92.1836 166.983C90.4528 166.787 89.9982 164.769 91.5126 164.007L120.942 149.358C124.409 147.616 128.426 146.915 132.386 147.359L257.545 161.7C259.279 161.893 259.734 163.916 258.22 164.675L228.791 179.325C225.323 181.067 221.306 181.768 217.346 181.323Z" fill="#C3EDEF"/>
<path d="M143.896 189.737L109.062 185.776C108.601 185.724 108.478 185.183 108.883 184.981L125.714 176.876C126.642 176.41 127.714 176.222 128.771 176.344L163.608 180.305C164.069 180.355 164.192 180.896 163.787 181.1L146.956 189.204C146.028 189.668 144.956 189.856 143.896 189.737Z" fill="#C3EDEF"/>
<path d="M225.646 162.848C225.627 162.848 225.608 162.848 225.589 162.845L173.231 157.242C172.974 157.214 172.795 157.01 172.823 156.786C172.855 156.56 173.09 156.402 173.341 156.43L225.699 162.031C225.956 162.059 226.138 162.263 226.11 162.489C226.078 162.696 225.878 162.848 225.646 162.848Z" fill="black"/>
<path d="M202.754 167.37C202.735 167.37 202.716 167.367 202.698 167.364L187.497 165.738C187.243 165.711 187.061 165.506 187.093 165.283C187.121 165.056 187.356 164.896 187.61 164.924L202.811 166.55C203.064 166.577 203.246 166.784 203.218 167.008C203.19 167.215 202.986 167.37 202.754 167.37Z" fill="black"/>
<path d="M148.549 168.181C148.53 168.181 148.511 168.181 148.493 168.178L133.292 166.55C133.035 166.525 132.853 166.321 132.884 166.097C132.916 165.871 133.148 165.711 133.405 165.738L148.605 167.364C148.859 167.392 149.041 167.596 149.01 167.82C148.982 168.029 148.781 168.181 148.549 168.181Z" fill="black"/>
<path d="M223.404 70.6501C223.404 57.8059 212.731 47.3329 198.571 45.7456L190.469 44.6994V37.6079C190.469 23.8086 178.756 12.1596 163.207 10.4178C144.598 8.33093 128.072 21.0951 128.072 37.6079V37.7156L127.303 37.619C110.363 35.7198 95.4758 47.3439 95.4758 62.3771V62.3799C95.4758 74.9453 106.048 85.5508 120.208 87.1381L133.041 88.5818V105.266L119.28 103.759L114.9 106.351L144.968 131.893L171.974 109.605L159.115 108.164V75.1358L145.338 73.6755L173.134 50.9904L199.233 79.5442L185.146 78.037L180.947 80.6262L185.45 94.4394L191.482 95.262C208.42 97.1611 223.413 85.6833 223.413 70.6501H223.404Z" fill="#37CAE4"/>
<path d="M219.293 73.3829C219.293 60.5911 208.624 50.1209 194.464 48.5336L186.365 47.5427V40.9894C186.365 27.3392 175.213 15.5191 159.896 13.3825C140.905 10.7325 123.619 23.6513 123.619 40.4484V40.5588L122.917 40.4622C105.976 38.563 91.1614 50.1844 91.1614 65.2204V65.2231C91.1614 77.7885 101.809 88.3941 115.966 89.9813L128.871 91.425V108.109L115.141 106.602L140.864 134.736L167.778 112.446L154.839 111.007V77.9818L142.554 76.5795L169.672 54.5265L194.988 82.3874L181.11 80.8802V97.2826L187.256 98.05C204.196 99.9492 219.303 88.0766 219.303 73.3829H219.293Z" fill="white"/>
<path d="M190.764 98.7291C189.56 98.7291 188.35 98.6601 187.14 98.5248L180.932 97.6884C180.706 97.658 180.537 97.4869 180.537 97.2826V80.8802C180.537 80.7643 180.596 80.6511 180.693 80.5738C180.794 80.4938 180.925 80.4579 181.06 80.4744L193.834 81.8602L169.274 54.855L163.411 59.6609C163.223 59.8127 162.931 59.8072 162.756 59.6388C162.58 59.4732 162.589 59.2137 162.778 59.0591L169.004 53.9551C169.102 53.8751 169.227 53.8364 169.356 53.8447C169.487 53.853 169.606 53.9082 169.688 53.9993L195.276 82.1334C195.395 82.2632 195.414 82.4426 195.32 82.5889C195.229 82.7325 195.047 82.818 194.856 82.7959L181.468 81.344V96.932L187.271 97.7132C195.232 98.6076 203.3 96.4103 209.389 91.6872C215.371 87.0497 218.811 80.4579 218.836 73.5955C218.829 73.5706 218.829 73.5458 218.829 73.5209C218.829 60.9058 208.539 50.5984 194.364 49.0112L186.212 47.9512C185.983 47.9208 185.817 47.7469 185.817 47.5454V40.4511C185.817 26.9085 174.203 15.3948 158.802 13.6668C150.004 12.6814 141.127 15.0857 134.446 20.267C127.83 25.3958 124.036 32.7523 124.036 40.4511V40.5616C124.036 40.6803 123.977 40.7934 123.876 40.8707C123.773 40.948 123.638 40.9839 123.503 40.9646L122.735 40.868C114.828 39.9819 106.864 42.1322 100.888 46.7642C94.8832 51.4183 91.4405 58.1454 91.4405 65.2204C91.4405 69.5211 92.7417 73.7666 95.2061 77.5042C95.3347 77.7002 95.2594 77.9514 95.0368 78.0646C94.8142 78.1778 94.5289 78.1115 94.4003 77.9155C91.8544 74.0537 90.5093 69.6646 90.5093 65.2231C90.5093 57.9135 94.068 50.9601 100.273 46.1486C106.45 41.3621 114.68 39.1399 122.857 40.0564L123.108 40.0895C123.224 32.2858 127.118 24.8548 133.828 19.6514C140.71 14.3155 149.856 11.8394 158.918 12.8553C174.783 14.633 186.745 26.4972 186.745 40.4511V47.1893L194.489 48.1969C201.472 48.9808 207.877 51.9538 212.518 56.5692C217.168 61.1984 219.739 67.1885 219.757 73.4464C219.764 73.4713 219.767 73.4961 219.767 73.5209C219.767 80.6456 216.211 87.4914 210.003 92.3028C204.635 96.4655 197.778 98.7291 190.764 98.7291Z" fill="black"/>
<path d="M152.537 68.4252C152.412 68.4252 152.286 68.381 152.195 68.2955C152.02 68.1298 152.032 67.8704 152.217 67.7158L158.099 62.8961C158.284 62.7415 158.582 62.7525 158.755 62.9182C158.933 63.0838 158.921 63.3433 158.733 63.4979L152.854 68.3148C152.763 68.3893 152.65 68.4252 152.537 68.4252Z" fill="black"/>
<path d="M140.855 135.147C140.845 135.147 140.833 135.147 140.823 135.144C140.695 135.139 140.572 135.084 140.491 134.993L114.768 106.858C114.646 106.729 114.63 106.547 114.721 106.4C114.815 106.257 114.997 106.174 115.188 106.196L128.382 107.645V91.7866L118.179 90.6521C117.925 90.6245 117.744 90.4174 117.775 90.1939C117.809 89.9703 118.041 89.8102 118.295 89.8378L128.906 91.0192C129.141 91.0441 129.313 91.218 129.313 91.425V108.109C129.313 108.228 129.257 108.338 129.156 108.418C129.056 108.495 128.921 108.531 128.79 108.518L116.213 107.135L140.902 134.134L166.628 112.746L154.556 111.416C154.324 111.391 154.149 111.214 154.149 111.01V78.3406L142.043 76.9466C141.864 76.9273 141.717 76.8169 141.66 76.6651C141.604 76.516 141.657 76.3476 141.789 76.2399L147.006 72.0055C147.191 71.8509 147.486 71.8619 147.662 72.0276C147.837 72.1932 147.825 72.4527 147.637 72.6072L143.153 76.2482L154.676 77.576C154.908 77.6008 155.08 77.7747 155.08 77.9818V110.649L167.722 112.043C167.904 112.062 168.051 112.17 168.108 112.321C168.164 112.47 168.117 112.639 167.985 112.746L141.174 135.034C141.09 135.109 140.974 135.147 140.855 135.147Z" fill="black"/>
<path d="M112.677 89.8819C112.642 89.8819 112.605 89.8792 112.567 89.8709C106.528 88.579 101.223 85.6668 97.2285 81.4516C97.0623 81.2805 97.0905 81.021 97.288 80.8747C97.4824 80.7311 97.7803 80.7532 97.9433 80.9271C101.809 85.007 106.942 87.8227 112.786 89.0731C113.037 89.1256 113.191 89.3492 113.128 89.5672C113.078 89.7577 112.887 89.8819 112.677 89.8819Z" fill="black"/>
<path d="M71.9445 40.0398C66.2631 42.803 59.1144 40.9867 55.9727 35.9793C52.8341 30.9746 54.8941 24.6754 60.5755 21.9122C66.2568 19.149 73.4087 20.9654 76.5473 25.97C79.6858 30.9774 77.6259 37.2739 71.9445 40.0398ZM87.5902 21.9702L86.2733 19.8667C86.0131 19.4527 85.4613 19.2511 84.9439 19.3836L81.7552 20.198C81.3319 20.3084 80.871 20.1952 80.5794 19.9026C80.1906 19.5106 79.783 19.138 79.3597 18.7819C79.0399 18.5141 78.9333 18.1056 79.0713 17.7384L80.1154 14.9642C80.2847 14.517 80.0778 14.0229 79.62 13.78L77.281 12.5378C76.8232 12.2949 76.2306 12.3639 75.8575 12.7034L73.5592 14.8179C73.2551 15.0967 72.791 15.2044 72.374 15.0774C71.8191 14.9118 71.2547 14.771 70.684 14.6495C70.2576 14.5584 69.9315 14.2548 69.8406 13.8739L69.1696 11.0058C69.063 10.542 68.6021 10.2053 68.066 10.1942L65.3382 10.1528C64.802 10.1418 64.3286 10.462 64.2 10.9202L63.4099 13.7607C63.3064 14.1361 62.9678 14.4315 62.5351 14.506C61.9613 14.6081 61.3938 14.7351 60.8263 14.8842C60.403 14.9946 59.9452 14.8731 59.6505 14.5833L57.4432 12.397C57.0889 12.0409 56.4994 11.9526 56.0291 12.1817L53.6431 13.3439C53.1727 13.573 52.9439 14.056 53.0944 14.5115L54.0224 17.3216C54.1447 17.6943 54.0193 18.1001 53.687 18.3568C53.2417 18.6991 52.8153 19.0579 52.414 19.4306C52.113 19.7121 51.6489 19.8087 51.2288 19.6845L48.0808 18.7653C47.5729 18.6162 47.0116 18.7984 46.7357 19.2042L45.3279 21.2607C45.0489 21.6665 45.1273 22.1855 45.5161 22.514L47.9178 24.5429C48.2345 24.8106 48.3536 25.2164 48.2125 25.5835C48.0244 26.0721 47.8645 26.5718 47.7265 27.0714C47.6231 27.4496 47.2782 27.7367 46.8455 27.8167L43.5909 28.4047C43.0642 28.5013 42.6816 28.9043 42.6722 29.3791L42.6221 31.7807C42.6127 32.2555 42.9732 32.6695 43.4968 32.7827L46.7169 33.4811C47.1465 33.5722 47.4788 33.8703 47.5666 34.2512C47.6826 34.7564 47.8237 35.2588 47.993 35.7584C48.1216 36.1311 47.9836 36.5341 47.6544 36.7936L45.1712 38.7369C44.7698 39.0516 44.6695 39.5678 44.9297 39.9819L46.2497 42.0853C46.51 42.4994 47.0618 42.7009 47.576 42.5684L50.7647 41.7513C51.188 41.6436 51.6489 41.7568 51.9405 42.0494C52.3293 42.4414 52.7369 42.8168 53.1602 43.1702C53.48 43.4379 53.5898 43.8437 53.4487 44.2108L52.4046 46.9878C52.2353 47.4378 52.4422 47.9291 52.9031 48.172L55.239 49.4115C55.6999 49.6571 56.2893 49.5881 56.6625 49.2458L58.9607 47.1341C59.268 46.8526 59.7289 46.7477 60.1459 46.8719C60.7009 47.0375 61.2653 47.181 61.8359 47.3025C62.2654 47.3908 62.5915 47.6972 62.6793 48.0782L63.3503 50.9463C63.46 51.41 63.9178 51.7468 64.4571 51.7551L67.1818 51.802C67.7179 51.8103 68.1914 51.4901 68.3199 51.0291L69.1101 48.1914C69.2167 47.8159 69.5553 47.5206 69.988 47.446C70.5586 47.3439 71.1293 47.2197 71.6936 47.0679C72.1169 46.9574 72.5747 47.0789 72.8694 47.3687L75.0768 49.555C75.4342 49.9083 76.0205 49.9994 76.4908 49.7703L78.8769 48.6082C79.3503 48.3791 79.5761 47.8932 79.4256 47.4405L78.4975 44.6304C78.3752 44.255 78.5038 43.8492 78.8361 43.5953C79.2814 43.253 79.7046 42.8941 80.106 42.5215C80.4101 42.2399 80.8741 42.1433 81.2912 42.2647L84.4391 43.1867C84.9502 43.3358 85.5083 43.1536 85.7873 42.7478L87.1951 40.6913C87.4711 40.2855 87.3927 39.7638 87.007 39.4381L84.6053 37.4092C84.2855 37.1414 84.1663 36.7356 84.3074 36.3657C84.4956 35.8771 84.6586 35.383 84.7934 34.8779C84.8969 34.4997 85.2449 34.2126 85.6745 34.1353L88.9322 33.5446C89.4589 33.4507 89.8383 33.0449 89.8477 32.5729L89.901 30.1714C89.9104 29.6966 89.5467 29.2797 89.0262 29.1666L85.803 28.4709C85.3735 28.3771 85.0411 28.079 84.9533 27.698C84.8404 27.1956 84.6962 26.6905 84.5269 26.1936C84.3984 25.8209 84.5363 25.4179 84.8655 25.1584L87.3488 23.2151C87.7501 22.9004 87.8504 22.3842 87.5902 21.9702Z" fill="#737373"/>
<path d="M109.902 28.4489C106.741 30.9222 101.9 30.6682 99.0878 27.8802C96.2816 25.0922 96.5669 20.8301 99.7305 18.3568C102.891 15.8862 107.732 16.1402 110.541 18.9282C113.351 21.7134 113.065 25.9755 109.902 28.4489ZM116.913 14.9918L115.734 13.8214C115.502 13.5895 115.119 13.5316 114.812 13.6806L112.915 14.5998C112.664 14.7241 112.354 14.7103 112.122 14.5612C111.808 14.3597 111.488 14.1747 111.162 14.0036C110.918 13.8739 110.78 13.6254 110.808 13.377L111.024 11.4806C111.059 11.1742 110.846 10.8871 110.513 10.7905L108.826 10.2936C108.494 10.197 108.13 10.3157 107.948 10.5807L106.829 12.2121C106.682 12.4302 106.406 12.5544 106.12 12.5268C105.741 12.4909 105.359 12.4716 104.976 12.466C104.691 12.4633 104.431 12.3115 104.314 12.0796L103.421 10.3405C103.277 10.059 102.932 9.90437 102.587 9.9651L100.847 10.2798C100.505 10.3433 100.254 10.6055 100.248 10.9147L100.207 12.8166C100.201 13.0678 100.035 13.2997 99.7713 13.4046C99.4232 13.5398 99.0815 13.6917 98.746 13.8573C98.4952 13.9815 98.1848 13.9622 97.9496 13.8131L96.1938 12.7007C95.9084 12.5212 95.5197 12.5406 95.2594 12.7448L93.93 13.7828C93.6666 13.987 93.6008 14.3238 93.7701 14.5943L94.8173 16.2644C94.9553 16.488 94.9427 16.7612 94.7703 16.9655C94.5445 17.2388 94.3345 17.5204 94.1369 17.8074C93.9927 18.0255 93.7105 18.1442 93.4252 18.1194L91.2743 17.9289C90.9263 17.8985 90.6002 18.0862 90.4904 18.3789L89.9292 19.864C89.8195 20.1538 89.9543 20.4768 90.2522 20.6369L92.1083 21.6223C92.356 21.7548 92.4971 21.9978 92.4658 22.249C92.4281 22.583 92.4031 22.917 92.3999 23.2565C92.3968 23.5077 92.2212 23.7341 91.9578 23.839L89.9856 24.6229C89.6658 24.7527 89.4902 25.0563 89.5592 25.3599L89.9198 26.892C89.9888 27.1929 90.2866 27.4137 90.6378 27.4192L92.7981 27.4551C93.0866 27.4606 93.3468 27.6097 93.4628 27.8388C93.6196 28.148 93.792 28.4489 93.9802 28.7442C94.1213 28.9651 94.0993 29.2383 93.9331 29.4426L92.6696 30.9912C92.4658 31.2424 92.4846 31.5847 92.7166 31.8138L93.8986 32.987C94.1307 33.2161 94.5132 33.2741 94.8205 33.125L96.7142 32.2058C96.9682 32.0843 97.2786 32.0981 97.5106 32.2472C97.8211 32.4459 98.1409 32.6336 98.4701 32.8048C98.7146 32.9345 98.8495 33.1802 98.8212 33.4314L98.608 35.3278C98.5736 35.6342 98.7868 35.9213 99.116 36.0179L100.803 36.512C101.135 36.6114 101.502 36.4927 101.684 36.2277L102.8 34.5963C102.951 34.3782 103.227 34.2512 103.512 34.2789C103.891 34.3147 104.274 34.3368 104.656 34.3396C104.942 34.3423 105.199 34.4969 105.318 34.726L106.211 36.4651C106.356 36.7494 106.701 36.9013 107.045 36.8405L108.786 36.5258C109.127 36.4651 109.375 36.2029 109.384 35.8937L109.425 33.989C109.431 33.7378 109.598 33.5087 109.861 33.4038C110.209 33.2685 110.551 33.1167 110.886 32.9511C111.137 32.8241 111.448 32.8462 111.68 32.9925L113.439 34.1049C113.724 34.2844 114.113 34.2678 114.373 34.0635L115.702 33.0229C115.963 32.8186 116.028 32.4818 115.859 32.2113L114.815 30.5413C114.674 30.3204 114.69 30.0471 114.859 29.8429C115.088 29.5668 115.298 29.288 115.492 28.9982C115.64 28.7829 115.922 28.6642 116.207 28.689L118.355 28.8767C118.706 28.9071 119.032 28.7221 119.142 28.4295L119.703 26.9417C119.813 26.6518 119.678 26.3289 119.38 26.1715L117.524 25.1833C117.276 25.0535 117.135 24.8106 117.167 24.5594C117.204 24.2227 117.226 23.8886 117.232 23.5519C117.236 23.2979 117.411 23.0716 117.671 22.9667L119.647 22.1827C119.966 22.0557 120.142 21.7521 120.073 21.4484L119.713 19.9136C119.644 19.6128 119.346 19.3947 118.995 19.3864L116.831 19.3505C116.546 19.345 116.286 19.1987 116.166 18.9668C116.013 18.6604 115.84 18.3595 115.652 18.0614C115.511 17.8433 115.533 17.5701 115.699 17.363L116.963 15.8144C117.167 15.5632 117.145 15.2209 116.913 14.9918Z" fill="#737373"/>
<path d="M153.983 70.2195C153.973 70.2195 153.967 70.2167 153.961 70.2167C152.703 70.1643 151.456 70.1339 150.255 70.1256C149.998 70.1229 149.791 69.9407 149.794 69.7116C149.797 69.488 150.004 69.3058 150.261 69.3058C151.474 69.3141 152.735 69.3444 154.005 69.3996C154.262 69.4107 154.459 69.6011 154.447 69.8275C154.434 70.0483 154.23 70.2195 153.983 70.2195ZM142.821 70.3961C142.582 70.3961 142.378 70.236 142.357 70.0235C142.335 69.7971 142.52 69.5984 142.777 69.5763C143.981 69.4769 145.238 69.4024 146.514 69.3582C146.781 69.3527 146.991 69.5239 147 69.7502C147.013 69.9766 146.812 70.167 146.555 70.1781C145.294 70.2195 144.053 70.294 142.864 70.3934C142.849 70.3934 142.836 70.3961 142.821 70.3961ZM161.404 70.7633C161.389 70.7633 161.37 70.7633 161.351 70.7605C160.1 70.6335 158.858 70.5231 157.661 70.4348C157.403 70.4155 157.215 70.2167 157.234 69.9931C157.256 69.7668 157.485 69.5984 157.739 69.6177C158.946 69.7088 160.2 69.8192 161.457 69.9462C161.715 69.9738 161.896 70.1781 161.868 70.4017C161.84 70.6115 161.639 70.7633 161.404 70.7633ZM135.481 71.4451C135.267 71.4451 135.079 71.3209 135.029 71.1332C134.966 70.9123 135.12 70.6915 135.371 70.6363C136.547 70.3879 137.788 70.1725 139.055 69.9931C139.312 69.9545 139.547 70.1091 139.588 70.3299C139.629 70.5535 139.456 70.766 139.202 70.7992C137.958 70.9786 136.744 71.1911 135.59 71.4341C135.553 71.4423 135.515 71.4451 135.481 71.4451ZM168.779 71.7018C168.754 71.7018 168.729 71.6991 168.7 71.6935C167.462 71.5086 166.23 71.3374 165.032 71.1856C164.778 71.1525 164.602 70.9455 164.64 70.7191C164.674 70.4983 164.91 70.3409 165.167 70.3741C166.368 70.5259 167.612 70.6998 168.857 70.8847C169.111 70.9234 169.28 71.1359 169.236 71.3595C169.199 71.561 169.001 71.7018 168.779 71.7018ZM176.09 72.9468C176.059 72.9468 176.028 72.944 175.993 72.9385C174.77 72.7066 173.545 72.4858 172.353 72.2815C172.102 72.2373 171.936 72.0248 171.983 71.8012C172.033 71.5776 172.278 71.4341 172.532 71.4755C173.73 71.6825 174.962 71.9033 176.191 72.138C176.442 72.1849 176.602 72.403 176.548 72.6238C176.501 72.817 176.307 72.9468 176.09 72.9468ZM128.454 73.5761C128.279 73.5761 128.109 73.4906 128.031 73.3387C127.924 73.1372 128.021 72.8916 128.257 72.7949C129.354 72.3395 130.533 71.9227 131.753 71.5555C131.997 71.4837 132.264 71.5969 132.345 71.8122C132.427 72.0275 132.298 72.2594 132.054 72.3312C130.865 72.69 129.721 73.0931 128.648 73.5375C128.589 73.5623 128.52 73.5761 128.454 73.5761ZM183.346 74.4512C183.308 74.4512 183.267 74.4457 183.23 74.4374C182.016 74.1641 180.803 73.9046 179.618 73.659C179.367 73.6065 179.213 73.3857 179.273 73.1648C179.333 72.9468 179.58 72.8087 179.831 72.8612C181.022 73.1069 182.242 73.3691 183.459 73.6396C183.706 73.6976 183.86 73.9212 183.794 74.1393C183.741 74.327 183.553 74.4512 183.346 74.4512ZM122.233 77.1343C122.105 77.1343 121.979 77.0874 121.885 76.9963C121.716 76.8279 121.732 76.5684 121.923 76.4194C122.842 75.6961 123.861 75.0198 124.946 74.4015C125.159 74.28 125.447 74.3353 125.588 74.5257C125.729 74.7162 125.664 74.9702 125.447 75.0916C124.403 75.6851 123.428 76.3366 122.544 77.0294C122.456 77.1012 122.343 77.1343 122.233 77.1343ZM117.675 82.2687C117.602 82.2687 117.53 82.2549 117.461 82.2245C117.232 82.1196 117.145 81.8712 117.261 81.6724C117.841 80.687 118.531 79.7374 119.321 78.8541C119.477 78.6746 119.772 78.6443 119.973 78.785C120.177 78.9231 120.211 79.1825 120.051 79.3592C119.299 80.2039 118.64 81.1066 118.088 82.0479C118.007 82.1886 117.844 82.2687 117.675 82.2687ZM115.589 88.5238C115.574 88.5238 115.558 88.521 115.542 88.521C115.288 88.499 115.1 88.3002 115.125 88.0739C115.251 86.9586 115.492 85.849 115.847 84.7834C115.922 84.5654 116.179 84.4411 116.427 84.5046C116.671 84.5681 116.812 84.7972 116.74 85.0125C116.402 86.0311 116.17 87.0884 116.054 88.1539C116.028 88.3665 115.828 88.5238 115.589 88.5238ZM116.251 95.0191C116.047 95.0191 115.862 94.9031 115.803 94.7237C115.455 93.6747 115.22 92.565 115.107 91.425C115.085 91.1986 115.273 90.9999 115.53 90.9806C115.79 90.9612 116.01 91.1296 116.035 91.3532C116.141 92.4381 116.364 93.4953 116.696 94.4918C116.768 94.7099 116.627 94.9362 116.38 95.0025C116.339 95.0108 116.295 95.0191 116.251 95.0191ZM120.042 100.576C119.923 100.576 119.807 100.537 119.716 100.46C118.791 99.6676 117.985 98.7815 117.323 97.8264C117.189 97.6332 117.258 97.3792 117.477 97.2633C117.696 97.1446 117.985 97.2053 118.117 97.3985C118.741 98.2957 119.496 99.1293 120.365 99.8719C120.55 100.029 120.553 100.291 120.374 100.452C120.283 100.534 120.161 100.576 120.042 100.576ZM126.341 103.99C126.288 103.99 126.231 103.979 126.178 103.963C124.946 103.554 123.792 103.066 122.748 102.508C122.528 102.389 122.459 102.138 122.591 101.945C122.726 101.752 123.011 101.691 123.23 101.807C124.224 102.34 125.328 102.806 126.504 103.195C126.745 103.275 126.868 103.513 126.777 103.723C126.708 103.886 126.529 103.99 126.341 103.99Z" fill="#38B6FF"/>
<path d="M171.3 76.4139C171.077 76.4139 170.879 76.2731 170.839 76.0743C170.625 75.0116 170.328 73.9598 169.948 72.9551C169.87 72.737 170.001 72.5079 170.246 72.4361C170.491 72.3643 170.754 72.483 170.835 72.6956C171.224 73.7418 171.535 74.8294 171.757 75.9308C171.801 76.1544 171.632 76.3669 171.381 76.4083C171.353 76.4111 171.325 76.4139 171.3 76.4139ZM171.607 82.9478C171.591 82.9478 171.579 82.9478 171.563 82.9478C171.306 82.9257 171.118 82.7269 171.143 82.5006C171.218 81.7608 171.256 81.0099 171.256 80.2702C171.256 79.9389 171.246 79.6049 171.234 79.2792C171.221 79.0528 171.422 78.8623 171.679 78.8513C171.936 78.843 172.152 79.0197 172.162 79.246C172.177 79.5828 172.187 79.9279 172.187 80.2702C172.187 81.0348 172.146 81.8105 172.068 82.5751C172.046 82.7877 171.845 82.9478 171.607 82.9478ZM169.986 89.3354C169.936 89.3354 169.879 89.3271 169.826 89.3105C169.584 89.2305 169.462 88.9958 169.55 88.7833C169.964 87.784 170.312 86.7433 170.578 85.6889C170.632 85.468 170.883 85.33 171.133 85.3797C171.387 85.4266 171.544 85.6474 171.488 85.8683C171.212 86.9586 170.854 88.0325 170.425 89.0676C170.356 89.2332 170.177 89.3354 169.986 89.3354ZM166.446 95.0798C166.349 95.0798 166.248 95.0522 166.164 94.9942C165.96 94.859 165.922 94.5995 166.079 94.4201C166.8 93.5919 167.465 92.6838 168.051 91.7204C168.177 91.5216 168.456 91.4471 168.685 91.5547C168.91 91.6624 168.995 91.9108 168.873 92.1096C168.261 93.1089 167.568 94.0557 166.819 94.9197C166.725 95.0246 166.587 95.0798 166.446 95.0798ZM160.959 99.4633C160.805 99.4633 160.658 99.3971 160.567 99.2756C160.426 99.0879 160.489 98.834 160.705 98.7097C161.301 98.3647 161.881 98.0058 162.429 97.6415C162.831 97.3737 163.232 97.0839 163.618 96.7775C163.809 96.6256 164.104 96.6394 164.276 96.8078C164.449 96.9762 164.433 97.2357 164.242 97.3875C163.837 97.7077 163.414 98.0141 162.991 98.2984C162.426 98.6711 161.827 99.041 161.213 99.3971C161.135 99.4413 161.047 99.4633 160.959 99.4633Z" fill="#38B6FF"/>
<path d="M147.179 58.1951C147.16 58.1951 147.141 58.1951 147.126 58.1951C145.94 58.0737 144.705 57.9964 143.451 57.9605C143.191 57.955 142.99 57.7645 142.999 57.5381C143.009 57.3118 143.225 57.1351 143.479 57.1406C144.758 57.1765 146.022 57.2566 147.229 57.378C147.486 57.4029 147.671 57.6071 147.64 57.8307C147.615 58.0405 147.411 58.1951 147.179 58.1951ZM136.023 58.2089C135.788 58.2089 135.584 58.0516 135.559 57.839C135.537 57.6154 135.722 57.4139 135.979 57.3891C137.249 57.2759 138.509 57.1986 139.723 57.1572C139.98 57.1517 140.196 57.3256 140.206 57.5519C140.218 57.7783 140.014 57.9688 139.76 57.977C138.563 58.0184 137.324 58.0957 136.07 58.2061C136.054 58.2061 136.039 58.2089 136.023 58.2089ZM128.67 59.2275C128.457 59.2275 128.263 59.0978 128.216 58.9073C128.163 58.6865 128.319 58.4656 128.573 58.4187C129.774 58.1868 131.013 57.9826 132.257 57.8114C132.514 57.7755 132.75 57.9301 132.79 58.1509C132.831 58.3773 132.656 58.5843 132.402 58.6202C131.176 58.7886 129.953 58.9901 128.771 59.2192C128.736 59.2247 128.705 59.2275 128.67 59.2275ZM154.447 59.5753C154.397 59.5753 154.346 59.567 154.299 59.5532C153.171 59.2247 151.979 58.9404 150.756 58.7113C150.505 58.6644 150.346 58.4463 150.396 58.2255C150.449 58.0046 150.697 57.8611 150.951 57.908C152.205 58.1427 153.431 58.4353 154.594 58.7776C154.835 58.8493 154.967 59.0784 154.886 59.2965C154.823 59.4677 154.641 59.5753 154.447 59.5753ZM121.531 61.0466C121.34 61.0466 121.161 60.9417 121.092 60.7761C121.004 60.5635 121.13 60.3289 121.371 60.2489C122.531 59.879 123.732 59.5339 124.939 59.2275C125.184 59.164 125.444 59.291 125.513 59.5091C125.585 59.7271 125.444 59.9535 125.196 60.017C124.008 60.3151 122.829 60.6546 121.691 61.0218C121.638 61.0383 121.584 61.0466 121.531 61.0466ZM161.125 62.4296C161.034 62.4296 160.946 62.4047 160.865 62.3578C159.874 61.7698 158.808 61.2343 157.695 60.7623C157.463 60.6629 157.366 60.4172 157.476 60.213C157.588 60.0087 157.864 59.9231 158.099 60.0225C159.25 60.5111 160.357 61.0687 161.385 61.6788C161.599 61.8057 161.655 62.0597 161.511 62.2474C161.423 62.3661 161.276 62.4296 161.125 62.4296ZM114.752 63.727C114.586 63.727 114.426 63.6497 114.342 63.5144C114.219 63.3157 114.304 63.0672 114.53 62.9596C115.621 62.4379 116.753 61.9438 117.894 61.491C118.129 61.4 118.405 61.491 118.509 61.6981C118.615 61.9051 118.509 62.148 118.277 62.2391C117.154 62.6835 116.044 63.1666 114.975 63.6801C114.903 63.7132 114.828 63.727 114.752 63.727ZM166.559 66.8711C166.421 66.8711 166.283 66.8187 166.192 66.7138C165.449 65.8746 164.618 65.0796 163.728 64.3508C163.539 64.199 163.527 63.9368 163.702 63.7712C163.878 63.6055 164.173 63.5945 164.361 63.7491C165.289 64.5082 166.151 65.3335 166.926 66.2114C167.086 66.388 167.051 66.6475 166.847 66.7855C166.759 66.8435 166.659 66.8711 166.559 66.8711ZM108.51 67.2824C108.369 67.2824 108.231 67.2272 108.14 67.1223C107.983 66.9401 108.024 66.6862 108.228 66.5481C109.218 65.8829 110.253 65.2425 111.3 64.6434C111.517 64.522 111.805 64.5772 111.943 64.7649C112.084 64.9554 112.021 65.2093 111.805 65.3335C110.777 65.9188 109.764 66.5481 108.792 67.1996C108.707 67.2548 108.607 67.2824 108.51 67.2824ZM168.848 70.0069C168.678 70.0069 168.518 69.9269 168.434 69.7889C168.355 69.6564 168.28 69.5266 168.199 69.3969C168.073 69.1981 168.155 68.9497 168.381 68.8393C168.606 68.7316 168.888 68.8034 169.014 69.0021C169.099 69.1374 169.18 69.2727 169.262 69.4079C169.381 69.6094 169.29 69.8551 169.064 69.96C168.995 69.9931 168.92 70.0069 168.848 70.0069ZM102.96 71.6439C102.844 71.6439 102.728 71.6052 102.637 71.5279C102.452 71.3706 102.446 71.1111 102.625 70.9482C103.493 70.156 104.402 69.3803 105.33 68.6543C105.522 68.5025 105.816 68.5163 105.989 68.6847C106.158 68.8558 106.142 69.1126 105.951 69.2644C105.042 69.9793 104.148 70.7384 103.296 71.5169C103.205 71.5997 103.082 71.6439 102.96 71.6439ZM98.2005 76.6816C98.1064 76.6816 98.0123 76.6568 97.9277 76.6043C97.7207 76.4746 97.6737 76.2179 97.8211 76.0329C98.5548 75.133 99.3292 74.2552 100.119 73.4133C100.282 73.2394 100.577 73.2173 100.775 73.3608C100.972 73.5071 101 73.7639 100.837 73.9378C100.06 74.7631 99.301 75.6271 98.5799 76.5105C98.4889 76.6209 98.3447 76.6816 98.2005 76.6816ZM94.2687 82.2521C94.1934 82.2521 94.1182 82.2356 94.0492 82.2025C93.8203 82.0976 93.7356 81.8491 93.8579 81.6476C94.4536 80.6704 95.0839 79.707 95.736 78.7823C95.8709 78.5918 96.1593 78.5339 96.3757 78.6526C96.5951 78.7713 96.661 79.0252 96.5262 79.2157C95.8865 80.1239 95.2626 81.0734 94.6794 82.0368C94.5947 82.1748 94.4348 82.2521 94.2687 82.2521ZM91.152 88.2146C91.0956 88.2146 91.036 88.2064 90.9827 88.187C90.7413 88.1042 90.6222 87.8668 90.7162 87.6543C91.174 86.6274 91.6663 85.6033 92.1867 84.6123C92.2933 84.4053 92.5693 84.3142 92.8044 84.4108C93.0364 84.5046 93.1399 84.7476 93.0333 84.9518C92.5222 85.9318 92.0331 86.9393 91.5847 87.9552C91.5126 88.1153 91.337 88.2146 91.152 88.2146ZM88.8318 94.4559C88.7911 94.4559 88.7503 94.4504 88.7096 94.4421C88.4619 94.3842 88.3145 94.1606 88.3803 93.9397C88.7002 92.8853 89.0576 91.817 89.4495 90.768C89.5279 90.5527 89.7913 90.4368 90.0358 90.5058C90.2804 90.5776 90.4152 90.8067 90.3337 91.022C89.948 92.0599 89.5937 93.1089 89.2802 94.1523C89.2238 94.3345 89.0356 94.4559 88.8318 94.4559ZM87.377 100.915C87.3613 100.915 87.3457 100.915 87.33 100.913C87.076 100.893 86.8879 100.692 86.913 100.465C86.9192 100.416 87.0541 99.1983 87.5212 97.1667C87.5714 96.9431 87.8191 96.7995 88.0699 96.8465C88.3208 96.8906 88.4838 97.1059 88.4336 97.3268C87.9759 99.3143 87.841 100.532 87.841 100.545C87.816 100.755 87.6122 100.915 87.377 100.915Z" fill="#38B6FF"/>
<path d="M212.094 37.4312C211.975 37.4312 211.856 37.3898 211.765 37.3098L210.702 36.374C210.52 36.2139 210.52 35.9544 210.702 35.7943C210.884 35.6342 211.179 35.6342 211.361 35.7943L212.427 36.7301C212.606 36.8902 212.606 37.1497 212.427 37.3098C212.333 37.3898 212.217 37.4312 212.094 37.4312Z" fill="black"/>
<path d="M216.111 40.9673C215.992 40.9673 215.873 40.9259 215.782 40.8459L214.719 39.9101C214.537 39.75 214.537 39.4905 214.719 39.3304C214.901 39.1703 215.195 39.1703 215.377 39.3304L216.44 40.2662C216.622 40.4263 216.622 40.6858 216.44 40.8459C216.349 40.9259 216.23 40.9673 216.111 40.9673Z" fill="black"/>
<path d="M211.032 40.9673C210.912 40.9673 210.793 40.9259 210.702 40.8459C210.52 40.6858 210.52 40.4263 210.702 40.2662L211.765 39.3304C211.947 39.1703 212.242 39.1703 212.424 39.3304C212.606 39.4905 212.606 39.75 212.424 39.9101L211.361 40.8459C211.27 40.9259 211.151 40.9673 211.032 40.9673Z" fill="black"/>
<path d="M215.048 37.4312C214.929 37.4312 214.81 37.3898 214.719 37.3098C214.537 37.1497 214.537 36.8902 214.719 36.7301L215.782 35.7943C215.964 35.6342 216.258 35.6342 216.44 35.7943C216.622 35.9544 216.622 36.2139 216.44 36.374L215.377 37.3098C215.286 37.3898 215.167 37.4312 215.048 37.4312Z" fill="black"/>
<path d="M245.132 194.088C244.878 194.088 244.668 193.903 244.668 193.676V192.354C244.668 192.128 244.878 191.943 245.132 191.943C245.393 191.943 245.6 192.128 245.6 192.354V193.676C245.6 193.903 245.393 194.088 245.132 194.088Z" fill="black"/>
<path d="M245.132 199.087C244.878 199.087 244.668 198.905 244.668 198.678V197.353C244.668 197.127 244.878 196.945 245.132 196.945C245.393 196.945 245.6 197.127 245.6 197.353V198.678C245.6 198.905 245.393 199.087 245.132 199.087Z" fill="black"/>
<path d="M243.044 195.926H241.542C241.285 195.926 241.075 195.744 241.075 195.518C241.075 195.288 241.285 195.106 241.542 195.106H243.044C243.304 195.106 243.511 195.288 243.511 195.518C243.511 195.744 243.304 195.926 243.044 195.926Z" fill="black"/>
<path d="M248.726 195.926H247.224C246.967 195.926 246.757 195.741 246.757 195.518C246.757 195.288 246.967 195.106 247.224 195.106H248.726C248.983 195.106 249.193 195.288 249.193 195.518C249.193 195.741 248.983 195.926 248.726 195.926Z" fill="black"/>
<path d="M254.222 184.826C253.328 184.826 252.601 185.467 252.601 186.254C252.601 187.04 253.328 187.681 254.222 187.681C255.116 187.681 255.843 187.04 255.843 186.254C255.843 185.467 255.116 184.826 254.222 184.826ZM254.222 188.501C252.814 188.501 251.67 187.493 251.67 186.254C251.67 185.014 252.814 184.007 254.222 184.007C255.63 184.007 256.774 185.014 256.774 186.254C256.774 187.493 255.63 188.501 254.222 188.501Z" fill="black"/>
<path d="M256.034 48.5585C256.034 49.9442 254.758 51.0649 253.187 51.0649C251.613 51.0649 250.337 49.9442 250.337 48.5585C250.337 47.1755 251.613 46.052 253.187 46.052C254.758 46.052 256.034 47.1755 256.034 48.5585Z" fill="#38B6FF"/>
<path d="M99.1756 94.9804C99.0627 94.9804 98.9498 94.9445 98.862 94.8728C98.6708 94.7209 98.6582 94.4615 98.8307 94.2931L99.8403 93.3131C100.013 93.1447 100.307 93.1337 100.499 93.2855C100.69 93.4373 100.703 93.6968 100.53 93.8652L99.5205 94.8452C99.4264 94.9335 99.301 94.9804 99.1756 94.9804Z" fill="black"/>
<path d="M95.3566 98.6821C95.2469 98.6821 95.134 98.6463 95.0431 98.5772C94.8549 98.4227 94.8393 98.1632 95.0117 97.9948L96.0213 97.0176C96.1969 96.8492 96.4916 96.8354 96.6798 96.9872C96.871 97.1391 96.8867 97.3985 96.7111 97.5669L95.7015 98.5469C95.6106 98.638 95.4852 98.6821 95.3566 98.6821Z" fill="black"/>
<path d="M96.2251 95.1046C96.1123 95.1046 96.0025 95.0688 95.9116 94.9997L94.7985 94.1081C94.6073 93.9563 94.5947 93.6968 94.7672 93.5284C94.9396 93.3628 95.2344 93.349 95.4256 93.5008L96.5387 94.3924C96.7299 94.5443 96.7425 94.8038 96.57 94.9694C96.4791 95.0605 96.3506 95.1046 96.2251 95.1046Z" fill="black"/>
<path d="M100.43 98.4668C100.32 98.4668 100.207 98.4309 100.116 98.3592L99.0031 97.4703C98.815 97.3185 98.7993 97.059 98.9718 96.8906C99.1442 96.7222 99.4389 96.7112 99.6302 96.863L100.743 97.7519C100.935 97.9037 100.947 98.1632 100.775 98.3316C100.684 98.4199 100.558 98.4668 100.43 98.4668Z" fill="black"/>
<path d="M270.633 189.55C269.739 189.55 269.012 190.193 269.012 190.979C269.012 191.766 269.739 192.407 270.633 192.407C271.526 192.407 272.254 191.766 272.254 190.979C272.254 190.193 271.526 189.55 270.633 189.55ZM270.633 193.226C269.225 193.226 268.08 192.219 268.08 190.979C268.08 189.74 269.225 188.73 270.633 188.73C272.04 188.73 273.185 189.74 273.185 190.979C273.185 192.219 272.04 193.226 270.633 193.226Z" fill="black"/>
<path d="M48.5198 214.763L46.8392 225.151L42.5405 225.164L42.3367 214.948L48.5198 214.763Z" fill="#B78876"/>
<path d="M42.8102 215.346L42.9983 224.753L46.4347 224.742L47.9805 215.188L42.8102 215.346ZM42.5405 225.576C42.2866 225.576 42.0765 225.396 42.0734 225.173L41.8727 214.956C41.8664 214.733 42.0671 214.548 42.3211 214.54L48.5041 214.355C48.6389 214.349 48.7737 214.399 48.8678 214.49C48.9587 214.581 48.9995 214.7 48.9807 214.821L47.3001 225.209C47.2687 225.41 47.0712 225.562 46.8423 225.562L42.5405 225.576Z" fill="black"/>
<path d="M46.9866 235.083C45.2966 235.243 42.7851 235.306 39.4271 235.044C38.2262 234.953 37.3796 233.973 37.574 232.924C38.0945 230.106 39.5493 225.131 41.8445 222.851L42.9764 224.27L43.6473 222.804C43.7571 222.644 46.6072 222.539 46.6667 222.837L46.8392 224.27L48.4571 222.675L48.3693 227.917C48.3599 228.496 48.4226 229.073 48.5543 229.642L48.9775 231.453C49.2346 232.543 48.918 233.697 48.0526 234.511C47.714 234.829 47.3377 235.049 46.9866 235.083Z" fill="#455A64"/>
<path d="M41.8163 223.53C39.7751 225.929 38.4864 230.531 38.0318 232.99C37.9597 233.385 38.0757 233.788 38.3548 234.1C38.6275 234.412 39.0257 234.602 39.4678 234.638C43.0453 234.911 45.5035 234.809 46.9364 234.677C47.1496 234.655 47.4349 234.492 47.714 234.23C48.4539 233.537 48.7549 232.529 48.5229 231.535L48.0965 229.725C47.9585 229.128 47.8927 228.518 47.9021 227.911L47.9742 223.768L47.1872 224.546C47.0649 224.668 46.8737 224.712 46.6981 224.662C46.5225 224.612 46.3971 224.477 46.3751 224.317L46.2309 223.1C45.7387 223.031 44.4814 223.053 44.0016 223.127L43.409 224.425C43.3432 224.565 43.199 224.662 43.0297 224.679C42.8635 224.695 42.6942 224.632 42.5938 224.507L41.8163 223.53ZM43.7195 235.632C42.5092 235.632 41.0669 235.582 39.3863 235.453C38.6808 235.4 38.0538 235.096 37.6179 234.605C37.1821 234.111 37.0003 233.476 37.1131 232.86C37.2511 232.115 38.5397 225.518 41.4933 222.578C41.5874 222.484 41.7316 222.434 41.8696 222.443C42.0106 222.448 42.1423 222.512 42.2239 222.617L42.8666 223.417L43.2178 222.65C43.2272 222.63 43.2366 222.611 43.2491 222.592C43.594 222.089 46.2685 222.277 46.4347 222.302C46.5884 222.327 47.0524 222.404 47.1245 222.766C47.1277 222.777 47.1277 222.785 47.1308 222.793L47.1904 223.309L48.109 222.404C48.2407 222.274 48.4477 222.233 48.6264 222.294C48.8082 222.357 48.9274 222.512 48.9242 222.683L48.8333 227.925C48.827 228.471 48.8835 229.021 49.0089 229.556L49.4353 231.37C49.73 232.623 49.3413 233.901 48.3912 234.793C47.9491 235.207 47.482 235.45 47.0336 235.491C46.2403 235.566 45.1398 235.632 43.7195 235.632Z" fill="black"/>
<path d="M43.9107 233.777C42.7255 233.777 41.2519 233.697 39.587 233.44C39.333 233.399 39.1637 233.189 39.2107 232.965C39.2546 232.742 39.4961 232.593 39.75 232.631C43.87 233.269 46.8204 232.764 46.8517 232.758C47.1026 232.714 47.3471 232.858 47.4004 233.079C47.4506 233.299 47.2876 233.517 47.0367 233.562C46.9583 233.575 45.792 233.777 43.9107 233.777Z" fill="black"/>
<path d="M45.284 229.794H41.3836C41.1265 229.794 40.9195 229.611 40.9195 229.385C40.9195 229.156 41.1265 228.974 41.3836 228.974H45.284C45.5411 228.974 45.7512 229.156 45.7512 229.385C45.7512 229.611 45.5411 229.794 45.284 229.794Z" fill="black"/>
<path d="M79.3848 215.691L80.8992 227.798L86.6841 228.863L86.3298 214.669L79.3848 215.691Z" fill="#B78876"/>
<path d="M81.3256 227.458L86.2043 228.358L85.8783 215.15L79.8959 216.033L81.3256 227.458ZM86.6841 229.275C86.6527 229.275 86.6182 229.272 86.5869 229.266L80.802 228.198C80.6076 228.162 80.4571 228.019 80.4352 227.845L78.9239 215.735C78.8957 215.52 79.065 215.324 79.3096 215.285L86.2545 214.264C86.3862 214.244 86.5242 214.277 86.6276 214.352C86.7311 214.429 86.7938 214.54 86.7969 214.658L87.1481 228.855C87.1512 228.982 87.0917 229.101 86.9819 229.181C86.8973 229.242 86.7907 229.275 86.6841 229.275Z" fill="black"/>
<path d="M78.4536 233.573C78.325 231.45 78.3219 227.544 79.7893 225.659L84.4172 227.111V226.241C84.4172 225.959 84.6429 225.728 84.9345 225.714L87.515 225.584C88.4775 225.534 89.437 225.711 90.318 226.092C92.911 227.213 100.806 230.095 101.9 233.333C102.223 234.288 101.373 235.245 100.242 235.273C97.6455 235.339 91.3997 235.411 80.1906 235.074C79.2563 235.044 78.5006 234.393 78.4536 233.573Z" fill="#455A64"/>
<path d="M79.9868 226.155C79.1058 227.549 78.717 230.208 78.9176 233.551C78.9553 234.163 79.5071 234.641 80.2063 234.663C91.29 234.997 97.5107 234.931 100.229 234.865C100.637 234.853 101.025 234.671 101.267 234.379C101.493 234.103 101.562 233.766 101.455 233.451C100.549 230.776 94.2749 228.184 91.2586 226.939C90.8134 226.757 90.4246 226.594 90.1111 226.459C89.3053 226.111 88.418 225.948 87.5432 225.993L84.9596 226.122C84.9282 226.125 84.8812 226.172 84.8812 226.241V227.111C84.8812 227.243 84.8091 227.367 84.6837 227.445C84.5614 227.522 84.4015 227.541 84.2604 227.497L79.9868 226.155ZM95.0682 235.74C91.6192 235.74 86.7499 235.682 80.1749 235.483C78.9898 235.447 78.0491 234.635 77.9864 233.595C77.8547 231.395 77.8641 227.406 79.4068 225.429C79.5259 225.275 79.7454 225.211 79.9461 225.275L83.95 226.531V226.241C83.95 225.744 84.3701 225.333 84.9063 225.305L87.4867 225.173C88.5246 225.123 89.5718 225.313 90.5218 225.725C90.8322 225.857 91.2179 226.015 91.6568 226.197C95.0337 227.594 101.323 230.188 102.345 233.217C102.537 233.777 102.418 234.376 102.019 234.859C101.612 235.356 100.953 235.665 100.257 235.684C99.1411 235.709 97.4417 235.74 95.0682 235.74Z" fill="black"/>
<path d="M93.2716 233.727C89.9888 233.727 85.5459 233.598 80.6954 233.103C80.4415 233.079 80.2565 232.874 80.2878 232.651C80.316 232.424 80.5481 232.264 80.802 232.289C90.6535 233.294 98.7868 232.772 98.8683 232.764C99.1223 232.75 99.348 232.918 99.3668 233.142C99.3857 233.368 99.1944 233.567 98.9373 233.584C98.8965 233.586 96.7206 233.727 93.2716 233.727Z" fill="black"/>
<path d="M91.8387 230.26C91.7446 230.26 91.6506 230.235 91.5659 230.183L87.1105 227.362C86.9036 227.232 86.8565 226.975 87.007 226.79C87.1575 226.605 87.446 226.564 87.6561 226.696L92.1115 229.518C92.3184 229.65 92.3655 229.907 92.2181 230.092C92.1272 230.202 91.9829 230.26 91.8387 230.26Z" fill="black"/>
<path d="M80.1843 132.053C80.1843 132.053 89.4809 187.211 87.7156 220.637L85.1289 220.864C83.7368 220.988 82.3384 221.018 80.94 220.955L78.4881 220.847C67.464 164.245 64.6672 161.573 62.5225 155.337C62.5225 155.337 50.2348 206.794 49.7144 219.028C49.7144 219.028 43.7477 219.555 41.3679 218.802C40.0918 206.995 39.7218 194.775 39.6591 187.104C39.4741 165.147 41.857 155.174 43.1645 150.443C44.3653 146.098 45.6509 142.567 46.5915 140.179L49.7332 132.296L80.1843 132.053Z" fill="black"/>
<path d="M62.5351 157.504C62.5069 157.504 62.4755 157.501 62.4473 157.496C62.1933 157.454 62.0303 157.239 62.0773 157.015L63.4444 150.837C63.4475 150.826 63.4506 150.815 63.4538 150.807C63.8739 149.463 65.0967 148.45 66.6488 148.168L67.9406 147.933C68.1914 147.887 68.436 148.03 68.4893 148.254C68.5426 148.475 68.3795 148.693 68.1287 148.737L66.8369 148.971C65.636 149.189 64.686 149.971 64.3568 151.009L62.9929 157.173C62.949 157.369 62.7546 157.504 62.5351 157.504Z" fill="#C3EDEF"/>
<path d="M46.1494 147.511C45.9268 147.511 45.7293 147.37 45.6916 147.169C45.6477 146.945 45.8202 146.733 46.0741 146.697C51.7085 145.871 53.7779 142.653 54.405 141.308C54.5021 141.099 54.7749 140.999 55.0132 141.085C55.2515 141.17 55.3644 141.411 55.2672 141.62C54.5805 143.092 52.323 146.611 46.2278 147.506C46.1996 147.508 46.1745 147.511 46.1494 147.511Z" fill="#C3EDEF"/>
<path d="M80.0903 144.218C80.0307 144.218 79.968 144.21 79.9053 144.185C75.3997 142.462 74.8761 138.954 74.8573 138.805C74.8259 138.578 75.0078 138.374 75.2649 138.349C75.5157 138.325 75.7509 138.482 75.7822 138.708C75.801 138.841 76.2808 141.905 80.2784 143.434C80.5136 143.525 80.6202 143.765 80.5198 143.975C80.4446 144.127 80.2721 144.218 80.0903 144.218Z" fill="#C3EDEF"/>
<path d="M72.7315 86.9835C67.2131 87.0967 55.4616 87.5218 47.5823 89.1228C45.2025 89.6059 41.9291 91.3173 40.3113 92.9294C35.5517 97.6773 26.7725 107.927 26.7474 118.966C26.7443 120.575 28.1521 121.917 29.9769 122.049L39.6654 122.756C39.6654 122.756 37.9315 136.216 38.5805 138.427C39.2327 140.635 47.5948 143.525 56.8224 139.224C64.0213 135.868 73.2237 132.133 80.3599 133.425C80.4258 133.436 81.1375 138.311 81.2065 138.311C83.4358 138.33 87.3989 137.472 86.9255 134.775L83.7148 120.848L95.9524 117.903L97.0153 117.442C100.232 116.051 101.464 112.573 99.7149 109.818C95.7705 103.607 89.7066 93.5146 80.617 88.6315C78.6699 87.588 75.0078 86.9366 72.7315 86.9835Z" fill="#0CC0DF"/>
<path d="M84.9596 135.801C84.8593 135.801 84.7589 135.771 84.6711 135.713C83.3919 134.819 80.824 134.225 79.4099 134.09C79.1559 134.065 78.9678 133.864 78.9992 133.637C79.0242 133.414 79.2563 133.251 79.5102 133.276C80.9306 133.411 83.7462 134.018 85.2512 135.07C85.4518 135.211 85.4863 135.467 85.3264 135.647C85.2355 135.746 85.0975 135.801 84.9596 135.801Z" fill="black"/>
<path d="M73.6627 131.227L93.1399 128.889C93.9865 128.787 94.6449 128.191 94.7358 127.443L97.7678 102.715C97.8963 101.658 96.8648 100.775 95.6702 100.918L76.193 103.256C75.3464 103.358 74.688 103.955 74.5971 104.703L71.5651 129.433C71.4334 130.488 72.465 131.371 73.6627 131.227Z" fill="#E0E0E0"/>
<path d="M95.9241 101.313C95.8614 101.313 95.7956 101.316 95.7329 101.324L76.2557 103.662C75.6192 103.739 75.1301 104.184 75.0611 104.744L72.026 129.477C71.9821 129.853 72.1326 130.223 72.4399 130.488C72.7503 130.75 73.1704 130.874 73.6 130.822L93.0772 128.484C93.7105 128.406 94.2028 127.962 94.2718 127.402L97.3037 102.668C97.3508 102.293 97.2003 101.923 96.893 101.661C96.6296 101.434 96.2847 101.313 95.9241 101.313ZM73.4056 131.653C72.8067 131.653 72.2298 131.448 71.7908 131.073C71.2766 130.631 71.0227 130.018 71.1011 129.389L74.133 104.658C74.249 103.72 75.0705 102.977 76.1303 102.85L95.6075 100.512C96.3223 100.427 97.0247 100.631 97.542 101.073C98.0562 101.512 98.3071 102.127 98.2318 102.757L95.1967 127.487C95.0839 128.426 94.2624 129.168 93.2026 129.295L73.7254 131.636C73.6188 131.647 73.5122 131.653 73.4056 131.653Z" fill="black"/>
<path d="M87.3958 116.498C87.076 118.085 85.5961 119.178 84.0879 118.944C82.5798 118.709 81.6172 117.232 81.937 115.648C82.2569 114.06 83.7368 112.967 85.2449 113.202C86.753 113.437 87.7156 114.913 87.3958 116.498Z" fill="#38B6FF"/>
<path d="M96.2847 112.978L96.0057 115.471L93.5412 115.065C92.1867 114.839 90.8605 114.48 89.5969 113.997L88.1326 113.439C87.0415 113.023 85.7968 113.599 85.5553 114.626C85.0443 116.807 85.7497 120.274 94.5728 121.445C99.439 122.093 99.9626 116.652 98.9028 113.79C98.63 113.061 98.1378 112.631 97.6612 112.379C97.0937 112.078 96.36 112.399 96.2847 112.978Z" fill="#B78876"/>
<path d="M87.3895 113.713C87.1701 113.713 86.9506 113.76 86.7468 113.851C86.3674 114.025 86.0978 114.339 86.0131 114.709C85.734 115.896 85.9567 116.962 86.6747 117.867C87.9163 119.435 90.5971 120.503 94.6418 121.042C95.943 121.213 96.9714 120.917 97.6988 120.164C99.0878 118.717 99.1756 115.852 98.4607 113.92C98.2632 113.392 97.9151 112.992 97.4229 112.733C97.2881 112.664 97.1344 112.655 96.9933 112.716C96.8554 112.777 96.7644 112.887 96.7488 113.023L96.4666 115.51C96.454 115.626 96.3882 115.73 96.2816 115.799C96.1781 115.869 96.0464 115.896 95.9179 115.874L93.4566 115.465C92.0676 115.236 90.7068 114.869 89.4119 114.372L87.9477 113.815C87.7689 113.746 87.5808 113.713 87.3895 113.713ZM95.3284 121.908C95.0619 121.908 94.786 121.889 94.5007 121.85C90.1957 121.279 87.3049 120.097 85.9096 118.336C85.0537 117.254 84.7715 115.943 85.1007 114.544C85.2449 113.931 85.687 113.412 86.3172 113.125C86.9443 112.838 87.6717 112.815 88.3176 113.064L89.7819 113.622C91.0141 114.094 92.309 114.441 93.629 114.659L95.5918 114.985L95.8207 112.94C95.8207 112.937 95.8207 112.934 95.8207 112.931C95.874 112.52 96.1593 112.164 96.5826 111.982C97.0059 111.797 97.4981 111.816 97.9026 112.029C98.5924 112.393 99.0784 112.945 99.3449 113.663C100.129 115.783 100.069 118.966 98.4074 120.691C97.6361 121.494 96.5826 121.908 95.3284 121.908Z" fill="black"/>
<path d="M49.0936 104.54C48.2564 105.536 47.2656 106.422 46.1463 107.176C42.3744 109.716 33.3757 115.849 31.2311 117.972C28.4939 120.672 27.1488 121.718 30.5632 127.41C36.1317 136.688 51.1598 109.348 51.1598 109.348C51.1598 109.348 56.8506 109.566 57.4338 105.13C57.4338 105.13 60.403 105.263 61.538 104.656C62.4097 104.192 62.1557 102.815 60.8953 102.812L52.7024 102.458C51.5768 102.42 50.5014 102.87 49.8272 103.67L49.0936 104.54Z" fill="#B78876"/>
<path d="M49.4698 104.785C48.6044 105.81 47.5823 106.723 46.4284 107.499C42.6691 110.033 33.6955 116.153 31.576 118.242L31.3346 118.483C28.845 120.934 27.8135 121.95 30.974 127.217C31.6732 128.379 32.5229 128.936 33.5544 128.92C38.7937 128.84 47.7359 114.635 50.7396 109.169C50.8212 109.023 50.9873 108.934 51.1817 108.94C51.3918 108.948 56.4461 109.081 56.9729 105.084C57.0011 104.871 57.23 104.711 57.4588 104.722C58.2458 104.755 60.4688 104.75 61.2966 104.305C61.5756 104.159 61.6258 103.858 61.56 103.64C61.5192 103.513 61.375 103.223 60.8953 103.22L52.6805 102.867C51.7116 102.834 50.7835 103.223 50.2004 103.913L49.4698 104.785ZM33.5074 129.74C32.1341 129.74 31.0053 129.022 30.1525 127.6C26.6879 121.825 28.0079 120.528 30.6416 117.936L30.8831 117.699C33.0528 115.554 42.0828 109.395 45.8641 106.85C46.9458 106.119 47.9084 105.26 48.7204 104.297L49.4541 103.425C50.2192 102.516 51.442 102.003 52.7244 102.05L60.9203 102.4C61.6509 102.403 62.2623 102.803 62.4567 103.422C62.6511 104.04 62.372 104.692 61.7794 105.006C60.7918 105.536 58.7475 105.567 57.8351 105.553C57.0701 109.335 52.6711 109.724 51.4514 109.757C50.1471 112.092 40.1294 129.637 33.5701 129.74C33.5513 129.74 33.5293 129.74 33.5074 129.74Z" fill="black"/>
<path d="M66.0091 86.9697L65.6203 83.6903C65.6423 83.2901 65.9496 82.945 66.3854 82.8346L69.6619 82.0479C70.0789 81.943 70.3674 81.6034 70.3674 81.2197L70.3611 77.7251L71.6874 76.8196C71.7908 76.7479 71.8128 76.6181 71.7344 76.5243L69.897 74.2966C69.3044 73.463 68.7871 71.5141 68.2478 71.6162C68.2478 71.6162 56.2705 69.4245 55.3675 74.3849C55.2358 75.1027 55.4334 75.8397 55.8723 76.4553L56.7879 77.7471C57.7065 79.0418 57.9135 84.858 57.5027 86.183C57.2707 86.9393 56.7377 87.5908 56.0009 88.0269C55.0759 88.5735 53.9472 89.2719 54.1196 89.3298C54.1196 89.3298 55.3142 90.2049 57.2425 91.0275C60.6664 92.485 65.2786 91.2152 68.5331 89.4706C68.5331 89.4706 65.9213 87.8227 66.0091 86.9697Z" fill="#B78876"/>
<path d="M54.8032 89.2746C55.2923 89.5866 56.2204 90.1359 57.4463 90.6576C60.519 91.966 64.6421 90.9281 67.696 89.4265C66.8243 88.8192 65.5169 87.7757 65.542 86.9807L65.1594 83.7317C65.1563 83.7124 65.1563 83.6931 65.1563 83.671C65.1845 83.0941 65.6297 82.5972 66.26 82.4426L69.5396 81.6504C69.7497 81.6007 69.9002 81.4213 69.9002 81.2197L69.8971 77.7251C69.8939 77.5981 69.9629 77.4766 70.0758 77.3993L71.2327 76.6126L69.5208 74.5395C69.5145 74.5313 69.5083 74.523 69.502 74.5174C69.2543 74.1669 69.0317 73.67 68.8185 73.1924C68.6366 72.7894 68.3701 72.1932 68.2008 72.0248C68.1851 72.022 68.1694 72.0193 68.1506 72.0165C68.0754 72.0027 60.4312 70.6363 57.1767 72.6128C56.4085 73.0793 55.9664 73.6783 55.8253 74.4512C55.7187 75.0502 55.8755 75.6851 56.2674 76.2399L57.1829 77.5291C58.2019 78.9672 58.3838 84.8966 57.9511 86.2906C57.6909 87.1408 57.0889 87.8751 56.2611 88.3665C55.4835 88.8274 55.0446 89.109 54.8032 89.2746ZM60.635 92.0709C59.3746 92.0709 58.1518 91.8694 57.0387 91.3946C55.0822 90.561 53.8719 89.6832 53.8218 89.6473C53.7214 89.5755 53.6525 89.4679 53.6368 89.3602C53.6054 89.0924 53.5866 88.9599 55.7406 87.6846C56.3865 87.3037 56.8506 86.7351 57.0544 86.0781C57.4589 84.7641 57.2049 79.108 56.3928 77.9624L55.4773 76.6733C54.9631 75.9501 54.7624 75.1165 54.9066 74.3187C55.0853 73.3305 55.6717 72.5299 56.6468 71.9365C60.0863 69.8523 67.3887 71.0476 68.2635 71.2022C68.9157 71.1691 69.2543 71.9337 69.6838 72.8916C69.8814 73.3305 70.0852 73.7859 70.2827 74.0703L72.1107 76.2814C72.3395 76.5574 72.2768 76.9356 71.9727 77.1426L70.8283 77.9266L70.8314 81.2197C70.8314 81.7856 70.4019 82.288 69.7873 82.4426L66.5077 83.2321C66.2788 83.2901 66.1126 83.4695 66.0875 83.682L66.4732 86.9283C66.4763 86.9559 66.4763 86.9807 66.4732 87.0083C66.4387 87.3313 67.5518 88.3444 68.8059 89.1366C68.9313 89.2167 69.0035 89.3492 69.0003 89.4844C68.9941 89.6224 68.9094 89.7494 68.7746 89.8212C66.4889 91.0468 63.4726 92.0709 60.635 92.0709Z" fill="black"/>
<path d="M69.1571 64.0417C66.586 63.785 69.6838 66.2859 60.2995 63.3654C56.5621 62.2005 58.2427 66.2114 57.2707 65.9105C53.6869 64.8035 53.8124 64.8394 52.0095 65.1652C50.8149 65.3832 49.9307 67.2631 50.0655 68.704C50.2411 70.6087 52.4516 73.739 54.3955 77.0267C55.4051 78.7271 57.3836 78.9838 59.9578 76.6733C60.2337 76.4277 59.0328 74.8266 59.7602 74.2028C61.654 72.5824 62.2623 75.2186 63.7516 74.4954C65.1814 73.8025 65.7834 73.336 67.3197 72.2539C69.1759 70.9455 71.9758 73.2918 73.2174 70.1864C73.8633 68.566 72.675 64.3922 69.1571 64.0417Z" fill="black"/>
</g>
<defs>
<filter id="filter0_d_687_141" x="0" y="0" width="309" height="273" filterUnits="userSpaceOnUse" color-interpolation-filters="sRGB">
<feFlood flood-opacity="0" result="BackgroundImageFix"/>
<feColorMatrix in="SourceAlpha" type="matrix" values="0 0 0 0 0 0 0 0 0 0 0 0 0 0 0 0 0 0 127 0" result="hardAlpha"/>
<feOffset dy="4"/>
<feGaussianBlur stdDeviation="2"/>
<feComposite in2="hardAlpha" operator="out"/>
<feColorMatrix type="matrix" values="0 0 0 0 0 0 0 0 0 0 0 0 0 0 0 0 0 0 0.25 0"/>
<feBlend mode="normal" in2="BackgroundImageFix" result="effect1_dropShadow_687_141"/>
<feBlend mode="normal" in="SourceGraphic" in2="effect1_dropShadow_687_141" result="shape"/>
</filter>
<clipPath id="clip0_687_141">
<rect width="301" height="265" fill="white" transform="translate(4)"/>
</clipPath>
</defs>
</svg>
