<svg width="83" height="84" viewBox="0 0 83 84" fill="none" xmlns="http://www.w3.org/2000/svg">
<g filter="url(#filter0_d_714_418)">
<path d="M79 38.0005C79 38.6135 78.9854 39.2275 78.9552 39.8405C78.925 40.4534 78.8792 41.0654 78.8198 41.6752C78.7594 42.2861 78.6844 42.8949 78.5937 43.5026C78.5042 44.1094 78.3989 44.714 78.2791 45.3155C78.1593 45.918 78.025 46.5164 77.876 47.1116C77.7271 47.7069 77.5635 48.298 77.3854 48.8859C77.2072 49.4728 77.0145 50.0556 76.8083 50.6331C76.601 51.2106 76.3801 51.784 76.1458 52.35C75.9103 52.9171 75.6624 53.478 75.3999 54.0336C75.1374 54.5882 74.8613 55.1355 74.5718 55.6776C74.2832 56.2186 73.9801 56.7523 73.6644 57.2788C73.3488 57.8052 73.0207 58.3233 72.68 58.8341C72.3394 59.3439 71.9863 59.8453 71.6206 60.3384C71.255 60.8315 70.8769 61.3152 70.4883 61.7895C70.0987 62.2638 69.6977 62.7288 69.2851 63.1833C68.8737 63.6378 68.4507 64.0819 68.0164 64.5166C67.583 64.9503 67.1382 65.3735 66.683 65.7853C66.2288 66.1971 65.7642 66.5984 65.2892 66.9873C64.8152 67.3771 64.3319 67.7545 63.8392 68.1204C63.3454 68.4853 62.8443 68.8387 62.3339 69.1796C61.8235 69.5204 61.3047 69.8488 60.7787 70.1647C60.2526 70.4795 59.7182 70.7829 59.1776 71.0716C58.6359 71.3614 58.088 71.6366 57.5338 71.8993C56.9786 72.162 56.4181 72.4101 55.8504 72.6447C55.2837 72.8803 54.7108 73.1013 54.1337 73.3077C53.5555 73.5141 52.9732 73.707 52.3857 73.8852C51.7982 74.0635 51.2076 74.2271 50.6117 74.3762C50.0169 74.5253 49.4179 74.6598 48.8158 74.7786C48.2137 74.8985 47.6095 75.0038 47.0022 75.0934C46.3949 75.1841 45.7866 75.2592 45.1761 75.3186C44.5647 75.3791 43.9532 75.4239 43.3396 75.4541C42.7271 75.4844 42.1136 75.5 41.5 75.5C40.8864 75.5 40.2729 75.4844 39.6604 75.4541C39.0468 75.4239 38.4353 75.3791 37.8239 75.3186C37.2134 75.2592 36.6051 75.1841 35.9978 75.0934C35.3905 75.0038 34.7863 74.8985 34.1842 74.7786C33.5821 74.6598 32.9831 74.5253 32.3883 74.3762C31.7924 74.2271 31.2018 74.0635 30.6143 73.8852C30.0268 73.707 29.4445 73.5141 28.8663 73.3077C28.2892 73.1013 27.7163 72.8803 27.1496 72.6447C26.5819 72.4101 26.0214 72.162 25.4662 71.8993C24.912 71.6366 24.3641 71.3614 23.8224 71.0716C23.2818 70.7829 22.7474 70.4795 22.2213 70.1647C21.6942 69.8488 21.1765 69.5204 20.6661 69.1796C20.1557 68.8387 19.6546 68.4853 19.1608 68.1204C18.6681 67.7545 18.1848 67.3771 17.7098 66.9873C17.2358 66.5984 16.7712 66.1971 16.317 65.7853C15.8618 65.3735 15.417 64.9503 14.9836 64.5166C14.5493 64.0819 14.1263 63.6378 13.7149 63.1833C13.3023 62.7288 12.9013 62.2638 12.5117 61.7895C12.1231 61.3152 11.745 60.8315 11.3794 60.3384C11.0137 59.8453 10.6606 59.3439 10.32 58.8341C9.97933 58.3233 9.6512 57.8052 9.33556 57.2788C9.01993 56.7523 8.7168 56.2186 8.42825 55.6776C8.13866 55.1355 7.86261 54.5882 7.6001 54.0336C7.33759 53.478 7.08967 52.9171 6.85425 52.35C6.61986 51.784 6.39902 51.2106 6.19173 50.6331C5.98547 50.0556 5.79276 49.4728 5.61463 48.8859C5.4365 48.298 5.27295 47.7069 5.12399 47.1116C4.97503 46.5164 4.84065 45.918 4.72085 45.3155C4.60106 44.714 4.49585 44.1094 4.40626 43.5026C4.31563 42.8949 4.24063 42.2861 4.18021 41.6752C4.12084 41.0654 4.075 40.4534 4.04479 39.8405C4.01458 39.2275 4 38.6135 4 38.0005C4 37.3865 4.01458 36.7725 4.04479 36.1595C4.075 35.5466 4.12084 34.9346 4.18021 34.3248C4.24063 33.7139 4.31563 33.1051 4.40626 32.4974C4.49585 31.8906 4.60106 31.286 4.72085 30.6845C4.84065 30.082 4.97503 29.4836 5.12399 28.8884C5.27295 28.2931 5.4365 27.702 5.61463 27.1141C5.79276 26.5272 5.98547 25.9444 6.19173 25.3669C6.39902 24.7894 6.61986 24.216 6.85425 23.65C7.08967 23.0829 7.33759 22.522 7.6001 21.9664C7.86261 21.4118 8.13866 20.8645 8.42825 20.3224C8.7168 19.7814 9.01993 19.2477 9.33556 18.7212C9.6512 18.1948 9.97933 17.6767 10.32 17.1659C10.6606 16.6561 11.0137 16.1547 11.3794 15.6616C11.745 15.1685 12.1231 14.6848 12.5117 14.2105C12.9013 13.7362 13.3023 13.2712 13.7149 12.8167C14.1263 12.3622 14.5493 11.9181 14.9836 11.4834C15.417 11.0497 15.8618 10.6265 16.317 10.2147C16.7712 9.80294 17.2358 9.40159 17.7098 9.01275C18.1848 8.62287 18.6681 8.2455 19.1608 7.8796C19.6546 7.51473 20.1557 7.16134 20.6661 6.82045C21.1765 6.47957 21.6942 6.15119 22.2213 5.83533C22.7474 5.5205 23.2818 5.21715 23.8224 4.92838C24.3641 4.63858 24.912 4.36337 25.4662 4.10067C26.0214 3.83797 26.5819 3.58986 27.1496 3.35531C27.7163 3.11971 28.2892 2.89871 28.8663 2.6923C29.4445 2.48589 30.0268 2.29304 30.6143 2.11478C31.2018 1.93651 31.7924 1.77285 32.3883 1.62378C32.9831 1.4747 33.5821 1.34023 34.1842 1.22138C34.7863 1.1015 35.3905 0.996213 35.9978 0.906561C36.6051 0.815866 37.2134 0.740809 37.8239 0.681389C38.4353 0.620926 39.0468 0.5761 39.6604 0.545868C40.2729 0.515637 40.8864 0.5 41.5 0.5C42.1136 0.5 42.7271 0.515637 43.3396 0.545868C43.9532 0.5761 44.5647 0.620926 45.1761 0.681389C45.7866 0.740809 46.3949 0.815866 47.0022 0.906561C47.6095 0.996213 48.2137 1.1015 48.8158 1.22138C49.4179 1.34023 50.0169 1.4747 50.6117 1.62378C51.2076 1.77285 51.7982 1.93651 52.3857 2.11478C52.9732 2.29304 53.5555 2.48589 54.1337 2.6923C54.7108 2.89871 55.2837 3.11971 55.8504 3.35531C56.4181 3.58986 56.9786 3.83797 57.5338 4.10067C58.088 4.36337 58.6359 4.63858 59.1776 4.92838C59.7182 5.21715 60.2526 5.5205 60.7787 5.83533C61.3047 6.15119 61.8235 6.47957 62.3339 6.82045C62.8443 7.16134 63.3454 7.51473 63.8392 7.8796C64.3319 8.2455 64.8152 8.62287 65.2892 9.01275C65.7642 9.40159 66.2288 9.80294 66.683 10.2147C67.1382 10.6265 67.583 11.0497 68.0164 11.4834C68.4507 11.9181 68.8737 12.3622 69.2851 12.8167C69.6977 13.2712 70.0987 13.7362 70.4883 14.2105C70.8769 14.6848 71.255 15.1685 71.6206 15.6616C71.9863 16.1547 72.3394 16.6561 72.68 17.1659C73.0207 17.6767 73.3488 18.1948 73.6644 18.7212C73.9801 19.2477 74.2832 19.7814 74.5718 20.3224C74.8613 20.8645 75.1374 21.4118 75.3999 21.9664C75.6624 22.522 75.9103 23.0829 76.1458 23.65C76.3801 24.216 76.601 24.7894 76.8083 25.3669C77.0145 25.9444 77.2072 26.5272 77.3854 27.1141C77.5635 27.702 77.7271 28.2931 77.876 28.8884C78.025 29.4836 78.1593 30.082 78.2791 30.6845C78.3989 31.286 78.5042 31.8906 78.5937 32.4974C78.6844 33.1051 78.7594 33.7139 78.8198 34.3248C78.8792 34.9346 78.925 35.5466 78.9552 36.1595C78.9854 36.7725 79 37.3865 79 38.0005Z" fill="#C3EDEF"/>
<mask id="mask0_714_418" style="mask-type:luminance" maskUnits="userSpaceOnUse" x="19" y="13" width="33" height="38">
<path d="M19.0261 13.6656H51.6387V50.54H19.0261V13.6656Z" fill="white"/>
</mask>
<g mask="url(#mask0_714_418)">
<path d="M23.1233 50.5041C20.8814 50.5041 19.0602 48.9711 19.0602 47.077V13.6656L23.1233 16.2356L27.1864 13.6656L31.2495 16.2356L35.3126 13.6656L39.3757 16.2356L43.4389 13.6656L47.5027 16.2356L51.5658 13.6656V50.5041H23.1233Z" fill="#5498D7"/>
</g>
<path d="M27.1864 37.6534H24.139V35.9399H27.1864V37.6534Z" fill="#EDEDED"/>
<path d="M27.1864 42.7935H24.139V41.0799H27.1864V42.7935Z" fill="#EDEDED"/>
<path d="M31.2495 27.3728H24.139V25.6598H31.2495V27.3728Z" fill="#EDEDED"/>
<path d="M27.1864 32.5134H24.139V30.7999H27.1864V32.5134Z" fill="#EDEDED"/>
<path d="M36.3284 22.2327H24.139V20.5192H36.3284V22.2327Z" fill="#EDEDED"/>
<path d="M46.4861 22.2327H42.423V20.5192H46.4861V22.2327Z" fill="#EDEDED"/>
<mask id="mask1_714_418" style="mask-type:luminance" maskUnits="userSpaceOnUse" x="22" y="26" width="46" height="25">
<path d="M22.9872 26.3651H67.8514V50.54H22.9872V26.3651Z" fill="white"/>
</mask>
<g mask="url(#mask1_714_418)">
<path d="M31.2494 26.5163C29.0039 26.5163 27.1863 28.0487 27.1863 29.9428V47.077C27.1863 48.9711 25.3686 50.5041 23.1232 50.5041H67.8181V29.9428C67.8181 28.0487 66.0012 26.5163 63.755 26.5163H31.2494Z" fill="#2C5CA0"/>
</g>
<mask id="mask2_714_418" style="mask-type:luminance" maskUnits="userSpaceOnUse" x="31" y="26" width="37" height="38">
<path d="M31.1475 26.3651H67.8515V63.3542H31.1475V26.3651Z" fill="white"/>
</mask>
<g mask="url(#mask2_714_418)">
<path d="M63.7551 26.5163H31.2495C33.4957 26.5163 35.3126 28.0487 35.3126 29.9428V63.3542L39.3757 60.7842L43.4388 63.3542L47.5027 60.7842L51.5658 63.3542L55.6289 60.7842L59.692 63.3542L63.7551 60.7842L67.8182 63.3542V29.9428C67.8182 28.0487 66.0013 26.5163 63.7551 26.5163Z" fill="#8DD5D8"/>
</g>
<mask id="mask3_714_418" style="mask-type:luminance" maskUnits="userSpaceOnUse" x="35" y="30" width="33" height="34">
<path d="M35.1368 30.4962H67.8514V63.3542H35.1368V30.4962Z" fill="white"/>
</mask>
<g mask="url(#mask3_714_418)">
<path d="M35.3125 58.3851V63.3542L39.3756 60.7842L43.4387 63.3542L47.5025 60.7842L51.5657 63.3542L55.6288 60.7842L59.6919 63.3542L63.755 60.7842L67.8181 63.3542V30.5453C59.2591 43.7605 46.129 52.7664 35.3125 58.3851Z" fill="#73C1C6"/>
</g>
<path d="M52.5815 43.6506H40.3915V41.937H52.5815V43.6506Z" fill="#EDEDED"/>
<path d="M62.7393 43.6506H58.6761V41.937H62.7393V43.6506Z" fill="#EDEDED"/>
<path d="M48.5184 48.7906H40.3915V47.077H48.5184V48.7906Z" fill="#EDEDED"/>
<path d="M62.7393 48.7906H58.6761V47.077H62.7393V48.7906Z" fill="#EDEDED"/>
<path d="M52.5815 53.9306H40.3915V52.2171H52.5815V53.9306Z" fill="#EDEDED"/>
<path d="M62.7393 53.9306H58.6761V52.2171H62.7393V53.9306Z" fill="#EDEDED"/>
<path d="M52.5815 33.3699H40.3915V31.6563H52.5815V33.3699Z" fill="#EDEDED"/>
<path d="M62.7393 33.3699H58.6761V31.6563H62.7393V33.3699Z" fill="#EDEDED"/>
<path d="M48.5184 38.5099H40.3915V36.7964H48.5184V38.5099Z" fill="#EDEDED"/>
<path d="M62.7393 38.5099H58.6761V36.7964H62.7393V38.5099Z" fill="#EDEDED"/>
</g>
<defs>
<filter id="filter0_d_714_418" x="0" y="0.5" width="83" height="83" filterUnits="userSpaceOnUse" color-interpolation-filters="sRGB">
<feFlood flood-opacity="0" result="BackgroundImageFix"/>
<feColorMatrix in="SourceAlpha" type="matrix" values="0 0 0 0 0 0 0 0 0 0 0 0 0 0 0 0 0 0 127 0" result="hardAlpha"/>
<feOffset dy="4"/>
<feGaussianBlur stdDeviation="2"/>
<feComposite in2="hardAlpha" operator="out"/>
<feColorMatrix type="matrix" values="0 0 0 0 0 0 0 0 0 0 0 0 0 0 0 0 0 0 0.25 0"/>
<feBlend mode="normal" in2="BackgroundImageFix" result="effect1_dropShadow_714_418"/>
<feBlend mode="normal" in="SourceGraphic" in2="effect1_dropShadow_714_418" result="shape"/>
</filter>
</defs>
</svg>
