<svg width="20" height="20" viewBox="0 0 20 20" fill="none" xmlns="http://www.w3.org/2000/svg">
<path d="M17.2093 2.04399L11.0404 8.73151L9.55439 10.327C9.55439 10.327 8.9949 11.0263 7.94022 9.78909C6.8851 8.55238 5.97433 7.70927 5.97433 7.70927C5.97433 7.70927 5.17512 6.95645 4.21624 7.88888C3.25735 8.82131 2.3304 9.57414 3.5933 11.2594C4.85578 12.9447 6.6935 15.1678 7.38072 15.7778C8.05177 16.3873 8.94679 17.2476 10.1135 16.0467C11.2801 14.8272 18.376 5.70158 18.376 5.70158L19.7823 3.87255C19.7823 3.87255 20.4057 3.06574 19.5426 2.06166C19.5264 2.04399 18.4398 0.484359 17.2093 2.04399Z" fill="#5271FF"/>
<mask id="mask0_972_23" style="mask-type:luminance" maskUnits="userSpaceOnUse" x="0" y="0" width="18" height="20">
<path d="M0 0H17.8748V20H0V0Z" fill="white"/>
</mask>
<g mask="url(#mask0_972_23)">
<path d="M16.6339 9.41269C16.6497 9.60997 16.6497 9.7891 16.6497 9.98639C16.6497 14.6839 13.2616 18.4848 9.07482 18.4848C4.88758 18.4848 1.48338 14.6839 1.48338 9.98639C1.48338 5.28888 4.8714 1.48797 9.05864 1.48797C11.0884 1.48797 12.9104 2.36691 14.2844 3.81905L15.2433 2.9406C13.6133 1.12971 11.392 0 8.93091 0C4.00832 0 0.0292969 4.4644 0.0292969 9.98639C0.0292969 15.5088 4.00832 19.9728 8.93091 19.9728C13.8531 19.9728 17.8325 15.5088 17.8325 9.98639C17.8325 9.37687 17.7844 8.76735 17.6886 8.1755L16.6339 9.41269Z" fill="#5271FF"/>
</g>
</svg>
