<svg width="30" height="25" viewBox="0 0 30 25" fill="none" xmlns="http://www.w3.org/2000/svg">
<path d="M19.5584 13.3281C19.6659 13.2383 19.7778 13.1526 19.8941 13.0706C20.01 12.9888 20.13 12.9109 20.2537 12.8372C20.3778 12.7635 20.505 12.694 20.6356 12.6289C20.7662 12.5641 20.8997 12.5034 21.0362 12.4477C21.1731 12.3917 21.3122 12.3406 21.4537 12.2943C21.5953 12.2479 21.7391 12.2063 21.8847 12.1698C22.0306 12.1333 22.1778 12.1018 22.3266 12.0753C22.4753 12.0487 22.6253 12.0274 22.7762 12.0112C22.9272 11.9951 23.0787 11.9839 23.2306 11.9781C23.3825 11.9721 23.5347 11.9716 23.6869 11.976C23.8387 11.9807 23.9903 11.9904 24.1416 12.0052C24.2928 12.0203 24.4428 12.0404 24.5919 12.0654C24.7412 12.0906 24.8887 12.1208 25.035 12.1563C25.1812 12.1914 25.3253 12.2318 25.4675 12.2768C25.6097 12.3219 25.7494 12.3719 25.8869 12.4266C26.0241 12.4813 26.1584 12.5406 26.29 12.6044L26.8441 10.5336C26.8519 10.5044 26.8578 10.4747 26.8619 10.4448C26.8656 10.4149 26.8675 10.3849 26.8675 10.3547C26.8672 10.3247 26.865 10.2945 26.8609 10.2649C26.8566 10.2349 26.8503 10.2052 26.8422 10.176C26.8341 10.1466 26.8241 10.1177 26.8119 10.0893C26.8 10.0609 26.7859 10.0333 26.7703 10.0063C26.7544 9.97917 26.7369 9.95287 26.7175 9.92735C26.6984 9.90209 26.6775 9.87761 26.6547 9.85417C26.6322 9.83048 26.6081 9.80834 26.5825 9.78699C26.5569 9.76563 26.53 9.74584 26.5016 9.72709C26.4734 9.70834 26.4441 9.69089 26.4134 9.67501C26.3828 9.65912 26.3512 9.64454 26.3184 9.63152C26.2859 9.6185 26.2528 9.60704 26.2184 9.59714C26.1844 9.58725 26.1497 9.57891 26.1147 9.57214C26.0794 9.56563 26.0437 9.56042 26.0078 9.55704C25.9719 9.55391 25.9359 9.55209 25.9 9.55209H24.7012V6.73074C24.7012 6.67787 24.695 6.62553 24.6828 6.57344C24.6703 6.52162 24.6519 6.4711 24.6278 6.4224C24.6034 6.37344 24.5734 6.32683 24.5381 6.28282C24.5031 6.23881 24.4628 6.19818 24.4178 6.16068C24.3731 6.12344 24.3241 6.08985 24.2712 6.06042C24.2184 6.031 24.1628 6.00626 24.1041 5.98594C24.0453 5.96589 23.985 5.95053 23.9225 5.94011C23.8603 5.92995 23.7975 5.92475 23.7337 5.92475H12.3312C12.2128 5.92475 12.0981 5.90704 11.9872 5.87188C11.8766 5.83699 11.7769 5.78646 11.6881 5.72084L8.97499 3.71016C8.88655 3.64454 8.78687 3.59428 8.67624 3.55912C8.5653 3.52396 8.45061 3.50626 8.33218 3.50626H1.9653C1.90187 3.50626 1.83905 3.51146 1.77655 3.52188C1.71437 3.5323 1.65374 3.5474 1.59499 3.56771C1.53655 3.58803 1.48062 3.61277 1.4278 3.64219C1.37499 3.67162 1.32624 3.70495 1.28124 3.74245C1.23624 3.77995 1.19624 3.82058 1.16093 3.86459C1.12562 3.9086 1.09593 3.95521 1.07155 4.00391C1.04718 4.05287 1.02874 4.10339 1.01655 4.15521C1.00405 4.20704 0.997803 4.25964 0.997803 4.31251V17.613C0.997803 17.749 1.9653 18.4193 1.9653 18.4193H18.375C18.3209 18.3135 18.2719 18.2065 18.2275 18.0979C18.1831 17.9893 18.1437 17.8797 18.1091 17.7685C18.0744 17.6576 18.0447 17.5456 18.02 17.4328C17.9956 17.3198 17.9759 17.2065 17.9616 17.0925C17.9469 16.9784 17.9375 16.8641 17.9331 16.7492C17.9287 16.6346 17.9297 16.5201 17.9356 16.4055C17.9416 16.2909 17.9525 16.1766 17.9684 16.0625C17.9847 15.9487 18.0056 15.8354 18.0319 15.7227C18.0581 15.6102 18.0891 15.4984 18.1253 15.3878C18.1616 15.2771 18.2025 15.1677 18.2484 15.0596C18.2941 14.9513 18.3447 14.8448 18.4003 14.7399C18.4556 14.6346 18.5156 14.5315 18.58 14.4302C18.6447 14.3289 18.7137 14.2297 18.7872 14.1328C18.8606 14.0357 18.9381 13.9412 19.02 13.849C19.1019 13.7565 19.1878 13.6669 19.2775 13.5802C19.3675 13.4932 19.4609 13.4091 19.5584 13.3281ZM3.20249 10.1828L2.9328 11.1906V8.34298C2.9328 8.29011 2.93905 8.23751 2.95155 8.18568C2.96374 8.13386 2.98218 8.08334 3.00655 8.03438C3.03093 7.98568 3.06062 7.93907 3.09593 7.89506C3.13124 7.85105 3.17124 7.81042 3.21624 7.77292C3.26124 7.73542 3.30999 7.70209 3.3628 7.67266C3.41562 7.64324 3.47155 7.6185 3.52999 7.59818C3.58874 7.57787 3.64937 7.56277 3.71155 7.55235C3.77374 7.54193 3.83687 7.53699 3.9003 7.53699H21.7987C21.8625 7.53699 21.9253 7.54193 21.9875 7.55235C22.05 7.56277 22.1103 7.57787 22.1691 7.59818C22.2278 7.6185 22.2834 7.64324 22.3362 7.67266C22.3891 7.70209 22.4381 7.73542 22.4831 7.77292C22.5278 7.81042 22.5681 7.85105 22.6034 7.89506C22.6384 7.93907 22.6684 7.98568 22.6928 8.03438C22.7169 8.08334 22.7353 8.13386 22.7478 8.18568C22.76 8.23751 22.7662 8.29011 22.7662 8.34298V9.55209H4.14687C4.09218 9.55209 4.03812 9.556 3.98437 9.56355C3.9303 9.57136 3.8778 9.58256 3.82624 9.59766C3.77468 9.61277 3.72499 9.63126 3.67718 9.65339C3.62968 9.67553 3.58437 9.70079 3.54187 9.72917C3.49905 9.75782 3.45968 9.78881 3.42343 9.82292C3.38718 9.85704 3.35468 9.89324 3.32593 9.93178C3.29687 9.97058 3.27218 10.0109 3.25155 10.0529C3.23093 10.0951 3.21437 10.1383 3.20249 10.1828Z" fill="#D9D9D9"/>
<mask id="mask0_972_15" style="mask-type:luminance" maskUnits="userSpaceOnUse" x="0" y="3" width="30" height="19">
<path d="M0.51416 3.06668H29.6001V21.6667H0.51416V3.06668Z" fill="white"/>
</mask>
<g mask="url(#mask0_972_15)">
<path d="M26.5723 16.8472L23.5488 19.3662C23.112 19.7414 22.4145 19.1607 22.8648 18.7964L25.8882 16.2774C25.9454 16.2297 25.996 16.1781 26.041 16.1224C26.0857 16.0667 26.1235 16.0076 26.1542 15.9456C26.1851 15.8836 26.2082 15.8198 26.2242 15.7539C26.2398 15.688 26.2476 15.6216 26.2476 15.5547C26.2476 15.4875 26.2398 15.4211 26.2242 15.3552C26.2082 15.2893 26.1851 15.2255 26.1542 15.1636C26.1235 15.1016 26.0857 15.0425 26.041 14.9867C25.996 14.931 25.9454 14.8794 25.8882 14.832C25.8314 14.7844 25.7695 14.7422 25.7026 14.7047C25.6354 14.6675 25.5648 14.636 25.4904 14.6104C25.416 14.5847 25.3392 14.5654 25.2604 14.5521C25.1813 14.5391 25.1017 14.5326 25.021 14.5326C24.9404 14.5326 24.8607 14.5391 24.7817 14.5521C24.7026 14.5654 24.626 14.5847 24.5517 14.6104C24.4773 14.636 24.4063 14.6675 24.3395 14.7047C24.2726 14.7422 24.2107 14.7844 24.1535 14.832L20.9288 17.519C20.8982 17.5445 20.8713 17.5722 20.8473 17.6021C20.8235 17.6318 20.8032 17.6633 20.7867 17.6966C20.7704 17.7297 20.7579 17.7638 20.7495 17.7992C20.741 17.8344 20.737 17.8698 20.737 17.9057C20.737 17.9417 20.741 17.9774 20.7495 18.0125C20.7579 18.0477 20.7704 18.0818 20.7867 18.1151C20.8032 18.1482 20.8235 18.1797 20.8473 18.2097C20.8713 18.2393 20.8982 18.2672 20.9288 18.2925C20.9598 18.3172 20.9932 18.3391 21.0292 18.3583C21.0654 18.3776 21.1032 18.394 21.1429 18.4073C21.1826 18.4206 21.2235 18.4305 21.2657 18.4373C21.3079 18.444 21.3501 18.4474 21.3929 18.4474C21.4357 18.4474 21.4782 18.444 21.5204 18.4373C21.5623 18.4305 21.6032 18.4206 21.6432 18.4073C21.6829 18.394 21.7207 18.3776 21.7567 18.3583C21.7929 18.3391 21.8263 18.3172 21.8573 18.2925L24.8807 15.7735C24.8888 15.7667 24.8951 15.7589 24.8998 15.75C24.9042 15.7412 24.9063 15.732 24.9063 15.7224C24.9063 15.7128 24.9042 15.7037 24.8998 15.6948C24.8954 15.6857 24.8892 15.6779 24.881 15.6711C24.8729 15.6643 24.8635 15.6591 24.8529 15.6555C24.8423 15.6518 24.831 15.65 24.8195 15.6503C24.8079 15.6503 24.797 15.6521 24.7864 15.6557C24.7757 15.6597 24.7663 15.6649 24.7582 15.6716L21.9367 18.0229C21.9142 18.0417 21.8898 18.0583 21.8632 18.0729C21.837 18.0875 21.8092 18.1 21.7798 18.1102C21.7504 18.1203 21.7201 18.1279 21.6892 18.1331C21.6579 18.138 21.6263 18.1406 21.5948 18.1406C21.5629 18.1406 21.5317 18.138 21.5004 18.1328C21.4692 18.1279 21.4392 18.1201 21.4098 18.1099C21.3804 18.0998 21.3526 18.0875 21.326 18.0727C21.2998 18.0581 21.2754 18.0414 21.2529 18.0227C21.2304 18.0039 21.2104 17.9836 21.1929 17.9617C21.1751 17.9396 21.1601 17.9164 21.1482 17.8919C21.136 17.8675 21.1267 17.8425 21.1204 17.8164C21.1145 17.7904 21.1113 17.7643 21.1113 17.7378C21.1113 17.7115 21.1142 17.6852 21.1204 17.6594C21.1267 17.6333 21.1357 17.6081 21.1479 17.5836C21.1601 17.5591 21.1748 17.536 21.1926 17.5141C21.2101 17.4919 21.2301 17.4716 21.2526 17.4529L24.0742 15.1018C24.1232 15.0612 24.1767 15.0248 24.2342 14.993C24.2917 14.961 24.3523 14.9341 24.416 14.9123C24.4801 14.8904 24.5457 14.8737 24.6135 14.8625C24.6813 14.8513 24.7498 14.8458 24.8188 14.8458C24.8882 14.8458 24.9567 14.8516 25.0242 14.8628C25.092 14.8742 25.1579 14.8909 25.2217 14.9128C25.2854 14.9349 25.346 14.962 25.4035 14.994C25.461 15.0261 25.5142 15.0623 25.5629 15.1029C25.612 15.1438 25.6554 15.188 25.6938 15.236C25.7323 15.2836 25.7648 15.3341 25.7913 15.3875C25.8179 15.4406 25.8379 15.4953 25.8513 15.5518C25.8648 15.6083 25.8717 15.6654 25.8717 15.7229C25.872 15.7805 25.8651 15.8375 25.8517 15.894C25.8385 15.9505 25.8185 16.0052 25.7923 16.0586C25.7657 16.1117 25.7335 16.1623 25.6954 16.2102C25.657 16.2581 25.6135 16.3026 25.5648 16.3435L22.5413 18.8625C22.5032 18.893 22.4632 18.9216 22.4217 18.949C22.3801 18.9761 22.3373 19.0018 22.2926 19.0255C22.2482 19.0495 22.2026 19.0714 22.1557 19.0917C22.1085 19.1117 22.0607 19.13 22.0117 19.1464C21.9626 19.1628 21.9126 19.1774 21.862 19.1896C21.811 19.2021 21.7598 19.2125 21.7079 19.2208C21.656 19.2292 21.6038 19.2354 21.551 19.2396C21.4985 19.2438 21.4457 19.2458 21.3929 19.2458C21.3401 19.2458 21.2873 19.2438 21.2348 19.2396C21.182 19.2354 21.1298 19.2292 21.0779 19.2208C21.026 19.2125 20.9748 19.2021 20.9242 19.1896C20.8732 19.1774 20.8235 19.1628 20.7745 19.1464C20.7254 19.13 20.6773 19.1117 20.6304 19.0917C20.5832 19.0714 20.5376 19.0495 20.4932 19.0255C20.4488 19.0018 20.4057 18.9761 20.3642 18.949C20.3226 18.9216 20.2829 18.893 20.2445 18.8625C20.207 18.831 20.1713 18.7982 20.1376 18.7641C20.1042 18.7297 20.0723 18.6943 20.0429 18.6573C20.0135 18.6203 19.986 18.5826 19.961 18.5435C19.936 18.5044 19.9135 18.4643 19.8932 18.4235C19.8729 18.3826 19.8551 18.3409 19.8395 18.2985C19.8242 18.256 19.8113 18.213 19.801 18.1695C19.7904 18.1261 19.7829 18.0823 19.7776 18.0383C19.7723 17.9943 19.7698 17.95 19.7698 17.9057C19.7698 17.8615 19.7723 17.8172 19.7776 17.7732C19.7829 17.7292 19.7907 17.6854 19.801 17.6419C19.8113 17.5985 19.8242 17.5555 19.8398 17.513C19.8551 17.4708 19.8729 17.4292 19.8932 17.388C19.9135 17.3472 19.9363 17.3073 19.9613 17.2682C19.9863 17.2289 20.0135 17.1912 20.0432 17.1542C20.0726 17.1175 20.1042 17.0818 20.1379 17.0477C20.1717 17.0133 20.2073 16.9805 20.2448 16.9492L23.4698 14.262C23.5204 14.2195 23.5735 14.1794 23.6292 14.1414C23.6848 14.1031 23.7423 14.0675 23.802 14.0341C23.8617 14.0008 23.9235 13.9701 23.9867 13.9417C24.0501 13.9136 24.1151 13.8878 24.1813 13.8649C24.2479 13.8419 24.3154 13.8216 24.3842 13.8042C24.4529 13.7867 24.5226 13.7722 24.5932 13.7604C24.6638 13.7487 24.7348 13.7401 24.8063 13.7341C24.8779 13.7281 24.9495 13.7253 25.0217 13.7253C25.0935 13.7253 25.1651 13.7281 25.2367 13.7339C25.3082 13.7399 25.3795 13.7485 25.4498 13.7602C25.5204 13.7719 25.5901 13.7862 25.6588 13.8037C25.7276 13.8211 25.7954 13.8412 25.8617 13.8641C25.9282 13.887 25.9932 13.9125 26.0567 13.9409C26.1201 13.969 26.1817 13.9998 26.2414 14.0331C26.301 14.0664 26.3588 14.1021 26.4145 14.1401C26.4701 14.1781 26.5232 14.2182 26.5742 14.2607C26.6251 14.3029 26.6732 14.3474 26.7188 14.3935C26.7645 14.4399 26.8073 14.488 26.847 14.5378C26.887 14.5875 26.9238 14.6391 26.9579 14.6917C26.9917 14.7445 27.0223 14.7987 27.0498 14.8542C27.0773 14.9094 27.1017 14.9659 27.1226 15.0232C27.1432 15.0805 27.1607 15.1386 27.1748 15.1974C27.1889 15.256 27.1992 15.3154 27.2064 15.3748C27.2132 15.4344 27.2167 15.4943 27.2167 15.5542C27.2167 15.6141 27.2132 15.674 27.206 15.7336C27.1988 15.793 27.1882 15.8524 27.1742 15.911C27.1601 15.9698 27.1426 16.0279 27.1217 16.0852C27.1007 16.1425 27.0767 16.1987 27.0492 16.2542C27.0213 16.3094 26.9907 16.3636 26.9567 16.4164C26.9229 16.469 26.8857 16.5203 26.8457 16.5703C26.8057 16.6201 26.7629 16.668 26.7173 16.7143C26.6717 16.7607 26.6232 16.805 26.5723 16.8472ZM26.837 12.413L27.3167 10.6214C27.3279 10.5774 27.3363 10.5328 27.342 10.488C27.3473 10.4432 27.3498 10.3985 27.3492 10.3534C27.3485 10.3083 27.3451 10.2633 27.3385 10.2188C27.332 10.174 27.3226 10.1297 27.3101 10.086C27.2979 10.0419 27.2826 9.99897 27.2642 9.95653C27.246 9.91408 27.2251 9.87267 27.2013 9.83205C27.1779 9.79168 27.1514 9.75236 27.1226 9.71434C27.0935 9.67632 27.0623 9.6396 27.0285 9.6047C26.9945 9.56955 26.9585 9.53595 26.9201 9.50418C26.882 9.47241 26.8417 9.44246 26.7995 9.41434C26.7573 9.38621 26.7132 9.36017 26.6673 9.33621C26.6217 9.31225 26.5745 9.29038 26.5257 9.27085C26.4773 9.25106 26.4273 9.23387 26.3764 9.21877C26.3254 9.20366 26.2735 9.19116 26.221 9.18074C26.1682 9.17059 26.1151 9.16278 26.0617 9.15757C26.0079 9.15236 25.9538 9.14949 25.8998 9.14897H25.1851V6.73074C25.1851 6.69116 25.1829 6.65158 25.1782 6.61226C25.1738 6.57267 25.167 6.53361 25.1576 6.49481C25.1482 6.45601 25.137 6.41746 25.1232 6.3797C25.1095 6.34168 25.0932 6.30444 25.0751 6.26772C25.057 6.23127 25.0367 6.19533 25.0145 6.16043C24.992 6.12554 24.9676 6.09168 24.941 6.05861C24.9148 6.0258 24.8863 5.99403 24.8563 5.9633C24.826 5.93257 24.7942 5.9034 24.7607 5.87528C24.727 5.84741 24.692 5.82085 24.6551 5.79559C24.6182 5.77059 24.5801 5.74689 24.5407 5.72502C24.501 5.70288 24.4604 5.68257 24.4185 5.66382C24.3763 5.64533 24.3335 5.6284 24.2895 5.6133C24.2457 5.59819 24.201 5.58491 24.1554 5.57345C24.1098 5.56199 24.0638 5.55236 24.0173 5.54455C23.9704 5.53699 23.9235 5.53127 23.8763 5.52736C23.8288 5.52345 23.7813 5.52163 23.7338 5.52163H12.332C12.2092 5.52137 12.101 5.48778 12.0079 5.42085L9.29416 3.40965C9.16229 3.31069 9.01322 3.23465 8.84697 3.18179C8.68104 3.12892 8.50916 3.10288 8.33166 3.1034H1.96541C1.91791 3.1034 1.87041 3.10522 1.82322 3.10913C1.77572 3.11278 1.72885 3.11851 1.68229 3.12632C1.63541 3.13387 1.58947 3.14351 1.54385 3.15496C1.49854 3.16642 1.45385 3.1797 1.40979 3.19507C1.36572 3.21017 1.32291 3.2271 1.28104 3.24559C1.23916 3.26434 1.19822 3.28465 1.15885 3.30653C1.11916 3.32866 1.08104 3.3521 1.04416 3.37736C1.0076 3.40236 0.972285 3.42892 0.938848 3.45705C0.905098 3.48491 0.873223 3.51434 0.84291 3.54507C0.81291 3.57554 0.784473 3.60731 0.758223 3.64038C0.73166 3.67319 0.707285 3.70731 0.685098 3.7422C0.662598 3.7771 0.642285 3.81278 0.62416 3.84949C0.606035 3.88621 0.590098 3.92345 0.576348 3.96121C0.562598 3.99923 0.551035 4.03752 0.54166 4.07658C0.532598 4.11538 0.525723 4.15444 0.521035 4.19403C0.516348 4.23335 0.51416 4.27293 0.51416 4.31252V17.613C0.51416 17.6526 0.516348 17.6922 0.521035 17.7318C0.525723 17.7711 0.532598 17.8102 0.54166 17.8492C0.551035 17.888 0.562598 17.9263 0.576348 17.9643C0.590098 18.0021 0.606035 18.0396 0.62416 18.0761C0.642285 18.1128 0.662598 18.1485 0.685098 18.1833C0.707285 18.2185 0.73166 18.2524 0.758223 18.2852C0.784473 18.3182 0.81291 18.35 0.84291 18.3807C0.873223 18.4112 0.905098 18.4406 0.938848 18.4685C0.972285 18.4966 1.0076 18.5232 1.04416 18.5482C1.08104 18.5735 1.11916 18.5969 1.15885 18.619C1.19822 18.6409 1.23916 18.6612 1.28104 18.68C1.32291 18.6987 1.36572 18.7156 1.40979 18.7307C1.45385 18.7458 1.49854 18.7591 1.54385 18.7706C1.58947 18.782 1.63541 18.7917 1.68229 18.7992C1.72885 18.807 1.77572 18.8128 1.82322 18.8167C1.87041 18.8203 1.91791 18.8224 1.96541 18.8222H18.072C18.1229 18.9086 18.1767 18.9938 18.2332 19.0779C18.2901 19.1617 18.3495 19.244 18.412 19.325C18.4742 19.4063 18.5395 19.4857 18.6073 19.5636C18.6751 19.6414 18.7457 19.7177 18.8188 19.7922C18.892 19.8667 18.9673 19.9396 19.0454 20.0104C19.1235 20.0813 19.2042 20.1503 19.287 20.2175C19.3698 20.2847 19.4551 20.3498 19.5423 20.4128C19.6298 20.4758 19.7192 20.5365 19.8107 20.5953C19.9023 20.6539 19.9957 20.7104 20.091 20.7649C20.1867 20.819 20.2838 20.8711 20.3826 20.9206C20.4817 20.9703 20.5823 21.0175 20.6845 21.0623C20.787 21.107 20.8907 21.1495 20.9957 21.1893C21.101 21.2292 21.2073 21.2664 21.3151 21.3013C21.4229 21.336 21.5317 21.3682 21.6417 21.3977C21.7517 21.4274 21.8626 21.4542 21.9745 21.4784C22.086 21.5029 22.1985 21.5242 22.312 21.5432C22.4254 21.562 22.5392 21.5784 22.6535 21.5917C22.7679 21.6052 22.8826 21.6159 22.9979 21.6237C23.1129 21.6318 23.2282 21.637 23.3438 21.6393C23.4595 21.6419 23.5748 21.6414 23.6904 21.6386C23.8057 21.6354 23.921 21.6294 24.036 21.6208C24.1514 21.6123 24.266 21.6011 24.3801 21.587C24.4945 21.5729 24.6082 21.556 24.7213 21.5365C24.8345 21.5169 24.947 21.4948 25.0585 21.4701C25.1701 21.4451 25.2807 21.4175 25.3904 21.3875C25.5001 21.3573 25.6088 21.3245 25.7163 21.2891C25.8238 21.2537 25.9298 21.2159 26.0348 21.1753C26.1395 21.1349 26.2429 21.0919 26.3448 21.0466C26.4467 21.0013 26.547 20.9534 26.6457 20.9034C26.7442 20.8531 26.841 20.8008 26.936 20.7458C27.031 20.6912 27.1242 20.6341 27.2151 20.5748C27.306 20.5156 27.3951 20.4542 27.482 20.3906C27.5688 20.3271 27.6535 20.2617 27.7357 20.194C27.8179 20.1266 27.8979 20.057 27.9754 19.9857C28.0532 19.9143 28.1282 19.8412 28.2007 19.7664C28.2732 19.6914 28.3429 19.6149 28.4101 19.5365C28.4776 19.4581 28.542 19.3784 28.6035 19.2969C28.6654 19.2156 28.7242 19.1328 28.7804 19.0487C28.8363 18.9643 28.8895 18.8789 28.9395 18.7922C28.9898 18.7055 29.037 18.6177 29.081 18.5287C29.1251 18.4396 29.166 18.3498 29.2038 18.2589C29.242 18.168 29.2767 18.0761 29.3082 17.9836C29.3398 17.8909 29.3682 17.7977 29.3932 17.7037C29.4185 17.6097 29.4404 17.5151 29.4592 17.4203C29.4776 17.3253 29.4929 17.23 29.5051 17.1341C29.5173 17.0383 29.526 16.9425 29.5313 16.8464C29.537 16.75 29.5392 16.6539 29.5379 16.5576C29.537 16.4615 29.5323 16.3651 29.5248 16.2693C29.517 16.1732 29.5057 16.0774 29.4914 15.9818C29.477 15.8862 29.4595 15.7912 29.4385 15.6966C29.4176 15.6018 29.3935 15.5078 29.366 15.4143C29.3389 15.3206 29.3082 15.2279 29.2745 15.136C29.2404 15.0438 29.2035 14.9526 29.1635 14.8623C29.1235 14.7719 29.0804 14.6828 29.0342 14.5945C28.9879 14.5063 28.9389 14.4193 28.8867 14.3333C28.8345 14.2474 28.7792 14.1628 28.7213 14.0797C28.6632 13.9964 28.6023 13.9146 28.5385 13.8344C28.4751 13.7539 28.4085 13.6753 28.3395 13.5979C28.2704 13.5208 28.1988 13.4453 28.1245 13.3716C28.0504 13.2979 27.9735 13.2261 27.8942 13.156C27.8151 13.086 27.7335 13.0177 27.6495 12.9516C27.5657 12.8854 27.4795 12.8214 27.3913 12.7594C27.3029 12.6972 27.2126 12.6373 27.1201 12.5797C27.0276 12.5219 26.9332 12.4664 26.837 12.413ZM1.48166 4.31252C1.48166 4.28595 1.4851 4.25991 1.49135 4.23387C1.4976 4.20809 1.50666 4.18283 1.51885 4.15835C1.53104 4.13413 1.54604 4.11069 1.56354 4.08882C1.58135 4.06694 1.60135 4.04663 1.62385 4.02788C1.64635 4.00913 1.67072 3.99246 1.69697 3.97762C1.72354 3.96304 1.75135 3.95054 1.78041 3.94038C1.80979 3.93022 1.8401 3.92267 1.87104 3.91746C1.90229 3.91226 1.93385 3.90939 1.96541 3.90939H8.33166C8.45447 3.90965 8.5626 3.94324 8.65572 4.01017L11.3695 6.02137C11.5013 6.12059 11.6504 6.19637 11.8167 6.24923C11.9826 6.3021 12.1545 6.32814 12.332 6.32762H23.7338C23.7657 6.32788 23.797 6.33048 23.8282 6.33569C23.8595 6.3409 23.8895 6.34845 23.9188 6.35861C23.9482 6.36877 23.976 6.38127 24.0023 6.39611C24.0288 6.41069 24.0532 6.42736 24.0757 6.44611C24.0979 6.46486 24.1179 6.48517 24.1357 6.50705C24.1532 6.52918 24.1682 6.55236 24.1804 6.57684C24.1926 6.60106 24.202 6.62632 24.2082 6.65236C24.2145 6.67814 24.2176 6.70444 24.2176 6.73074V9.14897H23.2501V8.34298C23.2501 8.3034 23.2479 8.26382 23.2432 8.22449C23.2388 8.18491 23.232 8.14585 23.2226 8.10705C23.2135 8.06824 23.202 8.0297 23.1882 7.99168C23.1745 7.95392 23.1585 7.91668 23.1401 7.87996C23.122 7.8435 23.1017 7.80757 23.0795 7.77267C23.057 7.73778 23.0326 7.70366 23.0063 7.67085C22.9798 7.63778 22.9517 7.60601 22.9213 7.57554C22.8913 7.54481 22.8595 7.51564 22.8257 7.48752C22.792 7.45939 22.757 7.43283 22.7201 7.40783C22.6832 7.38257 22.6451 7.35913 22.6057 7.33699C22.566 7.31512 22.5254 7.29481 22.4835 7.27606C22.4417 7.25757 22.3985 7.24064 22.3545 7.22554C22.3107 7.21043 22.266 7.19689 22.2204 7.18543C22.1748 7.17397 22.1288 7.1646 22.0823 7.15679C22.0357 7.14923 21.9885 7.14324 21.9413 7.1396C21.8938 7.13569 21.8467 7.13387 21.7988 7.13387H3.90041C3.85291 7.13387 3.80541 7.13569 3.75822 7.1396C3.71072 7.14324 3.66385 7.14923 3.61729 7.15679C3.57041 7.1646 3.52447 7.17397 3.47885 7.18543C3.43354 7.19689 3.38885 7.21043 3.34479 7.22554C3.30072 7.24064 3.25791 7.25757 3.21604 7.27606C3.17416 7.29481 3.13322 7.31512 3.09385 7.33699C3.05416 7.35913 3.01604 7.38257 2.97916 7.40783C2.9426 7.43283 2.90729 7.45939 2.87385 7.48752C2.8401 7.51564 2.80822 7.54481 2.77791 7.57554C2.74791 7.60601 2.71947 7.63778 2.69322 7.67085C2.66666 7.70366 2.64229 7.73778 2.6201 7.77267C2.5976 7.80757 2.57729 7.8435 2.55916 7.87996C2.54104 7.91668 2.5251 7.95392 2.51135 7.99168C2.4976 8.0297 2.48604 8.06798 2.47666 8.10705C2.4676 8.14585 2.46072 8.18491 2.45604 8.22449C2.45135 8.26382 2.44916 8.3034 2.44916 8.34298V11.1469L1.48166 14.7612V4.31252ZM22.2826 8.34298V9.14897H4.14697C3.88572 9.14897 3.64229 9.20366 3.41666 9.31304V8.34298C3.41666 8.31642 3.4201 8.29038 3.42635 8.26434C3.4326 8.23856 3.44166 8.2133 3.45385 8.18882C3.46604 8.1646 3.48104 8.14142 3.49854 8.11929C3.51635 8.09741 3.53635 8.0771 3.55885 8.05835C3.58135 8.0396 3.60572 8.02293 3.63197 8.00835C3.65854 7.99351 3.68635 7.98101 3.71541 7.97085C3.74479 7.96069 3.7751 7.95314 3.80604 7.94793C3.83729 7.94272 3.86885 7.94012 3.90041 7.93986H21.7988C21.8307 7.94012 21.862 7.94272 21.8932 7.94793C21.9245 7.95314 21.9545 7.96069 21.9838 7.97085C22.0132 7.98101 22.041 7.99351 22.0673 8.00835C22.0938 8.02293 22.1182 8.0396 22.1407 8.05835C22.1629 8.0771 22.1832 8.09741 22.2007 8.11929C22.2185 8.14142 22.2332 8.1646 22.2454 8.18882C22.2576 8.2133 22.267 8.23856 22.2732 8.26434C22.2795 8.29038 22.2826 8.31642 22.2826 8.34298ZM1.96541 18.0162C1.83697 18.0154 1.72572 17.9789 1.63104 17.9065L3.67447 10.2703C3.68635 10.2255 3.70697 10.1839 3.73604 10.1448C3.7651 10.1057 3.80104 10.0719 3.84385 10.0432C3.88697 10.0146 3.93447 9.99272 3.98635 9.97762C4.03854 9.96252 4.09197 9.95496 4.14697 9.95522H25.8998C25.936 9.95548 25.9717 9.95887 26.007 9.9659C26.042 9.97267 26.076 9.98257 26.1085 9.99585C26.141 10.0089 26.1713 10.025 26.1998 10.0438C26.2279 10.0625 26.2535 10.0836 26.276 10.107C26.2985 10.1307 26.3179 10.156 26.3338 10.1831C26.3495 10.2099 26.3617 10.2383 26.3701 10.2675C26.3782 10.2969 26.3826 10.3266 26.3832 10.3565C26.3835 10.3867 26.3798 10.4164 26.3723 10.4461L25.9535 12.0104C25.8229 11.9617 25.6901 11.9167 25.5557 11.8755C25.421 11.8344 25.2848 11.7974 25.1473 11.7646C25.0095 11.7315 24.8704 11.7026 24.7304 11.6779C24.5901 11.6531 24.4488 11.6326 24.307 11.6164C24.1651 11.6 24.0226 11.5878 23.8798 11.58C23.7367 11.5722 23.5935 11.5685 23.4501 11.569C23.307 11.5695 23.1638 11.5745 23.021 11.5836C22.8779 11.5927 22.7357 11.606 22.5938 11.6237C22.4523 11.6412 22.3113 11.663 22.1717 11.6888C22.0317 11.7149 21.8929 11.7448 21.7557 11.7792C21.6185 11.8133 21.4826 11.8513 21.3488 11.8935C21.2148 11.936 21.0826 11.982 20.9526 12.032C20.8223 12.082 20.6945 12.136 20.5692 12.1938C20.4435 12.2513 20.3207 12.3125 20.2004 12.3776C20.0804 12.4425 19.9629 12.511 19.8485 12.5828C19.7342 12.6547 19.6229 12.73 19.5151 12.8086C19.407 12.887 19.3026 12.9688 19.2017 13.0534C19.1007 13.138 19.0035 13.2258 18.9101 13.3162C18.8167 13.4068 18.727 13.5 18.6417 13.5958C18.556 13.6914 18.4748 13.7899 18.3976 13.8904C18.3204 13.9912 18.2479 14.0938 18.1795 14.1987C18.1113 14.3039 18.0476 14.4107 17.9882 14.5193C17.9292 14.6281 17.8748 14.7386 17.8251 14.8505C17.7754 14.9625 17.7304 15.0758 17.6904 15.1904C17.6504 15.305 17.6154 15.4208 17.5851 15.5375C17.5551 15.6542 17.5298 15.7716 17.5098 15.8899C17.4898 16.0081 17.4748 16.1268 17.4648 16.2458C17.4548 16.3651 17.4501 16.4844 17.4504 16.6037C17.4507 16.7232 17.456 16.8425 17.4663 16.9615C17.477 17.0805 17.4926 17.1992 17.5132 17.3172C17.5338 17.4354 17.5595 17.5529 17.5901 17.6695C17.6207 17.7862 17.6563 17.9016 17.697 18.0162H1.96541ZM28.0376 18.4938C28.0007 18.5557 27.9617 18.6169 27.921 18.6774C27.8804 18.7378 27.8379 18.7972 27.7938 18.856C27.7495 18.9146 27.7035 18.9724 27.656 19.0292C27.6082 19.086 27.5592 19.1417 27.5082 19.1964C27.4573 19.2511 27.4048 19.305 27.3507 19.3576C27.2967 19.4102 27.2414 19.4615 27.1842 19.512C27.127 19.5623 27.0685 19.6115 27.0085 19.6594C26.9485 19.7073 26.8873 19.7539 26.8245 19.7995C26.7617 19.8448 26.6976 19.8891 26.6323 19.9318C26.567 19.9748 26.5004 20.0162 26.4326 20.0563C26.3648 20.0964 26.296 20.1349 26.2257 20.1722C26.1557 20.2097 26.0848 20.2453 26.0126 20.2797C25.9404 20.3141 25.8673 20.3469 25.7932 20.3784C25.7192 20.4097 25.6442 20.4396 25.5682 20.468C25.4923 20.4961 25.4157 20.5229 25.3382 20.5482C25.2607 20.5732 25.1826 20.5969 25.1038 20.6188C25.0251 20.6409 24.9454 20.6612 24.8654 20.68C24.7854 20.6987 24.7048 20.7156 24.6238 20.731C24.5429 20.7466 24.4613 20.7604 24.3795 20.7724C24.2976 20.7844 24.2154 20.7951 24.1332 20.8037C24.0507 20.8125 23.9679 20.8195 23.8851 20.8248C23.8023 20.8302 23.7192 20.8339 23.636 20.8357C23.5529 20.8378 23.4701 20.838 23.387 20.8367C23.3039 20.8352 23.2207 20.832 23.1379 20.8271C23.0548 20.8224 22.972 20.8159 22.8895 20.8076C22.807 20.7995 22.7248 20.7896 22.6429 20.7779C22.561 20.7664 22.4795 20.7531 22.3982 20.7383C22.317 20.7232 22.2363 20.7068 22.156 20.6886C22.076 20.6703 21.9963 20.6505 21.9173 20.6289C21.8382 20.6076 21.7598 20.5844 21.6823 20.5597C21.6045 20.5352 21.5276 20.5089 21.4513 20.481C21.3754 20.4531 21.3001 20.4237 21.2257 20.393C21.1514 20.362 21.0779 20.3297 21.0054 20.2956C20.9329 20.2617 20.8613 20.2263 20.791 20.1896C20.7207 20.1526 20.6514 20.1146 20.5832 20.0748C20.5151 20.0352 20.4482 19.994 20.3826 19.9518C20.3167 19.9094 20.2523 19.8656 20.1892 19.8206C20.126 19.7755 20.0642 19.7292 20.0038 19.6818C19.9432 19.6341 19.8845 19.5854 19.8267 19.5354C19.7692 19.4854 19.7132 19.4341 19.6585 19.382C19.6042 19.3297 19.551 19.2763 19.4998 19.2219C19.4485 19.1675 19.3985 19.112 19.3504 19.0555C19.3023 18.999 19.256 18.9417 19.2113 18.8833C19.1663 18.825 19.1235 18.7656 19.0823 18.7055C19.041 18.6453 19.0017 18.5844 18.9638 18.5227C18.9263 18.461 18.8904 18.3985 18.8563 18.3352C18.8223 18.2722 18.7904 18.2081 18.7601 18.1438C18.7298 18.0792 18.7017 18.0141 18.6751 17.9485C18.6488 17.8826 18.6245 17.8164 18.602 17.7498C18.5795 17.6831 18.5588 17.6162 18.5404 17.5485C18.522 17.481 18.5054 17.413 18.491 17.3451C18.4763 17.2768 18.4638 17.2083 18.4532 17.1396C18.4429 17.0708 18.4345 17.0021 18.4279 16.9331C18.4217 16.8638 18.4173 16.7948 18.4148 16.7255C18.4123 16.6563 18.412 16.587 18.4138 16.5177C18.4154 16.4485 18.4195 16.3794 18.4251 16.3104C18.431 16.2412 18.4388 16.1724 18.4485 16.1034C18.4585 16.0347 18.4704 15.9662 18.4842 15.8979C18.4982 15.8297 18.5142 15.7617 18.532 15.694C18.5498 15.6263 18.5698 15.5591 18.5917 15.4925C18.6135 15.4255 18.6373 15.3591 18.6629 15.2932C18.6888 15.2276 18.7167 15.1623 18.746 15.0974C18.7757 15.0328 18.8073 14.9688 18.8407 14.9052C18.8742 14.8419 18.9092 14.7792 18.9463 14.7172C18.9835 14.6552 19.0223 14.594 19.0632 14.5336C19.1038 14.4732 19.1463 14.4138 19.1904 14.355C19.2345 14.2964 19.2804 14.2388 19.3282 14.182C19.3757 14.125 19.4251 14.0693 19.4757 14.0146C19.5267 13.9599 19.5792 13.9063 19.6332 13.8537C19.6873 13.8008 19.7429 13.7495 19.8001 13.699C19.857 13.6487 19.9157 13.5995 19.9757 13.5516C20.0357 13.5037 20.097 13.457 20.1598 13.4115C20.2223 13.3662 20.2863 13.3219 20.3517 13.2792C20.4173 13.2365 20.4838 13.1948 20.5513 13.1547C20.6192 13.1146 20.6882 13.0761 20.7582 13.0388C20.8282 13.0016 20.8995 12.9656 20.9717 12.9313C21.0438 12.8969 21.117 12.8641 21.191 12.8326C21.2651 12.8013 21.3401 12.7714 21.416 12.7432C21.492 12.7149 21.5685 12.688 21.646 12.6628C21.7232 12.6378 21.8013 12.6141 21.8804 12.5922C21.9592 12.5703 22.0385 12.5498 22.1185 12.531C22.1985 12.5125 22.2792 12.4953 22.3601 12.48C22.4413 12.4643 22.5226 12.4508 22.6045 12.4386C22.6863 12.4266 22.7685 12.4162 22.851 12.4073C22.9335 12.3985 23.016 12.3914 23.0992 12.3862C23.182 12.3807 23.2648 12.3771 23.3479 12.3753C23.431 12.3732 23.5142 12.3729 23.5973 12.3745C23.6804 12.3758 23.7635 12.3789 23.8463 12.3839C23.9292 12.3886 24.012 12.3951 24.0945 12.4034C24.177 12.4115 24.2595 12.4214 24.3413 12.4331C24.4232 12.4445 24.5048 12.4578 24.586 12.4727C24.6673 12.4878 24.7479 12.5042 24.8279 12.5224C24.9082 12.5406 24.9879 12.5604 25.067 12.582C25.146 12.6034 25.2242 12.6266 25.302 12.6513C25.3795 12.6761 25.4564 12.7021 25.5326 12.73C25.6088 12.7578 25.6842 12.7873 25.7585 12.818C25.9073 12.88 26.052 12.9479 26.1926 13.0216C26.3335 13.0956 26.4695 13.175 26.601 13.2599C26.7323 13.3448 26.8585 13.4349 26.9792 13.53C27.1001 13.6253 27.2148 13.7253 27.3238 13.83C27.4329 13.9344 27.5357 14.0432 27.632 14.1563C27.7279 14.2693 27.8173 14.386 27.8998 14.5063C27.9823 14.6266 28.0576 14.75 28.1254 14.8766C28.1935 15.0029 28.2538 15.1318 28.3067 15.2633C28.3595 15.3945 28.4042 15.5279 28.4413 15.663C28.4785 15.7979 28.5076 15.9344 28.5285 16.0716C28.5495 16.2091 28.5626 16.3472 28.5673 16.4857C28.572 16.6242 28.5688 16.7625 28.5573 16.9008C28.5457 17.0391 28.526 17.1763 28.4985 17.313C28.4707 17.4498 28.4351 17.5849 28.3913 17.7185C28.3479 17.8524 28.2967 17.9839 28.2373 18.1133C28.1782 18.243 28.1117 18.3698 28.0376 18.4938Z" fill="#00CCCC"/>
</g>
</svg>
