<svg width="30" height="25" viewBox="0 0 30 25" fill="none" xmlns="http://www.w3.org/2000/svg">
<g clip-path="url(#clip0_884_2)">
<path d="M19.5584 13.3281C19.6659 13.2383 19.7778 13.1526 19.8941 13.0706C20.01 12.9888 20.13 12.9109 20.2537 12.8372C20.3778 12.7635 20.505 12.694 20.6356 12.6289C20.7662 12.5641 20.8997 12.5034 21.0362 12.4477C21.1731 12.3917 21.3122 12.3406 21.4537 12.2943C21.5953 12.2479 21.7391 12.2063 21.8847 12.1698C22.0306 12.1333 22.1778 12.1018 22.3266 12.0753C22.4753 12.0487 22.6253 12.0274 22.7762 12.0112C22.9272 11.9951 23.0787 11.9839 23.2306 11.9781C23.3825 11.9721 23.5347 11.9716 23.6869 11.976C23.8387 11.9807 23.9903 11.9904 24.1416 12.0052C24.2928 12.0203 24.4428 12.0404 24.5919 12.0654C24.7412 12.0906 24.8887 12.1208 25.035 12.1563C25.1812 12.1914 25.3253 12.2318 25.4675 12.2768C25.6097 12.3219 25.7494 12.3719 25.8869 12.4266C26.0241 12.4813 26.1584 12.5406 26.29 12.6044L26.8441 10.5336C26.8519 10.5044 26.8578 10.4747 26.8619 10.4448C26.8656 10.4149 26.8675 10.3849 26.8675 10.3547C26.8672 10.3247 26.865 10.2945 26.8609 10.2649C26.8566 10.2349 26.8503 10.2052 26.8422 10.176C26.8341 10.1466 26.8241 10.1177 26.8119 10.0893C26.8 10.0609 26.7859 10.0333 26.7703 10.0063C26.7544 9.97917 26.7369 9.95287 26.7175 9.92735C26.6984 9.90209 26.6775 9.87761 26.6547 9.85417C26.6322 9.83048 26.6081 9.80834 26.5825 9.78699C26.5569 9.76563 26.53 9.74584 26.5016 9.72709C26.4734 9.70834 26.4441 9.69089 26.4134 9.67501C26.3828 9.65912 26.3512 9.64454 26.3184 9.63152C26.2859 9.6185 26.2528 9.60704 26.2184 9.59714C26.1844 9.58725 26.1497 9.57891 26.1147 9.57214C26.0794 9.56563 26.0437 9.56042 26.0078 9.55704C25.9719 9.55391 25.9359 9.55209 25.9 9.55209H24.7012V6.73074C24.7012 6.67787 24.695 6.62553 24.6828 6.57344C24.6703 6.52162 24.6519 6.4711 24.6278 6.4224C24.6034 6.37344 24.5734 6.32683 24.5381 6.28282C24.5031 6.23881 24.4628 6.19818 24.4178 6.16068C24.3731 6.12344 24.3241 6.08985 24.2712 6.06042C24.2184 6.031 24.1628 6.00626 24.1041 5.98594C24.0453 5.96589 23.985 5.95053 23.9225 5.94011C23.8603 5.92995 23.7975 5.92475 23.7337 5.92475H12.3312C12.2128 5.92475 12.0981 5.90704 11.9872 5.87188C11.8766 5.83699 11.7769 5.78646 11.6881 5.72084L8.97499 3.71016C8.88655 3.64454 8.78687 3.59428 8.67624 3.55912C8.5653 3.52396 8.45062 3.50626 8.33218 3.50626H1.9653C1.90187 3.50626 1.83905 3.51146 1.77655 3.52188C1.71437 3.5323 1.65374 3.5474 1.59499 3.56771C1.53655 3.58803 1.48062 3.61277 1.4278 3.64219C1.37499 3.67162 1.32624 3.70495 1.28124 3.74245C1.23624 3.77995 1.19624 3.82058 1.16093 3.86459C1.12562 3.9086 1.09593 3.95521 1.07155 4.00391C1.04718 4.05287 1.02874 4.10339 1.01655 4.15521C1.00405 4.20704 0.997803 4.25964 0.997803 4.31251V17.613C0.997803 17.749 1.9653 18.4193 1.9653 18.4193H18.375C18.3209 18.3135 18.2719 18.2065 18.2275 18.0979C18.1831 17.9893 18.1437 17.8797 18.1091 17.7685C18.0744 17.6576 18.0447 17.5456 18.02 17.4328C17.9956 17.3198 17.9759 17.2065 17.9616 17.0925C17.9469 16.9784 17.9375 16.8641 17.9331 16.7492C17.9287 16.6346 17.9297 16.5201 17.9356 16.4055C17.9416 16.2909 17.9525 16.1766 17.9684 16.0625C17.9847 15.9487 18.0056 15.8354 18.0319 15.7227C18.0581 15.6102 18.0891 15.4984 18.1253 15.3878C18.1616 15.2771 18.2025 15.1677 18.2484 15.0596C18.2941 14.9513 18.3447 14.8448 18.4003 14.7399C18.4556 14.6346 18.5156 14.5315 18.58 14.4302C18.6447 14.3289 18.7137 14.2297 18.7872 14.1328C18.8606 14.0357 18.9381 13.9412 19.02 13.849C19.1019 13.7565 19.1878 13.6669 19.2775 13.5802C19.3675 13.4932 19.4609 13.4091 19.5584 13.3281ZM3.20249 10.1828L2.9328 11.1906V8.34298C2.9328 8.29011 2.93905 8.23751 2.95155 8.18568C2.96374 8.13386 2.98218 8.08334 3.00655 8.03438C3.03093 7.98568 3.06062 7.93907 3.09593 7.89506C3.13124 7.85105 3.17124 7.81042 3.21624 7.77292C3.26124 7.73542 3.30999 7.70209 3.3628 7.67266C3.41562 7.64324 3.47155 7.6185 3.52999 7.59818C3.58874 7.57787 3.64937 7.56277 3.71155 7.55235C3.77374 7.54193 3.83687 7.53699 3.9003 7.53699H21.7987C21.8625 7.53699 21.9253 7.54193 21.9875 7.55235C22.05 7.56277 22.1103 7.57787 22.1691 7.59818C22.2278 7.6185 22.2834 7.64324 22.3362 7.67266C22.3891 7.70209 22.4381 7.73542 22.4831 7.77292C22.5278 7.81042 22.5681 7.85105 22.6034 7.89506C22.6384 7.93907 22.6684 7.98568 22.6928 8.03438C22.7169 8.08334 22.7353 8.13386 22.7478 8.18568C22.76 8.23751 22.7662 8.29011 22.7662 8.34298V9.55209H4.14687C4.09218 9.55209 4.03812 9.556 3.98437 9.56355C3.9303 9.57136 3.8778 9.58256 3.82624 9.59766C3.77468 9.61277 3.72499 9.63126 3.67718 9.65339C3.62968 9.67553 3.58437 9.70079 3.54187 9.72917C3.49905 9.75782 3.45968 9.78881 3.42343 9.82292C3.38718 9.85704 3.35468 9.89324 3.32593 9.93178C3.29687 9.97058 3.27218 10.0109 3.25155 10.0529C3.23093 10.0951 3.21437 10.1383 3.20249 10.1828Z" fill="#D9D9D9"/>
<g filter="url(#filter0_d_884_2)">
<mask id="mask0_884_2" style="mask-type:luminance" maskUnits="userSpaceOnUse" x="0" y="3" width="30" height="19">
<path d="M0.514038 3.06668H29.6V21.6667H0.514038V3.06668Z" fill="white"/>
</mask>
<g mask="url(#mask0_884_2)">
<path d="M26.5722 16.8472L23.5487 19.3662C23.1119 19.7414 22.4144 19.1607 22.8647 18.7964L25.8881 16.2774C25.9453 16.2297 25.9959 16.1781 26.0409 16.1224C26.0856 16.0667 26.1234 16.0076 26.154 15.9456C26.185 15.8836 26.2081 15.8198 26.224 15.7539C26.2397 15.688 26.2475 15.6216 26.2475 15.5547C26.2475 15.4875 26.2397 15.4211 26.224 15.3552C26.2081 15.2893 26.185 15.2255 26.154 15.1636C26.1234 15.1016 26.0856 15.0425 26.0409 14.9867C25.9959 14.931 25.9453 14.8794 25.8881 14.832C25.8312 14.7844 25.7694 14.7422 25.7025 14.7047C25.6353 14.6675 25.5647 14.636 25.4903 14.6104C25.4159 14.5847 25.339 14.5654 25.2603 14.5521C25.1812 14.5391 25.1015 14.5326 25.0209 14.5326C24.9403 14.5326 24.8606 14.5391 24.7815 14.5521C24.7025 14.5654 24.6259 14.5847 24.5515 14.6104C24.4772 14.636 24.4062 14.6675 24.3394 14.7047C24.2725 14.7422 24.2106 14.7844 24.1534 14.832L20.9287 17.519C20.8981 17.5445 20.8712 17.5722 20.8472 17.6021C20.8234 17.6318 20.8031 17.6633 20.7865 17.6966C20.7703 17.7297 20.7578 17.7638 20.7494 17.7992C20.7409 17.8344 20.7369 17.8698 20.7369 17.9057C20.7369 17.9417 20.7409 17.9774 20.7494 18.0125C20.7578 18.0477 20.7703 18.0818 20.7865 18.1151C20.8031 18.1482 20.8234 18.1797 20.8472 18.2097C20.8712 18.2393 20.8981 18.2672 20.9287 18.2925C20.9597 18.3172 20.9931 18.3391 21.029 18.3583C21.0653 18.3776 21.1031 18.394 21.1428 18.4073C21.1825 18.4206 21.2234 18.4305 21.2656 18.4373C21.3078 18.444 21.35 18.4474 21.3928 18.4474C21.4356 18.4474 21.4781 18.444 21.5203 18.4373C21.5622 18.4305 21.6031 18.4206 21.6431 18.4073C21.6828 18.394 21.7206 18.3776 21.7565 18.3583C21.7928 18.3391 21.8262 18.3172 21.8572 18.2925L24.8806 15.7735C24.8887 15.7667 24.895 15.7589 24.8997 15.75C24.904 15.7412 24.9062 15.732 24.9062 15.7224C24.9062 15.7128 24.904 15.7037 24.8997 15.6948C24.8953 15.6857 24.889 15.6779 24.8809 15.6711C24.8728 15.6643 24.8634 15.6591 24.8528 15.6555C24.8422 15.6518 24.8309 15.65 24.8194 15.6503C24.8078 15.6503 24.7969 15.6521 24.7862 15.6557C24.7756 15.6597 24.7662 15.6649 24.7581 15.6716L21.9365 18.0229C21.914 18.0417 21.8897 18.0583 21.8631 18.0729C21.8369 18.0875 21.809 18.1 21.7797 18.1102C21.7503 18.1203 21.72 18.1279 21.689 18.1331C21.6578 18.138 21.6262 18.1406 21.5947 18.1406C21.5628 18.1406 21.5315 18.138 21.5003 18.1328C21.469 18.1279 21.439 18.1201 21.4097 18.1099C21.3803 18.0998 21.3525 18.0875 21.3259 18.0727C21.2997 18.0581 21.2753 18.0414 21.2528 18.0227C21.2303 18.0039 21.2103 17.9836 21.1928 17.9617C21.175 17.9396 21.16 17.9164 21.1481 17.8919C21.1359 17.8675 21.1265 17.8425 21.1203 17.8164C21.1144 17.7904 21.1112 17.7643 21.1112 17.7378C21.1112 17.7115 21.114 17.6852 21.1203 17.6594C21.1265 17.6333 21.1356 17.6081 21.1478 17.5836C21.16 17.5591 21.1747 17.536 21.1925 17.5141C21.21 17.4919 21.23 17.4716 21.2525 17.4529L24.074 15.1018C24.1231 15.0612 24.1765 15.0248 24.234 14.993C24.2915 14.961 24.3522 14.9341 24.4159 14.9123C24.48 14.8904 24.5456 14.8737 24.6134 14.8625C24.6812 14.8513 24.7497 14.8458 24.8187 14.8458C24.8881 14.8458 24.9565 14.8516 25.024 14.8628C25.0919 14.8742 25.1578 14.8909 25.2215 14.9128C25.2853 14.9349 25.3459 14.962 25.4034 14.994C25.4609 15.0261 25.514 15.0623 25.5628 15.1029C25.6119 15.1438 25.6553 15.188 25.6937 15.236C25.7322 15.2836 25.7647 15.3341 25.7912 15.3875C25.8178 15.4406 25.8378 15.4953 25.8512 15.5518C25.8647 15.6083 25.8715 15.6654 25.8715 15.7229C25.8719 15.7805 25.865 15.8375 25.8515 15.894C25.8384 15.9505 25.8184 16.0052 25.7922 16.0586C25.7656 16.1117 25.7334 16.1623 25.6953 16.2102C25.6569 16.2581 25.6134 16.3026 25.5647 16.3435L22.5412 18.8625C22.5031 18.893 22.4631 18.9216 22.4215 18.949C22.38 18.9761 22.3372 19.0018 22.2925 19.0255C22.2481 19.0495 22.2025 19.0714 22.1556 19.0917C22.1084 19.1117 22.0606 19.13 22.0115 19.1464C21.9625 19.1628 21.9125 19.1774 21.8619 19.1896C21.8109 19.2021 21.7597 19.2125 21.7078 19.2208C21.6559 19.2292 21.6037 19.2354 21.5509 19.2396C21.4984 19.2438 21.4456 19.2458 21.3928 19.2458C21.34 19.2458 21.2872 19.2438 21.2347 19.2396C21.1819 19.2354 21.1297 19.2292 21.0778 19.2208C21.0259 19.2125 20.9747 19.2021 20.924 19.1896C20.8731 19.1774 20.8234 19.1628 20.7744 19.1464C20.7253 19.13 20.6772 19.1117 20.6303 19.0917C20.5831 19.0714 20.5375 19.0495 20.4931 19.0255C20.4487 19.0018 20.4056 18.9761 20.364 18.949C20.3225 18.9216 20.2828 18.893 20.2444 18.8625C20.2069 18.831 20.1712 18.7982 20.1375 18.7641C20.104 18.7297 20.0722 18.6943 20.0428 18.6573C20.0134 18.6203 19.9859 18.5826 19.9609 18.5435C19.9359 18.5044 19.9134 18.4643 19.8931 18.4235C19.8728 18.3826 19.855 18.3409 19.8394 18.2985C19.824 18.256 19.8112 18.213 19.8009 18.1695C19.7903 18.1261 19.7828 18.0823 19.7775 18.0383C19.7722 17.9943 19.7697 17.95 19.7697 17.9057C19.7697 17.8615 19.7722 17.8172 19.7775 17.7732C19.7828 17.7292 19.7906 17.6854 19.8009 17.6419C19.8112 17.5985 19.824 17.5555 19.8397 17.513C19.855 17.4708 19.8728 17.4292 19.8931 17.388C19.9134 17.3472 19.9362 17.3073 19.9612 17.2682C19.9862 17.2289 20.0134 17.1912 20.0431 17.1542C20.0725 17.1175 20.104 17.0818 20.1378 17.0477C20.1715 17.0133 20.2072 16.9805 20.2447 16.9492L23.4697 14.262C23.5203 14.2195 23.5734 14.1794 23.629 14.1414C23.6847 14.1031 23.7422 14.0675 23.8019 14.0341C23.8615 14.0008 23.9234 13.9701 23.9865 13.9417C24.05 13.9136 24.115 13.8878 24.1812 13.8649C24.2478 13.8419 24.3153 13.8216 24.384 13.8042C24.4528 13.7867 24.5225 13.7722 24.5931 13.7604C24.6637 13.7487 24.7347 13.7401 24.8062 13.7341C24.8778 13.7281 24.9494 13.7253 25.0215 13.7253C25.0934 13.7253 25.165 13.7281 25.2365 13.7339C25.3081 13.7399 25.3794 13.7485 25.4497 13.7602C25.5203 13.7719 25.59 13.7862 25.6587 13.8037C25.7275 13.8211 25.7953 13.8412 25.8615 13.8641C25.9281 13.887 25.9931 13.9125 26.0565 13.9409C26.12 13.969 26.1815 13.9998 26.2412 14.0331C26.3009 14.0664 26.3587 14.1021 26.4144 14.1401C26.47 14.1781 26.5231 14.2182 26.574 14.2607C26.625 14.3029 26.6731 14.3474 26.7187 14.3935C26.7644 14.4399 26.8072 14.488 26.8469 14.5378C26.8869 14.5875 26.9237 14.6391 26.9578 14.6917C26.9915 14.7445 27.0222 14.7987 27.0497 14.8542C27.0772 14.9094 27.1015 14.9659 27.1225 15.0232C27.1431 15.0805 27.1606 15.1386 27.1747 15.1974C27.1887 15.256 27.199 15.3154 27.2062 15.3748C27.2131 15.4344 27.2165 15.4943 27.2165 15.5542C27.2165 15.6141 27.2131 15.674 27.2059 15.7336C27.1987 15.793 27.1881 15.8524 27.174 15.911C27.16 15.9698 27.1425 16.0279 27.1215 16.0852C27.1006 16.1425 27.0765 16.1987 27.049 16.2542C27.0212 16.3094 26.9906 16.3636 26.9565 16.4164C26.9228 16.469 26.8856 16.5203 26.8456 16.5703C26.8056 16.6201 26.7628 16.668 26.7172 16.7143C26.6715 16.7607 26.6231 16.805 26.5722 16.8472ZM26.8369 12.413L27.3165 10.6214C27.3278 10.5774 27.3362 10.5328 27.3419 10.488C27.3472 10.4432 27.3497 10.3985 27.349 10.3534C27.3484 10.3083 27.345 10.2633 27.3384 10.2188C27.3319 10.174 27.3225 10.1297 27.31 10.086C27.2978 10.0419 27.2825 9.99897 27.264 9.95653C27.2459 9.91408 27.225 9.87267 27.2012 9.83205C27.1778 9.79168 27.1512 9.75236 27.1225 9.71434C27.0934 9.67632 27.0622 9.6396 27.0284 9.6047C26.9944 9.56955 26.9584 9.53595 26.92 9.50418C26.8819 9.47241 26.8415 9.44246 26.7994 9.41434C26.7572 9.38621 26.7131 9.36017 26.6672 9.33621C26.6215 9.31225 26.5744 9.29038 26.5256 9.27085C26.4772 9.25106 26.4272 9.23387 26.3762 9.21877C26.3253 9.20366 26.2734 9.19116 26.2209 9.18074C26.1681 9.17059 26.115 9.16278 26.0615 9.15757C26.0078 9.15236 25.9537 9.14949 25.8997 9.14897H25.185V6.73074C25.185 6.69116 25.1828 6.65158 25.1781 6.61226C25.1737 6.57267 25.1669 6.53361 25.1575 6.49481C25.1481 6.45601 25.1369 6.41746 25.1231 6.3797C25.1094 6.34168 25.0931 6.30444 25.075 6.26772C25.0569 6.23127 25.0365 6.19533 25.0144 6.16043C24.9919 6.12554 24.9675 6.09168 24.9409 6.05861C24.9147 6.0258 24.8862 5.99403 24.8562 5.9633C24.8259 5.93257 24.794 5.9034 24.7606 5.87528C24.7269 5.84741 24.6919 5.82085 24.655 5.79559C24.6181 5.77059 24.58 5.74689 24.5406 5.72502C24.5009 5.70288 24.4603 5.68257 24.4184 5.66382C24.3762 5.64533 24.3334 5.6284 24.2894 5.6133C24.2456 5.59819 24.2009 5.58491 24.1553 5.57345C24.1097 5.56199 24.0637 5.55236 24.0172 5.54455C23.9703 5.53699 23.9234 5.53127 23.8762 5.52736C23.8287 5.52345 23.7812 5.52163 23.7337 5.52163H12.3319C12.209 5.52137 12.1009 5.48778 12.0078 5.42085L9.29404 3.40965C9.16216 3.31069 9.0131 3.23465 8.84685 3.18179C8.68091 3.12892 8.50904 3.10288 8.33154 3.1034H1.96529C1.91779 3.1034 1.87029 3.10522 1.8231 3.10913C1.7756 3.11278 1.72873 3.11851 1.68216 3.12632C1.63529 3.13387 1.58935 3.14351 1.54373 3.15496C1.49841 3.16642 1.45373 3.1797 1.40966 3.19507C1.3656 3.21017 1.32279 3.2271 1.28091 3.24559C1.23904 3.26434 1.1981 3.28465 1.15873 3.30653C1.11904 3.32866 1.08091 3.3521 1.04404 3.37736C1.00748 3.40236 0.972163 3.42892 0.938726 3.45705C0.904976 3.48491 0.873101 3.51434 0.842788 3.54507C0.812788 3.57554 0.784351 3.60731 0.758101 3.64038C0.731538 3.67319 0.707163 3.70731 0.684976 3.7422C0.662476 3.7771 0.642163 3.81278 0.624038 3.84949C0.605913 3.88621 0.589976 3.92345 0.576226 3.96121C0.562476 3.99923 0.550913 4.03752 0.541538 4.07658C0.532476 4.11538 0.525601 4.15444 0.520913 4.19403C0.516226 4.23335 0.514038 4.27293 0.514038 4.31252V17.613C0.514038 17.6526 0.516226 17.6922 0.520913 17.7318C0.525601 17.7711 0.532476 17.8102 0.541538 17.8492C0.550913 17.888 0.562476 17.9263 0.576226 17.9643C0.589976 18.0021 0.605913 18.0396 0.624038 18.0761C0.642163 18.1128 0.662476 18.1485 0.684976 18.1833C0.707163 18.2185 0.731538 18.2524 0.758101 18.2852C0.784351 18.3182 0.812788 18.35 0.842788 18.3807C0.873101 18.4112 0.904976 18.4406 0.938726 18.4685C0.972163 18.4966 1.00748 18.5232 1.04404 18.5482C1.08091 18.5735 1.11904 18.5969 1.15873 18.619C1.1981 18.6409 1.23904 18.6612 1.28091 18.68C1.32279 18.6987 1.3656 18.7156 1.40966 18.7307C1.45373 18.7458 1.49841 18.7591 1.54373 18.7706C1.58935 18.782 1.63529 18.7917 1.68216 18.7992C1.72873 18.807 1.7756 18.8128 1.8231 18.8167C1.87029 18.8203 1.91779 18.8224 1.96529 18.8222H18.0719C18.1228 18.9086 18.1765 18.9938 18.2331 19.0779C18.29 19.1617 18.3494 19.244 18.4119 19.325C18.474 19.4063 18.5394 19.4857 18.6072 19.5636C18.675 19.6414 18.7456 19.7177 18.8187 19.7922C18.8919 19.8667 18.9672 19.9396 19.0453 20.0104C19.1234 20.0813 19.204 20.1503 19.2869 20.2175C19.3697 20.2847 19.455 20.3498 19.5422 20.4128C19.6297 20.4758 19.719 20.5365 19.8106 20.5953C19.9022 20.6539 19.9956 20.7104 20.0909 20.7649C20.1865 20.819 20.2837 20.8711 20.3825 20.9206C20.4815 20.9703 20.5822 21.0175 20.6844 21.0623C20.7869 21.107 20.8906 21.1495 20.9956 21.1893C21.1009 21.2292 21.2072 21.2664 21.315 21.3013C21.4228 21.336 21.5315 21.3682 21.6415 21.3977C21.7515 21.4274 21.8625 21.4542 21.9744 21.4784C22.0859 21.5029 22.1984 21.5242 22.3119 21.5432C22.4253 21.562 22.539 21.5784 22.6534 21.5917C22.7678 21.6052 22.8825 21.6159 22.9978 21.6237C23.1128 21.6318 23.2281 21.637 23.3437 21.6393C23.4594 21.6419 23.5747 21.6414 23.6903 21.6386C23.8056 21.6354 23.9209 21.6294 24.0359 21.6208C24.1512 21.6123 24.2659 21.6011 24.38 21.587C24.4944 21.5729 24.6081 21.556 24.7212 21.5365C24.8344 21.5169 24.9469 21.4948 25.0584 21.4701C25.17 21.4451 25.2806 21.4175 25.3903 21.3875C25.5 21.3573 25.6087 21.3245 25.7162 21.2891C25.8237 21.2537 25.9297 21.2159 26.0347 21.1753C26.1394 21.1349 26.2428 21.0919 26.3447 21.0466C26.4465 21.0013 26.5469 20.9534 26.6456 20.9034C26.744 20.8531 26.8409 20.8008 26.9359 20.7458C27.0309 20.6912 27.124 20.6341 27.215 20.5748C27.3059 20.5156 27.395 20.4542 27.4819 20.3906C27.5687 20.3271 27.6534 20.2617 27.7356 20.194C27.8178 20.1266 27.8978 20.057 27.9753 19.9857C28.0531 19.9143 28.1281 19.8412 28.2006 19.7664C28.2731 19.6914 28.3428 19.6149 28.41 19.5365C28.4775 19.4581 28.5419 19.3784 28.6034 19.2969C28.6653 19.2156 28.724 19.1328 28.7803 19.0487C28.8362 18.9643 28.8894 18.8789 28.9394 18.7922C28.9897 18.7055 29.0369 18.6177 29.0809 18.5287C29.125 18.4396 29.1659 18.3498 29.2037 18.2589C29.2419 18.168 29.2765 18.0761 29.3081 17.9836C29.3397 17.8909 29.3681 17.7977 29.3931 17.7037C29.4184 17.6097 29.4403 17.5151 29.459 17.4203C29.4775 17.3253 29.4928 17.23 29.505 17.1341C29.5172 17.0383 29.5259 16.9425 29.5312 16.8464C29.5369 16.75 29.539 16.6539 29.5378 16.5576C29.5369 16.4615 29.5322 16.3651 29.5247 16.2693C29.5169 16.1732 29.5056 16.0774 29.4912 15.9818C29.4769 15.8862 29.4594 15.7912 29.4384 15.6966C29.4175 15.6018 29.3934 15.5078 29.3659 15.4143C29.3387 15.3206 29.3081 15.2279 29.2744 15.136C29.2403 15.0438 29.2034 14.9526 29.1634 14.8623C29.1234 14.7719 29.0803 14.6828 29.034 14.5945C28.9878 14.5063 28.9387 14.4193 28.8865 14.3333C28.8344 14.2474 28.779 14.1628 28.7212 14.0797C28.6631 13.9964 28.6022 13.9146 28.5384 13.8344C28.475 13.7539 28.4084 13.6753 28.3394 13.5979C28.2703 13.5208 28.1987 13.4453 28.1244 13.3716C28.0503 13.2979 27.9734 13.2261 27.894 13.156C27.815 13.086 27.7334 13.0177 27.6494 12.9516C27.5656 12.8854 27.4794 12.8214 27.3912 12.7594C27.3028 12.6972 27.2125 12.6373 27.12 12.5797C27.0275 12.5219 26.9331 12.4664 26.8369 12.413ZM1.48154 4.31252C1.48154 4.28595 1.48498 4.25991 1.49123 4.23387C1.49748 4.20809 1.50654 4.18283 1.51873 4.15835C1.53091 4.13413 1.54591 4.11069 1.56341 4.08882C1.58123 4.06694 1.60123 4.04663 1.62373 4.02788C1.64623 4.00913 1.6706 3.99246 1.69685 3.97762C1.72341 3.96304 1.75123 3.95054 1.78029 3.94038C1.80966 3.93022 1.83998 3.92267 1.87091 3.91746C1.90216 3.91226 1.93373 3.90939 1.96529 3.90939H8.33154C8.45435 3.90965 8.56248 3.94324 8.6556 4.01017L11.3694 6.02137C11.5012 6.12059 11.6503 6.19637 11.8165 6.24923C11.9825 6.3021 12.1544 6.32814 12.3319 6.32762H23.7337C23.7656 6.32788 23.7969 6.33048 23.8281 6.33569C23.8594 6.3409 23.8894 6.34845 23.9187 6.35861C23.9481 6.36877 23.9759 6.38127 24.0022 6.39611C24.0287 6.41069 24.0531 6.42736 24.0756 6.44611C24.0978 6.46486 24.1178 6.48517 24.1356 6.50705C24.1531 6.52918 24.1681 6.55236 24.1803 6.57684C24.1925 6.60106 24.2019 6.62632 24.2081 6.65236C24.2144 6.67814 24.2175 6.70444 24.2175 6.73074V9.14897H23.25V8.34298C23.25 8.3034 23.2478 8.26382 23.2431 8.22449C23.2387 8.18491 23.2319 8.14585 23.2225 8.10705C23.2134 8.06824 23.2019 8.0297 23.1881 7.99168C23.1744 7.95392 23.1584 7.91668 23.14 7.87996C23.1219 7.84351 23.1015 7.80757 23.0794 7.77267C23.0569 7.73778 23.0325 7.70366 23.0062 7.67085C22.9797 7.63778 22.9515 7.60601 22.9212 7.57554C22.8912 7.54481 22.8594 7.51564 22.8256 7.48752C22.7919 7.45939 22.7569 7.43283 22.72 7.40783C22.6831 7.38257 22.645 7.35913 22.6056 7.33699C22.5659 7.31512 22.5253 7.29481 22.4834 7.27606C22.4415 7.25757 22.3984 7.24064 22.3544 7.22554C22.3106 7.21043 22.2659 7.19689 22.2203 7.18543C22.1747 7.17397 22.1287 7.1646 22.0822 7.15679C22.0356 7.14923 21.9884 7.14324 21.9412 7.1396C21.8937 7.13569 21.8465 7.13387 21.7987 7.13387H3.90029C3.85279 7.13387 3.80529 7.13569 3.7581 7.1396C3.7106 7.14324 3.66373 7.14923 3.61716 7.15679C3.57029 7.1646 3.52435 7.17397 3.47873 7.18543C3.43341 7.19689 3.38873 7.21043 3.34466 7.22554C3.3006 7.24064 3.25779 7.25757 3.21591 7.27606C3.17404 7.29481 3.1331 7.31512 3.09373 7.33699C3.05404 7.35913 3.01591 7.38257 2.97904 7.40783C2.94248 7.43283 2.90716 7.45939 2.87373 7.48752C2.83998 7.51564 2.8081 7.54481 2.77779 7.57554C2.74779 7.60601 2.71935 7.63778 2.6931 7.67085C2.66654 7.70366 2.64216 7.73778 2.61998 7.77267C2.59748 7.80757 2.57716 7.84351 2.55904 7.87996C2.54091 7.91668 2.52498 7.95392 2.51123 7.99168C2.49748 8.0297 2.48591 8.06798 2.47654 8.10705C2.46748 8.14585 2.4606 8.18491 2.45591 8.22449C2.45123 8.26382 2.44904 8.3034 2.44904 8.34298V11.1469L1.48154 14.7612V4.31252ZM22.2825 8.34298V9.14897H4.14685C3.8856 9.14897 3.64216 9.20366 3.41654 9.31304V8.34298C3.41654 8.31642 3.41998 8.29038 3.42623 8.26434C3.43248 8.23856 3.44154 8.2133 3.45373 8.18882C3.46591 8.1646 3.48091 8.14142 3.49841 8.11929C3.51623 8.09741 3.53623 8.0771 3.55873 8.05835C3.58123 8.0396 3.6056 8.02293 3.63185 8.00835C3.65841 7.99351 3.68623 7.98101 3.71529 7.97085C3.74466 7.96069 3.77498 7.95314 3.80591 7.94793C3.83716 7.94272 3.86873 7.94012 3.90029 7.93986H21.7987C21.8306 7.94012 21.8619 7.94272 21.8931 7.94793C21.9244 7.95314 21.9544 7.96069 21.9837 7.97085C22.0131 7.98101 22.0409 7.99351 22.0672 8.00835C22.0937 8.02293 22.1181 8.0396 22.1406 8.05835C22.1628 8.0771 22.1831 8.09741 22.2006 8.11929C22.2184 8.14142 22.2331 8.1646 22.2453 8.18882C22.2575 8.2133 22.2669 8.23856 22.2731 8.26434C22.2794 8.29038 22.2825 8.31642 22.2825 8.34298ZM1.96529 18.0162C1.83685 18.0154 1.7256 17.9789 1.63091 17.9065L3.67435 10.2703C3.68623 10.2255 3.70685 10.1839 3.73591 10.1448C3.76498 10.1057 3.80091 10.0719 3.84373 10.0432C3.88685 10.0146 3.93435 9.99272 3.98623 9.97762C4.03841 9.96252 4.09185 9.95496 4.14685 9.95522H25.8997C25.9359 9.95548 25.9715 9.95887 26.0069 9.9659C26.0419 9.97267 26.0759 9.98257 26.1084 9.99585C26.1409 10.0089 26.1712 10.025 26.1997 10.0438C26.2278 10.0625 26.2534 10.0836 26.2759 10.107C26.2984 10.1307 26.3178 10.156 26.3337 10.1831C26.3494 10.2099 26.3615 10.2383 26.37 10.2675C26.3781 10.2969 26.3825 10.3266 26.3831 10.3565C26.3834 10.3867 26.3797 10.4164 26.3722 10.4461L25.9534 12.0104C25.8228 11.9617 25.69 11.9167 25.5556 11.8755C25.4209 11.8344 25.2847 11.7974 25.1472 11.7646C25.0094 11.7315 24.8703 11.7026 24.7303 11.6779C24.59 11.6531 24.4487 11.6326 24.3069 11.6164C24.165 11.6 24.0225 11.5878 23.8797 11.58C23.7365 11.5722 23.5934 11.5685 23.45 11.569C23.3069 11.5695 23.1637 11.5745 23.0209 11.5836C22.8778 11.5927 22.7356 11.606 22.5937 11.6237C22.4522 11.6412 22.3112 11.663 22.1715 11.6888C22.0315 11.7149 21.8928 11.7448 21.7556 11.7792C21.6184 11.8133 21.4825 11.8513 21.3487 11.8935C21.2147 11.936 21.0825 11.982 20.9525 12.032C20.8222 12.082 20.6944 12.136 20.569 12.1938C20.4434 12.2513 20.3206 12.3125 20.2003 12.3776C20.0803 12.4425 19.9628 12.511 19.8484 12.5828C19.734 12.6547 19.6228 12.73 19.515 12.8086C19.4069 12.887 19.3025 12.9688 19.2015 13.0534C19.1006 13.138 19.0034 13.2258 18.91 13.3162C18.8165 13.4068 18.7269 13.5 18.6415 13.5958C18.5559 13.6914 18.4747 13.7899 18.3975 13.8904C18.3203 13.9912 18.2478 14.0938 18.1794 14.1987C18.1112 14.3039 18.0475 14.4107 17.9881 14.5193C17.929 14.6281 17.8747 14.7386 17.825 14.8505C17.7753 14.9625 17.7303 15.0758 17.6903 15.1904C17.6503 15.305 17.6153 15.4208 17.585 15.5375C17.555 15.6542 17.5297 15.7716 17.5097 15.8899C17.4897 16.0081 17.4747 16.1268 17.4647 16.2458C17.4547 16.3651 17.45 16.4844 17.4503 16.6037C17.4506 16.7232 17.4559 16.8425 17.4662 16.9615C17.4769 17.0805 17.4925 17.1992 17.5131 17.3172C17.5337 17.4354 17.5594 17.5529 17.59 17.6695C17.6206 17.7862 17.6562 17.9016 17.6969 18.0162H1.96529ZM28.0375 18.4938C28.0006 18.5557 27.9615 18.6169 27.9209 18.6774C27.8803 18.7378 27.8378 18.7972 27.7937 18.856C27.7494 18.9146 27.7034 18.9724 27.6559 19.0292C27.6081 19.086 27.559 19.1417 27.5081 19.1964C27.4572 19.2511 27.4047 19.305 27.3506 19.3576C27.2965 19.4102 27.2412 19.4615 27.184 19.512C27.1269 19.5623 27.0684 19.6115 27.0084 19.6594C26.9484 19.7073 26.8872 19.7539 26.8244 19.7995C26.7615 19.8448 26.6975 19.8891 26.6322 19.9318C26.5669 19.9748 26.5003 20.0162 26.4325 20.0563C26.3647 20.0964 26.2959 20.1349 26.2256 20.1722C26.1556 20.2097 26.0847 20.2453 26.0125 20.2797C25.9403 20.3141 25.8672 20.3469 25.7931 20.3784C25.719 20.4097 25.644 20.4396 25.5681 20.468C25.4922 20.4961 25.4156 20.5229 25.3381 20.5482C25.2606 20.5732 25.1825 20.5969 25.1037 20.6188C25.025 20.6409 24.9453 20.6612 24.8653 20.68C24.7853 20.6987 24.7047 20.7156 24.6237 20.731C24.5428 20.7466 24.4612 20.7604 24.3794 20.7724C24.2975 20.7844 24.2153 20.7951 24.1331 20.8037C24.0506 20.8125 23.9678 20.8195 23.885 20.8248C23.8022 20.8302 23.719 20.8339 23.6359 20.8357C23.5528 20.8378 23.47 20.838 23.3869 20.8367C23.3037 20.8352 23.2206 20.832 23.1378 20.8271C23.0547 20.8224 22.9719 20.8159 22.8894 20.8076C22.8069 20.7995 22.7247 20.7896 22.6428 20.7779C22.5609 20.7664 22.4794 20.7531 22.3981 20.7383C22.3169 20.7232 22.2362 20.7068 22.1559 20.6886C22.0759 20.6703 21.9962 20.6505 21.9172 20.6289C21.8381 20.6076 21.7597 20.5844 21.6822 20.5597C21.6044 20.5352 21.5275 20.5089 21.4512 20.481C21.3753 20.4531 21.3 20.4237 21.2256 20.393C21.1512 20.362 21.0778 20.3297 21.0053 20.2956C20.9328 20.2617 20.8612 20.2263 20.7909 20.1896C20.7206 20.1526 20.6512 20.1146 20.5831 20.0748C20.515 20.0352 20.4481 19.994 20.3825 19.9518C20.3165 19.9094 20.2522 19.8656 20.189 19.8206C20.1259 19.7755 20.064 19.7292 20.0037 19.6818C19.9431 19.6341 19.8844 19.5854 19.8265 19.5354C19.769 19.4854 19.7131 19.4341 19.6584 19.382C19.604 19.3297 19.5509 19.2763 19.4997 19.2219C19.4484 19.1675 19.3984 19.112 19.3503 19.0555C19.3022 18.999 19.2559 18.9417 19.2112 18.8833C19.1662 18.825 19.1234 18.7656 19.0822 18.7055C19.0409 18.6453 19.0015 18.5844 18.9637 18.5227C18.9262 18.461 18.8903 18.3985 18.8562 18.3352C18.8222 18.2722 18.7903 18.2081 18.76 18.1438C18.7297 18.0792 18.7015 18.0141 18.675 17.9485C18.6487 17.8826 18.6244 17.8164 18.6019 17.7498C18.5794 17.6831 18.5587 17.6162 18.5403 17.5485C18.5219 17.481 18.5053 17.413 18.4909 17.3451C18.4762 17.2768 18.4637 17.2083 18.4531 17.1396C18.4428 17.0708 18.4344 17.0021 18.4278 16.9331C18.4215 16.8638 18.4172 16.7948 18.4147 16.7255C18.4122 16.6563 18.4119 16.587 18.4137 16.5177C18.4153 16.4485 18.4194 16.3794 18.425 16.3104C18.4309 16.2412 18.4387 16.1724 18.4484 16.1034C18.4584 16.0347 18.4703 15.9662 18.484 15.8979C18.4981 15.8297 18.514 15.7617 18.5319 15.694C18.5497 15.6263 18.5697 15.5591 18.5915 15.4925C18.6134 15.4255 18.6372 15.3591 18.6628 15.2932C18.6887 15.2276 18.7165 15.1623 18.7459 15.0974C18.7756 15.0328 18.8072 14.9688 18.8406 14.9052C18.874 14.8419 18.909 14.7792 18.9462 14.7172C18.9834 14.6552 19.0222 14.594 19.0631 14.5336C19.1037 14.4732 19.1462 14.4138 19.1903 14.355C19.2344 14.2964 19.2803 14.2388 19.3281 14.182C19.3756 14.125 19.425 14.0693 19.4756 14.0146C19.5265 13.9599 19.579 13.9063 19.6331 13.8537C19.6872 13.8008 19.7428 13.7495 19.8 13.699C19.8569 13.6487 19.9156 13.5995 19.9756 13.5516C20.0356 13.5037 20.0969 13.457 20.1597 13.4115C20.2222 13.3662 20.2862 13.3219 20.3515 13.2792C20.4172 13.2365 20.4837 13.1948 20.5512 13.1547C20.619 13.1146 20.6881 13.0761 20.7581 13.0388C20.8281 13.0016 20.8994 12.9656 20.9715 12.9313C21.0437 12.8969 21.1169 12.8641 21.1909 12.8326C21.265 12.8013 21.34 12.7714 21.4159 12.7432C21.4919 12.7149 21.5684 12.688 21.6459 12.6628C21.7231 12.6378 21.8012 12.6141 21.8803 12.5922C21.959 12.5703 22.0384 12.5498 22.1184 12.531C22.1984 12.5125 22.279 12.4953 22.36 12.48C22.4412 12.4643 22.5225 12.4508 22.6044 12.4386C22.6862 12.4266 22.7684 12.4162 22.8509 12.4073C22.9334 12.3985 23.0159 12.3914 23.099 12.3862C23.1819 12.3807 23.2647 12.3771 23.3478 12.3753C23.4309 12.3732 23.514 12.3729 23.5972 12.3745C23.6803 12.3758 23.7634 12.3789 23.8462 12.3839C23.929 12.3886 24.0119 12.3951 24.0944 12.4034C24.1769 12.4115 24.2594 12.4214 24.3412 12.4331C24.4231 12.4445 24.5047 12.4578 24.5859 12.4727C24.6672 12.4878 24.7478 12.5042 24.8278 12.5224C24.9081 12.5406 24.9878 12.5604 25.0669 12.582C25.1459 12.6034 25.224 12.6266 25.3019 12.6513C25.3794 12.6761 25.4562 12.7021 25.5325 12.73C25.6087 12.7578 25.684 12.7873 25.7584 12.818C25.9072 12.88 26.0519 12.9479 26.1925 13.0216C26.3334 13.0956 26.4694 13.175 26.6009 13.2599C26.7322 13.3448 26.8584 13.4349 26.979 13.53C27.1 13.6253 27.2147 13.7253 27.3237 13.83C27.4328 13.9344 27.5356 14.0432 27.6319 14.1563C27.7278 14.2693 27.8172 14.386 27.8997 14.5063C27.9822 14.6266 28.0575 14.75 28.1253 14.8766C28.1934 15.0029 28.2537 15.1318 28.3065 15.2633C28.3594 15.3945 28.404 15.5279 28.4412 15.663C28.4784 15.7979 28.5075 15.9344 28.5284 16.0716C28.5494 16.2091 28.5625 16.3472 28.5672 16.4857C28.5719 16.6242 28.5687 16.7625 28.5572 16.9008C28.5456 17.0391 28.5259 17.1763 28.4984 17.313C28.4706 17.4498 28.435 17.5849 28.3912 17.7185C28.3478 17.8524 28.2965 17.9839 28.2372 18.1133C28.1781 18.243 28.1115 18.3698 28.0375 18.4938Z" fill="#00CCCC"/>
</g>
</g>
</g>
<defs>
<filter id="filter0_d_884_2" x="-3.48596" y="3.10339" width="37.024" height="26.5377" filterUnits="userSpaceOnUse" color-interpolation-filters="sRGB">
<feFlood flood-opacity="0" result="BackgroundImageFix"/>
<feColorMatrix in="SourceAlpha" type="matrix" values="0 0 0 0 0 0 0 0 0 0 0 0 0 0 0 0 0 0 127 0" result="hardAlpha"/>
<feOffset dy="4"/>
<feGaussianBlur stdDeviation="2"/>
<feComposite in2="hardAlpha" operator="out"/>
<feColorMatrix type="matrix" values="0 0 0 0 0 0 0 0 0 0 0 0 0 0 0 0 0 0 0.25 0"/>
<feBlend mode="normal" in2="BackgroundImageFix" result="effect1_dropShadow_884_2"/>
<feBlend mode="normal" in="SourceGraphic" in2="effect1_dropShadow_884_2" result="shape"/>
</filter>
<clipPath id="clip0_884_2">
<rect width="30" height="25" fill="white"/>
</clipPath>
</defs>
</svg>
