<svg width="14" height="16" viewBox="0 0 14 16" fill="none" xmlns="http://www.w3.org/2000/svg">
<path d="M7 16C7.53043 16 8.03914 15.7893 8.41421 15.4142C8.78929 15.0391 9 14.5304 9 14H5C5 14.5304 5.21071 15.0391 5.58579 15.4142C5.96086 15.7893 6.46957 16 7 16ZM7.995 1.09899C8.00896 0.959944 7.99362 0.819516 7.94997 0.686763C7.90632 0.55401 7.83533 0.43188 7.74158 0.328248C7.64783 0.224616 7.5334 0.141784 7.40567 0.0850945C7.27794 0.0284045 7.13974 -0.00088501 7 -0.00088501C6.86026 -0.00088501 6.72206 0.0284045 6.59433 0.0850945C6.4666 0.141784 6.35217 0.224616 6.25842 0.328248C6.16467 0.43188 6.09368 0.55401 6.05003 0.686763C6.00638 0.819516 5.99104 0.959944 6.005 1.09899C4.87472 1.32889 3.85862 1.94235 3.12876 2.83549C2.39891 3.72863 2.00015 4.84656 2 5.99999C2 7.09799 1.5 12 0 13H14C12.5 12 12 7.09799 12 5.99999C12 3.57999 10.28 1.55999 7.995 1.09899Z" fill="#406080"/>
</svg>
