<svg width="413" height="416" viewBox="0 0 413 416" fill="none" xmlns="http://www.w3.org/2000/svg">
<g filter="url(#filter0_d_687_19)">
<mask id="mask0_687_19" style="mask-type:luminance" maskUnits="userSpaceOnUse" x="34" y="118" width="115" height="117">
<path d="M34.55 118.699H148.68V234.069H34.55V118.699Z" fill="white"/>
</mask>
<g mask="url(#mask0_687_19)">
<path d="M96.3322 120.345C96.315 120.345 96.3021 120.345 96.2849 120.345C95.3987 120.272 94.4996 120.215 93.6047 120.185C93.3079 120.172 93.0713 119.921 93.0842 119.617C93.0928 119.318 93.3423 119.084 93.6434 119.093C94.5555 119.123 95.4718 119.18 96.3753 119.258C96.6721 119.279 96.8958 119.544 96.87 119.847C96.8485 120.133 96.6119 120.345 96.3322 120.345ZM85.5039 120.475C85.2329 120.475 84.9963 120.267 84.9661 119.986C84.936 119.687 85.1511 119.414 85.448 119.383C86.3514 119.288 87.2678 119.21 88.1755 119.158C88.4723 119.141 88.7305 119.37 88.7477 119.669C88.7649 119.973 88.5369 120.228 88.24 120.246C87.3495 120.302 86.4504 120.376 85.5641 120.471C85.5426 120.475 85.5254 120.475 85.5039 120.475ZM104.36 121.611C104.317 121.611 104.278 121.606 104.235 121.598C103.366 121.394 102.484 121.212 101.607 121.052C101.314 120.995 101.116 120.714 101.168 120.415C101.224 120.12 101.503 119.921 101.8 119.977C102.695 120.137 103.594 120.324 104.48 120.532C104.773 120.597 104.954 120.891 104.885 121.186C104.829 121.442 104.605 121.611 104.36 121.611ZM77.5106 121.927C77.2697 121.927 77.0503 121.767 76.9858 121.515C76.9126 121.225 77.0847 120.93 77.3773 120.852C78.2549 120.623 79.154 120.415 80.0446 120.233C80.3371 120.172 80.621 120.363 80.6856 120.657C80.7415 120.952 80.5565 121.242 80.2597 121.303C79.3863 121.485 78.5087 121.689 77.644 121.914C77.601 121.923 77.5537 121.927 77.5106 121.927ZM112.125 124.029C112.061 124.029 111.996 124.016 111.932 123.994C111.097 123.665 110.245 123.353 109.402 123.067C109.118 122.971 108.963 122.659 109.058 122.373C109.152 122.092 109.462 121.936 109.746 122.031C110.607 122.321 111.476 122.638 112.323 122.976C112.603 123.084 112.74 123.4 112.633 123.682C112.547 123.899 112.345 124.029 112.125 124.029ZM69.8142 124.527C69.6034 124.527 69.4012 124.401 69.3152 124.193C69.199 123.912 69.3281 123.595 69.6034 123.478C70.4423 123.127 71.2941 122.789 72.1459 122.477C72.4299 122.373 72.7396 122.521 72.8429 122.807C72.9461 123.088 72.7999 123.405 72.5159 123.509C71.6813 123.812 70.8424 124.141 70.0207 124.488C69.9562 124.514 69.883 124.527 69.8142 124.527ZM119.465 127.556C119.374 127.556 119.284 127.53 119.198 127.482C118.423 127.036 117.623 126.607 116.827 126.2C116.561 126.065 116.453 125.736 116.591 125.467C116.724 125.199 117.051 125.09 117.318 125.225C118.131 125.641 118.944 126.078 119.731 126.533C119.994 126.681 120.084 127.014 119.938 127.274C119.839 127.452 119.654 127.556 119.465 127.556ZM62.5652 128.223C62.3802 128.223 62.2038 128.128 62.1006 127.955C61.9457 127.695 62.0317 127.361 62.2856 127.205C63.0642 126.737 63.8644 126.278 64.6646 125.844C64.927 125.706 65.2583 125.805 65.4003 126.07C65.5379 126.338 65.439 126.668 65.1766 126.811C64.3936 127.235 63.6106 127.682 62.8448 128.145C62.7588 128.197 62.6641 128.223 62.5652 128.223ZM126.223 132.102C126.107 132.102 125.991 132.067 125.892 131.989C125.186 131.434 124.459 130.897 123.732 130.377C123.487 130.204 123.427 129.861 123.599 129.619C123.771 129.372 124.111 129.311 124.356 129.484C125.1 130.009 125.84 130.563 126.559 131.127C126.791 131.309 126.834 131.651 126.653 131.889C126.546 132.032 126.387 132.102 126.223 132.102ZM55.9185 132.925C55.7593 132.925 55.6044 132.856 55.4969 132.726C55.3076 132.492 55.342 132.145 55.5743 131.954C56.2799 131.378 57.0026 130.81 57.734 130.264C57.9749 130.087 58.3147 130.139 58.4954 130.381C58.6718 130.624 58.6202 130.966 58.3793 131.144C57.6608 131.677 56.951 132.236 56.2583 132.804C56.1594 132.886 56.0389 132.925 55.9185 132.925ZM132.268 137.579C132.126 137.579 131.984 137.523 131.876 137.41C131.257 136.764 130.616 136.123 129.966 135.508C129.751 135.3 129.738 134.953 129.944 134.736C130.151 134.515 130.495 134.507 130.714 134.71C131.373 135.339 132.027 135.993 132.659 136.652C132.866 136.868 132.861 137.215 132.642 137.423C132.539 137.527 132.401 137.579 132.268 137.579ZM49.9988 138.541C49.8697 138.541 49.7364 138.493 49.6331 138.394C49.4137 138.19 49.3965 137.843 49.603 137.622C50.2182 136.951 50.8549 136.283 51.5002 135.638C51.7153 135.425 52.0595 135.43 52.2703 135.642C52.4811 135.859 52.4768 136.205 52.266 136.418C51.6293 137.046 51.0012 137.7 50.3989 138.363C50.2914 138.48 50.1451 138.541 49.9988 138.541ZM137.473 143.862C137.305 143.862 137.138 143.784 137.034 143.637C136.514 142.909 135.967 142.181 135.412 141.479C135.227 141.245 135.266 140.898 135.503 140.712C135.735 140.526 136.075 140.565 136.264 140.799C136.828 141.518 137.383 142.255 137.912 142.996C138.088 143.243 138.032 143.585 137.791 143.758C137.692 143.828 137.585 143.862 137.473 143.862ZM44.9353 144.95C44.832 144.95 44.7245 144.915 44.6298 144.85C44.3846 144.681 44.3201 144.339 44.4921 144.092C45.0041 143.338 45.5419 142.584 46.0925 141.856C46.2732 141.613 46.6131 141.566 46.8497 141.748C47.0906 141.93 47.1379 142.272 46.9572 142.515C46.4195 143.23 45.8903 143.971 45.387 144.712C45.2794 144.863 45.1116 144.95 44.9353 144.95ZM141.732 150.835C141.539 150.835 141.349 150.726 141.25 150.536C140.842 149.743 140.407 148.95 139.955 148.174C139.805 147.914 139.895 147.576 140.153 147.424C140.411 147.273 140.743 147.364 140.893 147.624C141.349 148.412 141.797 149.223 142.214 150.033C142.352 150.302 142.248 150.631 141.982 150.77C141.904 150.813 141.818 150.835 141.732 150.835ZM40.8354 152.022C40.7579 152.022 40.6762 152.005 40.5988 151.966C40.3277 151.836 40.2159 151.506 40.3492 151.233C40.7493 150.41 41.1752 149.587 41.6184 148.785C41.7603 148.521 42.0916 148.425 42.354 148.573C42.6164 148.716 42.7111 149.049 42.5648 149.314C42.1346 150.102 41.7173 150.908 41.3215 151.719C41.2312 151.909 41.0376 152.022 40.8354 152.022ZM144.954 158.353C144.731 158.353 144.52 158.21 144.442 157.985C144.15 157.135 143.832 156.286 143.5 155.45C143.388 155.172 143.522 154.852 143.797 154.739C144.077 154.626 144.391 154.761 144.503 155.042C144.843 155.892 145.169 156.758 145.466 157.625C145.565 157.907 145.415 158.219 145.135 158.318C145.075 158.34 145.015 158.353 144.954 158.353ZM37.7895 159.618C37.7336 159.618 37.6776 159.614 37.6217 159.592C37.3378 159.501 37.1829 159.194 37.2732 158.908C37.5529 158.032 37.854 157.157 38.1767 156.299C38.2842 156.013 38.594 155.87 38.8779 155.978C39.1576 156.082 39.2952 156.399 39.192 156.68C38.8779 157.525 38.5768 158.383 38.3057 159.241C38.2326 159.471 38.0175 159.618 37.7895 159.618ZM147.067 166.257C146.809 166.257 146.585 166.075 146.533 165.815C146.365 164.931 146.172 164.043 145.961 163.172C145.892 162.877 146.069 162.582 146.361 162.513C146.654 162.439 146.946 162.621 147.015 162.912C147.23 163.8 147.428 164.71 147.596 165.607C147.656 165.902 147.463 166.192 147.17 166.248C147.136 166.253 147.097 166.257 147.067 166.257ZM35.8665 167.574C35.8364 167.574 35.8062 167.574 35.7761 167.566C35.4793 167.518 35.2814 167.236 35.3287 166.942C35.4793 166.036 35.6557 165.126 35.8493 164.233C35.9138 163.934 36.202 163.748 36.4946 163.813C36.7871 163.878 36.9721 164.168 36.9076 164.463C36.7183 165.343 36.5462 166.235 36.3999 167.119C36.3569 167.388 36.1246 167.574 35.8665 167.574ZM148.026 174.391C147.738 174.391 147.497 174.161 147.484 173.866C147.441 172.969 147.376 172.059 147.295 171.167C147.265 170.868 147.484 170.599 147.781 170.573C148.082 170.543 148.344 170.764 148.375 171.067C148.461 171.977 148.525 172.9 148.568 173.814C148.581 174.118 148.349 174.373 148.052 174.386C148.043 174.391 148.035 174.391 148.026 174.391ZM35.0964 175.725C35.0921 175.725 35.0878 175.725 35.0835 175.725C34.7823 175.721 34.5457 175.47 34.55 175.166C34.5758 174.252 34.6189 173.325 34.6834 172.415C34.7049 172.111 34.963 171.886 35.2599 171.908C35.561 171.929 35.7847 172.189 35.7632 172.493C35.6987 173.385 35.6557 174.295 35.6385 175.192C35.6299 175.491 35.3889 175.725 35.0964 175.725ZM148.026 179.829C148.017 179.829 148.009 179.829 148 179.829C147.699 179.816 147.467 179.56 147.484 179.257C147.523 178.36 147.544 177.45 147.544 176.553C147.544 176.25 147.789 176.007 148.086 176.007C148.387 176.007 148.628 176.25 148.628 176.553C148.628 177.467 148.607 178.395 148.564 179.309C148.551 179.599 148.314 179.829 148.026 179.829ZM35.4793 183.907C35.2082 183.907 34.9716 183.703 34.9372 183.426C34.834 182.52 34.7436 181.593 34.6791 180.683C34.6576 180.379 34.8856 180.119 35.1824 180.098C35.4836 180.076 35.7417 180.301 35.7632 180.605C35.8234 181.497 35.9095 182.407 36.017 183.296C36.0515 183.595 35.8407 183.868 35.5438 183.902C35.5223 183.907 35.5008 183.907 35.4793 183.907ZM147.062 187.958C147.028 187.958 146.994 187.958 146.959 187.95C146.667 187.893 146.473 187.607 146.529 187.308C146.697 186.429 146.847 185.532 146.976 184.643C147.019 184.344 147.29 184.136 147.587 184.18C147.884 184.223 148.091 184.5 148.048 184.799C147.919 185.705 147.768 186.619 147.596 187.516C147.544 187.776 147.316 187.958 147.062 187.958ZM37.0194 191.945C36.7785 191.945 36.5591 191.785 36.4946 191.542C36.258 190.658 36.0386 189.757 35.845 188.864C35.7847 188.569 35.9697 188.279 36.2623 188.214C36.5548 188.149 36.843 188.335 36.9076 188.63C37.0969 189.505 37.312 190.389 37.54 191.26C37.6217 191.551 37.4496 191.85 37.1614 191.928C37.1098 191.941 37.0624 191.945 37.0194 191.945ZM144.95 195.867C144.89 195.867 144.83 195.858 144.769 195.836C144.485 195.737 144.339 195.425 144.438 195.139C144.731 194.294 145.006 193.427 145.26 192.565C145.346 192.279 145.647 192.11 145.931 192.196C146.219 192.283 146.383 192.586 146.301 192.877C146.043 193.752 145.759 194.636 145.462 195.498C145.38 195.724 145.174 195.867 144.95 195.867ZM39.691 199.671C39.4802 199.671 39.2823 199.55 39.192 199.342C38.8349 198.506 38.4907 197.648 38.1724 196.794C38.0648 196.508 38.2068 196.196 38.4864 196.088C38.7661 195.984 39.0801 196.122 39.1877 196.408C39.4974 197.245 39.8373 198.09 40.1901 198.909C40.3062 199.186 40.1815 199.507 39.9061 199.628C39.8373 199.658 39.7642 199.671 39.691 199.671ZM141.719 203.389C141.637 203.389 141.551 203.368 141.47 203.324C141.207 203.186 141.1 202.856 141.242 202.588C141.655 201.79 142.05 200.971 142.425 200.157C142.55 199.884 142.872 199.762 143.143 199.888C143.419 200.014 143.535 200.339 143.41 200.616C143.031 201.444 142.623 202.28 142.201 203.09C142.106 203.281 141.917 203.389 141.719 203.389ZM43.4424 206.934C43.2617 206.934 43.0811 206.843 42.9821 206.674C42.5046 205.894 42.04 205.092 41.6054 204.295C41.4592 204.031 41.5538 203.697 41.8162 203.554C42.0787 203.407 42.4099 203.502 42.5519 203.766C42.9821 204.551 43.4381 205.335 43.9028 206.098C44.0619 206.358 43.9802 206.691 43.7264 206.852C43.636 206.908 43.5414 206.934 43.4424 206.934ZM137.456 210.362C137.344 210.362 137.232 210.327 137.138 210.258C136.897 210.08 136.841 209.738 137.017 209.495C137.538 208.767 138.05 208.013 138.531 207.259C138.695 207.008 139.03 206.934 139.284 207.099C139.534 207.263 139.607 207.601 139.443 207.857C138.949 208.624 138.428 209.391 137.895 210.132C137.787 210.284 137.624 210.362 137.456 210.362ZM48.1876 213.577C48.0328 213.577 47.8822 213.512 47.7746 213.382C47.1896 212.68 46.6174 211.952 46.071 211.224C45.8903 210.986 45.9376 210.643 46.1743 210.461C46.4152 210.275 46.755 210.323 46.9357 210.565C47.4735 211.28 48.0371 211.991 48.6049 212.68C48.7985 212.914 48.7684 213.256 48.5361 213.451C48.4372 213.538 48.3124 213.577 48.1876 213.577ZM132.246 216.645C132.108 216.645 131.975 216.593 131.867 216.493C131.652 216.281 131.648 215.934 131.855 215.718C132.474 215.072 133.085 214.4 133.674 213.729C133.868 213.499 134.212 213.477 134.436 213.677C134.664 213.876 134.685 214.218 134.487 214.448C133.889 215.137 133.266 215.822 132.633 216.476C132.53 216.589 132.388 216.645 132.246 216.645ZM53.832 219.475C53.6986 219.475 53.5695 219.427 53.4663 219.332C52.7909 218.721 52.124 218.084 51.4744 217.442C51.2636 217.23 51.2593 216.883 51.4744 216.667C51.6809 216.454 52.0251 216.45 52.2402 216.667C52.8726 217.295 53.5308 217.919 54.1933 218.521C54.417 218.721 54.4343 219.067 54.2321 219.293C54.1245 219.414 53.9782 219.475 53.832 219.475ZM126.197 222.114C126.038 222.114 125.879 222.044 125.771 221.906C125.586 221.667 125.629 221.321 125.866 221.134C126.572 220.588 127.269 220.012 127.948 219.427C128.172 219.232 128.516 219.258 128.71 219.488C128.908 219.717 128.878 220.06 128.649 220.259C127.961 220.853 127.247 221.438 126.533 222.001C126.434 222.079 126.318 222.114 126.197 222.114ZM60.2507 224.497C60.1431 224.497 60.0399 224.471 59.9495 224.406C59.1924 223.899 58.4395 223.366 57.7081 222.82C57.4672 222.642 57.4156 222.296 57.592 222.053C57.7727 221.81 58.1125 221.763 58.3535 221.94C59.0676 222.473 59.8076 222.998 60.5518 223.496C60.8013 223.665 60.8659 224.003 60.6981 224.254C60.5948 224.415 60.4228 224.497 60.2507 224.497ZM119.443 226.659C119.254 226.659 119.069 226.56 118.97 226.382C118.824 226.118 118.914 225.784 119.176 225.637C119.946 225.195 120.721 224.727 121.474 224.246C121.727 224.085 122.063 224.159 122.222 224.415C122.381 224.67 122.308 225.008 122.054 225.169C121.289 225.658 120.497 226.135 119.71 226.586C119.624 226.633 119.533 226.659 119.443 226.659ZM67.319 228.544C67.2373 228.544 67.1598 228.527 67.0867 228.492C66.265 228.098 65.439 227.678 64.6388 227.244C64.3764 227.101 64.2774 226.772 64.4194 226.503C64.5614 226.239 64.8883 226.139 65.1507 226.282C65.938 226.707 66.7468 227.119 67.5513 227.504C67.8223 227.634 67.9342 227.959 67.8051 228.232C67.7148 228.432 67.5212 228.544 67.319 228.544ZM112.112 230.174C111.897 230.174 111.691 230.044 111.605 229.827C111.497 229.545 111.635 229.229 111.914 229.121C112.74 228.791 113.575 228.445 114.384 228.076C114.659 227.955 114.977 228.076 115.102 228.354C115.223 228.631 115.102 228.952 114.827 229.077C114.001 229.45 113.153 229.805 112.31 230.135C112.246 230.165 112.177 230.174 112.112 230.174ZM74.895 231.526C74.839 231.526 74.7874 231.517 74.7315 231.5C73.8625 231.231 72.9891 230.932 72.133 230.62C71.8491 230.52 71.7071 230.204 71.8061 229.922C71.9093 229.636 72.2191 229.489 72.503 229.593C73.3419 229.901 74.2023 230.191 75.0541 230.455C75.3381 230.546 75.5016 230.85 75.4112 231.14C75.3381 231.374 75.1273 231.526 74.895 231.526ZM104.347 232.592C104.102 232.592 103.878 232.418 103.818 232.167C103.753 231.872 103.934 231.578 104.227 231.513C105.096 231.309 105.969 231.084 106.825 230.841C107.113 230.759 107.414 230.928 107.496 231.214C107.578 231.504 107.41 231.807 107.122 231.89C106.249 232.141 105.358 232.371 104.472 232.574C104.429 232.587 104.39 232.592 104.347 232.592ZM82.8108 233.367C82.7807 233.367 82.7549 233.363 82.7248 233.359C81.8299 233.22 80.9222 233.055 80.0317 232.869C79.7391 232.813 79.5498 232.522 79.6101 232.223C79.6703 231.929 79.9585 231.738 80.2511 231.799C81.1244 231.981 82.0106 232.141 82.8925 232.28C83.1894 232.327 83.3916 232.609 83.3443 232.904C83.3055 233.177 83.0732 233.367 82.8108 233.367ZM96.3193 233.853C96.0397 233.853 95.8031 233.636 95.7816 233.35C95.7558 233.051 95.9795 232.787 96.2763 232.761C97.1669 232.687 98.066 232.587 98.9436 232.47C99.2448 232.436 99.5158 232.644 99.5545 232.943C99.5932 233.242 99.3824 233.519 99.0856 233.558C98.1864 233.675 97.2744 233.775 96.3667 233.853C96.3495 233.853 96.3365 233.853 96.3193 233.853ZM90.9073 234.043C90.903 234.043 90.903 234.043 90.8987 234.043C89.991 234.035 89.0703 234 88.1669 233.948C87.8657 233.931 87.6377 233.671 87.6549 233.372C87.6722 233.068 87.9303 232.839 88.2271 232.856C89.1177 232.912 90.0211 232.943 90.9116 232.951C91.2128 232.956 91.4494 233.203 91.4494 233.506C91.4451 233.805 91.2042 234.043 90.9073 234.043Z" fill="#00020A"/>
</g>
<path d="M259.575 164.09C259.287 164.09 259.05 163.861 259.033 163.57C259.02 163.267 259.248 163.011 259.549 162.998C260.448 162.951 261.364 162.92 262.272 162.903C262.569 162.899 262.819 163.141 262.823 163.44C262.827 163.744 262.591 163.991 262.289 163.999C261.395 164.012 260.491 164.043 259.601 164.09C259.592 164.09 259.583 164.09 259.575 164.09ZM270.407 164.268C270.39 164.268 270.377 164.264 270.36 164.264L270.106 164.246C269.298 164.177 268.48 164.125 267.671 164.086C267.375 164.073 267.146 163.813 267.159 163.514C267.172 163.211 267.43 162.981 267.727 162.994C268.545 163.037 269.375 163.089 270.188 163.154L270.45 163.176C270.752 163.202 270.971 163.466 270.945 163.765C270.919 164.051 270.683 164.268 270.407 164.268ZM251.487 164.909C251.22 164.909 250.992 164.719 250.953 164.446C250.906 164.147 251.108 163.869 251.405 163.826C252.3 163.687 253.212 163.562 254.111 163.458C254.408 163.419 254.679 163.635 254.713 163.934C254.748 164.233 254.537 164.506 254.236 164.541C253.35 164.649 252.451 164.771 251.569 164.905C251.543 164.909 251.513 164.909 251.487 164.909ZM278.465 165.343C278.431 165.343 278.396 165.338 278.362 165.334C277.489 165.174 276.59 165.022 275.712 164.888C275.411 164.844 275.209 164.567 275.252 164.268C275.295 163.969 275.574 163.761 275.867 163.809C276.766 163.943 277.669 164.095 278.56 164.259C278.857 164.311 279.05 164.597 278.994 164.896C278.951 165.161 278.719 165.343 278.465 165.343ZM243.524 166.552C243.283 166.552 243.059 166.387 242.999 166.14C242.921 165.85 243.098 165.551 243.39 165.473C244.264 165.247 245.159 165.031 246.04 164.836C246.333 164.771 246.626 164.953 246.69 165.252C246.755 165.542 246.57 165.837 246.277 165.902C245.404 166.097 244.526 166.309 243.657 166.534C243.61 166.543 243.567 166.552 243.524 166.552ZM286.377 167.223C286.325 167.223 286.274 167.215 286.226 167.202C285.366 166.95 284.488 166.712 283.623 166.491C283.335 166.417 283.159 166.118 283.232 165.828C283.305 165.533 283.602 165.356 283.89 165.434C284.768 165.655 285.658 165.897 286.523 166.153C286.816 166.235 286.979 166.539 286.893 166.829C286.824 167.067 286.609 167.223 286.377 167.223ZM235.78 168.987C235.556 168.987 235.35 168.848 235.268 168.627C235.165 168.346 235.311 168.034 235.591 167.93C236.438 167.613 237.303 167.31 238.159 167.024C238.443 166.929 238.753 167.085 238.843 167.371C238.938 167.657 238.783 167.964 238.499 168.06C237.656 168.341 236.804 168.64 235.965 168.952C235.905 168.978 235.84 168.987 235.78 168.987ZM294.056 169.901C293.987 169.901 293.923 169.884 293.854 169.858C293.028 169.524 292.18 169.195 291.341 168.887C291.057 168.783 290.916 168.471 291.019 168.185C291.118 167.904 291.427 167.756 291.711 167.86C292.563 168.172 293.424 168.506 294.258 168.844C294.538 168.957 294.671 169.277 294.559 169.559C294.478 169.767 294.271 169.901 294.056 169.901ZM228.307 172.198C228.109 172.198 227.916 172.085 227.821 171.89C227.692 171.622 227.804 171.292 228.071 171.162C228.888 170.764 229.714 170.374 230.54 170.001C230.815 169.875 231.134 170.001 231.254 170.274C231.379 170.551 231.254 170.876 230.983 170.998C230.166 171.362 229.348 171.752 228.548 172.142C228.471 172.181 228.389 172.198 228.307 172.198ZM301.443 173.346C301.361 173.346 301.275 173.329 301.193 173.286C300.397 172.865 299.589 172.454 298.784 172.059C298.513 171.929 298.401 171.6 298.53 171.327C298.659 171.058 298.986 170.946 299.257 171.076C300.075 171.474 300.896 171.89 301.697 172.319C301.963 172.458 302.062 172.787 301.925 173.056C301.83 173.242 301.641 173.346 301.443 173.346ZM221.196 176.15C221.015 176.15 220.835 176.059 220.731 175.89C220.576 175.634 220.654 175.296 220.908 175.14C221.678 174.659 222.465 174.187 223.252 173.732C223.51 173.585 223.842 173.671 223.992 173.936C224.143 174.196 224.048 174.529 223.79 174.681C223.016 175.127 222.237 175.595 221.48 176.068C221.39 176.124 221.295 176.15 221.196 176.15ZM308.446 177.528C308.343 177.528 308.24 177.502 308.145 177.437C307.401 176.943 306.635 176.449 305.874 175.977C305.62 175.816 305.538 175.483 305.697 175.223C305.852 174.967 306.188 174.885 306.442 175.045C307.216 175.522 307.99 176.02 308.748 176.527C308.997 176.692 309.066 177.03 308.898 177.285C308.795 177.441 308.623 177.528 308.446 177.528ZM214.506 180.8C214.343 180.8 214.179 180.726 214.072 180.583C213.891 180.345 213.938 180.002 214.175 179.82C214.893 179.266 215.629 178.711 216.369 178.182C216.61 178.009 216.95 178.065 217.122 178.308C217.298 178.555 217.242 178.897 216.997 179.071C216.27 179.599 215.543 180.137 214.833 180.687C214.734 180.765 214.618 180.8 214.506 180.8ZM314.994 182.394C314.874 182.394 314.749 182.355 314.65 182.273C313.957 181.701 313.243 181.133 312.538 180.587C312.297 180.405 312.25 180.063 312.435 179.82C312.615 179.582 312.955 179.534 313.196 179.721C313.914 180.275 314.633 180.847 315.334 181.428C315.566 181.614 315.601 181.961 315.412 182.195C315.304 182.329 315.149 182.394 314.994 182.394ZM208.303 186.099C208.161 186.099 208.014 186.043 207.907 185.926C207.705 185.705 207.713 185.358 207.933 185.155C208.595 184.531 209.275 183.911 209.955 183.309C210.183 183.105 210.522 183.131 210.72 183.356C210.918 183.586 210.897 183.928 210.669 184.128C209.998 184.721 209.326 185.337 208.673 185.952C208.569 186.047 208.436 186.099 208.303 186.099ZM321.021 187.898C320.884 187.898 320.746 187.846 320.639 187.737C320.006 187.1 319.357 186.463 318.703 185.848C318.483 185.644 318.47 185.298 318.677 185.077C318.879 184.856 319.223 184.843 319.443 185.051C320.105 185.675 320.763 186.316 321.404 186.966C321.619 187.178 321.619 187.525 321.404 187.737C321.301 187.846 321.159 187.898 321.021 187.898ZM202.658 191.997C202.533 191.997 202.404 191.954 202.301 191.863C202.077 191.663 202.052 191.317 202.25 191.091C202.848 190.402 203.458 189.718 204.078 189.046C204.284 188.829 204.624 188.816 204.844 189.02C205.063 189.228 205.076 189.575 204.87 189.796C204.263 190.454 203.656 191.13 203.067 191.811C202.959 191.932 202.809 191.997 202.658 191.997ZM326.477 193.977C326.317 193.977 326.162 193.908 326.055 193.774C325.487 193.076 324.902 192.378 324.317 191.702C324.119 191.477 324.14 191.13 324.368 190.931C324.592 190.732 324.936 190.753 325.13 190.983C325.728 191.668 326.322 192.378 326.894 193.08C327.083 193.314 327.049 193.661 326.816 193.852C326.717 193.934 326.597 193.977 326.477 193.977ZM197.625 198.436C197.513 198.436 197.405 198.406 197.306 198.337C197.066 198.163 197.005 197.821 197.182 197.574C197.707 196.829 198.253 196.083 198.799 195.355C198.98 195.117 199.32 195.069 199.561 195.251C199.797 195.433 199.84 195.776 199.66 196.018C199.122 196.733 198.584 197.47 198.064 198.207C197.96 198.358 197.793 198.436 197.625 198.436ZM331.299 200.568C331.123 200.568 330.951 200.482 330.843 200.321C330.353 199.572 329.841 198.822 329.32 198.09C329.148 197.843 329.204 197.5 329.449 197.327C329.69 197.149 330.03 197.21 330.202 197.453C330.727 198.194 331.248 198.961 331.751 199.719C331.914 199.97 331.846 200.308 331.596 200.477C331.506 200.538 331.402 200.568 331.299 200.568ZM193.25 205.357C193.159 205.357 193.069 205.331 192.983 205.283C192.725 205.136 192.634 204.802 192.781 204.538C193.228 203.745 193.697 202.943 194.17 202.167C194.325 201.907 194.661 201.829 194.915 201.985C195.173 202.146 195.25 202.479 195.095 202.735C194.626 203.506 194.166 204.295 193.723 205.079C193.624 205.257 193.439 205.357 193.25 205.357ZM335.442 207.61C335.248 207.61 335.059 207.502 334.965 207.32C334.547 206.522 334.113 205.721 333.67 204.941C333.519 204.681 333.609 204.347 333.872 204.195C334.13 204.048 334.465 204.139 334.612 204.399C335.059 205.192 335.498 206.002 335.924 206.808C336.062 207.073 335.958 207.406 335.696 207.545C335.614 207.588 335.528 207.61 335.442 207.61ZM189.593 212.684C189.52 212.684 189.447 212.671 189.373 212.641C189.102 212.52 188.978 212.195 189.098 211.917C189.464 211.081 189.851 210.24 190.242 209.413C190.376 209.144 190.698 209.027 190.969 209.161C191.236 209.291 191.352 209.616 191.219 209.889C190.832 210.704 190.453 211.536 190.092 212.359C190.002 212.567 189.804 212.684 189.593 212.684ZM338.867 215.029C338.651 215.029 338.449 214.903 338.363 214.686C338.028 213.859 337.675 213.018 337.313 212.195C337.193 211.922 337.313 211.597 337.589 211.475C337.864 211.35 338.182 211.475 338.303 211.753C338.673 212.585 339.03 213.434 339.37 214.279C339.482 214.556 339.348 214.877 339.069 214.99C339.004 215.016 338.935 215.029 338.867 215.029ZM186.693 220.341C186.637 220.341 186.581 220.333 186.525 220.311C186.242 220.22 186.087 219.912 186.177 219.622C186.457 218.755 186.758 217.88 187.068 217.022C187.166 216.74 187.481 216.593 187.76 216.697C188.04 216.801 188.186 217.113 188.087 217.395C187.782 218.244 187.485 219.106 187.209 219.96C187.136 220.194 186.926 220.341 186.693 220.341ZM341.53 222.755C341.297 222.755 341.082 222.599 341.013 222.361C340.759 221.498 340.493 220.632 340.217 219.778C340.123 219.492 340.278 219.184 340.562 219.089C340.845 218.994 341.151 219.15 341.246 219.436C341.525 220.302 341.801 221.182 342.05 222.057C342.136 222.343 341.973 222.647 341.684 222.733C341.633 222.746 341.581 222.755 341.53 222.755ZM184.577 228.25C184.538 228.25 184.499 228.245 184.46 228.237C184.168 228.172 183.983 227.881 184.047 227.587C184.237 226.694 184.448 225.793 184.667 224.909C184.74 224.618 185.037 224.436 185.325 224.51C185.618 224.588 185.794 224.883 185.721 225.177C185.502 226.048 185.295 226.937 185.106 227.821C185.05 228.076 184.826 228.25 184.577 228.25ZM343.414 230.724C343.156 230.724 342.928 230.542 342.88 230.278C342.717 229.394 342.54 228.497 342.347 227.617C342.282 227.322 342.467 227.032 342.76 226.967C343.052 226.902 343.341 227.088 343.405 227.383C343.599 228.276 343.784 229.181 343.947 230.078C344.003 230.377 343.805 230.663 343.513 230.715C343.478 230.72 343.448 230.724 343.414 230.724ZM183.256 236.331C183.234 236.331 183.213 236.331 183.191 236.327C182.894 236.292 182.679 236.024 182.714 235.725C182.817 234.815 182.938 233.9 183.071 232.995C183.114 232.696 183.389 232.492 183.686 232.535C183.979 232.579 184.185 232.856 184.142 233.155C184.013 234.048 183.893 234.953 183.794 235.846C183.759 236.123 183.527 236.331 183.256 236.331ZM344.489 238.845C344.205 238.845 343.973 238.628 343.947 238.342C343.874 237.445 343.788 236.535 343.685 235.642C343.646 235.343 343.861 235.075 344.158 235.04C344.455 235.001 344.726 235.218 344.76 235.517C344.864 236.422 344.954 237.341 345.027 238.255C345.053 238.554 344.829 238.819 344.532 238.845C344.519 238.845 344.502 238.845 344.489 238.845ZM182.731 244.508C182.727 244.508 182.727 244.508 182.722 244.508C182.421 244.504 182.185 244.257 182.189 243.954C182.202 243.039 182.232 242.116 182.275 241.202C182.288 240.903 182.542 240.669 182.843 240.686C183.14 240.699 183.372 240.955 183.359 241.258C183.316 242.155 183.286 243.07 183.273 243.971C183.269 244.27 183.028 244.508 182.731 244.508ZM344.747 247.035C344.743 247.035 344.743 247.035 344.739 247.035C344.438 247.03 344.201 246.779 344.205 246.476C344.214 245.99 344.218 245.496 344.218 245.011C344.218 244.595 344.218 244.179 344.21 243.763C344.205 243.464 344.442 243.213 344.743 243.208C345.044 243.204 345.29 243.447 345.294 243.746C345.298 244.166 345.302 244.591 345.302 245.011C345.302 245.501 345.298 246.003 345.29 246.497C345.285 246.796 345.044 247.035 344.747 247.035ZM183.015 252.698C182.735 252.698 182.499 252.482 182.477 252.196C182.4 251.29 182.335 250.367 182.288 249.453C182.275 249.149 182.503 248.894 182.8 248.881C183.101 248.863 183.355 249.097 183.372 249.396C183.419 250.298 183.48 251.208 183.557 252.105C183.583 252.404 183.359 252.672 183.062 252.694C183.045 252.694 183.032 252.698 183.015 252.698ZM344.201 255.212C344.18 255.212 344.158 255.207 344.137 255.207C343.84 255.173 343.629 254.9 343.663 254.601C343.767 253.708 343.857 252.798 343.93 251.897C343.956 251.598 344.218 251.372 344.519 251.398C344.816 251.424 345.036 251.689 345.01 251.992C344.937 252.902 344.842 253.821 344.739 254.726C344.709 255.004 344.472 255.212 344.201 255.212ZM184.116 260.815C183.858 260.815 183.63 260.633 183.583 260.368C183.415 259.471 183.26 258.561 183.122 257.656C183.075 257.361 183.282 257.079 183.574 257.036C183.871 256.988 184.151 257.192 184.194 257.491C184.331 258.379 184.482 259.281 184.65 260.165C184.701 260.464 184.512 260.75 184.215 260.806C184.181 260.81 184.146 260.815 184.116 260.815ZM342.855 263.289C342.816 263.289 342.777 263.285 342.738 263.276C342.446 263.211 342.261 262.916 342.325 262.626C342.515 261.746 342.695 260.849 342.859 259.965C342.915 259.666 343.194 259.471 343.491 259.528C343.788 259.584 343.977 259.866 343.926 260.165C343.758 261.062 343.577 261.967 343.384 262.86C343.328 263.116 343.104 263.289 342.855 263.289ZM186.022 268.779C185.79 268.779 185.57 268.623 185.502 268.385C185.248 267.51 184.998 266.621 184.774 265.737C184.697 265.447 184.873 265.148 185.162 265.07C185.45 264.992 185.747 265.17 185.824 265.46C186.048 266.335 186.289 267.211 186.543 268.077C186.629 268.368 186.465 268.671 186.177 268.758C186.125 268.771 186.074 268.779 186.022 268.779ZM340.712 271.189C340.652 271.189 340.596 271.184 340.54 271.163C340.256 271.067 340.101 270.76 340.196 270.474C340.471 269.616 340.742 268.745 340.992 267.882C341.073 267.592 341.375 267.423 341.663 267.51C341.951 267.596 342.115 267.9 342.033 268.186C341.779 269.065 341.508 269.949 341.224 270.816C341.151 271.046 340.94 271.189 340.712 271.189ZM188.711 276.497C188.5 276.497 188.298 276.367 188.208 276.155C187.868 275.314 187.536 274.452 187.222 273.598C187.119 273.316 187.261 273 187.541 272.896C187.825 272.792 188.134 272.939 188.238 273.221C188.547 274.062 188.874 274.911 189.214 275.743C189.326 276.02 189.193 276.341 188.917 276.458C188.849 276.484 188.78 276.497 188.711 276.497ZM337.782 278.841C337.709 278.841 337.636 278.828 337.563 278.794C337.288 278.672 337.167 278.347 337.288 278.074C337.653 277.247 338.006 276.406 338.346 275.57C338.458 275.288 338.772 275.154 339.047 275.266C339.327 275.379 339.46 275.7 339.348 275.977C339.008 276.826 338.647 277.68 338.277 278.516C338.191 278.72 337.989 278.841 337.782 278.841ZM192.161 283.907C191.968 283.907 191.778 283.803 191.679 283.617C191.258 282.811 190.84 281.987 190.44 281.173C190.311 280.9 190.423 280.57 190.69 280.44C190.961 280.306 191.284 280.419 191.417 280.692C191.808 281.498 192.217 282.312 192.639 283.105C192.781 283.37 192.677 283.703 192.415 283.842C192.333 283.885 192.247 283.907 192.161 283.907ZM334.1 286.16C334.009 286.16 333.919 286.139 333.833 286.087C333.575 285.939 333.485 285.606 333.631 285.346C334.078 284.557 334.517 283.76 334.93 282.958C335.072 282.694 335.399 282.59 335.666 282.733C335.928 282.871 336.031 283.205 335.889 283.469C335.468 284.28 335.025 285.09 334.573 285.883C334.474 286.061 334.289 286.16 334.1 286.16ZM196.326 290.936C196.154 290.936 195.981 290.853 195.874 290.693C195.375 289.935 194.876 289.159 194.398 288.383C194.243 288.128 194.321 287.79 194.575 287.629C194.828 287.469 195.164 287.551 195.323 287.807C195.792 288.57 196.283 289.337 196.777 290.086C196.945 290.338 196.876 290.676 196.627 290.845C196.536 290.905 196.429 290.936 196.326 290.936ZM329.712 293.063C329.604 293.063 329.492 293.033 329.393 292.964C329.152 292.786 329.096 292.448 329.269 292.201C329.789 291.469 330.305 290.715 330.8 289.961C330.964 289.714 331.303 289.644 331.549 289.809C331.802 289.978 331.867 290.316 331.704 290.567C331.2 291.33 330.68 292.093 330.15 292.838C330.047 292.985 329.879 293.063 329.712 293.063ZM201.17 297.514C201.015 297.514 200.86 297.444 200.752 297.314C200.176 296.608 199.604 295.884 199.053 295.161C198.872 294.922 198.915 294.58 199.156 294.398C199.393 294.212 199.733 294.255 199.914 294.498C200.456 295.208 201.023 295.928 201.587 296.621C201.781 296.855 201.746 297.197 201.514 297.392C201.415 297.475 201.294 297.514 201.17 297.514ZM324.657 299.49C324.528 299.49 324.399 299.442 324.3 299.351C324.072 299.152 324.05 298.809 324.248 298.58C324.837 297.904 325.427 297.206 325.99 296.508C326.184 296.279 326.524 296.244 326.756 296.435C326.988 296.625 327.019 296.972 326.829 297.202C326.257 297.908 325.659 298.614 325.061 299.299C324.954 299.425 324.807 299.49 324.657 299.49ZM206.642 303.576C206.504 303.576 206.367 303.52 206.259 303.416C205.618 302.77 204.977 302.107 204.358 301.444C204.151 301.223 204.164 300.876 204.379 300.673C204.598 300.465 204.943 300.473 205.145 300.694C205.76 301.349 206.392 302.007 207.025 302.64C207.24 302.852 207.24 303.199 207.029 303.411C206.922 303.52 206.784 303.576 206.642 303.576ZM318.991 305.366C318.845 305.366 318.703 305.309 318.595 305.192C318.389 304.971 318.402 304.625 318.621 304.421C319.275 303.806 319.929 303.173 320.561 302.536C320.772 302.324 321.116 302.324 321.327 302.54C321.538 302.753 321.538 303.099 321.327 303.312C320.682 303.953 320.023 304.599 319.357 305.218C319.258 305.318 319.124 305.366 318.991 305.366ZM212.686 309.058C212.566 309.058 212.45 309.019 212.347 308.936C211.645 308.356 210.94 307.762 210.256 307.164C210.032 306.965 210.006 306.618 210.204 306.393C210.402 306.163 210.742 306.141 210.97 306.341C211.641 306.93 212.338 307.519 213.031 308.087C213.263 308.278 213.297 308.62 213.112 308.854C213.005 308.988 212.846 309.058 212.686 309.058ZM312.774 310.648C312.611 310.648 312.452 310.57 312.344 310.431C312.163 310.193 312.207 309.851 312.447 309.664C313.157 309.118 313.871 308.555 314.56 307.987C314.796 307.797 315.136 307.831 315.326 308.065C315.515 308.299 315.48 308.642 315.248 308.837C314.543 309.409 313.824 309.981 313.101 310.535C313.007 310.609 312.891 310.648 312.774 310.648ZM219.251 313.902C219.148 313.902 219.045 313.872 218.955 313.816C218.197 313.313 217.436 312.789 216.696 312.26C216.451 312.087 216.395 311.744 216.567 311.497C216.739 311.25 217.079 311.194 217.324 311.367C218.051 311.887 218.804 312.403 219.548 312.901C219.802 313.066 219.871 313.404 219.703 313.655C219.6 313.82 219.428 313.902 219.251 313.902ZM306.072 315.276C305.891 315.276 305.71 315.181 305.611 315.012C305.452 314.756 305.534 314.422 305.788 314.262C306.549 313.79 307.315 313.3 308.059 312.806C308.305 312.637 308.644 312.706 308.808 312.962C308.971 313.213 308.903 313.551 308.653 313.716C307.9 314.219 307.126 314.717 306.356 315.194C306.265 315.25 306.166 315.276 306.072 315.276ZM226.268 318.062C226.182 318.062 226.096 318.041 226.019 318.002C225.21 317.577 224.401 317.135 223.614 316.684C223.351 316.533 223.261 316.203 223.407 315.939C223.553 315.679 223.889 315.584 224.147 315.731C224.926 316.177 225.726 316.615 226.518 317.031C226.784 317.17 226.888 317.503 226.75 317.768C226.651 317.958 226.462 318.062 226.268 318.062ZM298.943 319.202C298.745 319.202 298.552 319.089 298.457 318.894C298.328 318.621 298.436 318.296 298.707 318.162C299.511 317.772 300.32 317.36 301.107 316.944C301.374 316.801 301.701 316.905 301.843 317.174C301.98 317.438 301.877 317.772 301.615 317.911C300.815 318.335 299.997 318.751 299.18 319.146C299.102 319.185 299.025 319.202 298.943 319.202ZM233.668 321.49C233.599 321.49 233.534 321.477 233.465 321.447C232.622 321.109 231.775 320.753 230.94 320.381C230.665 320.259 230.544 319.939 230.665 319.661C230.785 319.388 231.104 319.263 231.379 319.384C232.201 319.748 233.035 320.099 233.87 320.433C234.145 320.545 234.283 320.862 234.171 321.143C234.085 321.36 233.883 321.49 233.668 321.49ZM291.466 322.391C291.247 322.391 291.04 322.253 290.959 322.032C290.855 321.746 291.002 321.434 291.281 321.33C292.12 321.022 292.963 320.697 293.789 320.359C294.065 320.246 294.383 320.381 294.495 320.662C294.607 320.944 294.473 321.26 294.194 321.373C293.359 321.711 292.503 322.045 291.651 322.357C291.591 322.378 291.531 322.391 291.466 322.391ZM241.36 324.138C241.312 324.138 241.261 324.129 241.209 324.116C240.34 323.865 239.458 323.596 238.598 323.314C238.314 323.223 238.159 322.916 238.249 322.625C238.34 322.339 238.649 322.183 238.933 322.274C239.781 322.552 240.646 322.82 241.51 323.067C241.799 323.15 241.962 323.453 241.88 323.743C241.812 323.982 241.596 324.138 241.36 324.138ZM283.705 324.805C283.464 324.805 283.241 324.64 283.18 324.393C283.107 324.099 283.284 323.804 283.572 323.726C284.437 323.505 285.314 323.267 286.17 323.015C286.459 322.933 286.76 323.098 286.841 323.388C286.927 323.678 286.76 323.982 286.471 324.064C285.602 324.32 284.716 324.562 283.839 324.788C283.796 324.801 283.748 324.805 283.705 324.805ZM249.276 325.992C249.241 325.992 249.211 325.992 249.177 325.984C248.29 325.823 247.387 325.641 246.501 325.451C246.208 325.39 246.023 325.095 246.088 324.805C246.148 324.51 246.436 324.32 246.729 324.385C247.602 324.571 248.493 324.749 249.375 324.909C249.667 324.961 249.865 325.247 249.809 325.542C249.762 325.806 249.534 325.992 249.276 325.992ZM275.733 326.417C275.471 326.417 275.243 326.222 275.2 325.953C275.157 325.654 275.363 325.373 275.656 325.329C276.542 325.199 277.437 325.048 278.315 324.883C278.607 324.831 278.891 325.026 278.943 325.325C278.999 325.624 278.805 325.906 278.508 325.962C277.618 326.127 276.714 326.278 275.815 326.413C275.789 326.417 275.764 326.417 275.733 326.417ZM257.338 327.045C257.325 327.045 257.308 327.041 257.295 327.041C256.391 326.972 255.479 326.881 254.576 326.781C254.279 326.746 254.068 326.473 254.098 326.174C254.133 325.875 254.404 325.659 254.701 325.693C255.587 325.793 256.486 325.88 257.376 325.953C257.678 325.975 257.901 326.239 257.876 326.543C257.854 326.824 257.617 327.045 257.338 327.045ZM267.65 327.214C267.362 327.214 267.116 326.985 267.103 326.69C267.091 326.391 267.323 326.135 267.62 326.122C268.515 326.079 269.418 326.023 270.309 325.949C270.605 325.923 270.868 326.148 270.894 326.447C270.919 326.751 270.696 327.015 270.395 327.037C269.495 327.11 268.575 327.171 267.671 327.214C267.663 327.214 267.654 327.214 267.65 327.214ZM262.225 327.288C262.221 327.288 262.221 327.288 262.216 327.288C261.313 327.271 260.392 327.236 259.489 327.188C259.188 327.171 258.96 326.915 258.977 326.612C258.99 326.313 259.248 326.083 259.545 326.096C260.44 326.144 261.343 326.174 262.238 326.196C262.539 326.2 262.776 326.452 262.767 326.751C262.763 327.05 262.522 327.288 262.225 327.288Z" fill="black"/>
<path d="M278.452 302.805V311.333L284.415 306.96L278.452 302.805Z" fill="#38B6FF"/>
<path d="M288.214 302.805V311.333L294.176 306.96L288.214 302.805Z" fill="#38B6FF"/>
<path d="M298.405 302.805V311.333L304.372 306.96L298.405 302.805Z" fill="#38B6FF"/>
<path d="M307.952 302.805V311.333L313.914 306.96L307.952 302.805Z" fill="#38B6FF"/>
<path d="M317.709 302.805V311.333L323.676 306.96L317.709 302.805Z" fill="#38B6FF"/>
<path d="M79.3605 85.1717H61.4036C59.0848 85.1717 57.2048 83.2737 57.2048 80.938V66.664C57.2048 64.3283 59.0848 62.4347 61.4036 62.4347H79.3605C81.6794 62.4347 83.5594 64.3283 83.5594 66.664V80.938C83.5594 83.2737 81.6794 85.1717 79.3605 85.1717Z" fill="#38B6FF"/>
<path d="M242.749 326.742H131.3C124.279 326.742 118.587 321.009 118.587 313.933V85.5183C118.587 78.442 124.279 72.709 131.3 72.709H242.749C249.766 72.709 255.458 78.442 255.458 85.5183V313.933C255.458 321.009 249.766 326.742 242.749 326.742Z" fill="#38B6FF"/>
<path d="M242.027 321.841H132.018C125.806 321.841 120.772 316.767 120.772 310.505V92.1483C120.772 85.8867 125.806 80.8123 132.018 80.8123H242.027C248.239 80.8123 253.277 85.8867 253.277 92.1483V310.505C253.277 316.767 248.239 321.841 242.027 321.841Z" fill="white" fill-opacity="0.68"/>
<path d="M129.536 73.255C123.797 73.255 119.129 77.961 119.129 83.746V315.709C119.129 321.494 123.797 326.196 129.536 326.196H244.509C250.248 326.196 254.916 321.494 254.916 315.709V83.746C254.916 77.961 250.248 73.255 244.509 73.255H129.536ZM244.509 327.292H129.536C123.203 327.292 118.045 322.097 118.045 315.709V83.746C118.045 77.3587 123.203 72.163 129.536 72.163H244.509C250.846 72.163 256 77.3587 256 83.746V315.709C256 322.097 250.846 327.292 244.509 327.292Z" fill="#1B2142"/>
<path d="M202.912 78.611H171.137C170.208 78.611 169.455 77.8527 169.455 76.9167C169.455 75.9807 170.208 75.2223 171.137 75.2223H202.912C203.841 75.2223 204.594 75.9807 204.594 76.9167C204.594 77.8527 203.841 78.611 202.912 78.611Z" fill="#1B2142"/>
<path d="M245.623 102.821H219.742C217.216 102.821 215.169 100.759 215.169 98.215V72.1283C215.169 69.5803 217.216 67.5177 219.742 67.5177H245.623C248.148 67.5177 250.201 69.5803 250.201 72.1283V98.215C250.201 100.759 248.148 102.821 245.623 102.821Z" fill="white"/>
<path d="M219.411 68.0636C217.371 68.0636 215.711 69.7363 215.711 71.7946V98.5443C215.711 100.603 217.371 102.275 219.411 102.275H245.954C247.994 102.275 249.654 100.603 249.654 98.5443V71.7946C249.654 69.7363 247.994 68.0636 245.954 68.0636H219.411ZM245.954 103.372H219.411C216.773 103.372 214.627 101.205 214.627 98.5443V71.7946C214.627 69.134 216.773 66.9716 219.411 66.9716H245.954C248.592 66.9716 250.738 69.134 250.738 71.7946V98.5443C250.738 101.205 248.592 103.372 245.954 103.372Z" fill="#1B2142"/>
<path d="M232.682 74.4033C226.793 74.4033 222 79.235 222 85.1673C222 91.1083 226.793 95.9357 232.682 95.9357C238.572 95.9357 243.365 91.1083 243.365 85.1673C243.365 79.235 238.572 74.4033 232.682 74.4033ZM232.682 97.032C226.195 97.032 220.912 91.7107 220.912 85.1673C220.912 78.6283 226.195 73.3113 232.682 73.3113C239.17 73.3113 244.449 78.6283 244.449 85.1673C244.449 91.7107 239.17 97.032 232.682 97.032Z" fill="#1B2142"/>
<path d="M232.687 79.157C229.396 79.157 226.715 81.8523 226.715 85.1673C226.715 88.4823 229.396 91.182 232.687 91.182C235.974 91.182 238.649 88.4823 238.649 85.1673C238.649 81.8523 235.974 79.157 232.687 79.157ZM232.687 92.274C228.793 92.274 225.636 89.089 225.636 85.1673C225.636 81.25 228.793 78.065 232.687 78.065C236.572 78.065 239.734 81.25 239.734 85.1673C239.734 89.089 236.572 92.274 232.687 92.274Z" fill="#1B2142"/>
<path d="M248.764 201.803H226.255C223.665 201.803 221.566 199.689 221.566 197.076V174.395C221.566 171.782 223.665 169.667 226.255 169.667H248.764C251.353 169.667 253.453 171.782 253.453 174.395V197.076C253.453 199.689 251.353 201.803 248.764 201.803Z" fill="white"/>
<path d="M225.812 170.213C223.769 170.213 222.108 171.886 222.108 173.944V197.526C222.108 199.58 223.769 201.257 225.812 201.257H249.207C251.25 201.257 252.911 199.58 252.911 197.526V173.944C252.911 171.886 251.25 170.213 249.207 170.213H225.812ZM249.207 202.349H225.812C223.171 202.349 221.024 200.187 221.024 197.526V173.944C221.024 171.284 223.171 169.121 225.812 169.121H249.207C251.848 169.121 253.995 171.284 253.995 173.944V197.526C253.995 200.187 251.848 202.349 249.207 202.349Z" fill="#1B2142"/>
<path d="M226.414 193.167H248.389V179.725H226.414V193.167ZM248.931 194.259H225.872C225.571 194.259 225.33 194.016 225.33 193.713V179.175C225.33 178.876 225.571 178.629 225.872 178.629H248.931C249.233 178.629 249.473 178.876 249.473 179.175V193.713C249.473 194.016 249.233 194.259 248.931 194.259Z" fill="#1B2142"/>
<path d="M227.748 179.725L236.567 185.254C237.049 185.558 237.647 185.562 238.133 185.259L247.039 179.725H227.748ZM237.35 186.58C236.881 186.58 236.412 186.446 235.991 186.186L225.563 179.643C225.36 179.513 225.261 179.261 225.33 179.027C225.395 178.793 225.61 178.629 225.851 178.629H248.949C249.194 178.629 249.405 178.793 249.474 179.027C249.538 179.261 249.443 179.513 249.237 179.643L238.701 186.19C238.284 186.45 237.819 186.58 237.35 186.58Z" fill="#1B2142"/>
<path d="M224.121 284.986H206.216C203.88 284.986 201.991 283.084 201.991 280.731V262.682C201.991 260.334 203.88 258.427 206.216 258.427H224.121C226.453 258.427 228.346 260.334 228.346 262.682V280.731C228.346 283.084 226.453 284.986 224.121 284.986Z" fill="white"/>
<path d="M206.233 258.973C204.194 258.973 202.533 260.646 202.533 262.704V280.709C202.533 282.767 204.194 284.44 206.233 284.44H224.1C226.139 284.44 227.804 282.767 227.804 280.709V262.704C227.804 260.646 226.139 258.973 224.1 258.973H206.233ZM224.1 285.532H206.233C203.596 285.532 201.445 283.37 201.445 280.709V262.704C201.445 260.043 203.596 257.881 206.233 257.881H224.1C226.741 257.881 228.888 260.043 228.888 262.704V280.709C228.888 283.37 226.741 285.532 224.1 285.532Z" fill="#1B2142"/>
<path d="M215.169 275.258C213.461 275.258 212.076 273.862 212.076 272.142C212.076 270.422 213.461 269.031 215.169 269.031C216.872 269.031 218.258 270.422 218.258 272.142C218.258 273.862 216.872 275.258 215.169 275.258ZM223.248 270.066H220.142L222.336 267.856L219.423 264.918L217.229 267.128V264H213.108V267.128L210.91 264.918L207.997 267.856L210.196 270.066H207.089V274.222H210.196L207.997 276.432L210.91 279.37L213.108 277.16V280.289H217.229V277.16L219.423 279.37L222.336 276.432L220.142 274.222H223.248V270.066Z" fill="#38B6FF"/>
<path d="M215.169 269.577C213.762 269.577 212.618 270.729 212.618 272.142C212.618 273.563 213.762 274.712 215.169 274.712C216.571 274.712 217.716 273.563 217.716 272.142C217.716 270.729 216.571 269.577 215.169 269.577ZM215.169 275.808C213.164 275.808 211.533 274.161 211.533 272.142C211.533 270.127 213.164 268.485 215.169 268.485C217.169 268.485 218.8 270.127 218.8 272.142C218.8 274.161 217.169 275.808 215.169 275.808ZM213.65 279.743H216.687V277.16C216.687 276.939 216.816 276.74 217.019 276.653C217.225 276.571 217.457 276.614 217.612 276.77L219.423 278.599L221.57 276.432L219.759 274.608C219.604 274.452 219.557 274.218 219.643 274.014C219.725 273.806 219.923 273.676 220.142 273.676H222.706V270.612H220.142C219.923 270.612 219.725 270.482 219.643 270.279C219.557 270.071 219.604 269.837 219.759 269.681L221.57 267.856L219.423 265.69L217.612 267.518C217.457 267.674 217.225 267.722 217.019 267.635C216.816 267.553 216.687 267.349 216.687 267.128V264.55H213.65V267.128C213.65 267.349 213.517 267.553 213.315 267.635C213.112 267.722 212.88 267.674 212.725 267.518L210.91 265.69L208.763 267.856L210.574 269.681C210.729 269.837 210.776 270.071 210.695 270.279C210.608 270.482 210.411 270.612 210.195 270.612H207.631V273.676H210.195C210.411 273.676 210.608 273.806 210.695 274.014C210.776 274.218 210.729 274.452 210.574 274.608L208.763 276.432L210.91 278.599L212.725 276.77C212.88 276.614 213.112 276.571 213.315 276.653C213.517 276.74 213.65 276.939 213.65 277.16V279.743ZM217.229 280.835H213.108C212.807 280.835 212.566 280.588 212.566 280.289V278.477L211.297 279.76C211.082 279.972 210.742 279.972 210.527 279.76L207.614 276.822C207.403 276.605 207.403 276.263 207.614 276.046L208.883 274.768H207.089C206.788 274.768 206.547 274.521 206.547 274.222V270.066C206.547 269.767 206.788 269.52 207.089 269.52H208.883L207.614 268.242C207.403 268.025 207.403 267.679 207.614 267.466L210.527 264.533C210.63 264.429 210.768 264.372 210.91 264.372C211.056 264.372 211.194 264.429 211.297 264.533L212.566 265.811V264C212.566 263.701 212.807 263.454 213.108 263.454H217.229C217.531 263.454 217.771 263.701 217.771 264V265.811L219.041 264.533C219.251 264.316 219.596 264.316 219.806 264.533L222.723 267.466C222.934 267.679 222.934 268.025 222.723 268.242L221.45 269.52H223.248C223.549 269.52 223.79 269.767 223.79 270.066V274.222C223.79 274.521 223.549 274.768 223.248 274.768H221.45L222.723 276.046C222.822 276.15 222.878 276.289 222.878 276.432C222.878 276.579 222.822 276.718 222.723 276.822L219.806 279.76C219.596 279.972 219.251 279.972 219.041 279.76L217.771 278.477V280.289C217.771 280.588 217.531 280.835 217.229 280.835Z" fill="#1B2142"/>
<path d="M269.082 161.139H247.8C245.92 161.139 244.397 159.605 244.397 157.712V136.257C244.397 134.364 245.92 132.83 247.8 132.83H269.082C270.962 132.83 272.485 134.364 272.485 136.257V157.712C272.485 159.605 270.962 161.139 269.082 161.139Z" fill="white"/>
<path d="M248.643 133.376C246.6 133.376 244.939 135.048 244.939 137.107V156.862C244.939 158.916 246.6 160.593 248.643 160.593H268.239C270.283 160.593 271.943 158.916 271.943 156.862V137.107C271.943 135.048 270.283 133.376 268.239 133.376H248.643ZM268.239 161.685H248.643C246.002 161.685 243.855 159.523 243.855 156.862V137.107C243.855 134.446 246.002 132.284 248.643 132.284H268.239C270.881 132.284 273.027 134.446 273.027 137.107V156.862C273.027 159.523 270.881 161.685 268.239 161.685Z" fill="#1B2142"/>
<path d="M252.089 141.137C250.773 141.137 249.702 142.216 249.702 143.546V149.483C249.702 150.618 250.502 151.61 251.599 151.84C251.853 151.892 252.033 152.117 252.033 152.373V155.229L255.187 152.052C255.29 151.948 255.428 151.888 255.57 151.888H264.681C266.002 151.888 267.073 150.809 267.073 149.483V143.546C267.073 142.216 266.002 141.137 264.681 141.137H252.089ZM251.491 157.096C251.418 157.096 251.349 157.083 251.285 157.053C251.078 156.971 250.949 156.771 250.949 156.546V152.789C249.572 152.308 248.613 150.978 248.613 149.483V143.546C248.613 141.613 250.175 140.045 252.089 140.045H264.681C266.6 140.045 268.157 141.613 268.157 143.546V149.483C268.157 151.411 266.6 152.984 264.681 152.984H255.793L251.874 156.936C251.771 157.04 251.633 157.096 251.491 157.096Z" fill="#1B2142"/>
<path d="M293.015 209.235H273.105C270.846 209.235 269.018 207.393 269.018 205.114V185.046C269.018 182.771 270.846 180.925 273.105 180.925H293.015C295.273 180.925 297.106 182.771 297.106 185.046V205.114C297.106 207.393 295.273 209.235 293.015 209.235Z" fill="white"/>
<path d="M273.26 181.471C271.216 181.471 269.556 183.148 269.556 185.202V204.958C269.556 207.016 271.216 208.689 273.26 208.689H292.86C294.903 208.689 296.564 207.016 296.564 204.958V185.202C296.564 183.148 294.903 181.471 292.86 181.471H273.26ZM292.86 209.785H273.26C270.623 209.785 268.471 207.619 268.471 204.958V185.202C268.471 182.542 270.623 180.379 273.26 180.379H292.86C295.501 180.379 297.648 182.542 297.648 185.202V204.958C297.648 207.619 295.501 209.785 292.86 209.785Z" fill="#1B2142"/>
<path d="M273.742 198.415H293.019C293.802 198.415 294.374 197.665 294.172 196.907C293.781 195.464 292.477 193.466 288.296 193.241C285.994 187.711 277.588 187.98 277.235 194.58C274.421 194.242 273.027 195.39 272.593 196.894C272.374 197.656 272.954 198.415 273.742 198.415Z" fill="white"/>
<path d="M276.297 195.069C274.606 195.069 273.488 195.754 273.113 197.045C273.057 197.24 273.096 197.44 273.217 197.604C273.341 197.773 273.535 197.869 273.742 197.869H293.019C293.221 197.869 293.411 197.773 293.535 197.609C293.66 197.448 293.699 197.245 293.647 197.05C293.277 195.672 292.038 193.99 288.27 193.787C288.059 193.774 287.878 193.644 287.796 193.453C286.635 190.658 283.804 189.583 281.614 189.965C279.347 190.363 277.91 192.097 277.777 194.61C277.768 194.757 277.699 194.9 277.583 194.996C277.467 195.095 277.321 195.139 277.17 195.121C276.865 195.087 276.572 195.069 276.297 195.069ZM293.019 198.961H273.742C273.191 198.961 272.683 198.705 272.352 198.259C272.021 197.821 271.922 197.266 272.072 196.738C272.339 195.823 273.316 193.787 276.744 193.986C277.14 190.775 279.382 189.245 281.425 188.89C282.845 188.643 284.342 188.886 285.654 189.57C286.979 190.264 288.012 191.347 288.657 192.716C293.041 193.063 294.318 195.386 294.693 196.764C294.835 197.288 294.727 197.838 294.4 198.272C294.065 198.709 293.561 198.961 293.019 198.961Z" fill="#1B2142"/>
<path d="M85.7964 138.511H67.3276C64.6689 138.511 62.5179 136.344 62.5179 133.666V115.046C62.5179 112.372 64.6689 110.201 67.3276 110.201H85.7964C88.4551 110.201 90.6062 112.372 90.6062 115.046V133.666C90.6062 136.344 88.4551 138.511 85.7964 138.511Z" fill="white"/>
<path d="M66.764 110.747C64.7205 110.747 63.0599 112.424 63.0599 114.478V134.234C63.0599 136.292 64.7205 137.965 66.764 137.965H86.3643C88.4035 137.965 90.0641 136.292 90.0641 134.234V114.478C90.0641 112.424 88.4035 110.747 86.3643 110.747H66.764ZM86.3643 139.057H66.764C64.1225 139.057 61.9758 136.894 61.9758 134.234V114.478C61.9758 111.822 64.1225 109.655 66.764 109.655H86.3643C89.0015 109.655 91.1482 111.822 91.1482 114.478V134.234C91.1482 136.894 89.0015 139.057 86.3643 139.057Z" fill="#1B2142"/>
<path d="M76.5642 123.764C74.8433 123.764 73.4495 122.36 73.4495 120.627C73.4495 118.898 74.8433 117.494 76.5642 117.494C78.2807 117.494 79.6746 118.898 79.6746 120.627C79.6746 122.36 78.2807 123.764 76.5642 123.764ZM76.5642 114.357C73.1225 114.357 70.3391 117.165 70.3391 120.627C70.3391 124.094 76.5642 134.468 76.5642 134.468C76.5642 134.468 82.785 124.094 82.785 120.627C82.785 117.165 80.0015 114.357 76.5642 114.357Z" fill="#0CC0DF"/>
<path d="M76.5642 118.04C75.1445 118.04 73.9915 119.201 73.9915 120.627C73.9915 122.057 75.1445 123.218 76.5642 123.218C77.9796 123.218 79.1325 122.057 79.1325 120.627C79.1325 119.201 77.9796 118.04 76.5642 118.04ZM76.5642 124.31C74.5465 124.31 72.9074 122.659 72.9074 120.627C72.9074 118.599 74.5465 116.944 76.5642 116.944C78.5775 116.944 80.2166 118.599 80.2166 120.627C80.2166 122.659 78.5775 124.31 76.5642 124.31ZM76.5642 114.903C73.428 114.903 70.8811 117.472 70.8811 120.627C70.8811 123.127 74.6282 130.078 76.5642 133.402C78.4958 130.078 82.2429 123.127 82.2429 120.627C82.2429 117.472 79.6961 114.903 76.5642 114.903ZM76.5642 135.014C76.3706 135.014 76.1985 134.914 76.0995 134.754C75.8414 134.32 69.797 124.206 69.797 120.627C69.797 116.87 72.83 113.811 76.5642 113.811C80.2941 113.811 83.3314 116.87 83.3314 120.627C83.3314 124.206 77.2826 134.32 77.0245 134.754C76.9299 134.914 76.7535 135.014 76.5642 135.014Z" fill="#1B2142"/>
<path d="M106.984 239.967V259.723C106.984 262.084 105.083 264 102.738 264H83.1378C80.7931 264 78.8959 262.084 78.8959 259.723V239.967C78.8959 237.605 80.7931 235.69 83.1378 235.69H102.738C105.083 235.69 106.984 237.605 106.984 239.967Z" fill="#38B6FF"/>
<path d="M83.1378 236.236C81.0986 236.236 79.438 237.909 79.438 239.967V259.723C79.438 261.781 81.0986 263.454 83.1378 263.454H102.738C104.782 263.454 106.442 261.781 106.442 259.723V239.967C106.442 237.909 104.782 236.236 102.738 236.236H83.1378ZM102.738 264.55H83.1378C80.5006 264.55 78.3495 262.383 78.3495 259.723V239.967C78.3495 237.306 80.5006 235.144 83.1378 235.144H102.738C105.38 235.144 107.526 237.306 107.526 239.967V259.723C107.526 262.383 105.38 264.55 102.738 264.55Z" fill="#1B2142"/>
<path d="M106.984 239.967V243.668H78.8959V239.967C78.8959 237.605 80.7931 235.69 83.1378 235.69H102.738C105.083 235.69 106.984 237.605 106.984 239.967Z" fill="white"/>
<path d="M79.438 243.122H106.442V239.967C106.442 237.909 104.782 236.236 102.738 236.236H83.1378C81.0986 236.236 79.438 237.909 79.438 239.967V243.122ZM106.984 244.214H78.8959C78.5948 244.214 78.3495 243.971 78.3495 243.668V239.967C78.3495 237.306 80.5006 235.144 83.1378 235.144H102.738C105.38 235.144 107.526 237.306 107.526 239.967V243.668C107.526 243.971 107.285 244.214 106.984 244.214Z" fill="#1B2142"/>
<path d="M85.4007 246.731C85.1038 246.731 84.8586 246.484 84.8586 246.181V241.154C84.8586 240.851 85.1038 240.608 85.4007 240.608C85.7018 240.608 85.9427 240.851 85.9427 241.154V246.181C85.9427 246.484 85.7018 246.731 85.4007 246.731Z" fill="#1B2142"/>
<path d="M100.152 246.731C99.8514 246.731 99.6104 246.484 99.6104 246.181V241.154C99.6104 240.851 99.8514 240.608 100.152 240.608C100.449 240.608 100.695 240.851 100.695 241.154V246.181C100.695 246.484 100.449 246.731 100.152 246.731Z" fill="#1B2142"/>
<path d="M125.896 103.753H106.399C104.029 103.753 102.101 101.812 102.101 99.4197V79.7723C102.101 77.3803 104.029 75.439 106.399 75.439H125.896C128.271 75.439 130.194 77.3803 130.194 79.7723V99.4197C130.194 101.812 128.271 103.753 125.896 103.753Z" fill="white"/>
<path d="M106.347 75.9893C104.308 75.9893 102.643 77.662 102.643 79.7203V99.476C102.643 101.534 104.308 103.207 106.347 103.207H125.948C127.991 103.207 129.652 101.534 129.652 99.476V79.7203C129.652 77.662 127.991 75.9893 125.948 75.9893H106.347ZM125.948 104.299H106.347C103.706 104.299 101.559 102.137 101.559 99.476V79.7203C101.559 77.0597 103.706 74.8973 106.347 74.8973H125.948C128.589 74.8973 130.736 77.0597 130.736 79.7203V99.476C130.736 102.137 128.589 104.299 125.948 104.299Z" fill="#1B2142"/>
<path d="M109.006 82.4373C108.038 82.4373 107.255 83.2303 107.255 84.2053C107.255 85.1803 108.038 85.9733 109.006 85.9733H124.825V82.4373H109.006ZM125.367 87.0653H109.006C107.44 87.0653 106.167 85.7827 106.167 84.2053C106.167 82.628 107.44 81.3453 109.006 81.3453H125.367C125.668 81.3453 125.909 81.588 125.909 81.8913V86.5193C125.909 86.8227 125.668 87.0653 125.367 87.0653Z" fill="#1B2142"/>
<path d="M109.006 87.6547C108.038 87.6547 107.255 88.4477 107.255 89.4227C107.255 90.3933 108.038 91.1863 109.006 91.1863H124.825V87.6547H109.006ZM125.367 92.2827H109.006C107.445 92.2827 106.171 91 106.171 89.4227C106.171 87.8453 107.445 86.5627 109.006 86.5627H125.367C125.668 86.5627 125.909 86.8053 125.909 87.1087V91.7323C125.909 92.0357 125.668 92.2827 125.367 92.2827Z" fill="#1B2142"/>
<path d="M109.006 92.6727C108.038 92.6727 107.255 93.47 107.255 94.445C107.255 95.4156 108.038 96.2086 109.006 96.2086H124.825V92.6727H109.006ZM125.367 97.3006H109.006C107.445 97.3006 106.171 96.018 106.171 94.445C106.171 92.8633 107.445 91.5807 109.006 91.5807H125.367C125.668 91.5807 125.909 91.8277 125.909 92.1267V96.7546C125.909 97.058 125.668 97.3006 125.367 97.3006Z" fill="#1B2142"/>
<mask id="mask1_687_19" style="mask-type:luminance" maskUnits="userSpaceOnUse" x="251" y="19" width="100" height="57">
<path d="M251.104 19.968H350.908V75.4347H251.104V19.968Z" fill="white"/>
</mask>
<g mask="url(#mask1_687_19)">
<path d="M345.105 20.4577H280.668C277.764 20.4577 275.415 22.828 275.415 25.753V42.2283L251.99 64.2937L275.415 55.003V69.7103C275.415 72.6353 277.764 75.0057 280.668 75.0057H345.105C348.004 75.0057 350.357 72.6353 350.357 69.7103V25.753C350.357 22.828 348.004 20.4577 345.105 20.4577Z" fill="white"/>
</g>
<mask id="mask2_687_19" style="mask-type:luminance" maskUnits="userSpaceOnUse" x="251" y="19" width="100" height="57">
<path d="M251.336 19.7687H350.899V75.7033H251.336V19.7687Z" fill="white"/>
</mask>
<g mask="url(#mask2_687_19)">
<path d="M275.411 54.457C275.518 54.457 275.63 54.4873 275.721 54.5523C275.867 54.652 275.957 54.821 275.957 55.003V69.7103C275.957 72.3277 278.069 74.4597 280.664 74.4597H345.105C347.703 74.4597 349.815 72.3277 349.815 69.7103V25.753C349.815 23.1357 347.703 21.0037 345.105 21.0037H280.664C278.069 21.0037 275.957 23.1357 275.957 25.753V42.2283C275.957 42.38 275.893 42.5273 275.785 42.6313L254.438 62.7337L275.213 54.496C275.277 54.47 275.346 54.457 275.411 54.457ZM345.105 75.5517H280.664C277.471 75.5517 274.873 72.93 274.873 69.7103V55.8047L252.184 64.8007C251.943 64.896 251.668 64.805 251.53 64.584C251.388 64.363 251.427 64.0727 251.62 63.8907L274.873 41.9943V25.753C274.873 22.5333 277.471 19.9117 280.664 19.9117H345.105C348.297 19.9117 350.895 22.5333 350.895 25.753V69.7103C350.895 72.93 348.297 75.5517 345.105 75.5517Z" fill="#1B2142"/>
</g>
<path d="M281.812 58.5C281.761 58.5 281.713 58.4913 281.662 58.474C281.373 58.3917 281.21 58.0883 281.292 57.798C281.378 57.5077 283.434 50.622 289.651 48.204C294.129 46.4663 299.541 47.528 305.74 51.363C313.217 55.991 320.415 56.706 326.558 53.4257C334.061 49.4217 338.862 39.988 339.404 28.1927C339.417 27.8937 339.671 27.6597 339.972 27.6727C340.269 27.69 340.501 27.9413 340.484 28.2447C340.213 34.1987 338.832 39.754 336.496 44.3083C334.156 48.8583 330.895 52.3467 327.066 54.392C323.951 56.056 320.54 56.7537 316.926 56.4633C313.106 56.16 309.152 54.7603 305.173 52.2947C299.279 48.646 294.185 47.6147 290.038 49.2267C284.32 51.4497 282.354 58.0363 282.333 58.1057C282.264 58.344 282.049 58.5 281.812 58.5Z" fill="#1B2142"/>
<path d="M283.008 58.825C283.008 59.67 282.329 60.3547 281.49 60.3547C280.651 60.3547 279.971 59.67 279.971 58.825C279.971 57.98 280.651 57.2953 281.49 57.2953C282.329 57.2953 283.008 57.98 283.008 58.825Z" fill="#1B2142"/>
<path d="M304.261 50.4097C304.261 51.2547 303.581 51.9393 302.742 51.9393C301.903 51.9393 301.228 51.2547 301.228 50.4097C301.228 49.5647 301.903 48.88 302.742 48.88C303.581 48.88 304.261 49.5647 304.261 50.4097Z" fill="#1B2142"/>
<path d="M333.652 49.205C333.652 50.05 332.973 50.739 332.138 50.739C331.295 50.739 330.619 50.05 330.619 49.205C330.619 48.36 331.295 47.6753 332.138 47.6753C332.973 47.6753 333.652 48.36 333.652 49.205Z" fill="#1B2142"/>
<path d="M341.465 28.4353C341.465 29.2847 340.781 29.9693 339.942 29.9693C339.107 29.9693 338.428 29.2847 338.428 28.4353C338.428 27.5947 339.107 26.9057 339.942 26.9057C340.781 26.9057 341.465 27.5947 341.465 28.4353Z" fill="#1B2142"/>
<path d="M327.582 28.9813H283.008C282.707 28.9813 282.466 28.7387 282.466 28.4353C282.466 28.1363 282.707 27.8893 283.008 27.8893H327.582C327.883 27.8893 328.124 28.1363 328.124 28.4353C328.124 28.7387 327.883 28.9813 327.582 28.9813Z" fill="#1B2142"/>
<path d="M327.582 35.542H309.251C308.954 35.542 308.709 35.2993 308.709 34.996C308.709 34.697 308.954 34.45 309.251 34.45H327.582C327.879 34.45 328.124 34.697 328.124 34.996C328.124 35.2993 327.879 35.542 327.582 35.542Z" fill="#1B2142"/>
<path d="M173.572 10.309H118.264C114.612 10.309 111.648 13.2947 111.648 16.978V44.5207C111.648 48.0567 114.379 50.947 117.83 51.1723V66.4907L124.227 51.1897H173.572C177.229 51.1897 180.193 48.204 180.193 44.5207V16.978C180.193 13.2947 177.229 10.309 173.572 10.309Z" fill="white"/>
<mask id="mask3_687_19" style="mask-type:luminance" maskUnits="userSpaceOnUse" x="110" y="9" width="72" height="59">
<path d="M110.133 9.763H181.72V67.6693H110.133V9.763Z" fill="white"/>
</mask>
<g mask="url(#mask3_687_19)">
<path d="M118.264 10.855C114.913 10.855 112.19 13.6023 112.19 16.978V44.5207C112.19 47.736 114.681 50.4183 117.864 50.6307C118.148 50.648 118.372 50.8863 118.372 51.1767V63.791L123.728 50.9773C123.81 50.7737 124.008 50.6437 124.227 50.6437H173.572C176.923 50.6437 179.646 47.8963 179.646 44.5207V16.978C179.646 13.6023 176.923 10.855 173.572 10.855H118.264ZM117.83 67.041C117.795 67.041 117.757 67.0367 117.722 67.0323C117.468 66.9803 117.288 66.755 117.288 66.495V51.6707C113.781 51.1853 111.106 48.139 111.106 44.5207V16.978C111.106 13 114.315 9.763 118.264 9.763H173.572C177.521 9.763 180.731 13 180.731 16.978V44.5207C180.731 48.4987 177.521 51.7357 173.572 51.7357H124.588L118.329 66.7073C118.243 66.911 118.045 67.041 117.83 67.041Z" fill="#1B2142"/>
</g>
<path d="M123.577 44.85C121.362 44.85 119.564 43.0387 119.564 40.8027V21.4587C119.564 19.2227 121.362 17.4113 123.577 17.4113C125.793 17.4113 127.591 19.2227 127.591 21.4587V40.8027C127.591 43.0387 125.793 44.85 123.577 44.85Z" fill="#38B6FF"/>
<path d="M137.895 44.85C135.675 44.85 133.881 43.043 133.881 40.807V25.831C133.881 23.5993 135.675 21.788 137.895 21.788C140.11 21.788 141.904 23.5993 141.904 25.831V40.807C141.904 43.043 140.11 44.85 137.895 44.85Z" fill="#38B6FF"/>
<path d="M152.208 44.85C149.992 44.85 148.198 43.0387 148.198 40.8027V30.966C148.198 28.7343 149.992 26.923 152.208 26.923C154.428 26.923 156.222 28.7343 156.222 30.966V40.8027C156.222 43.0387 154.428 44.85 152.208 44.85Z" fill="#38B6FF"/>
<path d="M166.525 44.85C164.309 44.85 162.511 43.0387 162.511 40.8027V21.4587C162.511 19.2227 164.309 17.4113 166.525 17.4113C168.741 17.4113 170.539 19.2227 170.539 21.4587V40.8027C170.539 43.0387 168.741 44.85 166.525 44.85Z" fill="#38B6FF"/>
<path d="M312.723 230.239H263.576L243.636 207.393L253.234 230.239H253.182C249.585 230.239 246.673 233.177 246.673 236.799V271.34C246.673 274.963 249.585 277.897 253.182 277.897H312.723C316.315 277.897 319.228 274.963 319.228 271.34V236.799C319.228 233.177 316.315 230.239 312.723 230.239Z" fill="white"/>
<path d="M253.178 230.785C249.891 230.785 247.215 233.484 247.215 236.799V271.34C247.215 274.655 249.891 277.351 253.178 277.351H312.723C316.014 277.351 318.69 274.655 318.69 271.34V236.799C318.69 233.484 316.014 230.785 312.723 230.785H263.576C263.421 230.785 263.27 230.72 263.167 230.603L245.442 210.288L253.737 230.026C253.806 230.195 253.789 230.39 253.69 230.542C253.586 230.694 253.414 230.785 253.234 230.785H253.178ZM312.723 278.447H253.178C249.293 278.447 246.131 275.258 246.131 271.34V236.799C246.131 233.133 248.897 230.109 252.433 229.732L243.137 207.606C243.033 207.359 243.124 207.073 243.347 206.93C243.575 206.787 243.868 206.834 244.044 207.034L263.821 229.693H312.723C316.612 229.693 319.774 232.882 319.774 236.799V271.34C319.774 275.258 316.612 278.447 312.723 278.447Z" fill="#1B2142"/>
<path d="M253.797 265.984H313.222C313.803 265.984 314.233 265.443 314.112 264.871L308.649 239.703C308.558 239.282 308.188 238.983 307.762 238.983H304.54C304.123 238.983 303.757 239.269 303.658 239.677L301.963 246.506C301.813 247.108 301.124 247.39 300.599 247.061L297.842 245.323C297.528 245.124 297.128 245.137 296.827 245.358L287.366 252.256C287.211 252.369 287.026 252.43 286.837 252.43H282.69C282.41 252.43 282.148 252.3 281.976 252.079L277.084 245.765C276.921 245.557 276.671 245.427 276.405 245.414L272.232 245.241C271.862 245.228 271.522 245.44 271.367 245.778L266.802 255.987C266.527 256.611 265.692 256.715 265.271 256.182L260.169 249.778C259.721 249.219 258.839 249.37 258.603 250.046L255.901 257.76C255.897 257.777 255.888 257.794 255.884 257.812L252.963 264.706C252.704 265.313 253.148 265.984 253.797 265.984Z" fill="#38B6FF"/>
<path d="M294.284 249.916C294.284 251.788 292.684 253.305 290.705 253.305C288.73 253.305 287.125 251.788 287.125 249.916C287.125 248.044 288.73 246.528 290.705 246.528C292.684 246.528 294.284 248.044 294.284 249.916Z" fill="white"/>
<path d="M290.705 247.074C289.031 247.074 287.667 248.348 287.667 249.916C287.667 251.481 289.031 252.755 290.705 252.755C292.378 252.755 293.742 251.481 293.742 249.916C293.742 248.348 292.378 247.074 290.705 247.074ZM290.705 253.851C288.433 253.851 286.583 252.087 286.583 249.916C286.583 247.745 288.433 245.982 290.705 245.982C292.98 245.982 294.826 247.745 294.826 249.916C294.826 252.087 292.98 253.851 290.705 253.851Z" fill="#1B2142"/>
<path d="M209.576 344.998L210.118 364.347H196.777L192.548 343.36L209.576 344.998Z" fill="#B78876"/>
<path d="M197.22 363.801H209.563L209.047 345.497L193.228 343.976L197.22 363.801ZM210.118 364.893H196.777C196.519 364.893 196.3 364.711 196.248 364.455L192.019 343.469C191.985 343.3 192.032 343.122 192.144 342.996C192.26 342.866 192.428 342.801 192.6 342.814L209.628 344.452C209.899 344.483 210.109 344.708 210.118 344.985L210.66 364.334C210.664 364.481 210.609 364.624 210.51 364.728C210.406 364.836 210.264 364.893 210.118 364.893Z" fill="#1B2142"/>
<path d="M211.31 362.709C211.31 362.709 208.819 358.991 204.263 358.774C200.49 358.592 197.164 361.556 196.132 362.583C195.908 362.804 195.732 363.064 195.607 363.354C194.958 364.854 193.065 369.906 195.913 372.216L212.179 371.999C212.179 371.999 213.917 367.298 211.31 362.709Z" fill="#455A64"/>
<path d="M203.932 359.311C200.473 359.311 197.392 362.098 196.515 362.973C196.338 363.146 196.201 363.35 196.106 363.571C195.508 364.949 193.779 369.542 196.106 371.67L211.779 371.458C212.097 370.318 212.88 366.6 210.854 362.999C210.677 362.752 208.315 359.515 204.237 359.32C204.134 359.311 204.035 359.311 203.932 359.311ZM195.913 372.762C195.788 372.762 195.667 372.719 195.573 372.641C192.428 370.088 194.424 364.719 195.112 363.138C195.263 362.782 195.478 362.466 195.753 362.193C197.014 360.941 200.378 358.037 204.289 358.228C209.06 358.453 211.654 362.241 211.761 362.401C211.77 362.414 211.774 362.423 211.783 362.436C214.48 367.194 212.76 371.986 212.686 372.19C212.609 372.402 212.411 372.541 212.187 372.545L195.917 372.762H195.913Z" fill="#1B2142"/>
<mask id="mask4_687_19" style="mask-type:luminance" maskUnits="userSpaceOnUse" x="194" y="370" width="20" height="5">
<path d="M194.045 370.964H213.904V374.179H194.045V370.964Z" fill="white"/>
</mask>
<g mask="url(#mask4_687_19)">
<path d="M195.749 374.183H212.235C213.099 374.183 213.805 373.477 213.805 372.602C213.805 371.726 213.099 371.016 212.235 371.016H195.749C194.88 371.016 194.175 371.726 194.175 372.602C194.175 373.477 194.88 374.183 195.749 374.183Z" fill="#E0E0E0"/>
</g>
<path d="M134.961 344.998L134.419 364.347H147.759L151.988 343.36L134.961 344.998Z" fill="#B78876"/>
<path d="M134.974 363.801H147.316L151.309 343.976L135.49 345.497L134.974 363.801ZM147.759 364.893H134.419C134.272 364.893 134.13 364.836 134.027 364.728C133.928 364.624 133.872 364.481 133.877 364.334L134.419 344.985C134.427 344.708 134.634 344.483 134.909 344.452L151.937 342.814C152.104 342.801 152.277 342.866 152.388 342.996C152.505 343.122 152.552 343.3 152.517 343.469L148.289 364.455C148.237 364.711 148.013 364.893 147.759 364.893Z" fill="#1B2142"/>
<path d="M133.223 362.709C133.223 362.709 135.718 358.991 140.274 358.774C144.047 358.592 147.372 361.556 148.405 362.583C148.624 362.804 148.805 363.064 148.93 363.354C149.579 364.854 151.468 369.906 148.624 372.216L132.358 371.999C132.358 371.999 130.62 367.298 133.223 362.709Z" fill="#455A64"/>
<path d="M132.758 371.458L148.426 371.67C150.758 369.542 149.028 364.949 148.43 363.571C148.336 363.35 148.198 363.146 148.022 362.973C147.118 362.072 143.879 359.147 140.3 359.32C136.221 359.515 133.859 362.752 133.683 362.999C131.652 366.6 132.44 370.318 132.758 371.458ZM148.624 372.762C148.624 372.762 148.62 372.762 148.615 372.762L132.349 372.545C132.126 372.541 131.928 372.402 131.85 372.19C131.773 371.986 130.056 367.194 132.754 362.436C132.762 362.423 132.767 362.414 132.775 362.401C132.883 362.241 135.477 358.453 140.248 358.228C144.159 358.037 147.523 360.936 148.783 362.193C149.059 362.466 149.274 362.782 149.424 363.138C150.113 364.719 152.109 370.088 148.964 372.645C148.869 372.719 148.749 372.762 148.624 372.762Z" fill="black"/>
<mask id="mask5_687_19" style="mask-type:luminance" maskUnits="userSpaceOnUse" x="130" y="370" width="21" height="5">
<path d="M130.573 370.964H150.431V374.179H130.573V370.964Z" fill="white"/>
</mask>
<g mask="url(#mask5_687_19)">
<path d="M148.788 374.183H132.302C131.433 374.183 130.732 373.477 130.732 372.602C130.732 371.726 131.433 371.016 132.302 371.016H148.788C149.657 371.016 150.362 371.726 150.362 372.602C150.362 373.477 149.657 374.183 148.788 374.183Z" fill="#E0E0E0"/>
</g>
<path d="M212.286 183.768L218.739 201.812C219.294 203.368 219.299 205.066 218.752 206.626C216.584 212.793 209.8 228.354 195.693 231.318L190.922 222.898L203.179 205.63L193.959 187.703L212.286 183.768Z" fill="#B78876"/>
<path d="M191.568 222.933L195.969 230.698C209.456 227.608 216.029 212.736 218.24 206.44C218.744 205.01 218.739 203.433 218.228 201.998L211.938 184.401L194.768 188.088L203.661 205.378C203.755 205.56 203.738 205.777 203.618 205.946L191.568 222.933ZM195.693 231.864C195.504 231.864 195.323 231.76 195.224 231.586L190.453 223.171C190.346 222.985 190.359 222.755 190.483 222.582L202.542 205.586L193.478 187.954C193.4 187.802 193.396 187.625 193.469 187.469C193.542 187.313 193.68 187.204 193.848 187.17L212.174 183.235C212.441 183.174 212.708 183.326 212.798 183.582L219.247 201.626C219.845 203.298 219.849 205.136 219.264 206.808C216.967 213.334 210.092 228.848 195.805 231.851C195.766 231.859 195.732 231.864 195.693 231.864Z" fill="#1B2142"/>
<path d="M180.619 135.668L182.464 156L161.965 153.816V139.169L180.619 135.668Z" fill="#B78876"/>
<path d="M162.507 153.326L181.862 155.389L180.133 136.318L162.507 139.624V153.326ZM182.464 156.546C182.443 156.546 182.426 156.546 182.404 156.546L161.909 154.362C161.634 154.332 161.423 154.098 161.423 153.816V139.169C161.423 138.905 161.608 138.68 161.866 138.632L180.52 135.135C180.67 135.105 180.825 135.144 180.946 135.235C181.07 135.326 181.144 135.469 181.161 135.62L183.002 155.952C183.019 156.117 182.959 156.277 182.843 156.394C182.74 156.494 182.606 156.546 182.464 156.546Z" fill="#1B2142"/>
<path d="M141.9 149.223L133.769 144.742L125.741 118.937C125.389 117.81 125.427 116.597 125.849 115.492L127.393 111.445C127.712 110.608 127.561 109.664 126.997 108.97L122.377 103.315L118.423 89.4963C118.148 88.5473 117.176 87.9883 116.225 88.2353C115.296 88.478 114.715 89.4053 114.9 90.3587L116.414 98.176C116.414 98.176 113.596 96.7547 112.835 99.489C111.531 100.252 110.232 99.814 110.774 103.315C108.499 104.407 108.606 105.829 109.041 107.904C109.419 109.72 110.714 115.808 112.409 119.57C112.887 120.631 113.196 121.758 113.3 122.915C113.975 130.286 116.617 147.905 117.58 154.236C117.804 155.718 118.587 157.057 119.77 157.972L132.465 167.808L141.9 149.223Z" fill="#B78876"/>
<path d="M114.866 98.3537C114.638 98.3537 114.41 98.3883 114.199 98.4837C113.799 98.6657 113.523 99.0427 113.356 99.6363C113.317 99.7707 113.231 99.892 113.106 99.9613C112.805 100.139 112.512 100.256 112.25 100.36C111.381 100.707 110.946 100.88 111.308 103.229C111.347 103.471 111.222 103.705 111.007 103.809C109.14 104.706 109.135 105.712 109.57 107.792C110.908 114.205 112.121 117.611 112.904 119.344C113.416 120.484 113.73 121.667 113.842 122.863C114.509 130.13 117.051 147.164 118.114 154.154C118.32 155.506 119.026 156.706 120.101 157.538L132.28 166.976L141.177 149.448L133.507 145.223C133.382 145.158 133.291 145.041 133.248 144.907L125.221 119.102C124.838 117.862 124.881 116.51 125.341 115.297L126.886 111.25C127.135 110.6 127.015 109.859 126.576 109.317L121.96 103.662C121.912 103.606 121.878 103.536 121.856 103.467L117.899 89.6523C117.709 88.9807 117.03 88.595 116.358 88.7683C115.709 88.9373 115.3 89.5873 115.429 90.2547L116.948 98.072C116.987 98.2757 116.905 98.488 116.741 98.6137C116.578 98.7393 116.354 98.761 116.169 98.6657C116.165 98.6613 115.532 98.3537 114.866 98.3537ZM132.465 168.354C132.345 168.354 132.229 168.315 132.134 168.242L119.439 158.405C118.139 157.4 117.292 155.948 117.042 154.319C115.976 147.32 113.429 130.26 112.762 122.967C112.663 121.888 112.379 120.822 111.914 119.799C110.761 117.243 109.583 113.169 108.507 108.017C108.077 105.95 107.931 104.251 110.185 103.003C109.854 100.364 110.671 99.814 111.85 99.3417C112.026 99.2767 112.207 99.203 112.383 99.1163C112.654 98.319 113.115 97.773 113.764 97.4827C114.427 97.188 115.145 97.2357 115.705 97.3613L114.367 90.4627C114.126 89.232 114.883 88.023 116.087 87.7067C117.335 87.386 118.587 88.1053 118.944 89.349L122.867 103.055L127.415 108.624C128.103 109.469 128.288 110.626 127.901 111.644L126.356 115.691C125.978 116.675 125.943 117.771 126.258 118.777L134.221 144.369L142.162 148.746C142.42 148.889 142.515 149.21 142.382 149.474L132.947 168.055C132.874 168.203 132.741 168.307 132.586 168.341C132.543 168.35 132.504 168.354 132.465 168.354Z" fill="#1B2142"/>
<path d="M217.698 193.657C215.182 195.572 207.472 200.729 197.324 200.82C196.562 210.656 195.044 214.591 195.044 214.591L153.288 215.029C150.47 202.895 149.059 190.433 148.082 178.191C148.082 178.191 134.186 173.671 127.148 168.142C125.827 167.106 125.302 165.347 125.827 163.744C129.291 153.149 135.834 148.577 138.351 147.238C138.734 147.034 139.172 146.969 139.594 147.052L157.409 150.536L183.402 151.862C191.602 152.217 199.131 156.529 203.656 163.432C208.763 171.232 216.378 181.328 218.387 191.845C218.52 192.53 218.253 193.236 217.698 193.657Z" fill="#0CC0DF"/>
<path d="M139.233 147.563C139.013 147.563 138.798 147.615 138.605 147.719C136.626 148.776 129.889 153.066 126.344 163.913C125.892 165.295 126.348 166.825 127.479 167.713C134.367 173.117 148.112 177.628 148.25 177.671C148.456 177.74 148.607 177.927 148.624 178.148C149.429 188.249 150.736 201.478 153.718 214.478L194.656 214.049C195.022 212.901 196.162 208.81 196.782 200.776C196.803 200.495 197.035 200.278 197.315 200.274C207.171 200.187 214.627 195.312 217.371 193.219C217.759 192.924 217.948 192.426 217.858 191.945C216.145 183.014 210.234 174.217 205.48 167.15C204.676 165.958 203.923 164.831 203.2 163.735C198.786 156.992 191.374 152.759 183.376 152.408L157.383 151.082C157.357 151.082 157.332 151.077 157.306 151.073L139.491 147.589C139.405 147.572 139.319 147.563 139.233 147.563ZM153.288 215.579C153.038 215.579 152.819 215.401 152.763 215.154C149.725 202.102 148.392 188.803 147.57 178.598C145.333 177.849 133.317 173.68 126.813 168.575C125.32 167.401 124.717 165.39 125.311 163.57C128.985 152.334 136.028 147.858 138.097 146.753C138.583 146.493 139.155 146.406 139.697 146.514L157.473 149.994L183.428 151.316C191.77 151.68 199.501 156.095 204.108 163.133C204.822 164.22 205.579 165.347 206.38 166.539C211.185 173.689 217.169 182.589 218.92 191.741C219.088 192.625 218.739 193.548 218.025 194.09C215.238 196.213 207.752 201.114 197.823 201.357C197.053 210.799 195.611 214.63 195.551 214.79C195.469 214.998 195.272 215.137 195.048 215.141L153.292 215.579C153.292 215.579 153.292 215.579 153.288 215.579Z" fill="#1B2142"/>
<path d="M195.801 212.407C182.133 213.707 167.566 213.594 152.311 212.407L151.554 219.401L147.217 239.646C146.421 243.356 145.759 247.1 145.238 250.857L130.925 353.782C130.792 354.74 131.386 355.645 132.311 355.901C137.396 357.305 151.79 357.223 156.441 355.602C157.091 355.372 157.564 354.796 157.676 354.111L175.521 246.294L187.489 353.236C187.541 353.687 187.795 354.094 188.186 354.324C191.236 356.087 200.899 357.422 212.286 354.796C213.155 354.597 213.745 353.773 213.654 352.881C209.236 308.819 203.919 270.604 202.916 253.955C202.499 247 201.531 240.088 200.012 233.289C198.911 228.38 197.681 223.084 196.889 220.276L195.801 212.407Z" fill="#263238"/>
<path d="M182.193 246.588C180.253 246.588 178.123 246.445 175.839 246.081C173.636 246.376 171.477 246.489 169.459 246.489C162.67 246.489 157.456 245.202 157.387 245.184C157.095 245.111 156.918 244.812 156.992 244.521C157.065 244.227 157.357 244.049 157.65 244.123C157.736 244.144 166.344 246.268 175.775 244.985L175.856 244.976L175.934 244.989C185.742 246.584 192.931 243.841 193.004 243.815C193.284 243.707 193.598 243.845 193.706 244.127C193.813 244.409 193.675 244.725 193.396 244.833C193.164 244.924 188.814 246.588 182.193 246.588Z" fill="white"/>
<path d="M197.04 204.455C197.018 204.455 196.992 204.455 196.971 204.451C196.67 204.412 196.463 204.139 196.502 203.836C197.083 199.442 198.61 185.38 198.623 185.237C198.657 184.938 198.928 184.721 199.225 184.752C199.522 184.786 199.737 185.055 199.703 185.358C199.69 185.497 198.158 199.576 197.577 203.983C197.543 204.256 197.306 204.455 197.04 204.455Z" fill="#1B2142"/>
<path d="M184.09 148.534V151.849L161.156 150.696L160.98 147.619C160.915 146.48 161.573 145.418 162.619 144.976C165.901 143.594 173.516 141.462 182.619 146.124C183.518 146.584 184.09 147.515 184.09 148.534Z" fill="#0CC0DF"/>
<path d="M161.668 150.172L183.548 151.277V148.534C183.548 147.719 183.097 146.982 182.374 146.61C173.641 142.138 166.379 143.984 162.825 145.483C161.995 145.834 161.47 146.679 161.522 147.589L161.668 150.172ZM184.09 152.395C184.082 152.395 184.073 152.395 184.065 152.395L161.13 151.242C160.851 151.229 160.631 151.004 160.614 150.726L160.442 147.65C160.36 146.28 161.152 145.002 162.408 144.473C164.124 143.75 166.904 142.861 170.418 142.736C174.626 142.584 178.816 143.563 182.864 145.635C183.953 146.194 184.633 147.307 184.633 148.534V151.849C184.633 151.996 184.572 152.139 184.465 152.243C184.361 152.343 184.228 152.395 184.09 152.395Z" fill="#1B2142"/>
<path d="M154.088 128.856C154.514 128.132 155.168 127.027 155.791 125.97C156.407 121.68 157.375 118.174 157.843 116.762L177.581 116.324L178.343 133.046C178.343 133.046 170.027 144.252 160.076 144.374C158.321 144.395 156.755 143.23 156.273 141.527C155.322 138.207 155.12 134.511 155.297 130.988L154.346 130.234C153.929 129.905 153.817 129.315 154.088 128.856Z" fill="#B78876"/>
<path d="M160.029 144.92C158.054 144.92 156.295 143.594 155.748 141.678C154.905 138.723 154.57 135.213 154.742 131.244L154.01 130.667C153.378 130.169 153.214 129.268 153.623 128.574C154.036 127.877 154.664 126.815 155.271 125.784C156.015 120.644 157.198 116.991 157.327 116.584C157.4 116.367 157.603 116.22 157.831 116.216L177.568 115.778C177.861 115.769 178.111 115.999 178.123 116.298L178.885 133.025C178.889 133.15 178.85 133.272 178.777 133.376C178.726 133.441 177.568 134.992 175.594 136.959C175.383 137.172 175.039 137.172 174.828 136.955C174.617 136.743 174.617 136.396 174.832 136.184C176.398 134.624 177.452 133.306 177.792 132.873L177.065 116.879L158.244 117.299C157.899 118.4 156.953 121.68 156.329 126.048C156.316 126.117 156.295 126.187 156.256 126.247C155.632 127.309 154.983 128.414 154.557 129.133C154.423 129.359 154.479 129.645 154.677 129.805L155.632 130.559C155.77 130.667 155.847 130.836 155.839 131.014C155.641 134.979 155.963 138.467 156.794 141.375C157.211 142.84 158.562 143.845 160.072 143.828C162.756 143.793 165.587 142.913 168.478 141.202C168.736 141.05 169.068 141.141 169.222 141.397C169.373 141.661 169.287 141.995 169.025 142.146C165.97 143.953 162.963 144.885 160.085 144.92C160.068 144.92 160.05 144.92 160.029 144.92Z" fill="#1B2142"/>
<path d="M181.277 139.776C178.807 140.17 173.71 140.755 169.055 139.815C168.246 139.655 167.613 139.013 167.446 138.203L166.194 132.171L164.783 128.128C164.783 128.128 164.271 120.653 156.936 120.016C154.303 118.313 156.217 113.373 156.217 113.373L154.157 114.573C154.157 114.573 152.096 107.471 171.511 108.45C187.485 109.261 186.422 118.213 185.545 121.359C185.239 122.443 185.02 123.552 184.865 124.666L182.998 138.008C182.869 138.914 182.172 139.629 181.277 139.776Z" fill="#1B2142"/>
<path d="M161.982 130.009C161.677 132.951 162.735 135.473 164.344 135.642C165.953 135.811 167.502 133.562 167.807 130.62C168.108 127.677 167.05 125.155 165.441 124.986C163.836 124.817 162.283 127.066 161.982 130.009Z" fill="#B78876"/>
<path d="M164.516 136.197C164.443 136.197 164.365 136.192 164.288 136.184C163.462 136.097 162.718 135.534 162.193 134.593C162.047 134.329 162.141 133.995 162.404 133.848C162.666 133.701 162.993 133.796 163.139 134.06C163.385 134.498 163.802 135.035 164.4 135.096C164.963 135.157 165.591 134.754 166.121 133.987C166.723 133.111 167.127 131.894 167.265 130.563C167.562 127.703 166.534 125.649 165.385 125.532C164.236 125.411 163.019 127.105 162.614 129.393C162.563 129.692 162.279 129.887 161.986 129.835C161.69 129.783 161.492 129.497 161.548 129.203C162.068 126.26 163.733 124.258 165.497 124.445C167.433 124.644 168.685 127.383 168.345 130.676C168.19 132.188 167.712 133.588 167.011 134.611C166.297 135.642 165.419 136.197 164.516 136.197Z" fill="#1B2142"/>
<path d="M116.956 101.565C116.703 101.565 116.475 101.383 116.423 101.123L115.627 96.967C115.571 96.668 115.76 96.382 116.057 96.3257C116.35 96.2693 116.634 96.4643 116.69 96.759L117.49 100.915C117.546 101.214 117.352 101.5 117.06 101.556C117.025 101.565 116.991 101.565 116.956 101.565Z" fill="#1B2142"/>
<path d="M113.812 102.548C113.588 102.548 113.381 102.41 113.3 102.189L112.362 99.5497C112.259 99.2637 112.405 98.9517 112.689 98.8477C112.973 98.748 113.282 98.8953 113.381 99.177L114.319 101.816C114.423 102.102 114.276 102.414 113.992 102.518C113.932 102.54 113.872 102.548 113.812 102.548Z" fill="#1B2142"/>
<path d="M123.681 109.763C123.431 109.763 123.212 109.594 123.151 109.343L121.603 102.579C121.538 102.284 121.719 101.989 122.011 101.924C122.304 101.855 122.592 102.037 122.661 102.332L124.21 109.096C124.274 109.391 124.094 109.681 123.801 109.75C123.762 109.759 123.719 109.763 123.681 109.763Z" fill="#1B2142"/>
</g>
<defs>
<filter id="filter0_d_687_19" x="-4" y="0" width="421" height="424" filterUnits="userSpaceOnUse" color-interpolation-filters="sRGB">
<feFlood flood-opacity="0" result="BackgroundImageFix"/>
<feColorMatrix in="SourceAlpha" type="matrix" values="0 0 0 0 0 0 0 0 0 0 0 0 0 0 0 0 0 0 127 0" result="hardAlpha"/>
<feOffset dy="4"/>
<feGaussianBlur stdDeviation="2"/>
<feComposite in2="hardAlpha" operator="out"/>
<feColorMatrix type="matrix" values="0 0 0 0 0 0 0 0 0 0 0 0 0 0 0 0 0 0 0.25 0"/>
<feBlend mode="normal" in2="BackgroundImageFix" result="effect1_dropShadow_687_19"/>
<feBlend mode="normal" in="SourceGraphic" in2="effect1_dropShadow_687_19" result="shape"/>
</filter>
</defs>
</svg>
