<svg width="20" height="20" viewBox="0 0 20 20" fill="none" xmlns="http://www.w3.org/2000/svg">
<path d="M3.33329 1.66666H16.6666C17.1087 1.66666 17.5326 1.84225 17.8451 2.15481C18.1577 2.46737 18.3333 2.8913 18.3333 3.33332V16.6667C18.3333 17.1087 18.1577 17.5326 17.8451 17.8452C17.5326 18.1577 17.1087 18.3333 16.6666 18.3333H3.33329C2.43329 18.3333 1.66663 17.5833 1.66663 16.6667V3.33332C1.66663 2.8913 1.84222 2.46737 2.15478 2.15481C2.46734 1.84225 2.89127 1.66666 3.33329 1.66666ZM3.33329 3.33332V9.16666H9.16663V3.33332H3.33329ZM3.33329 16.6667H9.16663V10.8333H3.33329V16.6667ZM16.6666 16.6667V10.8333H10.8333V16.6667H16.6666ZM16.6666 3.33332H10.8333V9.16666H16.6666V3.33332Z" fill="#0080FF"/>
</svg>
