<svg width="83" height="84" viewBox="0 0 83 84" fill="none" xmlns="http://www.w3.org/2000/svg">
<g filter="url(#filter0_d_714_678)">
<path d="M79 38.0005C79 38.6135 78.9854 39.2275 78.9552 39.8405C78.925 40.4534 78.8792 41.0654 78.8198 41.6752C78.7594 42.2861 78.6844 42.8949 78.5937 43.5026C78.5042 44.1094 78.3989 44.714 78.2791 45.3155C78.1593 45.918 78.025 46.5164 77.876 47.1116C77.7271 47.7069 77.5635 48.298 77.3854 48.8859C77.2072 49.4728 77.0145 50.0556 76.8083 50.6331C76.601 51.2106 76.3801 51.784 76.1458 52.35C75.9103 52.9171 75.6624 53.478 75.3999 54.0336C75.1374 54.5882 74.8613 55.1355 74.5718 55.6776C74.2832 56.2186 73.9801 56.7523 73.6644 57.2788C73.3488 57.8052 73.0207 58.3233 72.68 58.8341C72.3394 59.3439 71.9863 59.8453 71.6206 60.3384C71.255 60.8315 70.8769 61.3152 70.4883 61.7895C70.0987 62.2638 69.6977 62.7288 69.2851 63.1833C68.8737 63.6378 68.4507 64.0819 68.0164 64.5166C67.583 64.9503 67.1382 65.3735 66.683 65.7853C66.2288 66.1971 65.7642 66.5984 65.2892 66.9873C64.8152 67.3771 64.3319 67.7545 63.8392 68.1204C63.3454 68.4853 62.8443 68.8387 62.3339 69.1796C61.8235 69.5204 61.3047 69.8488 60.7787 70.1647C60.2526 70.4795 59.7182 70.7829 59.1776 71.0716C58.6359 71.3614 58.088 71.6366 57.5338 71.8993C56.9786 72.162 56.4181 72.4101 55.8504 72.6447C55.2837 72.8803 54.7108 73.1013 54.1337 73.3077C53.5555 73.5141 52.9732 73.707 52.3857 73.8852C51.7982 74.0635 51.2076 74.2271 50.6117 74.3762C50.0169 74.5253 49.4179 74.6598 48.8158 74.7786C48.2137 74.8985 47.6095 75.0038 47.0022 75.0934C46.3949 75.1841 45.7866 75.2592 45.1761 75.3186C44.5647 75.3791 43.9532 75.4239 43.3396 75.4541C42.7271 75.4844 42.1136 75.5 41.5 75.5C40.8864 75.5 40.2729 75.4844 39.6604 75.4541C39.0468 75.4239 38.4353 75.3791 37.8239 75.3186C37.2134 75.2592 36.6051 75.1841 35.9978 75.0934C35.3905 75.0038 34.7863 74.8985 34.1842 74.7786C33.5821 74.6598 32.9831 74.5253 32.3883 74.3762C31.7924 74.2271 31.2018 74.0635 30.6143 73.8852C30.0268 73.707 29.4445 73.5141 28.8663 73.3077C28.2892 73.1013 27.7163 72.8803 27.1496 72.6447C26.5819 72.4101 26.0214 72.162 25.4662 71.8993C24.912 71.6366 24.3641 71.3614 23.8224 71.0716C23.2818 70.7829 22.7474 70.4795 22.2213 70.1647C21.6942 69.8488 21.1765 69.5204 20.6661 69.1796C20.1557 68.8387 19.6546 68.4853 19.1608 68.1204C18.6681 67.7545 18.1848 67.3771 17.7098 66.9873C17.2358 66.5984 16.7712 66.1971 16.317 65.7853C15.8618 65.3735 15.417 64.9503 14.9836 64.5166C14.5493 64.0819 14.1263 63.6378 13.7149 63.1833C13.3023 62.7288 12.9013 62.2638 12.5117 61.7895C12.1231 61.3152 11.745 60.8315 11.3794 60.3384C11.0137 59.8453 10.6606 59.3439 10.32 58.8341C9.97933 58.3233 9.6512 57.8052 9.33556 57.2788C9.01993 56.7523 8.7168 56.2186 8.42825 55.6776C8.13866 55.1355 7.86261 54.5882 7.6001 54.0336C7.33759 53.478 7.08967 52.9171 6.85425 52.35C6.61986 51.784 6.39902 51.2106 6.19173 50.6331C5.98547 50.0556 5.79276 49.4728 5.61463 48.8859C5.4365 48.298 5.27295 47.7069 5.12399 47.1116C4.97503 46.5164 4.84065 45.918 4.72085 45.3155C4.60106 44.714 4.49585 44.1094 4.40626 43.5026C4.31563 42.8949 4.24063 42.2861 4.18021 41.6752C4.12084 41.0654 4.075 40.4534 4.04479 39.8405C4.01458 39.2275 4 38.6135 4 38.0005C4 37.3865 4.01458 36.7725 4.04479 36.1595C4.075 35.5466 4.12084 34.9346 4.18021 34.3248C4.24063 33.7139 4.31563 33.1051 4.40626 32.4974C4.49585 31.8906 4.60106 31.286 4.72085 30.6845C4.84065 30.082 4.97503 29.4836 5.12399 28.8884C5.27295 28.2931 5.4365 27.702 5.61463 27.1141C5.79276 26.5272 5.98547 25.9444 6.19173 25.3669C6.39902 24.7894 6.61986 24.216 6.85425 23.65C7.08967 23.0829 7.33759 22.522 7.6001 21.9664C7.86261 21.4118 8.13866 20.8645 8.42825 20.3224C8.7168 19.7814 9.01993 19.2477 9.33556 18.7212C9.6512 18.1948 9.97933 17.6767 10.32 17.1659C10.6606 16.6561 11.0137 16.1547 11.3794 15.6616C11.745 15.1685 12.1231 14.6848 12.5117 14.2105C12.9013 13.7362 13.3023 13.2712 13.7149 12.8167C14.1263 12.3622 14.5493 11.9181 14.9836 11.4834C15.417 11.0497 15.8618 10.6265 16.317 10.2147C16.7712 9.80294 17.2358 9.40159 17.7098 9.01275C18.1848 8.62287 18.6681 8.2455 19.1608 7.8796C19.6546 7.51473 20.1557 7.16134 20.6661 6.82045C21.1765 6.47957 21.6942 6.15119 22.2213 5.83533C22.7474 5.5205 23.2818 5.21715 23.8224 4.92838C24.3641 4.63858 24.912 4.36337 25.4662 4.10067C26.0214 3.83797 26.5819 3.58986 27.1496 3.35531C27.7163 3.11971 28.2892 2.89871 28.8663 2.6923C29.4445 2.48589 30.0268 2.29304 30.6143 2.11478C31.2018 1.93651 31.7924 1.77285 32.3883 1.62378C32.9831 1.4747 33.5821 1.34023 34.1842 1.22138C34.7863 1.1015 35.3905 0.996213 35.9978 0.906561C36.6051 0.815866 37.2134 0.740809 37.8239 0.681389C38.4353 0.620926 39.0468 0.5761 39.6604 0.545868C40.2729 0.515637 40.8864 0.5 41.5 0.5C42.1136 0.5 42.7271 0.515637 43.3396 0.545868C43.9532 0.5761 44.5647 0.620926 45.1761 0.681389C45.7866 0.740809 46.3949 0.815866 47.0022 0.906561C47.6095 0.996213 48.2137 1.1015 48.8158 1.22138C49.4179 1.34023 50.0169 1.4747 50.6117 1.62378C51.2076 1.77285 51.7982 1.93651 52.3857 2.11478C52.9732 2.29304 53.5555 2.48589 54.1337 2.6923C54.7108 2.89871 55.2837 3.11971 55.8504 3.35531C56.4181 3.58986 56.9786 3.83797 57.5338 4.10067C58.088 4.36337 58.6359 4.63858 59.1776 4.92838C59.7182 5.21715 60.2526 5.5205 60.7787 5.83533C61.3047 6.15119 61.8235 6.47957 62.3339 6.82045C62.8443 7.16134 63.3454 7.51473 63.8392 7.8796C64.3319 8.2455 64.8152 8.62287 65.2892 9.01275C65.7642 9.40159 66.2288 9.80294 66.683 10.2147C67.1382 10.6265 67.583 11.0497 68.0164 11.4834C68.4507 11.9181 68.8737 12.3622 69.2851 12.8167C69.6977 13.2712 70.0987 13.7362 70.4883 14.2105C70.8769 14.6848 71.255 15.1685 71.6206 15.6616C71.9863 16.1547 72.3394 16.6561 72.68 17.1659C73.0207 17.6767 73.3488 18.1948 73.6644 18.7212C73.9801 19.2477 74.2832 19.7814 74.5718 20.3224C74.8613 20.8645 75.1374 21.4118 75.3999 21.9664C75.6624 22.522 75.9103 23.0829 76.1458 23.65C76.3801 24.216 76.601 24.7894 76.8083 25.3669C77.0145 25.9444 77.2072 26.5272 77.3854 27.1141C77.5635 27.702 77.7271 28.2931 77.876 28.8884C78.025 29.4836 78.1593 30.082 78.2791 30.6845C78.3989 31.286 78.5042 31.8906 78.5937 32.4974C78.6844 33.1051 78.7594 33.7139 78.8198 34.3248C78.8792 34.9346 78.925 35.5466 78.9552 36.1595C78.9854 36.7725 79 37.3865 79 38.0005Z" fill="#C3EDEF"/>
<mask id="mask0_714_678" style="mask-type:luminance" maskUnits="userSpaceOnUse" x="34" y="13" width="30" height="40">
<path d="M34.1874 13.1763H63.9482V52.006H34.1874V13.1763Z" fill="white"/>
</mask>
<g mask="url(#mask0_714_678)">
<path d="M45.3371 51.854C45.2352 51.854 45.1402 51.7902 45.1058 51.6889L34.238 19.7363C34.2174 19.675 34.2211 19.6081 34.2499 19.5499C34.2786 19.4918 34.3293 19.4474 34.3905 19.4267L52.7104 13.192C52.7354 13.1838 52.7623 13.1788 52.7879 13.1788C52.8898 13.1788 52.9842 13.2433 53.0198 13.3446L63.8876 45.2971C63.9082 45.3584 63.9038 45.4253 63.8751 45.4835C63.8463 45.5411 63.7957 45.5861 63.7351 45.6067L45.4152 51.8415C45.389 51.8496 45.3633 51.854 45.3371 51.854Z" fill="#00836D"/>
</g>
<path d="M50.4991 46.8909C50.4722 46.8909 50.4453 46.8827 50.4241 46.8652C50.3922 46.8402 50.3741 46.8002 50.3778 46.7595C50.4122 46.3417 50.3609 45.9282 50.2259 45.5311C49.8047 44.2939 48.6446 43.4626 47.3396 43.4626C47.0065 43.4626 46.6758 43.5177 46.3571 43.6265C45.7464 43.8341 45.2252 44.2251 44.8502 44.7574C44.827 44.7899 44.7895 44.8093 44.7502 44.8093L44.7327 44.808C44.687 44.8011 44.6495 44.7699 44.6345 44.7261L38.1931 25.7885C38.1781 25.7447 38.19 25.6959 38.2212 25.6634C38.2443 25.6396 38.2762 25.6265 38.3087 25.6265L38.345 25.6321C38.6419 25.7247 38.9481 25.771 39.2556 25.771C39.5863 25.771 39.9138 25.7166 40.2294 25.6096C41.0001 25.3469 41.6232 24.8002 41.9826 24.069C42.3426 23.3385 42.3963 22.511 42.1338 21.7398C41.9695 21.2569 41.6844 20.8191 41.3094 20.4751C41.2776 20.4463 41.2638 20.4025 41.2719 20.36C41.2807 20.3181 41.3113 20.2837 41.3526 20.2705L47.5146 18.1727L47.554 18.1664C47.5821 18.1664 47.6109 18.1764 47.6327 18.1958C47.6659 18.224 47.6809 18.2671 47.674 18.309C47.5865 18.81 47.6265 19.3304 47.7915 19.8145C48.2121 21.0517 49.3722 21.883 50.6778 21.883C51.0103 21.883 51.341 21.8273 51.6597 21.7191C52.3491 21.4846 52.9323 21.0092 53.3023 20.3794C53.3241 20.3418 53.3648 20.3193 53.4073 20.3193L53.4198 20.3199C53.4673 20.3243 53.5073 20.3568 53.5229 20.4019L60.0675 39.6434C60.0825 39.6891 60.07 39.7391 60.0356 39.7717C60.0124 39.7929 59.9824 39.8048 59.9518 39.8048C59.9362 39.8048 59.9206 39.8017 59.9062 39.7961C59.5399 39.6484 59.1562 39.574 58.7643 39.574C58.433 39.574 58.1036 39.6278 57.7874 39.736C56.1961 40.2783 55.3417 42.0134 55.8836 43.6058C56.018 44.0018 56.2292 44.3608 56.5117 44.6723C56.5392 44.7023 56.5499 44.7448 56.5392 44.7849C56.5292 44.8249 56.4992 44.8562 56.4605 44.8699L50.5384 46.8852L50.4991 46.8909Z" fill="#F4F4F4"/>
<path d="M58.6956 45.0751C57.708 45.0751 56.8318 44.4465 56.513 43.5114C56.3149 42.9284 56.3555 42.303 56.6274 41.7507C56.8993 41.1971 57.3699 40.7843 57.9531 40.586C58.1937 40.5041 58.4437 40.4628 58.6962 40.4628C59.6831 40.4628 60.5594 41.0908 60.8775 42.0259C61.0763 42.6094 61.0356 43.2343 60.7638 43.7872C60.4919 44.3395 60.0206 44.753 59.4381 44.9519C59.1975 45.0338 58.9475 45.0751 58.6956 45.0751Z" fill="#F4F4F4"/>
<path d="M47.3034 48.9518C46.3165 48.9518 45.439 48.3238 45.1209 47.3881C44.9227 46.8051 44.964 46.1797 45.2352 45.6274C45.5071 45.0744 45.9778 44.661 46.5609 44.4627C46.8015 44.3808 47.0515 44.3395 47.304 44.3395C48.2903 44.3395 49.1672 44.9675 49.4854 45.9026C49.6841 46.4861 49.6441 47.1116 49.3722 47.6645C49.0997 48.2168 48.6291 48.6303 48.0459 48.8286C47.8047 48.9105 47.5553 48.9518 47.3034 48.9518Z" fill="#F4F4F4"/>
<path d="M50.4829 20.931C49.4966 20.931 48.6191 20.3024 48.301 19.3673C48.1028 18.7844 48.1428 18.1589 48.4147 17.606C48.6872 17.0537 49.1579 16.6402 49.741 16.442C49.9816 16.3594 50.2316 16.3181 50.4835 16.3181C51.4711 16.3181 52.348 16.9467 52.6661 17.8818C53.0749 19.0859 52.4292 20.3981 51.2261 20.8072C50.9854 20.8891 50.7354 20.931 50.4829 20.931Z" fill="#F4F4F4"/>
<path d="M39.0913 24.8077C38.1038 24.8077 37.2275 24.1791 36.9088 23.244C36.7106 22.6611 36.7513 22.0362 37.0231 21.4827C37.295 20.9304 37.7663 20.517 38.3494 20.3187C38.5894 20.2367 38.8394 20.1955 39.0913 20.1955C40.0789 20.1955 40.9551 20.8234 41.2733 21.7585C41.472 22.3421 41.4314 22.9676 41.1595 23.5199C40.8876 24.0728 40.417 24.4862 39.8338 24.6845C39.5932 24.7665 39.3432 24.8077 39.0913 24.8077Z" fill="#F4F4F4"/>
<path d="M49.0616 39.7391C45.9709 39.7391 43.2246 37.7714 42.2283 34.8423C40.9464 31.0725 42.9696 26.9631 46.7372 25.6809C47.4922 25.4238 48.2741 25.2943 49.0628 25.2943C52.1542 25.2943 54.9011 27.2621 55.8968 30.1906C57.1787 33.961 55.1555 38.0704 51.3879 39.3526C50.6335 39.609 49.851 39.7391 49.0616 39.7391Z" fill="#00836D"/>
<path d="M49.0616 38.7621C46.389 38.7621 44.0146 37.0602 43.1533 34.5276C42.6164 32.9489 42.7258 31.2558 43.4621 29.759C44.199 28.2629 45.474 27.1426 47.0528 26.6053C47.7041 26.3839 48.3809 26.2713 49.0628 26.2713C51.736 26.2713 54.1105 27.9733 54.9718 30.5052C56.0805 33.7646 54.3311 37.3191 51.0729 38.4275C50.421 38.6495 49.7447 38.7621 49.0616 38.7621Z" fill="#D3D2D2"/>
<path d="M45.2233 49.4303C46.2221 50.6875 48.4259 50.3435 49.4203 49.2427C49.736 48.8924 49.1834 48.4133 48.8666 48.7629C48.2134 49.4872 46.5202 49.8888 45.8283 49.0194C45.5371 48.6522 44.9283 49.06 45.2233 49.4303Z" fill="white"/>
<path d="M49.2879 48.4814L49.2947 48.5008C49.4466 48.948 50.1391 48.7122 49.9873 48.265L49.981 48.245C49.8285 47.799 49.136 48.0348 49.2879 48.4814Z" fill="white"/>
<path d="M62.5438 44.529C61.8381 44.7692 61.1318 45.0094 60.4262 45.249C59.9799 45.401 60.2156 46.0946 60.6625 45.942C61.3675 45.7018 62.0737 45.4616 62.7788 45.2214C63.2257 45.0695 62.9894 44.3764 62.5438 44.529Z" fill="white"/>
<path d="M59.2999 45.9764C59.4518 46.423 60.1443 46.1872 59.9925 45.7406C59.8406 45.294 59.1481 45.5292 59.2999 45.9764Z" fill="white"/>
<path d="M35.0137 20.7803C35.2231 21.3964 35.4325 22.0125 35.6418 22.6285C35.7943 23.0751 36.4869 22.84 36.335 22.3927C36.125 21.7766 35.9156 21.1606 35.7062 20.5445C35.5543 20.0979 34.8618 20.3337 35.0137 20.7803Z" fill="white"/>
<path d="M35.9562 23.4561L35.9656 23.4842C36.1175 23.9314 36.81 23.6963 36.6587 23.249L36.6487 23.2203C36.4969 22.7731 35.8037 23.0095 35.9562 23.4561Z" fill="white"/>
<path d="M43.8289 56.5907C43.7639 56.5895 43.7027 56.5626 43.6577 56.5157L20.3358 32.1245C20.2427 32.027 20.2458 31.8731 20.3439 31.7793L34.328 18.4009C34.373 18.3578 34.4337 18.3328 34.4962 18.3328L34.5018 18.3334C34.5668 18.3346 34.6281 18.3615 34.6724 18.4084L57.9943 42.8002C58.0881 42.8972 58.0843 43.051 57.9868 43.1448L44.0027 56.5238C43.9571 56.567 43.8971 56.5907 43.8339 56.5907H43.8289Z" fill="#00836D"/>
<path d="M40.3838 50.4392C40.3513 50.4392 40.3201 50.426 40.2957 50.4016L26.4728 35.9443C26.4416 35.9112 26.431 35.8624 26.4466 35.8199C26.461 35.7761 26.4991 35.7448 26.5453 35.7392C27.1897 35.6523 27.7772 35.3702 28.2441 34.9236C29.4592 33.7614 29.5017 31.8268 28.3404 30.6115C27.9873 30.2425 27.5441 29.966 27.0591 29.8134C27.0185 29.8003 26.9872 29.7659 26.9772 29.7246C26.9678 29.6821 26.981 29.6383 27.0116 29.6083L31.7155 25.1086C31.7392 25.0861 31.7692 25.0742 31.8005 25.0742L31.833 25.0785C31.8749 25.0904 31.9067 25.123 31.918 25.1649C32.0499 25.6559 32.3055 26.1106 32.6593 26.4802C33.2399 27.087 34.0218 27.4216 34.8624 27.4216C35.6506 27.4216 36.3994 27.122 36.97 26.5766C37.495 26.0731 37.8238 25.395 37.8938 24.6676C37.8988 24.6207 37.9307 24.58 37.9763 24.565L38.0157 24.5575C38.0482 24.5575 38.08 24.5707 38.1032 24.5957L52.1479 39.2831C52.181 39.3188 52.1904 39.3688 52.1735 39.4132C52.156 39.457 52.1135 39.4877 52.066 39.4902C51.3373 39.5283 50.6454 39.8254 50.1197 40.3296C48.9047 41.4917 48.8622 43.4257 50.0235 44.641C50.3135 44.9437 50.656 45.1808 51.0429 45.3434C51.081 45.359 51.1085 45.3928 51.116 45.4335C51.1235 45.4741 51.1104 45.5154 51.0804 45.5436L46.559 49.8687C46.5359 49.89 46.5065 49.9019 46.4753 49.9019L46.4471 49.8988C46.4078 49.8894 46.3746 49.8612 46.3603 49.8231C46.2153 49.4296 45.9953 49.0756 45.7052 48.7729C45.1246 48.1656 44.3421 47.8309 43.5014 47.8309C42.7127 47.8309 41.9639 48.1312 41.3945 48.6766C40.9276 49.1232 40.6195 49.698 40.5045 50.3385C40.4963 50.3835 40.4638 50.4204 40.4195 50.4335L40.3838 50.4392Z" fill="#F4F4F4"/>
<path d="M52.2217 45.0019C51.5867 45.0019 50.9941 44.7492 50.5554 44.2901C50.1297 43.8448 49.9029 43.2606 49.9166 42.6445C49.9304 42.029 50.1829 41.4554 50.6279 41.0301C51.0591 40.6173 51.6248 40.3903 52.221 40.3903C52.8567 40.3903 53.448 40.643 53.8867 41.1021C54.313 41.5474 54.5399 42.1322 54.5261 42.7477C54.5124 43.3632 54.2592 43.9367 53.8148 44.3627C53.3836 44.7755 52.8179 45.0019 52.2217 45.0019Z" fill="#F4F4F4"/>
<path d="M43.5252 53.3214C42.8902 53.3214 42.2983 53.0693 41.8595 52.6096C40.9801 51.6908 41.0133 50.2284 41.9314 49.3496C42.3627 48.9368 42.9283 48.7104 43.5246 48.7104C44.1602 48.7104 44.7521 48.9624 45.1903 49.4222C45.6165 49.8675 45.8434 50.4517 45.8297 51.0672C45.8159 51.6833 45.5628 52.2568 45.1184 52.6821C44.6871 53.095 44.1215 53.3214 43.5252 53.3214Z" fill="#F4F4F4"/>
<path d="M34.5986 26.5716C33.9636 26.5716 33.3717 26.3189 32.9329 25.8592C32.5073 25.4144 32.2804 24.8302 32.2942 24.2148C32.3079 23.5987 32.5604 23.0251 33.0048 22.5998C33.4361 22.187 34.0017 21.9599 34.598 21.9599C35.2336 21.9599 35.8249 22.2126 36.2643 22.6717C37.1431 23.5912 37.1099 25.0529 36.1918 25.9317C35.7611 26.3445 35.1949 26.5716 34.5986 26.5716Z" fill="#F4F4F4"/>
<path d="M25.9021 34.8911C25.2671 34.8911 24.6758 34.639 24.2364 34.1793C23.3583 33.2604 23.3908 31.7975 24.3089 30.9187C24.7402 30.5065 25.3059 30.2794 25.9021 30.2794C26.5371 30.2794 27.1297 30.5321 27.5684 30.9912C28.4472 31.9107 28.4147 33.373 27.4959 34.2518C27.0647 34.6646 26.499 34.8911 25.9021 34.8911Z" fill="#F4F4F4"/>
<path d="M39.1657 44.6829C37.1763 44.6829 35.3237 43.891 33.9481 42.4531C31.1974 39.5759 31.2992 34.9961 34.1762 32.244C35.5256 30.9524 37.2969 30.2412 39.1638 30.2412C41.1539 30.2412 43.0071 31.0337 44.3821 32.4711C47.1328 35.3489 47.0316 39.9286 44.1552 42.6801C42.8052 43.9717 41.0333 44.6829 39.1657 44.6829Z" fill="#00836D"/>
<path d="M39.1656 43.7053C37.445 43.7053 35.843 43.0216 34.6543 41.7776C33.5017 40.5723 32.8873 38.9904 32.9248 37.3229C32.9617 35.656 33.6461 34.1023 34.8511 32.9496C36.018 31.8337 37.55 31.2189 39.1644 31.2189C40.8844 31.2189 42.487 31.9031 43.6758 33.1466C46.0546 35.6341 45.9664 39.594 43.4795 41.974C42.312 43.0911 40.7807 43.7053 39.1656 43.7053Z" fill="#D3D2D2"/>
<path d="M34.8581 35.9969C35.0899 34.7059 35.9293 33.5894 37.1225 33.0371C37.5525 32.8389 37.2013 32.1959 36.7756 32.3935C35.425 33.0177 34.4174 34.3319 34.1549 35.7955C34.0724 36.2552 34.7749 36.4629 34.8581 35.9969Z" fill="white"/>
<path d="M42.8121 54.4185C44.2477 55.1371 46.1015 53.8956 46.539 52.4789C46.6784 52.0273 45.9746 51.8252 45.8353 52.2768C45.5478 53.2082 44.1808 54.2877 43.1877 53.7899C42.7696 53.5803 42.3889 54.2071 42.8121 54.4185Z" fill="white"/>
<path d="M46.0977 51.8434L46.112 51.8584C46.4383 52.1993 46.9671 51.6933 46.6408 51.3524L46.6271 51.338C46.3002 50.9971 45.772 51.5025 46.0977 51.8434Z" fill="white"/>
<path d="M56.4517 42.6695C55.913 43.1843 55.3748 43.7003 54.8367 44.2157C54.4948 44.5409 55.0011 45.0707 55.3417 44.7442C55.8805 44.2294 56.4192 43.714 56.9574 43.1987C57.2993 42.8722 56.793 42.3436 56.4517 42.6695Z" fill="white"/>
<path d="M54.1204 45.3497C54.4467 45.6906 54.9761 45.1846 54.6498 44.8443C54.3236 44.5034 53.7948 45.0094 54.1204 45.3497Z" fill="white"/>
<path d="M21.4789 32.7444C21.929 33.2148 22.3783 33.6851 22.8284 34.1555C23.1546 34.4958 23.6827 33.9904 23.3571 33.6495C22.9077 33.1791 22.4577 32.7094 22.0083 32.239C21.6821 31.8975 21.1539 32.4042 21.4789 32.7444Z" fill="white"/>
<path d="M23.4609 34.7735L23.4828 34.7954C23.8084 35.1362 24.3372 34.6302 24.0109 34.2893L23.9903 34.2674C23.664 33.9259 23.1352 34.4319 23.4609 34.7735Z" fill="white"/>
<mask id="mask1_714_678" style="mask-type:luminance" maskUnits="userSpaceOnUse" x="13" y="26" width="41" height="33">
<path d="M13.738 26.0662H53.0679V58.0907H13.738V26.0662Z" fill="white"/>
</mask>
<g mask="url(#mask1_714_678)">
<path d="M44.8695 58.0694C44.8351 58.0694 44.802 58.0619 44.7701 58.0475L13.9493 44.3114C13.8261 44.2563 13.7711 44.1118 13.8261 43.9886L21.702 26.3082C21.7276 26.2494 21.777 26.2032 21.837 26.18C21.8651 26.1694 21.8945 26.1638 21.9245 26.1638C21.9582 26.1638 21.992 26.1713 22.0239 26.1844L52.8441 39.9224C52.9672 39.9768 53.0222 40.1213 52.9678 40.2445L45.092 57.9243C45.0658 57.9837 45.017 58.03 44.9564 58.0531C44.9282 58.0638 44.8989 58.0694 44.8695 58.0694Z" fill="#00836D"/>
</g>
<path d="M39.3932 53.6735C39.3763 53.6735 39.3595 53.6704 39.3432 53.6635L21.0758 45.5204C21.0333 45.5023 21.0058 45.4616 21.0033 45.416C21.0015 45.369 21.0246 45.3265 21.0646 45.3034C21.6283 44.9787 22.0652 44.4953 22.3284 43.9054C23.0128 42.3693 22.3202 40.5629 20.784 39.878C20.3914 39.7022 19.9746 39.614 19.5464 39.614C19.4633 39.614 19.3795 39.6172 19.297 39.624L19.287 39.6247C19.2477 39.6247 19.2108 39.6053 19.1877 39.5734C19.1627 39.5377 19.1577 39.4921 19.1752 39.4533L21.8246 33.5056C21.8421 33.4668 21.879 33.4393 21.9221 33.4343L21.9365 33.4337C21.974 33.4337 22.0102 33.4512 22.0327 33.4812C22.3409 33.8865 22.7496 34.2099 23.2165 34.4182C23.6109 34.5939 24.0284 34.6828 24.4553 34.6828C25.6591 34.6828 26.7529 33.9728 27.2429 32.8739C27.5385 32.209 27.586 31.4578 27.376 30.7573C27.3623 30.7122 27.376 30.6622 27.4123 30.6303C27.4348 30.6109 27.4635 30.6009 27.4929 30.6009C27.5091 30.6009 27.5266 30.6034 27.5423 30.6109L46.1021 38.8835C46.1459 38.9022 46.1734 38.946 46.174 38.9936C46.1747 39.0411 46.1478 39.0849 46.104 39.1049C45.4434 39.417 44.9165 39.9549 44.6209 40.6192C44.2896 41.3635 44.2671 42.1922 44.559 42.9528C44.8509 43.7134 45.4209 44.3145 46.1647 44.6466C46.5472 44.8167 46.9547 44.9056 47.3741 44.9099C47.4153 44.9099 47.4534 44.9312 47.4753 44.9656C47.4978 45 47.5009 45.0438 47.4841 45.0813L44.9384 50.7969C44.9215 50.8345 44.8871 50.8614 44.8465 50.8676L44.8271 50.8695C44.7927 50.8695 44.7602 50.8551 44.7371 50.8295C44.454 50.5205 44.1158 50.2772 43.7321 50.1064C43.3383 49.9307 42.9214 49.8418 42.4933 49.8418C41.2901 49.8418 40.1957 50.5524 39.707 51.6513C39.4438 52.2418 39.3763 52.8898 39.5126 53.5265C39.522 53.5709 39.5057 53.6172 39.4701 53.6466C39.4482 53.6641 39.4207 53.6735 39.3932 53.6735Z" fill="#F4F4F4"/>
<path d="M47.4608 44.3201C47.1371 44.3201 46.8214 44.2532 46.5233 44.12C45.9608 43.8692 45.5302 43.4151 45.3095 42.839C45.0889 42.2642 45.1051 41.6381 45.3558 41.0751C45.7264 40.2445 46.5533 39.7079 47.4633 39.7079C47.7871 39.7079 48.1021 39.7748 48.4002 39.9074C48.9621 40.1588 49.394 40.6129 49.614 41.1884C49.8347 41.7638 49.8178 42.3899 49.5671 42.9522C49.1971 43.7835 48.3702 44.3201 47.4608 44.3201Z" fill="#F4F4F4"/>
<path d="M42.5627 55.3148C42.2389 55.3148 41.9245 55.2472 41.6264 55.1146C40.4651 54.5973 39.942 53.2319 40.4588 52.0704C40.8295 51.2392 41.6558 50.7019 42.5658 50.7019C42.8895 50.7019 43.2046 50.7694 43.5027 50.902C44.664 51.4193 45.1877 52.786 44.6702 53.9469C44.3002 54.7775 43.4727 55.3148 42.5627 55.3148Z" fill="#F4F4F4"/>
<path d="M24.1721 33.9403C23.8483 33.9403 23.5333 33.8734 23.2346 33.7395C22.0739 33.2223 21.5501 31.8569 22.067 30.6953C22.4377 29.8641 23.2646 29.3274 24.1746 29.3274C24.4983 29.3274 24.8134 29.3943 25.1115 29.5276C26.2728 30.0448 26.7959 31.4109 26.2784 32.5724C25.9084 33.4037 25.0815 33.9403 24.1721 33.9403Z" fill="#F4F4F4"/>
<path d="M19.2745 44.935C18.9507 44.935 18.6357 44.8674 18.3376 44.7348C17.1763 44.2176 16.6525 42.8515 17.1701 41.6894C17.5407 40.8587 18.367 40.3221 19.277 40.3221C19.6007 40.3221 19.9158 40.3896 20.2139 40.5222C21.3752 41.0401 21.8989 42.4055 21.3814 43.5664C21.0114 44.3977 20.1839 44.935 19.2745 44.935Z" fill="#F4F4F4"/>
<path d="M33.393 49.3396C32.3792 49.3396 31.3917 49.1282 30.4585 48.7122C26.8228 47.0922 25.1834 42.814 26.8034 39.1774C27.9622 36.5761 30.5517 34.8942 33.4005 34.8942C34.4149 34.8942 35.4012 35.105 36.3349 35.5209C38.0962 36.3065 39.4469 37.7301 40.1363 39.5308C40.8276 41.3316 40.7757 43.2943 39.9907 45.0557C38.8319 47.6577 36.2418 49.3396 33.393 49.3396Z" fill="#00836D"/>
<path d="M33.3937 48.362C32.5168 48.362 31.6636 48.1799 30.8561 47.8197C27.7129 46.4186 26.2947 42.7202 27.6954 39.5752C28.6979 37.3254 30.9373 35.8718 33.4005 35.8718C34.2768 35.8718 35.1306 36.0538 35.9375 36.4135C39.0813 37.8145 40.4989 41.513 39.0988 44.6573C38.0963 46.9084 35.8569 48.362 33.3937 48.362Z" fill="#D3D2D2"/>
<path d="M45.259 52.7997L45.2771 52.8079C45.709 52.9999 46.0065 52.3313 45.5752 52.1392L45.5571 52.1311C45.1258 51.9385 44.8277 52.6071 45.259 52.7997Z" fill="white"/>
<path d="M51.3673 40.3865C51.0647 41.067 50.761 41.7482 50.4572 42.4293C50.2653 42.8603 50.9335 43.1586 51.126 42.7264C51.4285 42.0459 51.7329 41.3654 52.036 40.6842C52.2279 40.2526 51.5598 39.9549 51.3673 40.3865Z" fill="white"/>
<path d="M50.2247 43.7503C50.6553 43.9424 50.9541 43.2731 50.5228 43.0817C50.0922 42.889 49.7947 43.5577 50.2247 43.7503Z" fill="white"/>
<mask id="mask2_714_678" style="mask-type:luminance" maskUnits="userSpaceOnUse" x="45" y="55" width="23" height="7">
<path d="M45.2277 55.6888H67.6195V61.213H45.2277V55.6888Z" fill="white"/>
</mask>
<g mask="url(#mask2_714_678)">
<path d="M56.483 61.2099C50.2566 61.2099 45.3783 59.9108 45.3783 58.252V55.832C45.3783 55.7645 45.4333 55.7107 45.5002 55.7107C45.5683 55.7107 45.6227 55.7645 45.6227 55.832C45.6227 57.3038 50.5959 58.5466 56.483 58.5466C62.3706 58.5466 67.3433 57.3038 67.3433 55.832C67.3433 55.7645 67.3983 55.7107 67.4658 55.7107C67.5327 55.7107 67.5877 55.7645 67.5877 55.832V58.252C67.5877 59.9108 62.7094 61.2099 56.483 61.2099Z" fill="#E7B16B"/>
</g>
<path d="M50.2547 60.7095L50.2328 60.7077C49.8522 60.6389 49.4853 60.565 49.1447 60.4862C49.0891 60.4737 49.0497 60.4243 49.0497 60.3674V57.948C49.0497 57.9111 49.0672 57.8761 49.0966 57.8524C49.1178 57.8361 49.1447 57.8261 49.1722 57.8261L49.1991 57.8292C49.5384 57.908 49.9003 57.9812 50.276 58.0475C50.3341 58.0581 50.3766 58.1088 50.3766 58.1682V60.5876C50.3766 60.6238 50.3603 60.6576 50.3322 60.6814C50.3103 60.7002 50.2828 60.7095 50.2547 60.7095Z" fill="#F8A01C"/>
<path d="M47.3428 59.9464C47.3278 59.9464 47.3134 59.9433 47.299 59.9377C47.0647 59.847 46.8428 59.7494 46.6396 59.6462C46.5984 59.6256 46.5721 59.5837 46.5721 59.5374V57.118C46.5721 57.0755 46.5953 57.0361 46.6309 57.0136C46.6503 57.0017 46.6721 56.9961 46.6946 56.9961C46.7134 56.9961 46.7328 56.9998 46.7496 57.0092C46.9459 57.108 47.1603 57.2031 47.3865 57.2913C47.434 57.3088 47.4653 57.3545 47.4653 57.4045V59.8238C47.4653 59.8639 47.4447 59.9014 47.4115 59.9239C47.3915 59.9389 47.3672 59.9464 47.3428 59.9464Z" fill="#F8A01C"/>
<path d="M51.7948 60.9397C51.4197 60.894 51.0541 60.8427 50.7078 60.7877C50.6485 60.7783 50.6053 60.727 50.6053 60.667V58.2476C50.6053 58.212 50.6203 58.1782 50.6478 58.1551C50.6697 58.1357 50.6985 58.1257 50.7272 58.1257L50.746 58.1275C51.091 58.182 51.4529 58.2326 51.8241 58.2783C51.8854 58.2852 51.931 58.3377 51.931 58.399V60.8184C51.931 60.854 51.916 60.8865 51.8898 60.9103C51.8679 60.9303 51.8385 60.9409 51.8098 60.9409L51.7948 60.9397Z" fill="#F8A01C"/>
<path d="M48.6996 60.3743L48.6684 60.3705C48.3565 60.2892 48.0565 60.201 47.7771 60.1078C47.7271 60.0916 47.6934 60.0453 47.6934 59.9921V57.5728C47.6934 57.534 47.7121 57.4971 47.744 57.4746C47.7652 57.4589 47.7902 57.4514 47.8159 57.4514L47.8534 57.457C48.134 57.5502 48.4284 57.6366 48.7303 57.7147C48.784 57.7291 48.8215 57.7773 48.8215 57.833V60.2523C48.8215 60.2905 48.804 60.3261 48.774 60.3493C48.7521 60.3661 48.7259 60.3743 48.6996 60.3743Z" fill="#F8A01C"/>
<path d="M64.722 60.2485C64.6957 60.2485 64.6701 60.2404 64.6488 60.2242C64.6176 60.201 64.6001 60.1647 64.6001 60.1266V57.7066C64.6001 57.6528 64.6351 57.6047 64.6876 57.5896C65.0826 57.4746 65.4426 57.3495 65.757 57.2194C65.7726 57.2131 65.7883 57.2094 65.8039 57.2094C65.8276 57.2094 65.8514 57.2169 65.872 57.2306C65.9058 57.2531 65.9258 57.2913 65.9258 57.3313V59.7513C65.9258 59.8007 65.8964 59.8451 65.8501 59.8639C65.5276 59.9971 65.1595 60.1253 64.7557 60.2442L64.722 60.2485Z" fill="#F8A01C"/>
<path d="M53.3548 61.0936C52.9761 61.0636 52.6104 61.031 52.2692 60.9941C52.2073 60.9872 52.1598 60.9353 52.1598 60.8734V58.4534C52.1598 58.4184 52.1748 58.3853 52.2004 58.3621C52.2229 58.3421 52.2517 58.3308 52.2817 58.3308L52.2948 58.3315C52.6417 58.369 53.0048 58.4021 53.3729 58.4297C53.4367 58.4347 53.4861 58.4878 53.4861 58.5523V60.9716C53.4861 61.0054 53.4717 61.0379 53.4467 61.0611C53.4242 61.0823 53.3948 61.0936 53.3642 61.0936H53.3548Z" fill="#F8A01C"/>
<path d="M63.1663 60.6239C63.1388 60.6239 63.1107 60.6145 63.0894 60.5957C63.0607 60.5732 63.045 60.5382 63.045 60.5019V58.0825C63.045 58.0237 63.0857 57.9737 63.1432 57.9624C63.5282 57.8861 63.8901 57.8048 64.2182 57.7198L64.2495 57.716C64.2763 57.716 64.3026 57.7248 64.3238 57.7416C64.3532 57.7642 64.3713 57.7998 64.3713 57.838V60.2573C64.3713 60.313 64.3332 60.3611 64.2795 60.3755C63.9501 60.4606 63.5832 60.5432 63.19 60.6213L63.1663 60.6239Z" fill="#F8A01C"/>
<mask id="mask3_714_678" style="mask-type:luminance" maskUnits="userSpaceOnUse" x="58" y="58" width="2" height="4">
<path d="M58.348 58.4109H59.7881V61.213H58.348V58.4109Z" fill="white"/>
</mask>
<g mask="url(#mask3_714_678)">
<path d="M58.5011 61.1611C58.4705 61.1611 58.4399 61.1499 58.4174 61.128C58.393 61.1048 58.3799 61.0729 58.3799 61.0392V58.6198C58.3799 58.5548 58.4305 58.5016 58.4961 58.4985C58.853 58.4809 59.2162 58.4584 59.5743 58.4315L59.5837 58.4309C59.6149 58.4309 59.6443 58.4422 59.6668 58.4641C59.6918 58.4866 59.7062 58.5191 59.7062 58.5529V60.9722C59.7062 61.036 59.6568 61.0892 59.593 61.0948C59.2412 61.1205 58.8755 61.1436 58.5074 61.1611H58.5011Z" fill="#F8A01C"/>
</g>
<mask id="mask4_714_678" style="mask-type:luminance" maskUnits="userSpaceOnUse" x="53" y="58" width="3" height="4">
<path d="M53.7079 58.4109H55.1479V61.213H53.7079V58.4109Z" fill="white"/>
</mask>
<g mask="url(#mask4_714_678)">
<path d="M54.9141 61.1811C54.5554 61.168 54.1904 61.1492 53.8291 61.1267C53.7647 61.1223 53.7147 61.0692 53.7147 61.0048V58.5854C53.7147 58.5516 53.7291 58.5191 53.7535 58.496C53.776 58.4747 53.806 58.4634 53.8366 58.4634H53.8447C54.1979 58.486 54.561 58.5041 54.9241 58.5172C54.9891 58.5197 55.041 58.5741 55.041 58.6392V61.0585C55.041 61.0923 55.0273 61.1236 55.0035 61.1461C54.981 61.1693 54.951 61.1811 54.9191 61.1811H54.9141Z" fill="#F8A01C"/>
</g>
<path d="M60.0568 61.056C60.0262 61.056 59.9968 61.0448 59.9743 61.0235C59.9487 61.0004 59.9343 60.9685 59.9343 60.9341V58.5141C59.9343 58.4515 59.9825 58.3984 60.0456 58.3921C60.4143 58.3596 60.7775 58.3221 61.1244 58.2808L61.1394 58.2795C61.1687 58.2795 61.1975 58.2902 61.22 58.3096C61.2462 58.3327 61.2612 58.3665 61.2612 58.4015V60.8209C61.2612 60.8828 61.215 60.9347 61.1537 60.9422C60.8044 60.9841 60.4387 61.0216 60.0675 61.0554L60.0568 61.056Z" fill="#F8A01C"/>
<path d="M46.2221 59.3854C46.1978 59.3854 46.174 59.3785 46.154 59.3641C45.8815 59.1796 45.679 58.9857 45.5509 58.7874C45.5377 58.7674 45.5315 58.7449 45.5315 58.7211V56.3018C45.5315 56.2474 45.5671 56.1998 45.619 56.1848L45.6534 56.1798C45.694 56.1798 45.7334 56.1998 45.7559 56.2355C45.8665 56.4069 46.0465 56.5776 46.2903 56.7421C46.324 56.7646 46.344 56.8028 46.344 56.8434V59.2634C46.344 59.3078 46.319 59.3497 46.2796 59.3704C46.2609 59.3804 46.2421 59.3854 46.2221 59.3854Z" fill="#F8A01C"/>
<path d="M61.6119 60.8815C61.5825 60.8815 61.5538 60.8715 61.5313 60.8515C61.505 60.8284 61.4894 60.7952 61.4894 60.7596V58.3408C61.4894 58.2802 61.535 58.2276 61.595 58.2195C61.9694 58.1682 62.3319 58.1113 62.6725 58.0512L62.6944 58.0487C62.7219 58.0487 62.75 58.0587 62.7719 58.0781C62.7994 58.1013 62.8163 58.1351 62.8163 58.1707V60.5907C62.8163 60.6501 62.7732 60.7008 62.715 60.7114C62.3669 60.7727 62.0006 60.8296 61.6281 60.8803L61.6119 60.8815Z" fill="#F8A01C"/>
<mask id="mask5_714_678" style="mask-type:luminance" maskUnits="userSpaceOnUse" x="55" y="58" width="2" height="4">
<path d="M55.1479 58.4109H56.748V61.213H55.1479V58.4109Z" fill="white"/>
</mask>
<g mask="url(#mask5_714_678)">
<path d="M56.4742 61.2099C56.1148 61.2099 55.7498 61.2055 55.3885 61.1961C55.3229 61.1943 55.2698 61.1405 55.2698 61.0742V58.6548C55.2698 58.6217 55.2829 58.5898 55.3067 58.5673C55.3292 58.5447 55.3598 58.5322 55.3917 58.5322H55.3948C55.7629 58.5416 56.126 58.5466 56.4742 58.5466C56.5417 58.5466 56.5954 58.6017 56.5954 58.6686V61.0879C56.5954 61.1555 56.5417 61.2099 56.4742 61.2099Z" fill="#F8A01C"/>
</g>
<mask id="mask6_714_678" style="mask-type:luminance" maskUnits="userSpaceOnUse" x="56" y="58" width="3" height="4">
<path d="M56.748 58.4109H58.1881V61.213H56.748V58.4109Z" fill="white"/>
</mask>
<g mask="url(#mask6_714_678)">
<path d="M56.9468 61.2068C56.915 61.2068 56.8837 61.1943 56.8612 61.1718C56.8381 61.1486 56.825 61.118 56.825 61.0848V58.6648C56.825 58.5985 56.8793 58.5441 56.9456 58.5435C57.3056 58.5404 57.6687 58.531 58.025 58.5179H58.0294C58.0612 58.5179 58.0912 58.5297 58.1144 58.5523C58.1381 58.5754 58.1519 58.6067 58.1519 58.6398V61.0592C58.1519 61.1248 58.0994 61.1793 58.0337 61.1818C57.6762 61.1943 57.3112 61.203 56.9481 61.2068H56.9468Z" fill="#F8A01C"/>
</g>
<mask id="mask7_714_678" style="mask-type:luminance" maskUnits="userSpaceOnUse" x="66" y="56" width="2" height="4">
<path d="M66.0283 56.0091H67.6196V59.6919H66.0283V56.0091Z" fill="white"/>
</mask>
<g mask="url(#mask7_714_678)">
<path d="M66.2764 59.6569C66.2545 59.6569 66.2327 59.6512 66.2127 59.6387C66.1764 59.6162 66.1545 59.5774 66.1545 59.5349V57.1155C66.1545 57.0699 66.1808 57.0273 66.2214 57.0067C66.7502 56.7377 67.0964 56.455 67.2514 56.1667C67.2733 56.126 67.3152 56.1023 67.3589 56.1023L67.389 56.1054C67.4427 56.1192 67.4808 56.1679 67.4808 56.2242V58.6436C67.4808 58.6636 67.4765 58.683 67.4665 58.7005C67.2883 59.0345 66.9064 59.3516 66.332 59.6437C66.3145 59.6525 66.2958 59.6569 66.2764 59.6569Z" fill="#F8A01C"/>
</g>
<mask id="mask8_714_678" style="mask-type:luminance" maskUnits="userSpaceOnUse" x="45" y="52" width="23" height="7">
<path d="M45.2277 52.8066H67.6195V58.8913H45.2277V52.8066Z" fill="white"/>
</mask>
<g mask="url(#mask8_714_678)">
<path d="M56.483 58.7905C50.2566 58.7905 45.3783 57.4908 45.3783 55.832C45.3783 54.1733 50.2566 52.8741 56.483 52.8741C62.7094 52.8741 67.5877 54.1733 67.5877 55.832C67.5877 57.4908 62.7094 58.7905 56.483 58.7905Z" fill="#FCCF77"/>
</g>
<path d="M56.483 57.6897C52.7104 57.6897 48.8091 56.9785 48.8091 55.7876C48.8091 54.5973 52.7104 53.8862 56.483 53.8862C60.2556 53.8862 64.1576 54.5973 64.1576 55.7876C64.1576 56.9785 60.2556 57.6897 56.483 57.6897Z" fill="#F8A01C"/>
<path d="M46.9334 55.899C47.0715 55.5124 47.414 55.2535 47.7715 55.0808C48.1959 54.8751 47.8247 54.244 47.4021 54.4485C46.8634 54.7093 46.4309 55.1371 46.2277 55.7044C46.1602 55.8927 46.3015 56.1048 46.4834 56.1548C46.6859 56.2105 46.8659 56.086 46.9334 55.899Z" fill="white"/>
<path d="M48.4097 54.7343C48.8816 54.7343 48.8816 54.0025 48.4097 54.0025C47.9378 54.0025 47.9378 54.7343 48.4097 54.7343Z" fill="white"/>
<path d="M64.5389 54.7956C65.0101 54.7956 65.0101 54.0632 64.5389 54.0632C64.067 54.0632 64.067 54.7956 64.5389 54.7956Z" fill="white"/>
<path d="M53.7436 57.7754C47.5166 57.7754 42.6383 56.4763 42.6383 54.8169V52.3975C42.6383 52.3306 42.6933 52.2756 42.7608 52.2756C42.8283 52.2756 42.8833 52.3306 42.8833 52.3975C42.8833 53.8693 47.856 55.1121 53.7436 55.1121C59.63 55.1121 64.6033 53.8693 64.6033 52.3975C64.6033 52.3306 64.6583 52.2756 64.7258 52.2756C64.7927 52.2756 64.8477 52.3306 64.8477 52.3975V54.8169C64.8477 56.4763 59.97 57.7754 53.7436 57.7754Z" fill="#E7B16B"/>
<path d="M47.514 57.275L47.4927 57.2725C47.1177 57.2068 46.7508 57.1324 46.4046 57.0517C46.3489 57.0392 46.3096 56.9898 46.3096 56.9335V54.5135C46.3096 54.4766 46.3264 54.4416 46.3564 54.4178C46.3777 54.401 46.4046 54.3916 46.4321 54.3916L46.4589 54.3947C46.8033 54.4741 47.1652 54.5479 47.5359 54.6136C47.5934 54.6242 47.6365 54.6749 47.6365 54.7337V57.1531C47.6365 57.1893 47.6196 57.2231 47.5921 57.2463C47.5702 57.265 47.5421 57.275 47.514 57.275Z" fill="#F8A01C"/>
<path d="M44.6027 56.5113C44.5877 56.5113 44.5727 56.5088 44.5583 56.5032C44.3252 56.4131 44.1033 56.3149 43.8995 56.2117C43.8583 56.1911 43.832 56.1485 43.832 56.1029V53.6835C43.832 53.641 43.8552 53.6022 43.8908 53.5791C43.9102 53.5678 43.932 53.5616 43.9552 53.5616C43.9733 53.5616 43.9927 53.5653 44.0095 53.5753C44.2045 53.6729 44.4177 53.768 44.6464 53.8568C44.6933 53.8743 44.7246 53.92 44.7246 53.9706V56.39C44.7246 56.4294 44.7046 56.4669 44.6714 56.4907C44.6508 56.5044 44.6271 56.5113 44.6027 56.5113Z" fill="#F8A01C"/>
<path d="M49.054 57.5046C48.6828 57.4602 48.3165 57.4089 47.9671 57.3532C47.9084 57.3432 47.8652 57.2932 47.8652 57.2325V54.8132C47.8652 54.7775 47.8802 54.7437 47.9071 54.7206C47.9296 54.7012 47.9577 54.6912 47.9871 54.6912L48.0059 54.6931C48.3521 54.7487 48.7146 54.7988 49.084 54.8438C49.1446 54.8507 49.1909 54.9032 49.1909 54.9645V57.3839C49.1909 57.4189 49.1759 57.4521 49.1496 57.4758C49.1271 57.4952 49.099 57.5058 49.069 57.5058L49.054 57.5046Z" fill="#F8A01C"/>
<path d="M45.9589 56.9398L45.9283 56.936C45.6227 56.8566 45.322 56.7684 45.037 56.674C44.987 56.6571 44.9526 56.6108 44.9526 56.5582V54.1383C44.9526 54.0989 44.972 54.062 45.0033 54.0394C45.0245 54.0238 45.0495 54.0163 45.0751 54.0163L45.1133 54.0219C45.3914 54.1151 45.6864 54.2014 45.9895 54.2809C46.0433 54.2946 46.0814 54.3428 46.0814 54.3985V56.8178C46.0814 56.8553 46.0633 56.8916 46.0339 56.9141C46.012 56.931 45.9858 56.9398 45.9589 56.9398Z" fill="#F8A01C"/>
<path d="M61.9813 56.814C61.955 56.814 61.9294 56.8059 61.9081 56.7896C61.8775 56.7665 61.8594 56.7302 61.8594 56.6921V54.2727C61.8594 54.2189 61.895 54.1701 61.9469 54.1558C62.3431 54.0394 62.7038 53.9143 63.0175 53.7848C63.0325 53.7786 63.0475 53.7748 63.0638 53.7748C63.0875 53.7748 63.1113 53.7823 63.1319 53.7961C63.1657 53.8186 63.1857 53.8568 63.1857 53.8974V56.3174C63.1857 56.3668 63.1563 56.4106 63.11 56.4294C62.7882 56.5632 62.42 56.6902 62.0156 56.809L61.9813 56.814Z" fill="#F8A01C"/>
<path d="M50.6153 57.6585C50.2453 57.6303 49.8803 57.5972 49.529 57.5596C49.4672 57.5528 49.4203 57.5008 49.4203 57.4383V55.0189C49.4203 54.9845 49.4347 54.9508 49.4603 54.9282C49.4828 54.9082 49.5115 54.897 49.5422 54.897L49.5547 54.8976C49.9034 54.9351 50.2666 54.9677 50.6334 54.9964C50.6972 55.0002 50.7459 55.054 50.7459 55.1178V57.5371C50.7459 57.5709 50.7316 57.6028 50.7066 57.6266C50.6841 57.6472 50.6547 57.6591 50.6241 57.6591L50.6153 57.6585Z" fill="#F8A01C"/>
<path d="M60.4262 57.1893C60.3987 57.1893 60.3712 57.18 60.3487 57.1612C60.3206 57.1387 60.3043 57.1037 60.3043 57.0674V54.648C60.3043 54.5899 60.3456 54.5398 60.4031 54.5279C60.7925 54.451 61.1543 54.3691 61.4781 54.2852L61.5087 54.2815C61.5356 54.2815 61.5619 54.2903 61.5837 54.3065C61.6131 54.3303 61.6306 54.3659 61.6306 54.4035V56.8228C61.6306 56.8785 61.5931 56.9273 61.5387 56.941C61.2075 57.0261 60.8418 57.1087 60.45 57.1868L60.4262 57.1893Z" fill="#F8A01C"/>
<path d="M55.7612 57.7266C55.7305 57.7266 55.6999 57.7147 55.6768 57.6928C55.653 57.6703 55.6393 57.6384 55.6393 57.6047V55.1853C55.6393 55.1209 55.6905 55.0665 55.7555 55.0633C56.1187 55.0465 56.4818 55.0239 56.8349 54.997H56.8443C56.8749 54.997 56.9043 55.0083 56.9268 55.0289C56.9518 55.0521 56.9662 55.0846 56.9662 55.119V57.5384C56.9662 57.6022 56.9174 57.6547 56.8537 57.6603C56.5024 57.6866 56.1374 57.7091 55.7674 57.7266H55.7612Z" fill="#F8A01C"/>
<path d="M52.1748 57.7466C51.8066 57.7329 51.441 57.7141 51.0891 57.6916C51.0247 57.6878 50.9747 57.6347 50.9747 57.5702V55.1509C50.9747 55.1171 50.9891 55.0846 51.0135 55.0615C51.036 55.0402 51.066 55.0289 51.0966 55.0289H51.1041C51.4541 55.0514 51.8173 55.0696 52.1835 55.0833C52.2491 55.0852 52.3004 55.1396 52.3004 55.2053V57.6247C52.3004 57.6572 52.2873 57.6891 52.2635 57.7122C52.241 57.7341 52.2104 57.7466 52.1785 57.7466H52.1748Z" fill="#F8A01C"/>
<path d="M57.3168 57.6215C57.2862 57.6215 57.2562 57.6096 57.2343 57.5896C57.2087 57.5659 57.1943 57.5333 57.1943 57.4996V55.0802C57.1943 55.017 57.2431 54.9639 57.3056 54.9589C57.675 54.9251 58.0375 54.8876 58.3844 54.8457L58.3994 54.845C58.4281 54.845 58.4575 54.8557 58.48 54.8751C58.5056 54.8982 58.5206 54.932 58.5206 54.967V57.3863C58.5206 57.4476 58.475 57.5002 58.4137 57.5071C58.0687 57.5496 57.7037 57.5878 57.3275 57.6209L57.3168 57.6215Z" fill="#F8A01C"/>
<path d="M43.482 55.9502C43.4577 55.9502 43.4339 55.9434 43.4139 55.9296C43.1427 55.7463 42.9395 55.5524 42.8101 55.3535C42.7976 55.3329 42.7908 55.3104 42.7908 55.2866V52.8673C42.7908 52.8129 42.8264 52.7653 42.8783 52.7503L42.9133 52.7453C42.9539 52.7453 42.9927 52.7653 43.0158 52.801C43.1258 52.9723 43.3058 53.1431 43.5502 53.3082C43.5839 53.3307 43.6039 53.3683 43.6039 53.4089V55.8283C43.6039 55.8739 43.5795 55.9146 43.5395 55.9359C43.5208 55.9459 43.5014 55.9502 43.482 55.9502Z" fill="#F8A01C"/>
<path d="M58.8711 57.447C58.8418 57.447 58.813 57.437 58.7911 57.417C58.7643 57.3939 58.7493 57.3607 58.7493 57.3257V54.9057C58.7493 54.845 58.7943 54.7931 58.8549 54.785C59.2249 54.7343 59.5874 54.6774 59.9324 54.6167L59.9543 54.6149C59.9824 54.6149 60.0099 54.6249 60.0324 54.6436C60.0599 54.6662 60.0756 54.7012 60.0756 54.7375V57.1568C60.0756 57.2156 60.0331 57.2663 59.9749 57.2763C59.6337 57.3369 59.2674 57.3939 58.8874 57.4464L58.8711 57.447Z" fill="#F8A01C"/>
<path d="M53.7336 57.7754C53.3723 57.7754 53.0073 57.771 52.6479 57.7616C52.5823 57.7598 52.5292 57.7053 52.5292 57.639V55.2197C52.5292 55.1872 52.5429 55.1559 52.5661 55.1328C52.5892 55.1102 52.6198 55.0984 52.6517 55.0984H52.6548C53.0111 55.1077 53.3748 55.1121 53.7342 55.1121C53.8017 55.1121 53.8561 55.1672 53.8561 55.2341V57.6534C53.8561 57.721 53.8017 57.7754 53.7336 57.7754Z" fill="#F8A01C"/>
<path d="M54.2067 57.7729C54.1749 57.7729 54.1436 57.7604 54.1205 57.7379C54.0974 57.7141 54.0842 57.6835 54.0842 57.6509V55.231C54.0842 55.164 54.1386 55.1096 54.2049 55.109C54.5542 55.1052 54.9174 55.0965 55.2849 55.0833H55.2886C55.3205 55.0833 55.3505 55.0959 55.3736 55.1184C55.3974 55.1409 55.4111 55.1722 55.4111 55.2059V57.6253C55.4111 57.691 55.3593 57.7448 55.2936 57.7473C54.9374 57.7604 54.5717 57.7685 54.208 57.7729H54.2067Z" fill="#F8A01C"/>
<path d="M63.5363 56.2223C63.5144 56.2223 63.4919 56.2167 63.4726 56.2048C63.4363 56.1823 63.4144 56.1429 63.4144 56.1004V53.681C63.4144 53.6354 63.4401 53.5935 63.4813 53.5722C64.0101 53.3039 64.3563 53.0212 64.5113 52.7322C64.5326 52.6915 64.5745 52.6678 64.6188 52.6678L64.6482 52.6709C64.7026 52.6846 64.7407 52.7334 64.7407 52.7897V55.2091C64.7407 55.2291 64.7357 55.2485 64.7263 55.2666C64.5476 55.6006 64.1663 55.9177 63.5919 56.2092C63.5738 56.2186 63.5557 56.2223 63.5363 56.2223Z" fill="#F8A01C"/>
<path d="M53.7436 55.3561C47.5166 55.3561 42.6383 54.0569 42.6383 52.3976C42.6383 50.7388 47.5166 49.4397 53.7436 49.4397C59.97 49.4397 64.8477 50.7388 64.8477 52.3976C64.8477 54.0569 59.97 55.3561 53.7436 55.3561Z" fill="#FCCF77"/>
<path d="M53.7436 54.2552C49.9703 54.2552 46.069 53.5434 46.069 52.3531C46.069 51.1629 49.9703 50.4517 53.7436 50.4517C57.5155 50.4517 61.4175 51.1629 61.4175 52.3531C61.4175 53.5434 57.5155 54.2552 53.7436 54.2552Z" fill="#F8A01C"/>
<path d="M45.6696 51.2998C46.1415 51.2998 46.1415 50.5674 45.6696 50.5674C45.1983 50.5674 45.1983 51.2998 45.6696 51.2998Z" fill="white"/>
<path d="M62.4369 51.8603C62.7438 52.0598 63.0094 52.3025 63.1538 52.6477C63.2301 52.8323 63.3932 52.9611 63.6038 52.9036C63.7776 52.8554 63.9351 52.6377 63.8588 52.4532C63.6363 51.9184 63.2888 51.5432 62.8063 51.2279C62.4107 50.969 62.0438 51.6026 62.4369 51.8603Z" fill="white"/>
<path d="M61.7981 51.3611C62.2707 51.3611 62.2707 50.6287 61.7981 50.6287C61.3269 50.6287 61.3269 51.3611 61.7981 51.3611Z" fill="white"/>
<path d="M56.2167 54.8576C49.9903 54.8576 45.1127 53.5578 45.1127 51.899V49.4797C45.1127 49.4121 45.167 49.3577 45.2345 49.3577C45.3014 49.3577 45.3564 49.4121 45.3564 49.4797C45.3564 50.9508 50.3303 52.1943 56.2167 52.1943C62.1038 52.1943 67.077 50.9508 67.077 49.4797C67.077 49.4121 67.1314 49.3577 67.1989 49.3577C67.267 49.3577 67.3208 49.4121 67.3208 49.4797V51.899C67.3208 53.5578 62.4438 54.8576 56.2167 54.8576Z" fill="#E7B16B"/>
<path d="M49.9879 54.3566L49.9672 54.3553C49.5903 54.2884 49.2241 54.2133 48.8778 54.1339C48.8234 54.1214 48.7834 54.072 48.7834 54.015V51.5957C48.7834 51.5582 48.8003 51.5238 48.8297 51.5006C48.8509 51.4825 48.8778 51.4737 48.906 51.4737L48.9335 51.4769C49.2747 51.5557 49.6372 51.6288 50.0091 51.6958C50.0679 51.7058 50.1097 51.7564 50.1097 51.8152V54.2346C50.1097 54.2709 50.0947 54.3059 50.0666 54.3284C50.0447 54.3465 50.0166 54.3566 49.9879 54.3566Z" fill="#F8A01C"/>
<path d="M47.0765 53.5934C47.0615 53.5934 47.0465 53.5903 47.0322 53.5853C46.8003 53.4952 46.579 53.3977 46.3734 53.2938C46.3321 53.2726 46.3065 53.2307 46.3065 53.1844V50.765C46.3065 50.7231 46.3284 50.6837 46.3646 50.6618C46.384 50.6499 46.4065 50.6431 46.4284 50.6431C46.4471 50.6431 46.4659 50.6481 46.4834 50.6562C46.6797 50.7557 46.894 50.8501 47.1203 50.9383C47.1678 50.9564 47.1984 51.0015 47.1984 51.0521V53.4715C47.1984 53.5121 47.179 53.5497 47.1453 53.5722C47.1247 53.5859 47.1009 53.5934 47.0765 53.5934Z" fill="#F8A01C"/>
<path d="M51.5279 54.5874C51.1541 54.5417 50.7891 54.491 50.4416 54.4354C50.3823 54.426 50.3385 54.3747 50.3385 54.3146V51.8953C50.3385 51.8603 50.3548 51.8252 50.3816 51.8027C50.4041 51.784 50.4316 51.774 50.461 51.774L50.4804 51.7752C50.8266 51.8302 51.1891 51.8809 51.5579 51.9253C51.6192 51.9328 51.6648 51.9854 51.6648 52.0467V54.4666C51.6648 54.501 51.6504 54.5342 51.6242 54.5573C51.6017 54.5773 51.5729 54.588 51.5429 54.588L51.5279 54.5874Z" fill="#F8A01C"/>
<path d="M48.4328 54.0219L48.4022 54.0182C48.0959 53.9387 47.7965 53.8499 47.5109 53.7555C47.4609 53.7392 47.4271 53.6923 47.4271 53.6398V51.2204C47.4271 51.1816 47.4459 51.1447 47.4778 51.121C47.499 51.1066 47.524 51.0984 47.549 51.0984L47.5878 51.1047C47.8665 51.1973 48.1615 51.2842 48.464 51.3624C48.5172 51.3762 48.5547 51.4249 48.5547 51.4806V53.9C48.5547 53.9375 48.5378 53.9731 48.5078 53.9963C48.4859 54.0132 48.4597 54.0219 48.4328 54.0219Z" fill="#F8A01C"/>
<path d="M64.4551 53.8962C64.4289 53.8962 64.4033 53.8874 64.382 53.8718C64.352 53.8487 64.3333 53.8124 64.3333 53.7742V51.3549C64.3333 51.3005 64.3689 51.2529 64.4208 51.2373C64.817 51.121 65.177 50.9971 65.4908 50.8664C65.5064 50.8608 65.522 50.8576 65.5377 50.8576C65.5614 50.8576 65.5852 50.8645 65.6052 50.8783C65.6389 50.9008 65.6602 50.9389 65.6602 50.9796V53.399C65.6602 53.4484 65.6295 53.4928 65.5845 53.5122C65.262 53.6454 64.8933 53.773 64.4895 53.8906L64.4551 53.8962Z" fill="#F8A01C"/>
<path d="M53.0892 54.74C52.7198 54.7124 52.3542 54.6787 52.0023 54.6411C51.9404 54.6349 51.8936 54.5823 51.8936 54.5204V52.1011C51.8936 52.0661 51.9086 52.0335 51.9342 52.0098C51.9567 51.9897 51.9861 51.9785 52.0154 51.9785L52.0286 51.9791C52.3773 52.0166 52.7405 52.0498 53.1073 52.0779C53.1711 52.0829 53.2205 52.1355 53.2205 52.1993V54.6186C53.2205 54.6524 53.2061 54.6849 53.1811 54.7081C53.1586 54.7293 53.1292 54.7406 53.098 54.7406L53.0892 54.74Z" fill="#F8A01C"/>
<path d="M62.9001 54.2709C62.872 54.2709 62.8451 54.2621 62.8226 54.244C62.7944 54.2202 62.7782 54.1858 62.7782 54.1489V51.7295C62.7782 51.672 62.8194 51.6213 62.8763 51.6101C63.2663 51.5325 63.6282 51.4512 63.9526 51.3674L63.9826 51.363C64.0095 51.363 64.0357 51.3724 64.057 51.3887C64.087 51.4118 64.1045 51.4474 64.1045 51.4856V53.9049C64.1045 53.96 64.067 54.0094 64.0132 54.0225C63.6838 54.1082 63.3176 54.1908 62.9238 54.269L62.9001 54.2709Z" fill="#F8A01C"/>
<path d="M58.2355 54.8094C58.2036 54.8094 58.1743 54.7969 58.1518 54.775C58.1268 54.7518 58.1136 54.7199 58.1136 54.6874V52.2681C58.1136 52.2024 58.1643 52.1486 58.2293 52.1455C58.5912 52.1286 58.9543 52.1061 59.3087 52.0792L59.3181 52.0786C59.3481 52.0786 59.3781 52.0904 59.4006 52.1111C59.4256 52.1342 59.4399 52.1667 59.4399 52.2005V54.6199C59.4399 54.6837 59.3906 54.7375 59.3268 54.7418C58.9768 54.7687 58.6118 54.7906 58.2412 54.8088L58.2355 54.8094Z" fill="#F8A01C"/>
<path d="M54.6486 54.8281C54.2805 54.8144 53.9161 54.7962 53.563 54.7737C53.4986 54.77 53.4486 54.7162 53.4486 54.6518V52.2324C53.4486 52.1993 53.4624 52.1674 53.4874 52.1436C53.5099 52.1223 53.5399 52.1104 53.5705 52.1104H53.5786C53.9292 52.133 54.2918 52.1517 54.6574 52.1655C54.723 52.1674 54.7749 52.2212 54.7749 52.2875V54.7068C54.7749 54.7393 54.7618 54.7712 54.738 54.7944C54.7149 54.8163 54.6849 54.8281 54.653 54.8281H54.6486Z" fill="#F8A01C"/>
<path d="M59.7906 54.7031C59.76 54.7031 59.7312 54.6918 59.7087 54.6712C59.6831 54.648 59.6687 54.6155 59.6687 54.5811V52.1618C59.6687 52.0986 59.7168 52.046 59.78 52.0404C60.1493 52.0079 60.5125 51.9697 60.8581 51.9272L60.8731 51.9266C60.9025 51.9266 60.9312 51.9378 60.9537 51.9578C60.9794 51.981 60.995 52.0141 60.995 52.0485V54.4679C60.995 54.5298 60.9487 54.5817 60.8875 54.5892C60.5456 54.6305 60.1806 54.6693 59.8012 54.7024L59.7906 54.7031Z" fill="#F8A01C"/>
<path d="M45.9558 53.0324C45.932 53.0324 45.9083 53.0249 45.887 53.0112C45.6152 52.8273 45.4127 52.6334 45.2845 52.4351C45.272 52.4151 45.2645 52.3926 45.2645 52.3688V49.9488C45.2645 49.895 45.3008 49.8481 45.3527 49.8318L45.387 49.8268C45.4277 49.8268 45.4664 49.8481 45.4895 49.8831C45.5995 50.0533 45.7789 50.224 46.0239 50.3904C46.0577 50.4129 46.0777 50.4511 46.0777 50.4911V52.9104C46.0777 52.9555 46.0527 52.9974 46.0127 53.0187C45.9952 53.0274 45.9752 53.0324 45.9558 53.0324Z" fill="#F8A01C"/>
<path d="M61.345 54.5292C61.3156 54.5292 61.2875 54.5186 61.265 54.4992C61.2388 54.4766 61.2238 54.4422 61.2238 54.4072V51.9879C61.2238 51.9266 61.2681 51.8753 61.3288 51.8672C61.6981 51.8165 62.0607 51.7602 62.4063 51.6989L62.4275 51.697C62.4563 51.697 62.4838 51.7064 62.5063 51.7258C62.5338 51.7489 62.5494 51.7827 62.5494 51.819V54.2383C62.5494 54.2971 62.5075 54.3478 62.4488 54.3578C62.1069 54.4191 61.7413 54.4766 61.3619 54.5279L61.345 54.5292Z" fill="#F8A01C"/>
<path d="M56.208 54.8576C55.8467 54.8576 55.4811 54.8526 55.1223 54.8438C55.0561 54.8413 55.0029 54.7875 55.0029 54.7212V52.3019C55.0029 52.2693 55.0167 52.2374 55.0404 52.2149C55.0636 52.193 55.0936 52.1805 55.1254 52.1805H55.1286C55.4867 52.1893 55.8492 52.1943 56.208 52.1943C56.2748 52.1943 56.3298 52.2487 56.3298 52.3162V54.7356C56.3298 54.8025 56.2748 54.8576 56.208 54.8576Z" fill="#F8A01C"/>
<path d="M56.6805 54.8544C56.648 54.8544 56.618 54.8419 56.5955 54.8194C56.5711 54.7963 56.558 54.765 56.558 54.7331V52.3131C56.558 52.2456 56.6124 52.1918 56.6792 52.1911C57.0299 52.1874 57.3924 52.1793 57.758 52.1661L57.763 52.1655C57.7943 52.1655 57.8249 52.178 57.8474 52.1993C57.8711 52.2224 57.8849 52.2549 57.8849 52.2875V54.7074C57.8849 54.7731 57.833 54.8263 57.7674 54.8288C57.4105 54.8419 57.0455 54.8507 56.6824 54.8544H56.6805Z" fill="#F8A01C"/>
<path d="M66.0102 53.3045C65.9877 53.3045 65.9658 53.2982 65.9464 53.2864C65.9102 53.2645 65.8883 53.2251 65.8883 53.1825V50.7632C65.8883 50.7175 65.9139 50.6756 65.9552 50.6543C66.4839 50.386 66.8308 50.1033 66.9852 49.8137C67.0065 49.7737 67.0483 49.7499 67.0927 49.7499L67.1221 49.753C67.1771 49.7668 67.2152 49.8156 67.2152 49.8719V52.2912C67.2152 52.3112 67.2096 52.3306 67.2002 52.3488C67.0215 52.6821 66.6396 52.9993 66.0652 53.2914C66.0477 53.3001 66.0289 53.3045 66.0102 53.3045Z" fill="#F8A01C"/>
<path d="M56.2167 52.4382C49.9903 52.4382 45.1127 51.1385 45.1127 49.4797C45.1127 47.8209 49.9903 46.5218 56.2167 46.5218C62.4438 46.5218 67.3208 47.8209 67.3208 49.4797C67.3208 51.1385 62.4438 52.4382 56.2167 52.4382Z" fill="#FCCF77"/>
<path d="M56.2168 51.3367C52.4448 51.3367 48.5428 50.6256 48.5428 49.4353C48.5428 48.2444 52.4448 47.5332 56.2168 47.5332C59.9894 47.5332 63.892 48.2444 63.892 49.4353C63.892 50.6256 59.9894 51.3367 56.2168 51.3367Z" fill="#F8A01C"/>
<path d="M46.6671 49.5466C46.8059 49.1595 47.1478 48.9011 47.5053 48.7279C47.9297 48.5227 47.5584 47.8922 47.1359 48.0962C46.5971 48.3564 46.1646 48.7842 45.9615 49.3521C45.894 49.5398 46.0352 49.7524 46.2171 49.8018C46.4203 49.8581 46.5996 49.7343 46.6671 49.5466Z" fill="white"/>
<path d="M48.1435 48.382C48.6154 48.382 48.6154 47.6502 48.1435 47.6502C47.6716 47.6502 47.6716 48.382 48.1435 48.382Z" fill="white"/>
<path d="M64.9113 48.9418C65.217 49.1426 65.4839 49.384 65.627 49.7293C65.7032 49.9132 65.8664 50.0433 66.077 49.9851C66.2514 49.9369 66.4095 49.7199 66.3333 49.5347C66.1101 49 65.7626 48.6253 65.2801 48.3101C64.8845 48.0511 64.5176 48.6853 64.9113 48.9418Z" fill="white"/>
<path d="M64.272 48.4427C64.7445 48.4427 64.7445 47.7108 64.272 47.7108C63.8008 47.7108 63.8008 48.4427 64.272 48.4427Z" fill="white"/>
<path d="M56.2418 52.1023C50.0147 52.1023 45.1377 50.8026 45.1377 49.1438V46.7245C45.1377 46.6569 45.1921 46.6025 45.2596 46.6025C45.3265 46.6025 45.3815 46.6569 45.3815 46.7245C45.3815 48.1956 50.3553 49.4391 56.2418 49.4391C62.1288 49.4391 67.1027 48.1956 67.1027 46.7245C67.1027 46.6569 67.1564 46.6025 67.2239 46.6025C67.2921 46.6025 67.3458 46.6569 67.3458 46.7245V49.1438C67.3458 50.8026 62.4688 52.1023 56.2418 52.1023Z" fill="#E7B16B"/>
<path d="M50.0129 51.602L49.9916 51.6001C49.6116 51.5319 49.246 51.4575 48.9028 51.3793C48.8478 51.3662 48.8085 51.3167 48.8085 51.2598V48.8398C48.8085 48.8029 48.8253 48.7679 48.8547 48.7448C48.8766 48.7273 48.9028 48.7185 48.931 48.7185L48.9585 48.7216C49.2991 48.7998 49.6616 48.8736 50.0341 48.9399C50.0929 48.9499 50.1348 49.0006 50.1348 49.06V51.4794C50.1348 51.5156 50.1191 51.55 50.091 51.5732C50.0698 51.5913 50.0416 51.602 50.0129 51.602Z" fill="#F8A01C"/>
<path d="M47.1009 50.8376C47.0866 50.8376 47.0716 50.8357 47.0566 50.8295C46.8228 50.7388 46.6016 50.6412 46.3984 50.538C46.3572 50.5174 46.3315 50.4754 46.3315 50.4298V48.0098C46.3315 47.9679 46.3534 47.9279 46.3897 47.906C46.409 47.8941 46.4315 47.8878 46.4534 47.8878C46.4722 47.8878 46.4909 47.8922 46.509 47.901C46.7028 47.9998 46.9172 48.0949 47.1447 48.1831C47.1928 48.2012 47.2234 48.2462 47.2234 48.2963V50.7156C47.2234 50.7563 47.2034 50.7938 47.1697 50.8163C47.1497 50.8307 47.1253 50.8376 47.1009 50.8376Z" fill="#F8A01C"/>
<path d="M51.5529 51.8315C51.1792 51.7865 50.8135 51.7352 50.4667 51.6795C50.4067 51.6707 50.3635 51.6195 50.3635 51.5594V49.1401C50.3635 49.1044 50.3792 49.0706 50.4067 49.0469C50.4285 49.0281 50.4567 49.0181 50.4854 49.0181L50.5048 49.0193C50.8492 49.0744 51.2117 49.1251 51.5823 49.1707C51.6436 49.1776 51.6892 49.2295 51.6892 49.2914V51.7108C51.6892 51.7458 51.6748 51.779 51.6492 51.8015C51.6267 51.8221 51.5973 51.8327 51.5679 51.8327L51.5529 51.8315Z" fill="#F8A01C"/>
<path d="M48.4578 51.2667L48.4266 51.2629C48.1209 51.1829 47.8209 51.0953 47.5353 51.0002C47.4853 50.984 47.4521 50.9371 47.4521 50.8851V48.4652C47.4521 48.4258 47.4703 48.3895 47.5028 48.3663C47.5234 48.3513 47.5484 48.3432 47.574 48.3432L47.6122 48.3495C47.8915 48.442 48.1865 48.5283 48.4884 48.6065C48.5422 48.6209 48.5797 48.6691 48.5797 48.7254V51.1447C48.5797 51.1829 48.5622 51.2179 48.5328 51.241C48.5109 51.2573 48.4847 51.2667 48.4578 51.2667Z" fill="#F8A01C"/>
<path d="M64.4802 51.1403C64.4539 51.1403 64.4283 51.1322 64.4064 51.1159C64.3764 51.0934 64.3583 51.0571 64.3583 51.0184V48.599C64.3583 48.5452 64.3933 48.4971 64.4458 48.4821C64.8408 48.3663 65.2008 48.2419 65.5158 48.1111C65.5308 48.1049 65.5471 48.1024 65.5621 48.1024C65.5864 48.1024 65.6102 48.1086 65.6302 48.1224C65.6639 48.1455 65.6852 48.1831 65.6852 48.2237V50.6437C65.6852 50.6931 65.6552 50.7381 65.6096 50.7563C65.2858 50.8901 64.917 51.0177 64.5145 51.1353L64.4802 51.1403Z" fill="#F8A01C"/>
<path d="M53.1135 51.9854C52.7429 51.9572 52.3772 51.9235 52.0272 51.8866C51.9653 51.8797 51.9178 51.8265 51.9178 51.7646V49.3452C51.9178 49.3108 51.9328 49.2783 51.9591 49.2545C51.981 49.2339 52.0103 49.2233 52.0397 49.2233L52.0529 49.2239C52.4029 49.2614 52.766 49.2946 53.1323 49.3221C53.196 49.3271 53.2448 49.3803 53.2448 49.4434V51.8628C53.2448 51.8972 53.231 51.9297 53.206 51.9529C53.1835 51.9735 53.1535 51.9854 53.1229 51.9854H53.1135Z" fill="#F8A01C"/>
<path d="M62.9251 51.5163C62.897 51.5163 62.8701 51.5063 62.8476 51.4881C62.8195 51.465 62.8032 51.4306 62.8032 51.3937V48.9737C62.8032 48.9161 62.8445 48.8655 62.9014 48.8542C63.292 48.7767 63.6539 48.6954 63.977 48.6115L64.007 48.6078C64.0345 48.6078 64.0608 48.6165 64.082 48.6334C64.112 48.6566 64.1295 48.6922 64.1295 48.7298V51.1497C64.1295 51.2054 64.092 51.2536 64.0383 51.2679C63.7064 51.3536 63.3407 51.4362 62.9489 51.5138L62.9251 51.5163Z" fill="#F8A01C"/>
<path d="M58.2599 52.0535C58.2287 52.0535 58.1987 52.0416 58.1762 52.0204C58.1518 51.9966 58.1387 51.9647 58.1387 51.9316V49.5122C58.1387 49.4472 58.1893 49.3927 58.2543 49.3909C58.6174 49.3727 58.9812 49.3502 59.3337 49.3233L59.3431 49.3227C59.3731 49.3227 59.4031 49.3346 59.4256 49.3558C59.4506 49.379 59.465 49.4115 59.465 49.4447V51.8646C59.465 51.9284 59.4156 51.9816 59.3518 51.986C59.0018 52.0129 58.6368 52.0354 58.2656 52.0529L58.2599 52.0535Z" fill="#F8A01C"/>
<path d="M54.6729 52.0723C54.3048 52.0592 53.9398 52.041 53.5873 52.0185C53.5235 52.0141 53.4729 51.961 53.4729 51.8965V49.4772C53.4729 49.4434 53.4873 49.4115 53.5117 49.3884C53.5348 49.3671 53.5642 49.3558 53.5948 49.3558H53.6035C53.9535 49.3784 54.3167 49.3959 54.6823 49.4096C54.7479 49.4121 54.7998 49.4665 54.7998 49.5316V51.9509C54.7998 51.9841 54.7861 52.016 54.7623 52.0391C54.7398 52.0604 54.7092 52.0729 54.6779 52.0729L54.6729 52.0723Z" fill="#F8A01C"/>
<path d="M59.815 51.9478C59.7844 51.9478 59.7556 51.9359 59.7331 51.9153C59.7081 51.8928 59.6937 51.8603 59.6937 51.8252V49.4059C59.6937 49.3433 59.7419 49.2908 59.8044 49.2845C60.1725 49.252 60.5356 49.2145 60.8825 49.172L60.8975 49.1713C60.9275 49.1713 60.9556 49.1826 60.9788 49.202C61.0044 49.2251 61.0194 49.2583 61.0194 49.2933V51.7126C61.0194 51.7746 60.9738 51.8259 60.9125 51.834C60.5712 51.8753 60.2062 51.9134 59.8262 51.9472L59.815 51.9478Z" fill="#F8A01C"/>
<path d="M45.9808 50.2772C45.9564 50.2772 45.9327 50.2697 45.9121 50.2565C45.6408 50.072 45.4377 49.8787 45.3096 49.6792C45.2964 49.6598 45.2896 49.6367 45.2896 49.6135V47.1942C45.2896 47.1398 45.3258 47.0922 45.3771 47.0766L45.4121 47.0716C45.4521 47.0716 45.4914 47.0922 45.5139 47.1273C45.6246 47.298 45.8046 47.4688 46.0489 47.6345C46.0827 47.6577 46.1021 47.6952 46.1021 47.7359V50.1552C46.1021 50.2002 46.0771 50.2421 46.0377 50.2628C46.0202 50.2722 46.0002 50.2772 45.9808 50.2772Z" fill="#F8A01C"/>
<path d="M61.37 51.7739C61.3407 51.7739 61.3125 51.7627 61.29 51.7439C61.2638 51.7208 61.2482 51.6876 61.2482 51.652V49.232C61.2482 49.1707 61.2932 49.12 61.3532 49.1113C61.7219 49.0612 62.0851 49.0049 62.4313 48.943L62.4526 48.9418C62.4813 48.9418 62.5088 48.9512 62.5313 48.9699C62.5588 48.9931 62.5745 49.0275 62.5745 49.0631V51.4825C62.5745 51.5419 62.5326 51.5925 62.4738 51.6026C62.1313 51.6639 61.7651 51.7214 61.3869 51.7733L61.37 51.7739Z" fill="#F8A01C"/>
<path d="M56.233 52.1023C55.8711 52.1023 55.5055 52.0973 55.1473 52.0879C55.0805 52.0861 55.028 52.0323 55.028 51.966V49.5466C55.028 49.5141 55.0411 49.4822 55.0648 49.4591C55.088 49.4372 55.1186 49.4247 55.1505 49.4247H55.153C55.5105 49.434 55.873 49.4384 56.233 49.439C56.2999 49.439 56.3549 49.4935 56.3549 49.5604V51.9797C56.3549 52.0473 56.2999 52.1023 56.233 52.1023Z" fill="#F8A01C"/>
<path d="M56.7055 52.0992C56.673 52.0992 56.6424 52.0861 56.6199 52.0642C56.5961 52.041 56.583 52.0098 56.583 51.9772V49.5573C56.583 49.491 56.6368 49.4365 56.7043 49.4359C57.0568 49.4315 57.4199 49.4234 57.783 49.4103H57.788C57.8193 49.4103 57.8493 49.4222 57.8724 49.4441C57.8962 49.4672 57.9099 49.4991 57.9099 49.5322V51.9516C57.9099 52.0173 57.8574 52.0717 57.7918 52.0736C57.4355 52.0861 57.0705 52.0955 56.7068 52.0992H56.7055Z" fill="#F8A01C"/>
<path d="M66.0352 50.5493C66.0127 50.5493 65.9908 50.5424 65.9715 50.5305C65.9352 50.5086 65.9133 50.4692 65.9133 50.4273V48.0079C65.9133 47.9617 65.939 47.9198 65.9802 47.8991C66.5083 47.6302 66.8552 47.3474 67.0096 47.0585C67.0315 47.0184 67.0734 46.994 67.1177 46.994L67.1471 46.9978C67.2015 47.0109 67.2396 47.0597 67.2396 47.116V49.5354C67.2396 49.5554 67.2346 49.5754 67.2252 49.5929C67.0459 49.9269 66.6646 50.2447 66.0902 50.5355C66.0727 50.5443 66.054 50.5493 66.0352 50.5493Z" fill="#F8A01C"/>
<path d="M56.2418 49.683C50.0147 49.683 45.1377 48.3832 45.1377 46.7245C45.1377 45.0657 50.0147 43.766 56.2418 43.766C62.4688 43.766 67.3458 45.0657 67.3458 46.7245C67.3458 48.3832 62.4688 49.683 56.2418 49.683Z" fill="#FCCF77"/>
<path d="M56.2417 48.5815C52.4697 48.5815 48.5671 47.8703 48.5671 46.68C48.5671 45.4891 52.4697 44.7773 56.2417 44.7773C60.0143 44.7773 63.9163 45.4891 63.9163 46.68C63.9163 47.8703 60.0143 48.5815 56.2417 48.5815Z" fill="#F8A01C"/>
<path d="M46.6921 46.7908C46.8309 46.4048 47.1728 46.1459 47.5297 45.9733C47.9547 45.7675 47.5828 45.1364 47.1609 45.3415C46.6221 45.6017 46.1896 46.0289 45.9865 46.5969C45.9184 46.7845 46.0603 46.9972 46.2421 47.0472C46.4453 47.1029 46.6246 46.979 46.6921 46.7908Z" fill="white"/>
<path d="M48.1678 45.6268C48.6403 45.6268 48.6403 44.895 48.1678 44.895C47.6965 44.895 47.6965 45.6268 48.1678 45.6268Z" fill="white"/>
<path d="M64.9364 46.1859C65.242 46.3867 65.5089 46.6288 65.652 46.974C65.7283 47.1579 65.8914 47.288 66.102 47.2299C66.2764 47.1823 66.4339 46.964 66.3577 46.7795C66.1351 46.2447 65.7876 45.8694 65.3051 45.5542C64.9089 45.2952 64.5426 45.9295 64.9364 46.1859Z" fill="white"/>
<path d="M64.2969 45.6881C64.7688 45.6881 64.7688 44.9556 64.2969 44.9556C63.8257 44.9556 63.8257 45.6881 64.2969 45.6881Z" fill="white"/>
<mask id="mask9_714_678" style="mask-type:luminance" maskUnits="userSpaceOnUse" x="45" y="44" width="23" height="6">
<path d="M45.2277 44.16H67.6195V49.7643H45.2277V44.16Z" fill="white"/>
</mask>
<g mask="url(#mask9_714_678)">
<path d="M56.483 49.6911C50.2566 49.6911 45.3783 48.392 45.3783 46.7326V44.3132C45.3783 44.2463 45.4333 44.1919 45.5002 44.1919C45.5683 44.1919 45.6227 44.2463 45.6227 44.3132C45.6227 45.785 50.5959 47.0278 56.483 47.0278C62.3706 47.0278 67.3433 45.785 67.3433 44.3132C67.3433 44.2463 67.3983 44.1919 67.4658 44.1919C67.5327 44.1919 67.5877 44.2463 67.5877 44.3132V46.7326C67.5877 48.392 62.7094 49.6911 56.483 49.6911Z" fill="#E7B16B"/>
</g>
<path d="M50.2547 49.1907L50.2328 49.1888C49.8516 49.1207 49.4853 49.0462 49.1447 48.9674C49.0891 48.9549 49.0497 48.9055 49.0497 48.8492V46.4292C49.0497 46.3923 49.0672 46.3567 49.0966 46.3335C49.1178 46.3166 49.1447 46.3066 49.1722 46.3066L49.1991 46.3104C49.5384 46.3886 49.901 46.4624 50.276 46.5287C50.3341 46.5399 50.3766 46.5906 50.3766 46.6494V49.0688C50.3766 49.105 50.3603 49.1388 50.3322 49.1619C50.311 49.1807 50.2828 49.1907 50.2547 49.1907Z" fill="#F8A01C"/>
<path d="M47.3428 48.4276C47.3278 48.4276 47.3134 48.4245 47.299 48.4189C47.0665 48.3294 46.8447 48.2312 46.6396 48.1274C46.5984 48.1068 46.5721 48.0649 46.5721 48.0186V45.5992C46.5721 45.5567 46.5953 45.5173 46.6309 45.4948C46.6503 45.4829 46.6721 45.4773 46.6946 45.4773C46.7134 45.4773 46.7328 45.481 46.7496 45.4904C46.9453 45.5892 47.1597 45.6843 47.3865 45.7725C47.434 45.79 47.4653 45.8357 47.4653 45.8863V48.3057C47.4653 48.3451 47.4447 48.3826 47.4115 48.4058C47.3915 48.4201 47.3672 48.4276 47.3428 48.4276Z" fill="#F8A01C"/>
<path d="M51.7948 49.4203C51.4222 49.3752 51.056 49.3239 50.7078 49.2689C50.6485 49.2589 50.6053 49.2082 50.6053 49.1482V46.7288C50.6053 46.6932 50.6203 46.6594 50.6478 46.6363C50.6697 46.6175 50.6985 46.6069 50.7272 46.6069L50.746 46.6087C51.091 46.6638 51.4529 46.7138 51.8241 46.7595C51.8854 46.767 51.931 46.8189 51.931 46.8802V49.2996C51.931 49.3346 51.916 49.3677 51.8904 49.3915C51.8679 49.4109 51.8385 49.4215 51.8098 49.4215L51.7948 49.4203Z" fill="#F8A01C"/>
<path d="M48.6996 48.8555L48.6684 48.8517C48.3628 48.7723 48.0621 48.6841 47.7771 48.5896C47.7271 48.5734 47.6934 48.5265 47.6934 48.4733V46.0539C47.6934 46.0145 47.7121 45.9776 47.744 45.9551C47.7652 45.9395 47.7902 45.932 47.8159 45.932L47.8534 45.9382C48.1327 46.0314 48.4271 46.1177 48.7303 46.1959C48.784 46.2103 48.8215 46.2585 48.8215 46.3141V48.7335C48.8215 48.771 48.804 48.8073 48.7746 48.8298C48.7521 48.8467 48.7259 48.8555 48.6996 48.8555Z" fill="#F8A01C"/>
<path d="M64.722 48.7297C64.6957 48.7297 64.6701 48.721 64.6482 48.7053C64.6176 48.6822 64.6001 48.6459 64.6001 48.6071V46.1878C64.6001 46.134 64.6351 46.0858 64.6876 46.0715C65.0826 45.9551 65.4426 45.8306 65.7576 45.7005C65.7726 45.6943 65.7883 45.6912 65.8039 45.6912C65.8276 45.6912 65.8514 45.698 65.872 45.7118C65.9058 45.7349 65.9258 45.7725 65.9258 45.8125V48.2325C65.9258 48.2819 65.8964 48.3263 65.8501 48.3451C65.527 48.4789 65.1589 48.6065 64.7557 48.7247L64.722 48.7297Z" fill="#F8A01C"/>
<path d="M53.3548 49.5741C52.9842 49.5454 52.6186 49.5128 52.2692 49.4753C52.2073 49.4684 52.1598 49.4165 52.1598 49.354V46.9346C52.1598 46.8996 52.1748 46.8664 52.2004 46.8439C52.2229 46.8239 52.2517 46.8127 52.2817 46.8127L52.2948 46.8133C52.6423 46.8502 53.0054 46.8833 53.3729 46.9115C53.4367 46.9159 53.4861 46.969 53.4861 47.0334V49.4528C53.4861 49.4866 53.4717 49.5185 53.4467 49.5416C53.4242 49.5629 53.3948 49.5748 53.3642 49.5748L53.3548 49.5741Z" fill="#F8A01C"/>
<path d="M63.1663 49.1051C63.1388 49.1051 63.1107 49.0957 63.0894 49.0769C63.0607 49.0544 63.045 49.0194 63.045 48.9831V46.5637C63.045 46.5049 63.0857 46.4549 63.1432 46.4436C63.5313 46.3673 63.8932 46.2848 64.2182 46.201L64.2495 46.1972C64.2763 46.1972 64.3026 46.206 64.3238 46.2222C64.3532 46.2454 64.3713 46.2816 64.3713 46.3185V48.7385C64.3713 48.7942 64.3332 48.843 64.2795 48.8567C63.9463 48.9424 63.5801 49.025 63.19 49.1025L63.1663 49.1051Z" fill="#F8A01C"/>
<path d="M58.5011 49.6423C58.4705 49.6423 58.4399 49.6304 58.4174 49.6085C58.393 49.586 58.3799 49.5535 58.3799 49.5204V47.101C58.3799 47.036 58.4305 46.9828 58.4961 46.9797C58.8593 46.9615 59.2224 46.9396 59.5743 46.9121H59.5837C59.6149 46.9121 59.6443 46.9234 59.6668 46.9453C59.6918 46.9678 59.7062 47.0003 59.7062 47.0347V49.4541C59.7062 49.5172 59.6568 49.5704 59.593 49.576C59.2437 49.6023 58.8786 49.6248 58.5074 49.6423H58.5011Z" fill="#F8A01C"/>
<path d="M54.9143 49.6617C54.5511 49.6486 54.1855 49.6298 53.8292 49.6073C53.7648 49.6029 53.7148 49.5504 53.7148 49.486V47.0666C53.7148 47.0328 53.7292 47.0003 53.7536 46.9772C53.7767 46.9559 53.8061 46.9446 53.8367 46.9446H53.8448C54.1961 46.9672 54.5592 46.9853 54.9243 46.9984C54.9893 47.0009 55.0411 47.0554 55.0411 47.121V49.5404C55.0411 49.5729 55.0274 49.6048 55.0036 49.6273C54.9811 49.6498 54.9511 49.6623 54.9193 49.6623L54.9143 49.6617Z" fill="#F8A01C"/>
<path d="M60.0568 49.5372C60.0262 49.5372 59.9968 49.526 59.9743 49.5047C59.9487 49.4816 59.9343 49.449 59.9343 49.4153V46.9959C59.9343 46.9327 59.9825 46.8796 60.0456 46.874C60.4162 46.8408 60.7793 46.8026 61.1244 46.762L61.1394 46.7607C61.1687 46.7607 61.1975 46.7714 61.22 46.7908C61.2462 46.8139 61.2612 46.8477 61.2612 46.8827V49.3021C61.2612 49.3634 61.215 49.4159 61.1537 49.4228C60.8112 49.4647 60.445 49.5028 60.0675 49.5366L60.0568 49.5372Z" fill="#F8A01C"/>
<path d="M46.2221 47.866C46.1978 47.866 46.174 47.8591 46.154 47.8453C45.8821 47.6614 45.679 47.4675 45.5509 47.2693C45.5377 47.2486 45.5315 47.2261 45.5315 47.2023V44.783C45.5315 44.7286 45.5671 44.681 45.619 44.6654L45.6534 44.661C45.694 44.661 45.7334 44.681 45.7559 44.7167C45.8659 44.8874 46.0459 45.0582 46.2903 45.2239C46.324 45.2458 46.344 45.284 46.344 45.3246V47.744C46.344 47.789 46.319 47.8303 46.2796 47.8516C46.2609 47.8616 46.2421 47.866 46.2221 47.866Z" fill="#F8A01C"/>
<path d="M61.6119 49.3627C61.5825 49.3627 61.5538 49.3527 61.5313 49.3327C61.505 49.3096 61.4894 49.2764 61.4894 49.2414V46.8214C61.4894 46.7607 61.535 46.7088 61.595 46.7007C61.9625 46.6507 62.325 46.5937 62.6725 46.5324L62.6944 46.5299C62.7219 46.5299 62.75 46.5406 62.7719 46.5593C62.7994 46.5819 62.8163 46.6163 62.8163 46.6525V49.0719C62.8163 49.1313 62.7732 49.182 62.715 49.192C62.3732 49.2526 62.0069 49.3096 61.6281 49.3621L61.6119 49.3627Z" fill="#F8A01C"/>
<path d="M56.4743 49.6911C56.1124 49.6911 55.7474 49.6867 55.3887 49.6767C55.3224 49.6755 55.2699 49.621 55.2699 49.5554V47.136C55.2699 47.1029 55.283 47.0716 55.3068 47.0485C55.3293 47.0259 55.3599 47.0134 55.3918 47.0134H55.3949C55.7512 47.0228 56.1143 47.0278 56.4743 47.0278C56.5418 47.0278 56.5956 47.0829 56.5956 47.1498V49.5691C56.5956 49.6367 56.5418 49.6911 56.4743 49.6911Z" fill="#F8A01C"/>
<path d="M56.9468 49.6886C56.915 49.6886 56.8837 49.6761 56.8612 49.653C56.8381 49.6298 56.825 49.5992 56.825 49.566V47.146C56.825 47.0797 56.8793 47.0253 56.9456 47.0247C57.2968 47.0216 57.66 47.0122 58.025 46.9991H58.0294C58.0612 46.9991 58.0912 47.0109 58.1144 47.0341C58.1381 47.0566 58.1519 47.0879 58.1519 47.121V49.541C58.1519 49.6067 58.0994 49.6605 58.0337 49.663C57.6762 49.6761 57.3112 49.6842 56.9481 49.6886H56.9468Z" fill="#F8A01C"/>
<mask id="mask10_714_678" style="mask-type:luminance" maskUnits="userSpaceOnUse" x="66" y="44" width="2" height="5">
<path d="M66.0283 44.4803H67.6196V48.1631H66.0283V44.4803Z" fill="white"/>
</mask>
<g mask="url(#mask10_714_678)">
<path d="M66.2764 48.1381C66.2545 48.1381 66.2327 48.1324 66.2127 48.1205C66.1764 48.0974 66.1545 48.0592 66.1545 48.0161V45.5967C66.1545 45.5511 66.1808 45.5085 66.2214 45.4879C66.7502 45.2196 67.0964 44.9362 67.2514 44.6479C67.2733 44.6072 67.3152 44.5835 67.3589 44.5835L67.389 44.5872C67.4427 44.6004 67.4808 44.6491 67.4808 44.7054V47.1248C67.4808 47.1448 67.4765 47.1642 67.4665 47.1823C67.2877 47.5163 66.9064 47.8334 66.332 48.1249C66.3145 48.1337 66.2958 48.1381 66.2764 48.1381Z" fill="#F8A01C"/>
</g>
<mask id="mask11_714_678" style="mask-type:luminance" maskUnits="userSpaceOnUse" x="45" y="41" width="23" height="7">
<path d="M45.2277 41.2778H67.6195V47.3624H45.2277V41.2778Z" fill="white"/>
</mask>
<g mask="url(#mask11_714_678)">
<path d="M56.483 47.2717C50.2566 47.2717 45.3783 45.9726 45.3783 44.3132C45.3783 42.6545 50.2566 41.3553 56.483 41.3553C62.7094 41.3553 67.5877 42.6545 67.5877 44.3132C67.5877 45.9726 62.7094 47.2717 56.483 47.2717Z" fill="#FCCF77"/>
</g>
<path d="M56.483 46.1709C52.7104 46.1709 48.8091 45.4597 48.8091 44.2688C48.8091 43.0785 52.7104 42.3674 56.483 42.3674C60.2556 42.3674 64.1576 43.0785 64.1576 44.2688C64.1576 45.4597 60.2556 46.1709 56.483 46.1709Z" fill="#F8A01C"/>
<path d="M46.9334 44.3808C47.0715 43.9936 47.414 43.7347 47.7715 43.5621C48.1959 43.3563 47.8247 42.7258 47.4021 42.9303C46.8634 43.1905 46.4309 43.6177 46.2277 44.1857C46.1602 44.3739 46.3015 44.586 46.4834 44.636C46.6859 44.6917 46.8659 44.5678 46.9334 44.3808Z" fill="white"/>
<path d="M48.4097 43.2155C48.8816 43.2155 48.8816 42.4837 48.4097 42.4837C47.9378 42.4837 47.9378 43.2155 48.4097 43.2155Z" fill="white"/>
<path d="M64.5389 43.2768C65.0101 43.2768 65.0101 42.5444 64.5389 42.5444C64.067 42.5444 64.067 43.2768 64.5389 43.2768Z" fill="white"/>
<path d="M53.7436 46.2566C47.5166 46.2566 42.6383 44.9575 42.6383 43.2981V40.8787C42.6383 40.8118 42.6933 40.7568 42.7608 40.7568C42.8283 40.7568 42.8833 40.8118 42.8833 40.8787C42.8833 42.3505 47.856 43.5933 53.7436 43.5933C59.63 43.5933 64.6033 42.3505 64.6033 40.8787C64.6033 40.8118 64.6583 40.7568 64.7258 40.7568C64.7927 40.7568 64.8477 40.8118 64.8477 40.8787V43.2981C64.8477 44.9575 59.97 46.2566 53.7436 46.2566Z" fill="#E7B16B"/>
<path d="M47.514 45.7562L47.4927 45.7544C47.1146 45.6868 46.7483 45.6124 46.4046 45.5329C46.3489 45.5204 46.3096 45.471 46.3096 45.4147V42.9954C46.3096 42.9579 46.3264 42.9228 46.3564 42.8991C46.3777 42.8822 46.4046 42.8734 46.4321 42.8734L46.4589 42.8759C46.799 42.9541 47.1608 43.0279 47.5359 43.0948C47.5934 43.1048 47.6365 43.1555 47.6365 43.2143V45.6343C47.6365 45.6705 47.6196 45.7043 47.5921 45.7275C47.5702 45.7462 47.5421 45.7562 47.514 45.7562Z" fill="#F8A01C"/>
<path d="M44.6027 44.9925C44.5877 44.9925 44.5727 44.99 44.5583 44.985C44.3227 44.8931 44.1008 44.7949 43.8995 44.6929C43.8583 44.6723 43.832 44.6297 43.832 44.5841V42.1647C43.832 42.1216 43.8552 42.0834 43.8908 42.0603C43.9102 42.0484 43.932 42.0428 43.9552 42.0428C43.9733 42.0428 43.9927 42.0471 44.0095 42.0559C44.2045 42.1541 44.4177 42.2485 44.6464 42.3374C44.6933 42.3561 44.7246 42.4012 44.7246 42.4512V44.8705C44.7246 44.9112 44.7046 44.9487 44.6714 44.9712C44.6508 44.9856 44.6271 44.9925 44.6027 44.9925Z" fill="#F8A01C"/>
<path d="M49.054 45.9864C48.6821 45.9408 48.3165 45.8895 47.9677 45.8351C47.9084 45.825 47.8652 45.7744 47.8652 45.7137V43.2944C47.8652 43.2581 47.8802 43.2249 47.9071 43.2018C47.9296 43.183 47.9577 43.1724 47.9871 43.1724L48.0059 43.1736C48.3515 43.2293 48.714 43.28 49.084 43.3244C49.1446 43.3319 49.1909 43.3838 49.1909 43.4457V45.8651C49.1909 45.9001 49.1759 45.9339 49.1496 45.957C49.1271 45.9764 49.099 45.987 49.069 45.987L49.054 45.9864Z" fill="#F8A01C"/>
<path d="M45.9589 45.421L45.9283 45.4179C45.6183 45.3365 45.3176 45.2477 45.0364 45.1552C44.987 45.1383 44.9526 45.092 44.9526 45.0388V42.6195C44.9526 42.5801 44.972 42.5432 45.0033 42.5206C45.0245 42.505 45.0495 42.4975 45.0751 42.4975L45.1133 42.5044C45.3939 42.5969 45.6883 42.6833 45.9895 42.7621C46.0433 42.7758 46.0814 42.8246 46.0814 42.8797V45.299C46.0814 45.3372 46.0633 45.3728 46.0339 45.396C46.012 45.4122 45.9858 45.421 45.9589 45.421Z" fill="#F8A01C"/>
<path d="M61.9813 45.2953C61.955 45.2953 61.9294 45.2865 61.9081 45.2709C61.8775 45.2477 61.8594 45.2114 61.8594 45.1733V42.7533C61.8594 42.6995 61.895 42.652 61.9475 42.6363C62.3419 42.5213 62.7025 42.3962 63.0169 42.2661C63.0325 42.2598 63.0475 42.2567 63.0638 42.2567C63.0875 42.2567 63.1113 42.2636 63.1319 42.2773C63.1657 42.2998 63.1857 42.338 63.1857 42.3787V44.798C63.1857 44.8474 63.1563 44.8918 63.11 44.9112C62.7869 45.0444 62.4188 45.1714 62.0156 45.2903L61.9813 45.2953Z" fill="#F8A01C"/>
<path d="M50.6147 46.1397C50.2391 46.1103 49.8728 46.0777 49.529 46.0408C49.4672 46.0346 49.4203 45.982 49.4203 45.9195V43.4995C49.4203 43.4657 49.4347 43.432 49.4603 43.4088C49.4828 43.3888 49.5115 43.3782 49.5422 43.3782L49.5547 43.3788C49.9034 43.4163 50.2666 43.4489 50.6334 43.477C50.6972 43.4814 50.7459 43.5345 50.7459 43.599V46.0183C50.7459 46.0521 50.7316 46.084 50.7066 46.1078C50.6841 46.1284 50.6547 46.1403 50.6241 46.1403L50.6147 46.1397Z" fill="#F8A01C"/>
<path d="M60.4262 45.6705C60.3987 45.6705 60.3712 45.6605 60.3487 45.6424C60.3206 45.6199 60.3043 45.5848 60.3043 45.5486V43.1292C60.3043 43.071 60.3456 43.021 60.4031 43.0097C60.7881 42.9334 61.15 42.8509 61.4781 42.7664L61.5087 42.7633C61.5356 42.7633 61.5619 42.7714 61.5837 42.7883C61.6131 42.8115 61.6306 42.8471 61.6306 42.8846V45.304C61.6306 45.3597 61.5931 45.4078 61.5387 45.4222C61.21 45.5073 60.8431 45.5905 60.45 45.668L60.4262 45.6705Z" fill="#F8A01C"/>
<path d="M55.7612 46.2078C55.7305 46.2078 55.6999 46.1959 55.6768 46.1741C55.653 46.1515 55.6393 46.1196 55.6393 46.0859V43.6665C55.6393 43.6015 55.6905 43.5483 55.7555 43.5445C56.1162 43.5277 56.4793 43.5051 56.8349 43.4789L56.8443 43.4782C56.8749 43.4782 56.9043 43.4895 56.9268 43.5108C56.9518 43.5333 56.9662 43.5658 56.9662 43.6002V46.0196C56.9662 46.0834 56.9174 46.1359 56.8537 46.1409C56.4981 46.1678 56.133 46.1909 55.7674 46.2078H55.7612Z" fill="#F8A01C"/>
<path d="M52.1748 46.2278C51.8091 46.2141 51.4435 46.1959 51.0891 46.1728C51.0247 46.169 50.9747 46.1159 50.9747 46.0514V43.6321C50.9747 43.5983 50.9891 43.5658 51.0135 43.5427C51.036 43.5214 51.066 43.5101 51.0966 43.5101H51.1041C51.4572 43.5326 51.8204 43.5508 52.1835 43.5645C52.2491 43.5664 52.3004 43.6202 52.3004 43.6859V46.1052C52.3004 46.1384 52.2873 46.1709 52.2635 46.1934C52.241 46.2153 52.2104 46.2278 52.1785 46.2278H52.1748Z" fill="#F8A01C"/>
<path d="M57.3168 46.1027C57.2862 46.1027 57.2562 46.0908 57.2343 46.0708C57.2087 46.0471 57.1943 46.0145 57.1943 45.9808V43.5608C57.1943 43.4976 57.2431 43.4444 57.3056 43.4394C57.675 43.4063 58.0375 43.3681 58.3844 43.3269L58.3994 43.3262C58.4281 43.3262 58.4575 43.3362 58.48 43.3563C58.5056 43.38 58.5206 43.4132 58.5206 43.4482V45.8675C58.5206 45.9295 58.475 45.9814 58.4137 45.9889C58.0637 46.0314 57.6981 46.0696 57.3275 46.1021L57.3168 46.1027Z" fill="#F8A01C"/>
<path d="M43.482 44.4315C43.4577 44.4315 43.4339 44.4246 43.4139 44.4108C43.142 44.2269 42.9389 44.0331 42.8101 43.8341C42.7976 43.8141 42.7908 43.7916 42.7908 43.7678V41.3479C42.7908 41.2941 42.8264 41.2465 42.8783 41.2315L42.9133 41.2265C42.9539 41.2265 42.9927 41.2465 43.0158 41.2822C43.1258 41.4536 43.3064 41.6243 43.5502 41.7888C43.5833 41.812 43.6039 41.8495 43.6039 41.8902V44.3095C43.6039 44.3552 43.5795 44.3958 43.5389 44.4177C43.5208 44.4271 43.5014 44.4315 43.482 44.4315Z" fill="#F8A01C"/>
<path d="M58.8711 45.9282C58.8418 45.9282 58.813 45.9182 58.7911 45.8988C58.7643 45.8751 58.7493 45.8419 58.7493 45.8063V43.3869C58.7493 43.3262 58.7943 43.2743 58.8549 43.2662C59.2249 43.2155 59.5874 43.1586 59.9324 43.0979L59.9543 43.0961C59.9824 43.0961 60.0099 43.1061 60.0324 43.1242C60.0599 43.1474 60.0756 43.1824 60.0756 43.218V45.638C60.0756 45.6968 60.0331 45.7475 59.9749 45.7581C59.6249 45.8194 59.2599 45.8763 58.8874 45.927L58.8711 45.9282Z" fill="#F8A01C"/>
<path d="M53.7336 46.2566C53.3711 46.2566 53.0067 46.2516 52.6479 46.2429C52.5823 46.241 52.5292 46.1866 52.5292 46.1209V43.7015C52.5292 43.6684 52.5429 43.6371 52.5661 43.614C52.5892 43.5915 52.6198 43.5789 52.6517 43.5789H52.6548C53.0204 43.589 53.3829 43.5933 53.7336 43.5933C53.8017 43.5933 53.8561 43.6478 53.8561 43.7153V46.134C53.8561 46.2022 53.8017 46.2566 53.7336 46.2566Z" fill="#F8A01C"/>
<path d="M54.2067 46.2541C54.1749 46.2541 54.1436 46.241 54.1205 46.2184C54.0974 46.1953 54.0842 46.1647 54.0842 46.1315V43.7122C54.0842 43.6452 54.1386 43.5908 54.2049 43.5902C54.5655 43.5864 54.9286 43.5783 55.2843 43.5652L55.2886 43.5645C55.3205 43.5645 55.3505 43.5771 55.3736 43.5989C55.3974 43.6215 55.4111 43.6534 55.4111 43.6865V46.1065C55.4111 46.1715 55.3593 46.2253 55.2936 46.2285C54.9361 46.2416 54.5705 46.2497 54.208 46.2541H54.2067Z" fill="#F8A01C"/>
<path d="M63.5363 44.7036C63.5144 44.7036 63.4919 44.6979 63.4726 44.686C63.4363 44.6635 63.4144 44.6241 63.4144 44.5816V42.1622C63.4144 42.116 63.4401 42.0741 63.4813 42.0534C64.0101 41.7851 64.3563 41.5024 64.5113 41.2134C64.5326 41.1727 64.5745 41.1483 64.6188 41.1483L64.6482 41.1521C64.7026 41.1659 64.7407 41.2146 64.7407 41.2703V43.6897C64.7407 43.7103 64.7357 43.7297 64.7263 43.7478C64.5476 44.0818 64.1663 44.399 63.5919 44.6904C63.5738 44.6992 63.5557 44.7036 63.5363 44.7036Z" fill="#F8A01C"/>
<path d="M53.7436 43.8373C47.5166 43.8373 42.6383 42.5381 42.6383 40.8788C42.6383 39.22 47.5166 37.9209 53.7436 37.9209C59.97 37.9209 64.8477 39.22 64.8477 40.8788C64.8477 42.5381 59.97 43.8373 53.7436 43.8373Z" fill="#FCCF77"/>
<path d="M53.7436 42.7364C49.9703 42.7364 46.069 42.0246 46.069 40.8343C46.069 39.6434 49.9703 38.9323 53.7436 38.9323C57.5155 38.9323 61.4175 39.6434 61.4175 40.8343C61.4175 42.0246 57.5155 42.7364 53.7436 42.7364Z" fill="#F8A01C"/>
<path d="M45.6696 39.7804C46.1415 39.7804 46.1415 39.0486 45.6696 39.0486C45.1983 39.0486 45.1983 39.7804 45.6696 39.7804Z" fill="white"/>
<path d="M62.4369 40.3415C62.7438 40.5416 63.0094 40.7837 63.1538 41.1289C63.2301 41.3128 63.3932 41.4423 63.6038 41.3841C63.7776 41.336 63.9351 41.1189 63.8588 40.9344C63.6363 40.399 63.2888 40.0243 62.8063 39.7091C62.4107 39.4502 62.0438 40.0844 62.4369 40.3415Z" fill="white"/>
<path d="M61.7981 39.8417C62.2707 39.8417 62.2707 39.1099 61.7981 39.1099C61.3269 39.1099 61.3269 39.8417 61.7981 39.8417Z" fill="white"/>
<path d="M56.2167 43.3388C49.9903 43.3388 45.1127 42.039 45.1127 40.3809V37.9609C45.1127 37.8933 45.167 37.8389 45.2345 37.8389C45.3014 37.8389 45.3564 37.8933 45.3564 37.9609C45.3564 39.432 50.3303 40.6755 56.2167 40.6755C62.1038 40.6755 67.077 39.432 67.077 37.9609C67.077 37.8933 67.1314 37.8389 67.1989 37.8389C67.267 37.8389 67.3208 37.8933 67.3208 37.9609V40.3809C67.3208 42.039 62.4438 43.3388 56.2167 43.3388Z" fill="#E7B16B"/>
<path d="M49.9879 42.8378L49.9672 42.8365C49.5853 42.7683 49.2197 42.6933 48.8778 42.6151C48.8234 42.6026 48.7834 42.5538 48.7834 42.4962V40.0769C48.7834 40.0394 48.8003 40.005 48.8297 39.9818C48.8509 39.9637 48.8778 39.9549 48.906 39.9549L48.9335 39.9581C49.2722 40.0362 49.6341 40.1094 50.0091 40.1763C50.0679 40.1864 50.1097 40.237 50.1097 40.2964V42.7164C50.1097 42.7521 50.0947 42.7871 50.0666 42.8096C50.0447 42.8277 50.0166 42.8378 49.9879 42.8378Z" fill="#F8A01C"/>
<path d="M47.0765 42.0747C47.0615 42.0747 47.0465 42.0722 47.0322 42.0659C46.7978 41.9752 46.5765 41.8777 46.3728 41.7751C46.3321 41.7538 46.3065 41.7119 46.3065 41.6656V39.2463C46.3065 39.2044 46.3284 39.165 46.3646 39.1431C46.384 39.1312 46.4065 39.1243 46.4284 39.1243C46.4465 39.1243 46.4659 39.1293 46.4834 39.1374C46.6803 39.2369 46.8947 39.3313 47.1203 39.4189C47.1678 39.4377 47.1984 39.4827 47.1984 39.5327V41.9521C47.1984 41.9927 47.179 42.0309 47.1453 42.0528C47.1247 42.0672 47.1009 42.0747 47.0765 42.0747Z" fill="#F8A01C"/>
<path d="M51.5279 43.0685C51.1529 43.0229 50.7873 42.9716 50.4423 42.9166C50.3823 42.9072 50.3385 42.8559 50.3385 42.7958V40.3765C50.3385 40.3408 50.3548 40.3071 50.3816 40.2833C50.4041 40.2645 50.4316 40.2545 50.461 40.2545L50.4804 40.2558C50.8266 40.3114 51.1891 40.3621 51.5579 40.4065C51.6192 40.414 51.6648 40.4659 51.6648 40.5279V42.9472C51.6648 42.9822 51.6504 43.0154 51.6242 43.0385C51.6017 43.0585 51.5729 43.0692 51.5429 43.0692L51.5279 43.0685Z" fill="#F8A01C"/>
<path d="M48.4328 42.5031L48.4022 42.4994C48.0903 42.418 47.7909 42.3298 47.5109 42.2367C47.4609 42.2204 47.4271 42.1735 47.4271 42.1216V39.7016C47.4271 39.6628 47.4459 39.6259 47.4778 39.6028C47.4984 39.5878 47.524 39.5796 47.549 39.5796L47.5878 39.5859C47.8678 39.6784 48.1628 39.7654 48.464 39.8436C48.5172 39.8573 48.5547 39.9061 48.5547 39.9612V42.3811C48.5547 42.4187 48.5378 42.4549 48.5078 42.4781C48.4859 42.4943 48.4597 42.5031 48.4328 42.5031Z" fill="#F8A01C"/>
<path d="M64.4551 42.3774C64.4289 42.3774 64.4033 42.3687 64.382 42.353C64.352 42.3299 64.3333 42.2936 64.3333 42.2554V39.8361C64.3333 39.781 64.3689 39.7341 64.4214 39.7185C64.8164 39.6028 65.1764 39.4783 65.4908 39.3476C65.5058 39.342 65.522 39.3388 65.5377 39.3388C65.5614 39.3388 65.5852 39.3451 65.6052 39.3589C65.6389 39.3814 65.6602 39.4195 65.6602 39.4608V41.8802C65.6602 41.9296 65.6295 41.974 65.5845 41.9927C65.262 42.1266 64.8933 42.2542 64.4895 42.3718L64.4551 42.3774Z" fill="#F8A01C"/>
<path d="M53.0886 43.2212C52.7111 43.193 52.3461 43.1592 52.0023 43.1223C51.9404 43.1161 51.8936 43.0636 51.8936 43.0016V40.5817C51.8936 40.5473 51.9086 40.5147 51.9342 40.491C51.9567 40.4703 51.9861 40.4597 52.0154 40.4597L52.0286 40.4603C52.3767 40.4978 52.7398 40.5304 53.1073 40.5591C53.1711 40.5641 53.2205 40.6167 53.2205 40.6805V43.0998C53.2205 43.1336 53.2061 43.1668 53.1811 43.1893C53.1586 43.2099 53.1292 43.2218 53.098 43.2218L53.0886 43.2212Z" fill="#F8A01C"/>
<path d="M62.9001 42.7521C62.872 42.7521 62.8451 42.7427 62.8226 42.7252C62.7944 42.702 62.7782 42.667 62.7782 42.6301V40.2108C62.7782 40.1532 62.8194 40.1025 62.8763 40.0913C63.2626 40.0144 63.6245 39.933 63.9526 39.8486L63.9826 39.8448C64.0095 39.8448 64.0357 39.8536 64.057 39.8699C64.087 39.893 64.1045 39.9287 64.1045 39.9668V42.3862C64.1045 42.4418 64.067 42.49 64.0132 42.5044C63.6845 42.5894 63.3188 42.672 62.9238 42.7502L62.9001 42.7521Z" fill="#F8A01C"/>
<path d="M58.2355 43.29C58.2036 43.29 58.1743 43.2781 58.1518 43.2568C58.1268 43.233 58.1136 43.2011 58.1136 43.1686V40.7486C58.1136 40.6836 58.1643 40.6292 58.2293 40.6273C58.5887 40.6098 58.9518 40.5873 59.3087 40.5604L59.3181 40.5598C59.3481 40.5598 59.3781 40.5716 59.4006 40.5923C59.4256 40.6154 59.4399 40.6479 59.4399 40.6817V43.1011C59.4399 43.1649 59.3906 43.2187 59.3268 43.2224C58.9737 43.2499 58.608 43.2718 58.2412 43.29H58.2355Z" fill="#F8A01C"/>
<path d="M54.6486 43.3094C54.2918 43.2962 53.9267 43.2781 53.563 43.255C53.4986 43.2512 53.4486 43.1974 53.4486 43.1336V40.7143C53.4486 40.6799 53.4624 40.648 53.4874 40.6248C53.5099 40.6036 53.5399 40.5917 53.5705 40.5917H53.5786C53.9311 40.6148 54.2943 40.633 54.6574 40.6461C54.723 40.6486 54.7749 40.7024 54.7749 40.7681V43.1874C54.7749 43.2199 54.7618 43.2525 54.738 43.2756C54.7149 43.2969 54.6849 43.3094 54.653 43.3094H54.6486Z" fill="#F8A01C"/>
<path d="M59.7906 43.1843C59.76 43.1843 59.7312 43.173 59.7087 43.1524C59.6831 43.1292 59.6687 43.0967 59.6687 43.0623V40.6423C59.6687 40.5792 59.7168 40.5272 59.78 40.5216C60.1493 40.4885 60.5125 40.4509 60.8581 40.4084L60.8731 40.4078C60.9025 40.4078 60.9312 40.4184 60.9537 40.439C60.9794 40.4616 60.995 40.4947 60.995 40.5297V42.9491C60.995 43.011 60.9487 43.0629 60.8875 43.0704C60.5394 43.1123 60.1737 43.1505 59.8012 43.1836L59.7906 43.1843Z" fill="#F8A01C"/>
<path d="M45.9558 41.5136C45.932 41.5136 45.9077 41.5061 45.887 41.4924C45.6145 41.3078 45.4127 41.1139 45.2845 40.9157C45.272 40.8963 45.2645 40.8731 45.2645 40.85V38.4306C45.2645 38.3762 45.3008 38.3287 45.3527 38.313L45.387 38.308C45.4277 38.308 45.4664 38.3287 45.4895 38.3643C45.5995 38.5351 45.7795 38.7052 46.0239 38.871C46.0577 38.8941 46.0777 38.9316 46.0777 38.9723V41.3916C46.0777 41.4367 46.0527 41.4786 46.0127 41.4992C45.9952 41.5092 45.9752 41.5136 45.9558 41.5136Z" fill="#F8A01C"/>
<path d="M61.345 43.0104C61.3156 43.0104 61.2875 42.9998 61.265 42.9804C61.2388 42.9572 61.2238 42.9241 61.2238 42.8884V40.4691C61.2238 40.4078 61.2681 40.3559 61.3288 40.3484C61.7 40.2977 62.0619 40.2408 62.4063 40.1801L62.4275 40.1782C62.4563 40.1782 62.4838 40.1876 62.5063 40.2064C62.5338 40.2295 62.5494 40.2639 62.5494 40.2996V42.7195C62.5494 42.7783 62.5069 42.829 62.4488 42.839C62.0994 42.9016 61.7338 42.9591 61.3619 43.0098L61.345 43.0104Z" fill="#F8A01C"/>
<path d="M56.208 43.3387C55.848 43.3387 55.4836 43.3337 55.1223 43.3244C55.0561 43.3225 55.0029 43.2693 55.0029 43.2024V40.783C55.0029 40.7505 55.0167 40.7186 55.0404 40.6955C55.0636 40.6736 55.0936 40.6611 55.1254 40.6611H55.1286C55.4973 40.6705 55.8605 40.6755 56.208 40.6755C56.2748 40.6755 56.3298 40.7299 56.3298 40.7974V43.2161C56.3298 43.2837 56.2748 43.3387 56.208 43.3387Z" fill="#F8A01C"/>
<path d="M56.6805 43.3356C56.648 43.3356 56.618 43.3225 56.5955 43.3006C56.5711 43.2775 56.558 43.2462 56.558 43.2137V40.7943C56.558 40.7268 56.6124 40.673 56.6792 40.6723C57.0386 40.668 57.4018 40.6598 57.758 40.6467H57.763C57.7943 40.6467 57.8249 40.6592 57.8474 40.6805C57.8711 40.7036 57.8849 40.7355 57.8849 40.7687V43.188C57.8849 43.2537 57.833 43.3075 57.7674 43.31C57.4105 43.3225 57.0455 43.3312 56.6824 43.3356H56.6805Z" fill="#F8A01C"/>
<path d="M66.0102 41.7857C65.9877 41.7857 65.9658 41.7794 65.9464 41.7675C65.9102 41.7457 65.8883 41.7062 65.8883 41.6637V39.2444C65.8883 39.1981 65.9139 39.1562 65.9552 39.1355C66.4839 38.8666 66.8308 38.5845 66.9852 38.2943C67.0065 38.2549 67.0483 38.2305 67.0927 38.2305L67.1221 38.2342C67.1771 38.248 67.2152 38.2968 67.2152 38.3524V40.7718C67.2152 40.7918 67.2096 40.8118 67.2002 40.8293C67.0215 41.1633 66.6396 41.4805 66.0652 41.7725C66.0477 41.7807 66.0289 41.7857 66.0102 41.7857Z" fill="#F8A01C"/>
<path d="M56.2167 40.9194C49.9903 40.9194 45.1127 39.6197 45.1127 37.9609C45.1127 36.3021 49.9903 35.0024 56.2167 35.0024C62.4438 35.0024 67.3208 36.3021 67.3208 37.9609C67.3208 39.6197 62.4438 40.9194 56.2167 40.9194Z" fill="#FCCF77"/>
<path d="M56.2168 39.818C52.4448 39.818 48.5428 39.1068 48.5428 37.9165C48.5428 36.7256 52.4448 36.0138 56.2168 36.0138C59.9894 36.0138 63.892 36.7256 63.892 37.9165C63.892 39.1068 59.9894 39.818 56.2168 39.818Z" fill="#F8A01C"/>
<path d="M46.6671 38.0272C46.8059 37.6406 47.1478 37.3823 47.5053 37.2091C47.9297 37.0039 47.5584 36.3728 47.1359 36.578C46.5971 36.8375 46.1646 37.2654 45.9615 37.8333C45.894 38.0209 46.0352 38.233 46.2171 38.283C46.4203 38.3393 46.5996 38.2155 46.6671 38.0272Z" fill="white"/>
<path d="M48.1435 36.8626C48.6154 36.8626 48.6154 36.1314 48.1435 36.1314C47.6716 36.1314 47.6716 36.8626 48.1435 36.8626Z" fill="white"/>
<path d="M64.9113 37.4223C65.217 37.6231 65.4839 37.8658 65.627 38.2104C65.7032 38.3943 65.8664 38.5238 66.077 38.4663C66.2514 38.4181 66.4095 38.2011 66.3333 38.0159C66.1101 37.4805 65.7626 37.1065 65.2801 36.7906C64.8845 36.5317 64.5176 37.1659 64.9113 37.4223Z" fill="white"/>
<path d="M64.272 36.9239C64.7445 36.9239 64.7445 36.192 64.272 36.192C63.8008 36.192 63.8008 36.9239 64.272 36.9239Z" fill="white"/>
<path d="M56.2167 40.3021C49.9903 40.3021 45.1127 39.003 45.1127 37.3442V34.9242C45.1127 34.8573 45.167 34.8022 45.2345 34.8022C45.3014 34.8022 45.3564 34.8573 45.3564 34.9242C45.3564 36.3953 50.3303 37.6388 56.2167 37.6388C62.1038 37.6388 67.077 36.3953 67.077 34.9242C67.077 34.8573 67.1314 34.8022 67.1989 34.8022C67.267 34.8022 67.3208 34.8573 67.3208 34.9242V37.3442C67.3208 39.003 62.4438 40.3021 56.2167 40.3021Z" fill="#E7B16B"/>
<path d="M49.9879 39.8017L49.9672 39.7998C49.5853 39.7316 49.2197 39.6572 48.8778 39.5784C48.8234 39.5659 48.7834 39.5165 48.7834 39.4595V37.0408C48.7834 37.0033 48.8003 36.9683 48.8297 36.9451C48.8509 36.9276 48.8778 36.9189 48.906 36.9189L48.9335 36.9214C49.2735 36.9995 49.6353 37.0733 50.0091 37.1396C50.0679 37.1503 50.1097 37.2009 50.1097 37.2597V39.6797C50.1097 39.7154 50.0947 39.7504 50.0666 39.7735C50.0447 39.7917 50.0166 39.8017 49.9879 39.8017Z" fill="#F8A01C"/>
<path d="M47.0765 39.038C47.0615 39.038 47.0465 39.0355 47.0322 39.0298C46.7978 38.9392 46.5759 38.841 46.3728 38.7384C46.3321 38.7177 46.3065 38.6758 46.3065 38.6289V36.2096C46.3065 36.1677 46.3284 36.1283 46.3646 36.1064C46.384 36.0945 46.4065 36.0882 46.4284 36.0882C46.4471 36.0882 46.4659 36.0926 46.4834 36.1014C46.6797 36.2008 46.894 36.2946 47.1203 36.3822C47.1678 36.401 47.1984 36.446 47.1984 36.4967V38.916C47.1984 38.9567 47.179 38.9942 47.1453 39.0167C47.1247 39.0311 47.1009 39.038 47.0765 39.038Z" fill="#F8A01C"/>
<path d="M51.5279 40.0318C51.156 39.9862 50.791 39.9355 50.4423 39.8799C50.3823 39.8711 50.3385 39.8192 50.3385 39.7598V37.3404C50.3385 37.3041 50.3548 37.2697 50.3816 37.2466C50.4041 37.2278 50.4316 37.2184 50.461 37.2184L50.4804 37.2197C50.8254 37.2747 51.1885 37.3254 51.5579 37.3698C51.6192 37.3779 51.6648 37.4299 51.6648 37.4918V39.9111C51.6648 39.9455 51.6504 39.9793 51.6242 40.0018C51.6017 40.0218 51.5729 40.0331 51.5429 40.0331L51.5279 40.0318Z" fill="#F8A01C"/>
<path d="M48.4328 39.467L48.4022 39.4627C48.0903 39.3814 47.7909 39.2938 47.5109 39.2006C47.4609 39.1837 47.4271 39.1368 47.4271 39.0849V36.6649C47.4271 36.6261 47.4459 36.5892 47.4778 36.5661C47.499 36.5511 47.524 36.5429 47.549 36.5429L47.5878 36.5492C47.8671 36.6418 48.1621 36.7287 48.464 36.8069C48.5172 36.8213 48.5547 36.8694 48.5547 36.9251V39.3445C48.5547 39.3826 48.5378 39.4176 48.5078 39.4414C48.4859 39.4577 48.4597 39.467 48.4328 39.467Z" fill="#F8A01C"/>
<path d="M64.4551 39.3407C64.4289 39.3407 64.4033 39.3319 64.382 39.3163C64.352 39.2938 64.3333 39.2575 64.3333 39.2187V36.7994C64.3333 36.745 64.3689 36.6974 64.4214 36.6818C64.8164 36.5661 65.1764 36.4422 65.4908 36.3115C65.5058 36.3053 65.522 36.3021 65.5377 36.3021C65.5614 36.3021 65.5852 36.309 65.6052 36.3228C65.6389 36.3447 65.6602 36.3828 65.6602 36.4241V38.8434C65.6602 38.8929 65.6295 38.9373 65.5845 38.9567C65.262 39.0899 64.8933 39.2175 64.4895 39.3357L64.4551 39.3407Z" fill="#F8A01C"/>
<path d="M53.0886 40.1851C52.7061 40.1557 52.3404 40.1219 52.0023 40.0856C51.9404 40.0794 51.8936 40.0268 51.8936 39.9649V37.5449C51.8936 37.5105 51.9086 37.478 51.9342 37.4549C51.9567 37.4342 51.9861 37.423 52.0154 37.423L52.0286 37.4236C52.3767 37.4611 52.7398 37.4943 53.1073 37.5224C53.1711 37.5274 53.2205 37.58 53.2205 37.6438V40.0637C53.2205 40.0969 53.2061 40.13 53.1811 40.1532C53.1586 40.1738 53.1292 40.1851 53.098 40.1851H53.0886Z" fill="#F8A01C"/>
<path d="M62.9001 39.7154C62.872 39.7154 62.8451 39.7066 62.8226 39.6885C62.7944 39.6647 62.7782 39.6303 62.7782 39.594V37.1747C62.7782 37.1165 62.8194 37.0665 62.8763 37.0546C63.2626 36.9783 63.6245 36.8963 63.9526 36.8125L63.9826 36.8081C64.0095 36.8081 64.0357 36.8169 64.057 36.8338C64.087 36.8569 64.1045 36.892 64.1045 36.9301V39.3495C64.1045 39.4051 64.067 39.4539 64.0132 39.467C63.6845 39.5527 63.3188 39.6353 62.9238 39.7141L62.9001 39.7154Z" fill="#F8A01C"/>
<path d="M58.2355 40.2539C58.2036 40.2539 58.1743 40.242 58.1518 40.2201C58.1268 40.197 58.1136 40.1651 58.1136 40.1319V37.7126C58.1136 37.6469 58.1643 37.5931 58.2293 37.5906C58.5893 37.5731 58.9524 37.5506 59.3087 37.5237H59.3181C59.3481 37.5237 59.3781 37.5349 59.4006 37.5556C59.4256 37.5787 59.4399 37.6119 59.4399 37.645V40.0644C59.4399 40.1282 59.3906 40.182 59.3268 40.1863C58.9718 40.2132 58.6062 40.2358 58.2412 40.2539H58.2355Z" fill="#F8A01C"/>
<path d="M54.6486 40.2727C54.2861 40.2595 53.9211 40.242 53.563 40.2189C53.4986 40.2145 53.4486 40.1607 53.4486 40.0969V37.6776C53.4486 37.6438 53.4624 37.6119 53.4874 37.5881C53.5099 37.5668 53.5399 37.555 53.5705 37.555L53.5786 37.5556C53.9317 37.5781 54.2949 37.5962 54.6574 37.6094C54.723 37.6125 54.7749 37.6657 54.7749 37.732V40.1513C54.7749 40.1838 54.7618 40.2157 54.738 40.2389C54.7149 40.2608 54.6849 40.2727 54.653 40.2727H54.6486Z" fill="#F8A01C"/>
<path d="M59.7906 40.1476C59.76 40.1476 59.7312 40.1363 59.7087 40.1157C59.6831 40.0925 59.6687 40.06 59.6687 40.0256V37.6062C59.6687 37.5431 59.7168 37.4905 59.78 37.4849C60.1506 37.4524 60.5131 37.4142 60.8581 37.3717L60.8731 37.3711C60.9025 37.3711 60.9312 37.3823 60.9537 37.4023C60.9794 37.4249 60.995 37.4586 60.995 37.493V39.9124C60.995 39.9743 60.9487 40.0262 60.8875 40.0343C60.54 40.0763 60.1743 40.1144 59.8012 40.1469L59.7906 40.1476Z" fill="#F8A01C"/>
<path d="M45.9558 38.4775C45.932 38.4775 45.9077 38.47 45.887 38.4563C45.6145 38.2717 45.4127 38.0772 45.2845 37.8796C45.272 37.8602 45.2645 37.837 45.2645 37.8133V35.3933C45.2645 35.3401 45.3008 35.292 45.3527 35.2763L45.387 35.2713C45.4277 35.2713 45.4664 35.292 45.4895 35.3276C45.5995 35.4984 45.7795 35.6691 46.0239 35.8349C46.0577 35.8574 46.0777 35.8949 46.0777 35.9362V38.3556C46.0777 38.4006 46.0527 38.4425 46.0127 38.4631C45.9952 38.4725 45.9752 38.4775 45.9558 38.4775Z" fill="#F8A01C"/>
<path d="M61.345 39.9737C61.3156 39.9737 61.2875 39.963 61.265 39.9437C61.2388 39.9205 61.2238 39.8874 61.2238 39.8517V37.4324C61.2238 37.3717 61.2681 37.3198 61.3288 37.3116C61.7006 37.261 62.0625 37.2047 62.4063 37.1434L62.4275 37.1415C62.4563 37.1415 62.4838 37.1509 62.5063 37.1703C62.5338 37.1934 62.5494 37.2272 62.5494 37.2635V39.6835C62.5494 39.7422 62.5069 39.7929 62.4488 39.8029C62.1019 39.8648 61.7369 39.9218 61.3619 39.973L61.345 39.9737Z" fill="#F8A01C"/>
<path d="M56.208 40.302C55.8486 40.302 55.4842 40.2977 55.1223 40.2883C55.0561 40.2864 55.0029 40.2326 55.0029 40.1663V37.7463C55.0029 37.7144 55.0167 37.6825 55.0404 37.6594C55.0636 37.6375 55.0936 37.625 55.1254 37.625H55.1286C55.4942 37.6338 55.8573 37.6388 56.208 37.6388C56.2748 37.6388 56.3298 37.6932 56.3298 37.7607V40.1801C56.3298 40.2476 56.2748 40.302 56.208 40.302Z" fill="#F8A01C"/>
<path d="M56.6805 40.2989C56.648 40.2989 56.618 40.2864 56.5955 40.2639C56.5711 40.2414 56.558 40.2095 56.558 40.177V37.7576C56.558 37.6901 56.6124 37.6363 56.6792 37.6357C57.0405 37.6319 57.4036 37.6238 57.758 37.6106L57.763 37.61C57.7943 37.61 57.8249 37.6225 57.8474 37.6444C57.8711 37.6669 57.8849 37.6995 57.8849 37.732V40.152C57.8849 40.2176 57.833 40.2714 57.7674 40.2739C57.4055 40.2864 57.0405 40.2946 56.6824 40.2989H56.6805Z" fill="#F8A01C"/>
<path d="M66.0102 38.7496C65.9877 38.7496 65.9658 38.7427 65.9464 38.7308C65.9102 38.709 65.8883 38.6696 65.8883 38.6276V36.2083C65.8883 36.1614 65.9139 36.1201 65.9552 36.0988C66.4833 35.8305 66.8308 35.5478 66.9852 35.2582C67.0065 35.2188 67.0483 35.1944 67.0927 35.1944L67.1221 35.1975C67.1771 35.2113 67.2152 35.2601 67.2152 35.3164V37.7357C67.2152 37.7551 67.2096 37.7757 67.2002 37.7926C67.0215 38.1273 66.6396 38.4444 66.0652 38.7359C66.0477 38.7446 66.0289 38.7496 66.0102 38.7496Z" fill="#F8A01C"/>
<path d="M56.2167 37.8827C49.9903 37.8827 45.1127 36.5836 45.1127 34.9242C45.1127 33.2654 49.9903 31.9663 56.2167 31.9663C62.4438 31.9663 67.3208 33.2654 67.3208 34.9242C67.3208 36.5836 62.4438 37.8827 56.2167 37.8827Z" fill="#FCCF77"/>
<path d="M56.2168 36.7819C52.4448 36.7819 48.5428 36.0707 48.5428 34.8798C48.5428 33.6895 52.4448 32.9777 56.2168 32.9777C59.9894 32.9777 63.892 33.6895 63.892 34.8798C63.892 36.0707 59.9894 36.7819 56.2168 36.7819Z" fill="#F8A01C"/>
</g>
<defs>
<filter id="filter0_d_714_678" x="0" y="0.5" width="83" height="83" filterUnits="userSpaceOnUse" color-interpolation-filters="sRGB">
<feFlood flood-opacity="0" result="BackgroundImageFix"/>
<feColorMatrix in="SourceAlpha" type="matrix" values="0 0 0 0 0 0 0 0 0 0 0 0 0 0 0 0 0 0 127 0" result="hardAlpha"/>
<feOffset dy="4"/>
<feGaussianBlur stdDeviation="2"/>
<feComposite in2="hardAlpha" operator="out"/>
<feColorMatrix type="matrix" values="0 0 0 0 0 0 0 0 0 0 0 0 0 0 0 0 0 0 0.25 0"/>
<feBlend mode="normal" in2="BackgroundImageFix" result="effect1_dropShadow_714_678"/>
<feBlend mode="normal" in="SourceGraphic" in2="effect1_dropShadow_714_678" result="shape"/>
</filter>
</defs>
</svg>
