<svg width="30" height="30" viewBox="0 0 30 30" fill="none" xmlns="http://www.w3.org/2000/svg">
<g clip-path="url(#clip0_972_10)">
<path fill-rule="evenodd" clip-rule="evenodd" d="M3.47848 12.2495C3.55574 12.522 3.39771 12.8054 3.12556 12.883C2.85305 12.9606 2.56931 12.8025 2.4917 12.53L2.33087 11.9689C1.84696 13.7444 1.70298 15.5992 1.90526 17.4281C1.55725 17.4074 1.2124 17.4692 0.894248 17.6128C0.661074 15.5771 0.82858 13.5063 1.38869 11.5352L0.802594 11.9387C0.570121 12.0992 0.251262 12.0409 0.0907792 11.8084C-0.0700551 11.5759 -0.0114103 11.2571 0.221062 11.0966L2.07768 9.81833C2.36809 9.61782 2.76561 9.76601 2.86078 10.0996L3.47848 12.2495ZM19.2434 27.4325C18.6246 27.4325 18.1228 27.934 18.1228 28.5527C18.1228 29.1718 18.6246 29.6733 19.2434 29.6733C19.8622 29.6733 20.364 29.1718 20.364 28.5527C20.364 27.934 19.8622 27.4325 19.2434 27.4325ZM28.2248 12.2049C28.8439 12.2049 29.3454 11.7034 29.3454 11.0846C29.3454 10.4655 28.8436 9.96407 28.2248 9.96407C27.6061 9.96407 27.1043 10.4655 27.1043 11.0846C27.1046 11.7034 27.6061 12.2049 28.2248 12.2049ZM10.7568 3.22343C11.3755 3.22343 11.877 2.72161 11.877 2.10285C11.877 1.4841 11.3755 0.982282 10.7568 0.982282C10.1377 0.982282 9.63619 1.4841 9.63619 2.10285C9.63619 2.72161 10.1377 3.22343 10.7568 3.22343ZM1.77497 18.4507C1.15622 18.4507 0.654401 18.9525 0.654401 19.5713C0.654401 20.19 1.15622 20.6919 1.77497 20.6919C2.39408 20.6919 2.89555 20.19 2.89555 19.5713C2.89555 18.9525 2.39373 18.4507 1.77497 18.4507ZM24.828 7.89991V18.2955C24.828 19.1267 24.1481 19.8069 23.3169 19.8069H18.0888V22.2075H20.3889C21.0976 22.2075 21.6777 22.671 21.6777 23.2371V24.2667H8.32247V23.2371C8.32247 22.671 8.90225 22.2075 9.6109 22.2075H11.911V19.8069H6.68288C5.85202 19.8069 5.17181 19.1267 5.17181 18.2955V7.89991C5.17181 7.06905 5.85202 6.38884 6.68288 6.38884H23.3173C24.1481 6.38884 24.828 7.06905 24.828 7.89991ZM23.0314 8.14221C23.0314 8.02563 22.9429 7.93046 22.8351 7.93046H7.16503C7.05687 7.93046 6.96837 8.02563 6.96837 8.14221V17.6332H23.0314V8.14221ZM18.0097 12.043L18.6074 12.273V13.2492L18.0097 13.4796C17.9339 13.7981 17.8078 14.1022 17.6361 14.381L17.8963 14.9668L17.2056 15.6575L16.6202 15.3973C16.3414 15.569 16.0369 15.6955 15.7184 15.771L15.4884 16.3686H14.5118L14.2818 15.771C13.9633 15.6951 13.6591 15.5687 13.3803 15.397L12.7942 15.6572L12.1038 14.9668L12.364 14.3814C12.1923 14.1022 12.0659 13.7981 11.9901 13.4796L11.3924 13.2496V12.273L11.9904 12.043C12.0659 11.7241 12.1923 11.42 12.364 11.1412L12.1038 10.5554L12.7942 9.86504L13.38 10.1253C13.6588 9.95353 13.9633 9.82711 14.2818 9.75161L14.5118 9.15357H15.4884L15.7184 9.75161C16.0369 9.82711 16.341 9.95353 16.6198 10.1253L17.2056 9.86504L17.8963 10.5554L17.6361 11.1412C17.8078 11.42 17.9342 11.7241 18.0097 12.043ZM16.7031 12.7611C16.7031 11.8207 15.9407 11.0583 14.9999 11.0583C14.0595 11.0583 13.2971 11.8207 13.2971 12.7611C13.2971 13.7019 14.0595 14.4639 14.9999 14.4639C15.9407 14.4639 16.7031 13.7019 16.7031 12.7611ZM12.8996 2.23279C13.6795 2.14675 14.464 2.12322 15.245 2.16255C16.2943 2.21523 17.339 2.38098 18.3592 2.65875L17.7976 2.81958C17.5251 2.89719 17.3675 3.18094 17.4447 3.45309C17.5223 3.72559 17.8061 3.88362 18.0786 3.80601L20.2284 3.18831C20.562 3.09349 20.7099 2.69597 20.5094 2.40556L19.2315 0.548943C19.071 0.316471 18.7521 0.257826 18.5196 0.41866C18.2872 0.579143 18.2285 0.897651 18.3894 1.13047L18.7929 1.71657C17.6495 1.39174 16.4748 1.1993 15.2931 1.13996C14.4335 1.09676 13.571 1.1238 12.7152 1.22213C12.8585 1.53993 12.9203 1.88513 12.8996 2.23279ZM29.9094 18.8475C29.7489 18.6151 29.43 18.5564 29.1976 18.7172L28.6111 19.1207C29.1712 17.1496 29.3391 15.0785 29.1059 13.0431C28.7878 13.1864 28.4426 13.2482 28.0949 13.2275C28.2972 15.0563 28.1528 16.9112 27.6693 18.687L27.5081 18.1255C27.4308 17.853 27.1471 17.6953 26.8746 17.7726C26.6021 17.8502 26.4441 18.134 26.5217 18.4065L27.1394 20.5563C27.2342 20.8899 27.6321 21.0377 27.9225 20.8372L29.7791 19.5593C30.0116 19.3985 30.0699 19.08 29.9094 18.8475ZM17.1002 28.4228C15.2714 28.6251 13.4165 28.4807 11.641 27.9972L12.2022 27.836C12.4747 27.7587 12.6327 27.475 12.5551 27.2025C12.4775 26.93 12.1941 26.7719 11.9216 26.8496L9.77174 27.4673C9.43813 27.5621 9.29029 27.9599 9.49045 28.2504L10.7687 30.107C10.9292 30.3394 11.2477 30.3977 11.4805 30.2373C11.713 30.0768 11.7713 29.7579 11.6108 29.5254L11.207 28.939C13.1784 29.4991 15.2492 29.667 17.2846 29.4338C17.1417 29.1156 17.0795 28.7704 17.1002 28.4228Z" fill="#00CCCC"/>
</g>
<defs>
<clipPath id="clip0_972_10">
<rect width="30" height="30" fill="white"/>
</clipPath>
</defs>
</svg>
