<svg width="14" height="17" viewBox="0 0 14 17" fill="none" xmlns="http://www.w3.org/2000/svg">
<path d="M8.33333 0L13.3333 5V15C13.3333 15.442 13.1577 15.8659 12.8452 16.1785C12.5326 16.4911 12.1087 16.6667 11.6667 16.6667H1.66667C1.22464 16.6667 0.800716 16.4911 0.488155 16.1785C0.175595 15.8659 0 15.442 0 15V1.66667C0 1.22464 0.175595 0.800716 0.488155 0.488155C0.800716 0.175595 1.22464 0 1.66667 0H8.33333ZM11.6667 15V5.83333H7.5V1.66667H1.66667V15H11.6667ZM5.76667 8.59167C5.56667 7.95 5.125 5.9 6.29167 5.86667C7.45833 5.83333 6.69167 8.46667 6.69167 8.46667C7.01667 9.70833 8.375 10.6 8.375 10.6C8.79167 10.475 11.1667 10.2 10.8333 11.4333C10.475 12.6667 7.91667 11.5083 7.91667 11.5083C6.29167 11.625 5.075 12.0583 5.075 12.0583C4.13333 13.8167 3.03333 14.5833 2.58333 13.8417C2.025 12.9167 4.35833 11.725 4.35833 11.725C5.56667 9.76667 5.75 8.625 5.76667 8.59167ZM6.30833 9.29167C5.975 10.375 5.30833 11.5333 5.30833 11.5333C6.01667 11.25 7.56667 10.925 7.56667 10.925C6.61667 10.0917 6.325 9.3 6.30833 9.29167ZM8.925 11.1C8.925 11.1 10.3833 11.6417 10.4167 11.425C10.475 11.2 9.30833 11 8.925 11.1ZM4.20833 12.3417C3.56667 12.5917 2.95 13.6583 3.1 13.6583C3.25 13.6667 3.85833 13.1583 4.20833 12.3417ZM6.30833 7.71667C6.30833 7.675 6.66667 6.31667 6.30833 6.275C6.05833 6.25 6.3 7.68333 6.30833 7.71667Z" fill="#FF5652"/>
</svg>
