<svg width="20" height="20" viewBox="0 0 20 20" fill="none" xmlns="http://www.w3.org/2000/svg">
<path fill-rule="evenodd" clip-rule="evenodd" d="M18.1777 5.33016C18.1777 4.96248 17.7704 4.66389 17.2688 4.66389H2.7267C2.22483 4.66389 1.8178 4.96248 1.8178 5.33016V15.0909C1.8178 17.8385 4.26812 19.9879 7.12367 19.9879C8.94418 19.9879 11.051 19.9879 12.8715 19.9879C15.7274 19.9879 18.1777 17.8385 18.1777 15.0909V5.33016ZM16.3599 5.99643V15.0909C16.3599 17.0185 14.8748 18.6553 12.8715 18.6553H7.12367C5.12072 18.6553 3.6356 17.0185 3.6356 15.0909V5.99643H16.3599ZM9.08869 7.99523V16.6565C9.08869 17.0244 9.49603 17.3228 9.99759 17.3228C10.4995 17.3228 10.9065 17.0244 10.9065 16.6565V7.99523C10.9065 7.62734 10.4995 7.32896 9.99759 7.32896C9.49603 7.32896 9.08869 7.62734 9.08869 7.99523ZM5.45309 7.99523V16.6565C5.45309 17.0244 5.86043 17.3228 6.36199 17.3228C6.86386 17.3228 7.27089 17.0244 7.27089 16.6565V7.99523C7.27089 7.62734 6.86386 7.32896 6.36199 7.32896C5.86043 7.32896 5.45309 7.62734 5.45309 7.99523ZM12.7243 7.99523V16.6565C12.7243 17.0244 13.1316 17.3228 13.6332 17.3228C14.1351 17.3228 14.5421 17.0244 14.5421 16.6565V7.99523C14.5421 7.62734 14.1351 7.32896 13.6332 7.32896C13.1316 7.32896 12.7243 7.62734 12.7243 7.99523ZM6.36199 2.66508H0.908899C0.407033 2.66508 0 2.96367 0 3.33135C0 3.69924 0.407033 3.99762 0.908899 3.99762H19.0866C19.5882 3.99762 19.9955 3.69924 19.9955 3.33135C19.9955 2.96367 19.5882 2.66508 19.0866 2.66508H13.6332V1.59516C13.6332 0.71438 12.659 0 11.4574 0H8.53805C7.33652 0 6.36199 0.71438 6.36199 1.59516V2.66508ZM11.8154 1.59516V2.66508H8.17979V1.59516C8.17979 1.44995 8.33996 1.33254 8.53805 1.33254H11.4574C11.6555 1.33254 11.8154 1.44995 11.8154 1.59516Z" fill="#FF5757"/>
</svg>
