<svg width="21" height="21" viewBox="0 0 21 21" fill="none" xmlns="http://www.w3.org/2000/svg">
<mask id="mask0_972_30" style="mask-type:luminance" maskUnits="userSpaceOnUse" x="0" y="0" width="20" height="21">
<path d="M0 0.33606H20V20.3361H0V0.33606Z" fill="white"/>
</mask>
<g mask="url(#mask0_972_30)">
<path d="M18.5756 5.36505L18.1797 5.72622L17.316 6.53849C17.9098 7.69366 18.2334 8.97531 18.2334 10.3469C18.2334 14.932 14.5457 18.6322 9.97656 18.6322C5.40696 18.6322 1.71927 14.932 1.71927 10.3469C1.71927 5.76229 5.40696 2.06161 9.97656 2.06161C11.3617 2.06161 12.6568 2.40499 13.7903 3.00037L15.2114 1.86347C13.682 0.92472 11.8832 0.364929 9.95834 0.364929C4.48959 0.364929 0.0283203 4.82353 0.0283203 10.3291C0.0283203 15.8342 4.47138 20.2928 9.95834 20.2928C15.4453 20.2928 19.8884 15.8342 19.8884 10.3291C19.8884 8.52373 19.4028 6.82704 18.5756 5.36505Z" fill="#FF5652"/>
</g>
<path d="M11.1886 5.9704L8.61574 3.24455C8.61574 3.24455 8.09427 2.1798 6.70911 3.24455C6.70911 3.24455 5.01816 4.34586 5.91732 5.51882C6.81695 6.69226 8.76001 8.80446 8.76001 8.80446L5.43179 11.8367C5.43179 11.8367 4.46026 12.685 5.43179 13.7502L6.58306 14.7246C6.58306 14.7246 7.2488 15.6095 8.1839 14.7246C9.11948 13.8402 11.1162 11.6924 11.1162 11.6924L13.8329 14.2735C13.8329 14.2735 15.0742 15.5734 16.2615 14.3278C17.4487 13.0822 17.6826 12.7571 16.6214 11.6563C15.5598 10.555 13.725 8.73184 13.725 8.73184L19.6793 2.99207C19.6793 2.99207 21.1546 1.9629 19.8955 0.627389C18.6181 -0.708606 17.8805 0.374425 16.873 1.24104C15.7759 2.16152 11.1886 5.9704 11.1886 5.9704Z" fill="#FF5652"/>
</svg>
