<svg width="26" height="24" viewBox="0 0 26 24" fill="none" xmlns="http://www.w3.org/2000/svg">
<mask id="mask0_884_9" style="mask-type:luminance" maskUnits="userSpaceOnUse" x="0" y="1" width="22" height="18">
<path d="M0.64978 1.05576H21.6321V18.816H0.64978V1.05576Z" fill="white"/>
</mask>
<g mask="url(#mask0_884_9)">
<path d="M15.544 17.6402H1.94412V2.22015H12.8603V7.3314C12.8603 7.9669 13.4191 8.48265 14.1078 8.48265H20.3529V13.8054C20.5108 13.7927 20.6701 13.7849 20.8315 13.7849C21.0964 13.7849 21.3564 13.8034 21.6112 13.8372V8.2134C21.6112 7.7199 21.1779 7.3199 20.6433 7.3199H14.6817C14.3716 7.3199 14.1202 7.0879 14.1202 6.80165V1.9509C14.1202 1.4574 13.6869 1.0574 13.1523 1.0574H1.21829C0.92335 1.0574 0.684204 1.2779 0.684204 1.55015V18.3104C0.684204 18.5824 0.92335 18.8032 1.21829 18.8032H15.3951C15.3951 18.4029 15.4476 18.0137 15.544 17.6402Z" fill="#00CCCC"/>
</g>
<path d="M14.869 6.62851H20.8314L14.869 1.95551V6.62851Z" fill="#38B6FF"/>
<path d="M11.791 8.72876C11.791 8.76226 11.7891 8.79576 11.7856 8.82926C11.7821 8.86251 11.7767 8.89551 11.7696 8.92851C11.7626 8.96126 11.7539 8.99376 11.7434 9.02601C11.7328 9.05801 11.7206 9.08951 11.7065 9.12051C11.6927 9.15151 11.6773 9.18176 11.6602 9.21126C11.6429 9.24076 11.6242 9.26951 11.6042 9.29726C11.5841 9.32526 11.5625 9.35201 11.5394 9.37801C11.5164 9.40401 11.492 9.42876 11.4663 9.45251C11.4406 9.47601 11.4138 9.49851 11.3856 9.51976C11.3577 9.54101 11.3285 9.56101 11.2984 9.57976C11.2681 9.59826 11.2369 9.61551 11.205 9.63126C11.173 9.64701 11.1402 9.66151 11.1066 9.67426C11.0731 9.68701 11.0389 9.69826 11.0043 9.70801C10.9696 9.71776 10.9344 9.72601 10.8986 9.73251C10.8632 9.73901 10.8271 9.74401 10.7911 9.74726C10.7548 9.75051 10.7188 9.75226 10.6825 9.75226C10.6462 9.75226 10.6099 9.75051 10.5736 9.74726C10.5376 9.74401 10.5019 9.73901 10.4661 9.73251C10.4306 9.72601 10.3954 9.71776 10.3605 9.70801C10.3258 9.69826 10.2917 9.68701 10.2581 9.67426C10.2245 9.66151 10.1918 9.64701 10.1598 9.63126C10.1279 9.61551 10.0967 9.59826 10.0666 9.57976C10.0363 9.56101 10.0073 9.54101 9.97917 9.51976C9.951 9.49851 9.92419 9.47601 9.89846 9.45251C9.87273 9.42876 9.84863 9.40401 9.82533 9.37801C9.80231 9.35201 9.78092 9.32526 9.76061 9.29726C9.74056 9.26951 9.72188 9.24076 9.70481 9.21126C9.68775 9.18176 9.67204 9.15151 9.65823 9.12051C9.64442 9.08951 9.63223 9.05801 9.62167 9.02601C9.61111 8.99376 9.60217 8.96126 9.59513 8.92851C9.58808 8.89551 9.58267 8.86251 9.57915 8.82926C9.57563 8.79576 9.57373 8.76226 9.57373 8.72876C9.57373 8.69526 9.57563 8.66201 9.57915 8.62851C9.58267 8.59526 9.58808 8.56201 9.59513 8.52926C9.60217 8.49626 9.61111 8.46376 9.62167 8.43176C9.63223 8.39976 9.64442 8.36826 9.65823 8.33726C9.67204 8.30626 9.68775 8.27601 9.70481 8.24651C9.72188 8.21701 9.74056 8.18826 9.76061 8.16026C9.78092 8.13251 9.80231 8.10551 9.82533 8.07976C9.84863 8.05376 9.87273 8.02901 9.89846 8.00526C9.92419 7.98151 9.951 7.95901 9.97917 7.93776C10.0073 7.91651 10.0363 7.89651 10.0666 7.87801C10.0967 7.85926 10.1279 7.84226 10.1598 7.82626C10.1918 7.81051 10.2245 7.79626 10.2581 7.78351C10.2917 7.77051 10.3258 7.75926 10.3605 7.74951C10.3954 7.73976 10.4306 7.73176 10.4661 7.72526C10.5019 7.71876 10.5376 7.71376 10.5736 7.71051C10.6099 7.70726 10.6462 7.70551 10.6825 7.70551C10.7188 7.70551 10.7548 7.70726 10.7911 7.71051C10.8271 7.71376 10.8632 7.71876 10.8986 7.72526C10.9344 7.73176 10.9696 7.73976 11.0043 7.74951C11.0389 7.75926 11.0731 7.77051 11.1066 7.78351C11.1402 7.79626 11.173 7.81051 11.205 7.82626C11.2369 7.84226 11.2681 7.85926 11.2984 7.87801C11.3285 7.89651 11.3577 7.91651 11.3856 7.93776C11.4138 7.95901 11.4406 7.98151 11.4663 8.00526C11.492 8.02901 11.5164 8.05376 11.5394 8.07976C11.5625 8.10551 11.5841 8.13251 11.6042 8.16026C11.6242 8.18826 11.6429 8.21701 11.6602 8.24651C11.6773 8.27601 11.6927 8.30626 11.7065 8.33726C11.7206 8.36826 11.7328 8.39976 11.7434 8.43176C11.7539 8.46376 11.7626 8.49626 11.7696 8.52926C11.7767 8.56201 11.7821 8.59526 11.7856 8.62851C11.7891 8.66201 11.791 8.69526 11.791 8.72876Z" fill="#73C1C6"/>
<path d="M17.2708 15.016L15.5399 12.0093C15.4508 11.8548 15.2366 11.805 15.079 11.9025L12.8072 13.3085C12.6298 13.4185 12.3877 13.34 12.3238 13.1518L11.5987 11.0223C11.5424 10.857 11.3447 10.7715 11.1711 10.8378L9.314 11.5465C9.17506 11.5995 9.015 11.5563 8.92914 11.4425L7.71229 9.83026C7.56983 9.64176 7.25891 9.66876 7.15735 9.87876L4.10398 16.197C4.00945 16.3923 4.16437 16.6128 4.3962 16.6128H15.9413C16.2647 16.0005 16.7194 15.4583 17.2708 15.016Z" fill="#73C1C6"/>
<mask id="mask1_884_9" style="mask-type:luminance" maskUnits="userSpaceOnUse" x="16" y="14" width="10" height="9">
<path d="M16.2933 14.656H25.3497V22.9438H16.2933V14.656Z" fill="white"/>
</mask>
<g mask="url(#mask1_884_9)">
<path d="M20.8314 14.6645C18.3552 14.6645 16.3478 16.5175 16.3478 18.8032C16.3478 21.089 18.3552 22.942 20.8314 22.942C23.3079 22.942 25.3153 21.089 25.3153 18.8032C25.3153 16.5175 23.3079 14.6645 20.8314 14.6645ZM23.017 18.5702C22.7378 18.81 22.3012 18.795 22.0418 18.5372L21.5218 18.0207V21.2072C21.5218 21.559 21.2128 21.8442 20.8314 21.8442C20.4504 21.8442 20.1413 21.559 20.1413 21.2072V18.0207L19.6213 18.5372C19.4854 18.6725 19.3007 18.7407 19.1157 18.7407C18.9472 18.7407 18.7788 18.6842 18.6458 18.5702C18.3666 18.3307 18.3506 17.9277 18.61 17.67L20.3258 15.9657C20.4563 15.836 20.6397 15.7622 20.8314 15.7622C21.0232 15.7622 21.2065 15.836 21.3371 15.9657L23.0528 17.67C23.3123 17.9277 23.2963 18.3307 23.017 18.5702Z" fill="#73C1C6"/>
</g>
</svg>
