<svg width="83" height="84" viewBox="0 0 83 84" fill="none" xmlns="http://www.w3.org/2000/svg">
<g filter="url(#filter0_d_714_679)">
<path d="M79 38.0005C79 38.6135 78.9854 39.2275 78.9552 39.8405C78.925 40.4534 78.8792 41.0654 78.8198 41.6752C78.7594 42.2861 78.6844 42.8949 78.5937 43.5026C78.5042 44.1094 78.3989 44.714 78.2791 45.3155C78.1593 45.918 78.025 46.5164 77.876 47.1116C77.7271 47.7069 77.5635 48.298 77.3854 48.8859C77.2072 49.4728 77.0145 50.0556 76.8083 50.6331C76.601 51.2106 76.3801 51.784 76.1458 52.35C75.9103 52.9171 75.6624 53.478 75.3999 54.0336C75.1374 54.5882 74.8613 55.1355 74.5718 55.6776C74.2832 56.2186 73.9801 56.7523 73.6644 57.2788C73.3488 57.8052 73.0207 58.3233 72.68 58.8341C72.3394 59.3439 71.9863 59.8453 71.6206 60.3384C71.255 60.8315 70.8769 61.3152 70.4883 61.7895C70.0987 62.2638 69.6977 62.7288 69.2851 63.1833C68.8737 63.6378 68.4507 64.0819 68.0164 64.5166C67.583 64.9503 67.1382 65.3735 66.683 65.7853C66.2288 66.1971 65.7642 66.5984 65.2892 66.9873C64.8152 67.3771 64.3319 67.7545 63.8392 68.1204C63.3454 68.4853 62.8443 68.8387 62.3339 69.1796C61.8235 69.5204 61.3047 69.8488 60.7787 70.1647C60.2526 70.4795 59.7182 70.7829 59.1776 71.0716C58.6359 71.3614 58.088 71.6366 57.5338 71.8993C56.9786 72.162 56.4181 72.4101 55.8504 72.6447C55.2837 72.8803 54.7108 73.1013 54.1337 73.3077C53.5555 73.5141 52.9732 73.707 52.3857 73.8852C51.7982 74.0635 51.2076 74.2271 50.6117 74.3762C50.0169 74.5253 49.4179 74.6598 48.8158 74.7786C48.2137 74.8985 47.6095 75.0038 47.0022 75.0934C46.3949 75.1841 45.7866 75.2592 45.1761 75.3186C44.5647 75.3791 43.9532 75.4239 43.3396 75.4541C42.7271 75.4844 42.1136 75.5 41.5 75.5C40.8864 75.5 40.2729 75.4844 39.6604 75.4541C39.0468 75.4239 38.4353 75.3791 37.8239 75.3186C37.2134 75.2592 36.6051 75.1841 35.9978 75.0934C35.3905 75.0038 34.7863 74.8985 34.1842 74.7786C33.5821 74.6598 32.9831 74.5253 32.3883 74.3762C31.7924 74.2271 31.2018 74.0635 30.6143 73.8852C30.0268 73.707 29.4445 73.5141 28.8663 73.3077C28.2892 73.1013 27.7163 72.8803 27.1496 72.6447C26.5819 72.4101 26.0214 72.162 25.4662 71.8993C24.912 71.6366 24.3641 71.3614 23.8224 71.0716C23.2818 70.7829 22.7474 70.4795 22.2213 70.1647C21.6942 69.8488 21.1765 69.5204 20.6661 69.1796C20.1557 68.8387 19.6546 68.4853 19.1608 68.1204C18.6681 67.7545 18.1848 67.3771 17.7098 66.9873C17.2358 66.5984 16.7712 66.1971 16.317 65.7853C15.8618 65.3735 15.417 64.9503 14.9836 64.5166C14.5493 64.0819 14.1263 63.6378 13.7149 63.1833C13.3023 62.7288 12.9013 62.2638 12.5117 61.7895C12.1231 61.3152 11.745 60.8315 11.3794 60.3384C11.0137 59.8453 10.6606 59.3439 10.32 58.8341C9.97933 58.3233 9.6512 57.8052 9.33556 57.2788C9.01993 56.7523 8.7168 56.2186 8.42825 55.6776C8.13866 55.1355 7.86261 54.5882 7.6001 54.0336C7.33759 53.478 7.08967 52.9171 6.85425 52.35C6.61986 51.784 6.39902 51.2106 6.19173 50.6331C5.98547 50.0556 5.79276 49.4728 5.61463 48.8859C5.4365 48.298 5.27295 47.7069 5.12399 47.1116C4.97503 46.5164 4.84065 45.918 4.72085 45.3155C4.60106 44.714 4.49585 44.1094 4.40626 43.5026C4.31563 42.8949 4.24063 42.2861 4.18021 41.6752C4.12084 41.0654 4.075 40.4534 4.04479 39.8405C4.01458 39.2275 4 38.6135 4 38.0005C4 37.3865 4.01458 36.7725 4.04479 36.1595C4.075 35.5466 4.12084 34.9346 4.18021 34.3248C4.24063 33.7139 4.31563 33.1051 4.40626 32.4974C4.49585 31.8906 4.60106 31.286 4.72085 30.6845C4.84065 30.082 4.97503 29.4836 5.12399 28.8884C5.27295 28.2931 5.4365 27.702 5.61463 27.1141C5.79276 26.5272 5.98547 25.9444 6.19173 25.3669C6.39902 24.7894 6.61986 24.216 6.85425 23.65C7.08967 23.0829 7.33759 22.522 7.6001 21.9664C7.86261 21.4118 8.13866 20.8645 8.42825 20.3224C8.7168 19.7814 9.01993 19.2477 9.33556 18.7212C9.6512 18.1948 9.97933 17.6767 10.32 17.1659C10.6606 16.6561 11.0137 16.1547 11.3794 15.6616C11.745 15.1685 12.1231 14.6848 12.5117 14.2105C12.9013 13.7362 13.3023 13.2712 13.7149 12.8167C14.1263 12.3622 14.5493 11.9181 14.9836 11.4834C15.417 11.0497 15.8618 10.6265 16.317 10.2147C16.7712 9.80294 17.2358 9.40159 17.7098 9.01275C18.1848 8.62287 18.6681 8.2455 19.1608 7.8796C19.6546 7.51473 20.1557 7.16134 20.6661 6.82045C21.1765 6.47957 21.6942 6.15119 22.2213 5.83533C22.7474 5.5205 23.2818 5.21715 23.8224 4.92838C24.3641 4.63858 24.912 4.36337 25.4662 4.10067C26.0214 3.83797 26.5819 3.58986 27.1496 3.35531C27.7163 3.11971 28.2892 2.89871 28.8663 2.6923C29.4445 2.48589 30.0268 2.29304 30.6143 2.11478C31.2018 1.93651 31.7924 1.77285 32.3883 1.62378C32.9831 1.4747 33.5821 1.34023 34.1842 1.22138C34.7863 1.1015 35.3905 0.996213 35.9978 0.906561C36.6051 0.815866 37.2134 0.740809 37.8239 0.681389C38.4353 0.620926 39.0468 0.5761 39.6604 0.545868C40.2729 0.515637 40.8864 0.5 41.5 0.5C42.1136 0.5 42.7271 0.515637 43.3396 0.545868C43.9532 0.5761 44.5647 0.620926 45.1761 0.681389C45.7866 0.740809 46.3949 0.815866 47.0022 0.906561C47.6095 0.996213 48.2137 1.1015 48.8158 1.22138C49.4179 1.34023 50.0169 1.4747 50.6117 1.62378C51.2076 1.77285 51.7982 1.93651 52.3857 2.11478C52.9732 2.29304 53.5555 2.48589 54.1337 2.6923C54.7108 2.89871 55.2837 3.11971 55.8504 3.35531C56.4181 3.58986 56.9786 3.83797 57.5338 4.10067C58.088 4.36337 58.6359 4.63858 59.1776 4.92838C59.7182 5.21715 60.2526 5.5205 60.7787 5.83533C61.3047 6.15119 61.8235 6.47957 62.3339 6.82045C62.8443 7.16134 63.3454 7.51473 63.8392 7.8796C64.3319 8.2455 64.8152 8.62287 65.2892 9.01275C65.7642 9.40159 66.2288 9.80294 66.683 10.2147C67.1382 10.6265 67.583 11.0497 68.0164 11.4834C68.4507 11.9181 68.8737 12.3622 69.2851 12.8167C69.6977 13.2712 70.0987 13.7362 70.4883 14.2105C70.8769 14.6848 71.255 15.1685 71.6206 15.6616C71.9863 16.1547 72.3394 16.6561 72.68 17.1659C73.0207 17.6767 73.3488 18.1948 73.6644 18.7212C73.9801 19.2477 74.2832 19.7814 74.5718 20.3224C74.8613 20.8645 75.1374 21.4118 75.3999 21.9664C75.6624 22.522 75.9103 23.0829 76.1458 23.65C76.3801 24.216 76.601 24.7894 76.8083 25.3669C77.0145 25.9444 77.2072 26.5272 77.3854 27.1141C77.5635 27.702 77.7271 28.2931 77.876 28.8884C78.025 29.4836 78.1593 30.082 78.2791 30.6845C78.3989 31.286 78.5042 31.8906 78.5937 32.4974C78.6844 33.1051 78.7594 33.7139 78.8198 34.3248C78.8792 34.9346 78.925 35.5466 78.9552 36.1595C78.9854 36.7725 79 37.3865 79 38.0005Z" fill="#C3EDEF"/>
<g clip-path="url(#clip0_714_679)">
<path d="M46.5829 32.5749H27.3684C26.8581 32.5749 26.441 32.0939 26.441 31.506C26.441 30.918 26.8581 30.437 27.3684 30.437H46.5829C47.0927 30.437 47.5103 30.918 47.5103 31.506C47.5103 32.0939 47.0927 32.5749 46.5829 32.5749Z" fill="#0690CF"/>
<path d="M55.1203 34.2956C55.1203 34.5508 55.1111 34.8054 55.0927 35.0593C55.0737 35.3126 55.0461 35.5647 55.0092 35.8149C54.9719 36.0651 54.9258 36.3121 54.8706 36.5561C54.8153 36.8 54.7514 37.0402 54.6788 37.276C54.6062 37.5112 54.525 37.7414 54.4356 37.9665C54.3457 38.1917 54.2482 38.41 54.1425 38.622C54.0375 38.8341 53.9242 39.0386 53.8034 39.2356C53.6832 39.4327 53.5559 39.6215 53.421 39.8017C53.2867 39.9825 53.1464 40.1532 52.9996 40.3152C52.8528 40.4766 52.7 40.6286 52.5424 40.7706C52.3842 40.9119 52.2212 41.0426 52.0538 41.1634C51.8864 41.2834 51.7147 41.3923 51.5392 41.4899C51.3637 41.5874 51.185 41.6731 51.003 41.7475C50.8215 41.8214 50.6373 41.8833 50.451 41.9327C50.2646 41.9827 50.0767 42.0203 49.8876 42.0453C49.6986 42.0703 49.509 42.0828 49.3189 42.0828C49.1293 42.0828 48.9397 42.0703 48.7506 42.0453C48.5616 42.0203 48.3736 41.9827 48.1873 41.9327C48.001 41.8833 47.8168 41.8214 47.6348 41.7475C47.4533 41.6731 47.2746 41.5874 47.0991 41.4899C46.9235 41.3923 46.7518 41.2834 46.5845 41.1634C46.4165 41.0426 46.254 40.9119 46.0959 40.7706C45.9382 40.6286 45.7855 40.4766 45.6387 40.3152C45.4919 40.1532 45.351 39.9825 45.2167 39.8017C45.0824 39.6215 44.9551 39.4327 44.8348 39.2356C44.714 39.0386 44.6008 38.8341 44.4952 38.622C44.3901 38.41 44.2921 38.1917 44.2027 37.9665C44.1133 37.7414 44.0321 37.5112 43.9595 37.2754C43.8863 37.0402 43.8224 36.8 43.7677 36.5561C43.7125 36.3121 43.6664 36.0651 43.629 35.8149C43.5922 35.5647 43.564 35.3126 43.5456 35.0593C43.5272 34.8054 43.5175 34.5508 43.5175 34.2956C43.5175 34.041 43.5272 33.7865 43.5456 33.5325C43.564 33.2786 43.5922 33.0265 43.629 32.7769C43.6664 32.5268 43.7125 32.2797 43.7677 32.0351C43.8224 31.7912 43.8863 31.5516 43.9595 31.3158C44.0321 31.08 44.1133 30.8498 44.2027 30.6253C44.2921 30.4001 44.3901 30.1818 44.4952 29.9698C44.6008 29.7578 44.714 29.5532 44.8348 29.3562C44.9551 29.1586 45.0824 28.9703 45.2167 28.7895C45.351 28.6094 45.4919 28.4386 45.6387 28.2766C45.7855 28.1146 45.9382 27.9633 46.0959 27.8213C46.254 27.6799 46.4165 27.5486 46.5845 27.4285C46.7518 27.3084 46.9235 27.1996 47.0991 27.102C47.2746 27.0044 47.4533 26.9181 47.6348 26.8443C47.8168 26.7705 48.001 26.7086 48.1873 26.6585C48.3736 26.6091 48.5616 26.5716 48.7506 26.5466C48.9397 26.5215 49.1293 26.509 49.3189 26.509C49.509 26.509 49.6986 26.5215 49.8876 26.5466C50.0767 26.5716 50.2646 26.6091 50.451 26.6585C50.6373 26.7086 50.8215 26.7705 51.003 26.8443C51.185 26.9181 51.3637 27.0044 51.5392 27.102C51.7147 27.1996 51.8864 27.3084 52.0538 27.4285C52.2212 27.5486 52.3842 27.6799 52.5424 27.8213C52.7 27.9633 52.8528 28.1146 52.9996 28.2766C53.1464 28.4386 53.2867 28.6094 53.421 28.7895C53.5559 28.9703 53.6832 29.1586 53.8034 29.3562C53.9242 29.5532 54.0375 29.7578 54.1425 29.9698C54.2482 30.1818 54.3457 30.4001 54.4356 30.6253C54.525 30.8498 54.6062 31.08 54.6788 31.3158C54.7514 31.5516 54.8153 31.7912 54.8706 32.0351C54.9258 32.2797 54.9719 32.5268 55.0092 32.7769C55.0461 33.0265 55.0737 33.2786 55.0927 33.5325C55.1111 33.7865 55.1203 34.041 55.1203 34.2956Z" fill="black"/>
<mask id="mask0_714_679" style="mask-type:luminance" maskUnits="userSpaceOnUse" x="17" y="16" width="8" height="9">
<path d="M17.5969 16.619H24.5126V24.7852H17.5969V16.619Z" fill="white"/>
</mask>
<g mask="url(#mask0_714_679)">
<path d="M22.8819 24.6495H19.186C18.3107 24.6495 17.6011 23.8313 17.6011 22.8224V18.5629C17.6011 17.554 18.3107 16.7365 19.186 16.7365H22.8819C23.7573 16.7365 24.4669 17.554 24.4669 18.5629V22.8224C24.4669 23.8313 23.7573 24.6495 22.8819 24.6495Z" fill="#8DD5D8"/>
</g>
<path d="M46.5829 21.1487H27.3684C26.8581 21.1487 26.441 20.6683 26.441 20.0804C26.441 19.4924 26.8581 19.0114 27.3684 19.0114H46.5829C47.0927 19.0114 47.5103 19.4924 47.5103 20.0804C47.5103 20.6683 47.0927 21.1487 46.5829 21.1487Z" fill="#0690CF"/>
<path d="M41.2777 24.1585H27.0515C26.7157 24.1585 26.441 23.842 26.441 23.4548V23.2153C26.441 22.8281 26.7157 22.5116 27.0515 22.5116H41.2777C41.6135 22.5116 41.8882 22.8281 41.8882 23.2153V23.4548C41.8882 23.842 41.6135 24.1585 41.2777 24.1585Z" fill="#0690CF"/>
<path d="M20.6082 22.7274L18.7297 20.5626C18.5623 20.37 18.5623 20.0566 18.7297 19.864C18.8976 19.6713 19.1684 19.6707 19.3363 19.864L20.6082 21.3301L25.5408 15.6445C25.7081 15.4518 25.9795 15.4518 26.1469 15.6445C26.3148 15.8378 26.3148 16.1505 26.1469 16.3438L20.6082 22.7274Z" fill="black"/>
<mask id="mask1_714_679" style="mask-type:luminance" maskUnits="userSpaceOnUse" x="17" y="28" width="8" height="9">
<path d="M17.5969 28.1478H24.5126V36.1539H17.5969V28.1478Z" fill="white"/>
</mask>
<g mask="url(#mask1_714_679)">
<path d="M22.8821 36.0751H19.1862C18.3108 36.0751 17.6012 35.2576 17.6012 34.2487V29.9885C17.6012 28.9796 18.3108 28.1621 19.1862 28.1621H22.8821C23.7574 28.1621 24.467 28.9796 24.467 29.9885V34.2487C24.467 35.2576 23.7574 36.0751 22.8821 36.0751Z" fill="#8DD5D8"/>
</g>
<path d="M41.2777 35.5841H27.0515C26.7157 35.5841 26.441 35.2676 26.441 34.8804V34.6409C26.441 34.2543 26.7157 33.9378 27.0515 33.9378H41.2777C41.6135 33.9378 41.8882 34.2543 41.8882 34.6409V34.8804C41.8882 35.2676 41.6135 35.5841 41.2777 35.5841Z" fill="#0690CF"/>
<path d="M20.6082 34.1536L18.7297 31.9888C18.5623 31.7956 18.5623 31.4828 18.7297 31.2896C18.8976 31.0969 19.1684 31.0969 19.3363 31.2896L20.6082 32.7557L25.5408 27.0707C25.7081 26.8774 25.9795 26.8774 26.1469 27.0707C26.3148 27.2634 26.3148 27.5767 26.1469 27.7694L20.6082 34.1536Z" fill="black"/>
<mask id="mask2_714_679" style="mask-type:luminance" maskUnits="userSpaceOnUse" x="17" y="40" width="8" height="9">
<path d="M17.5969 40.7974H24.5126V48.8035H17.5969V40.7974Z" fill="white"/>
</mask>
<g mask="url(#mask2_714_679)">
<path d="M22.8819 48.7835H19.186C18.3107 48.7835 17.6011 47.9654 17.6011 46.9565V42.697C17.6011 41.6881 18.3107 40.8706 19.186 40.8706H22.8819C23.7573 40.8706 24.4669 41.6881 24.4669 42.697V46.9565C24.4669 47.9654 23.7573 48.7835 22.8819 48.7835Z" fill="#8DD5D8"/>
</g>
<path d="M46.5829 45.2827H27.3684C26.8581 45.2827 26.441 44.8017 26.441 44.2144C26.441 43.6265 26.8581 43.1455 27.3684 43.1455H46.5829C47.0927 43.1455 47.5103 43.6265 47.5103 44.2144C47.5103 44.8017 47.0927 45.2827 46.5829 45.2827Z" fill="#0690CF"/>
<path d="M41.2777 48.2925H27.0515C26.7157 48.2925 26.441 47.9761 26.441 47.5889V47.3493C26.441 46.9622 26.7157 46.6457 27.0515 46.6457H41.2777C41.6135 46.6457 41.8882 46.9622 41.8882 47.3493V47.5889C41.8882 47.9761 41.6135 48.2925 41.2777 48.2925Z" fill="#0690CF"/>
<path d="M20.6082 46.8614L18.7297 44.6967C18.5623 44.504 18.5623 44.1906 18.7297 43.998C18.8976 43.8053 19.1684 43.8053 19.3363 43.998L20.6082 45.4641L25.5408 39.7785C25.7081 39.5859 25.9795 39.5859 26.1469 39.7785C26.3148 39.9718 26.3148 40.2845 26.1469 40.4772L20.6082 46.8614Z" fill="black"/>
<path d="M54.4958 36.234C54.3382 37.2704 53.6464 38.1098 52.9509 38.1098C52.5804 38.1098 52.283 37.8683 52.1113 37.4868C52.0745 37.6582 52.0322 37.8264 51.9808 37.9897C51.7403 38.7703 51.3486 39.4683 50.8411 40.0306V41.5017C51.0344 42.2123 51.0935 43.0442 50.9792 43.9079C50.6807 46.1472 49.3309 47.7453 47.9647 47.4819C46.5975 47.2167 45.7303 45.1883 46.0282 42.9485C46.1111 42.3261 46.2758 41.7519 46.5006 41.2547C46.6187 40.987 46.7568 40.7399 46.909 40.5197C46.4491 40.0794 46.0743 39.534 45.8034 38.9229C45.5039 38.2486 45.3278 37.4943 45.2991 36.7093L45.1859 33.57L45.2569 31.6354C45.2596 31.5448 45.2661 31.4541 45.2753 31.3646C45.4226 29.9354 46.2969 28.7601 47.4691 28.4386C47.3245 29.6571 47.799 31.2902 48.8011 32.6975C49.813 34.1217 51.0951 34.9367 52.1205 34.9336L52.166 35.5566C52.2738 35.2957 52.4163 35.0624 52.5777 34.8717C52.7987 34.6158 53.0587 34.4382 53.3268 34.3794C53.3913 34.3657 53.4574 34.3582 53.5219 34.3582C54.2168 34.3582 54.6523 35.1988 54.4958 36.234Z" fill="#FCDDE3"/>
<mask id="mask3_714_679" style="mask-type:luminance" maskUnits="userSpaceOnUse" x="9" y="1" width="63" height="73">
<path d="M71.8685 1.16718H9.4668V73.2222H71.8685V1.16718Z" fill="black" fill-opacity="0.149"/>
</mask>
<g mask="url(#mask3_714_679)">
<mask id="mask4_714_679" style="mask-type:luminance" maskUnits="userSpaceOnUse" x="46" y="39" width="5" height="4">
<path d="M50.9986 39.8367H46.2838V42.3987H50.9986V39.8367Z" fill="white"/>
</mask>
<g mask="url(#mask4_714_679)">
<path d="M50.841 40.0306V40.7174C50.7804 40.7943 50.7175 40.8707 50.652 40.9438C50.3692 41.2616 50.0486 41.5368 49.697 41.7595L49.5795 41.8339C48.8487 42.2936 47.9912 42.3055 47.2627 41.8896C47.117 41.8064 46.9767 41.7075 46.8434 41.59C46.7237 41.4855 46.6094 41.3735 46.5 41.2547C46.6192 40.9864 46.7568 40.7399 46.909 40.5191C46.9561 40.5654 47.0048 40.6111 47.0552 40.6542C47.1224 40.713 47.1917 40.7675 47.2627 40.8187C48.0313 41.3667 48.9879 41.4023 49.7907 40.8963L49.9083 40.8219C50.0832 40.7118 50.2495 40.5879 50.4077 40.4535C50.5604 40.3246 50.7045 40.1826 50.841 40.0306Z" fill="black"/>
</g>
</g>
<path d="M53.3268 34.3794C53.3019 34.4113 53.2742 34.4432 53.2455 34.472C53.0549 34.6702 52.829 34.8022 52.5776 34.8716C52.7986 34.6158 53.0587 34.4382 53.3268 34.3794Z" fill="black"/>
<path d="M47.8049 35.4346C47.8049 35.5716 47.7935 35.7073 47.7713 35.8412C47.7496 35.9756 47.7166 36.1057 47.6732 36.2321C47.6299 36.3591 47.5763 36.4791 47.5134 36.593C47.4506 36.7068 47.3786 36.8119 47.2984 36.9089C47.2182 37.0058 47.131 37.0921 47.0368 37.1678C46.9425 37.2441 46.8428 37.3085 46.7377 37.3604C46.6332 37.413 46.5249 37.4524 46.4138 37.4793C46.3022 37.5062 46.1901 37.5193 46.0769 37.5193C45.9631 37.5193 45.851 37.5062 45.7394 37.4793C45.6284 37.4524 45.52 37.413 45.4155 37.3604C45.3104 37.3085 45.2107 37.2441 45.1165 37.1678C45.0222 37.0921 44.935 37.0058 44.8549 36.9089C44.7747 36.8119 44.7026 36.7068 44.6398 36.593C44.577 36.4791 44.5234 36.3591 44.48 36.2321C44.4367 36.1057 44.4042 35.9756 44.382 35.8412C44.3598 35.7073 44.3484 35.5716 44.3484 35.4346C44.3484 35.2976 44.3598 35.1619 44.382 35.028C44.4042 34.8936 44.4367 34.7635 44.48 34.6365C44.5234 34.5101 44.577 34.3901 44.6398 34.2762C44.7026 34.1624 44.7747 34.0573 44.8549 33.9604C44.935 33.8634 45.0222 33.7771 45.1165 33.7014C45.2107 33.6251 45.3104 33.5607 45.4155 33.5088C45.52 33.4562 45.6284 33.4168 45.7394 33.3899C45.851 33.363 45.9631 33.3499 46.0769 33.3499C46.1901 33.3499 46.3022 33.363 46.4138 33.3899C46.5249 33.4168 46.6332 33.4562 46.7377 33.5088C46.8428 33.5607 46.9425 33.6251 47.0368 33.7014C47.131 33.7771 47.2182 33.8634 47.2984 33.9604C47.3786 34.0573 47.4506 34.1624 47.5134 34.2762C47.5763 34.3901 47.6299 34.5101 47.6732 34.6365C47.7166 34.7635 47.7496 34.8936 47.7713 35.028C47.7935 35.1619 47.8049 35.2976 47.8049 35.4346Z" fill="white"/>
<path d="M46.0764 37.6738C45.0499 37.6738 44.2146 36.6693 44.2146 35.4346C44.2146 34.1999 45.0499 33.1954 46.0764 33.1954C47.1034 33.1954 47.9392 34.1999 47.9392 35.4346C47.9392 36.6693 47.1034 37.6738 46.0764 37.6738ZM46.0764 33.5044C45.1978 33.5044 44.4827 34.3706 44.4827 35.4346C44.4827 36.4991 45.1978 37.3648 46.0764 37.3648C46.9555 37.3648 47.6705 36.4991 47.6705 35.4346C47.6705 34.3706 46.9555 33.5044 46.0764 33.5044Z" fill="black"/>
<path d="M52.1708 36.0457C52.1708 36.182 52.1595 36.3178 52.1372 36.4522C52.115 36.5861 52.0825 36.7168 52.0392 36.8432C51.9959 36.9695 51.9422 37.0896 51.8794 37.2034C51.8166 37.3173 51.7445 37.423 51.6644 37.5193C51.5842 37.6163 51.497 37.7026 51.4027 37.7789C51.3085 37.8552 51.2088 37.919 51.1037 37.9715C50.9992 38.0241 50.8908 38.0635 50.7798 38.0904C50.6682 38.1166 50.5561 38.1304 50.4423 38.1304C50.3291 38.1304 50.2164 38.1166 50.1054 38.0904C49.9943 38.0635 49.886 38.0241 49.7815 37.9715C49.6764 37.919 49.5767 37.8552 49.4825 37.7789C49.3882 37.7026 49.301 37.6163 49.2208 37.5193C49.1407 37.423 49.0686 37.3173 49.0058 37.2034C48.9429 37.0896 48.8893 36.9695 48.846 36.8432C48.8026 36.7168 48.7696 36.5861 48.7479 36.4522C48.7257 36.3178 48.7144 36.182 48.7144 36.0457C48.7144 35.9087 48.7257 35.773 48.7479 35.6385C48.7696 35.5046 48.8026 35.3739 48.846 35.2476C48.8893 35.1212 48.9429 35.0011 49.0058 34.8873C49.0686 34.7735 49.1407 34.6684 49.2208 34.5714C49.301 34.4745 49.3882 34.3882 49.4825 34.3119C49.5767 34.2362 49.6764 34.1718 49.7815 34.1192C49.886 34.0673 49.9943 34.0273 50.1054 34.001C50.2164 33.9741 50.3291 33.961 50.4423 33.961C50.5561 33.961 50.6682 33.9741 50.7798 34.001C50.8908 34.0273 50.9992 34.0673 51.1037 34.1192C51.2088 34.1718 51.3085 34.2362 51.4027 34.3119C51.497 34.3882 51.5842 34.4745 51.6644 34.5714C51.7445 34.6684 51.8166 34.7735 51.8794 34.8873C51.9422 35.0011 51.9959 35.1212 52.0392 35.2476C52.0825 35.3739 52.115 35.5046 52.1372 35.6385C52.1595 35.773 52.1708 35.9087 52.1708 36.0457Z" fill="white"/>
<path d="M50.4424 38.2849C49.4159 38.2849 48.5801 37.2804 48.5801 36.0457C48.5801 34.8104 49.4159 33.8058 50.4424 33.8058C51.4694 33.8058 52.3047 34.8104 52.3047 36.0457C52.3047 37.2804 51.4694 38.2849 50.4424 38.2849ZM50.4424 34.1155C49.5638 34.1155 48.8488 34.9811 48.8488 36.0457C48.8488 37.1096 49.5638 37.9753 50.4424 37.9753C51.3215 37.9753 52.0365 37.1096 52.0365 36.0457C52.0365 34.9811 51.3215 34.1155 50.4424 34.1155Z" fill="black"/>
<path d="M63.4817 58.3796L63.2531 58.7443C62.1703 60.4731 60.1682 61.0611 58.4987 60.1416L55.7979 58.6523C55.1701 58.3071 54.4827 58.1276 53.7872 58.1276L41.7581 58.1351C41.3139 58.1351 40.8719 58.2039 40.4429 58.3396L34.0987 60.3455C32.6334 60.8096 31.0685 60.2367 30.1027 58.8856C30.0762 58.8494 30.0518 58.8131 30.0252 58.7768C29.346 57.8261 29.1158 56.5532 29.4072 55.368C29.4159 55.3392 29.4224 55.3085 29.4289 55.2804C30.1179 52.4914 31.5338 50.0126 33.4877 48.1856C35.0791 46.697 36.9788 44.9106 38.3119 43.6546C39.4148 42.6145 40.7327 41.9221 42.1356 41.6412L45.6712 40.9332C46.0601 40.855 46.4577 40.9732 46.7675 41.2559L48.8324 43.1436C49.2349 43.5114 49.8194 43.4388 50.1455 42.981L50.9504 41.8533L53.9594 42.5613C55.455 42.9122 56.7599 43.9505 57.5763 45.4335L62.2661 53.9537L63.2547 55.7495C63.687 56.5357 63.7715 57.5115 63.4817 58.3796Z" fill="#8DD5D8"/>
<path d="M43.5175 40.5028L44.0418 40.1613L47.8195 47.8578L47.2951 48.2L43.5175 40.5028Z" fill="#0690CF"/>
<path d="M47.8195 47.8578L47.8688 48.3995L47.8997 48.7291L47.6706 48.529L47.2952 48.2L47.8195 47.8578Z" fill="#FCDDE3"/>
<path d="M47.8688 48.3995L47.8997 48.7291L47.6705 48.529L47.8688 48.3995Z" fill="black"/>
<path d="M43.5181 40.5028L44.0424 40.1613L44.316 40.7186L43.7916 41.0601L43.5181 40.5028Z" fill="#FCDDE3"/>
<path d="M42.2283 48.8167L43.4758 46.4555C43.6643 46.0977 43.9709 45.8444 44.3251 45.7525L46.3196 45.2365C46.5801 45.1689 46.8504 45.1633 47.1132 45.2196L48.3038 45.4748C48.4403 45.5035 48.4706 45.7143 48.3487 45.7913C47.9744 46.0264 47.3656 46.3498 46.9014 46.3091C46.7573 46.2966 46.6148 46.3573 46.5 46.4593L46.3965 46.55L46.773 46.8127C46.9144 46.9121 46.9924 47.0972 46.9718 47.2868L46.9122 47.8303C46.9068 47.881 46.9084 47.9323 46.9171 47.9823L46.9642 48.255C46.9913 48.4114 46.9951 48.5721 46.9745 48.7304L46.8429 49.7549L42.2283 48.8167Z" fill="#FCDDE3"/>
<path d="M55.3982 46.5499L49.0492 49.9563C48.9956 49.9851 48.9506 50.0295 48.9159 50.0833C48.8553 50.0658 48.7924 50.0551 48.7274 50.0551H48.4003C48.3585 50.0551 48.3174 50.0601 48.2773 50.0676C48.2442 50.0207 48.2025 49.9826 48.1538 49.9563L41.8047 46.5499C41.5729 46.4255 41.3102 46.6281 41.3102 46.9321V57.5352C41.3102 57.7003 41.3909 57.8498 41.5171 57.9174L47.8662 61.3237C47.8797 61.3312 47.8938 61.3337 47.9079 61.3387C48.0417 61.467 48.2134 61.5445 48.4003 61.5445H48.7274C48.9046 61.5445 49.0676 61.4738 49.1981 61.3575C49.2442 61.3569 49.2908 61.3481 49.3368 61.3237L55.6859 57.9174C55.8121 57.8498 55.8928 57.7003 55.8928 57.5352V46.9321C55.8928 46.6281 55.6301 46.4255 55.3982 46.5499Z" fill="white"/>
<mask id="mask5_714_679" style="mask-type:luminance" maskUnits="userSpaceOnUse" x="41" y="47" width="16" height="16">
<path d="M41.0144 47.0422H56.2682V62.7705H41.0144V47.0422Z" fill="white"/>
</mask>
<g mask="url(#mask5_714_679)">
<path d="M55.7162 47.1561L49.1066 50.7025C49.0508 50.7325 49.0037 50.7788 48.9679 50.8345C48.9051 50.8164 48.8396 50.8051 48.7718 50.8051H48.4311C48.3878 50.8051 48.345 50.8101 48.3033 50.8182C48.2686 50.7694 48.2253 50.7294 48.1749 50.7025L41.5653 47.1561C41.3237 47.026 41.0502 47.2374 41.0502 47.5539V58.5929C41.0502 58.7643 41.1347 58.92 41.2658 58.9901L47.8748 62.5372C47.8894 62.5447 47.9041 62.5472 47.9187 62.5528C48.0579 62.686 48.2367 62.7667 48.4311 62.7667H48.7718C48.956 62.7667 49.1256 62.6936 49.2621 62.5722C49.3097 62.5716 49.3585 62.5628 49.4062 62.5372L56.0158 58.9901C56.1468 58.92 56.2313 58.7643 56.2313 58.5929V47.5539C56.2313 47.2374 55.9578 47.026 55.7162 47.1561Z" fill="#0690CF"/>
</g>
<path d="M55.9339 56.4944L55.136 55.0608C55.019 54.8501 54.8711 54.6643 54.6988 54.5117L53.2764 53.2482C53.232 53.2088 53.1897 53.1663 53.1502 53.1206L52.5213 52.3957C52.4119 52.27 52.225 52.3369 52.1968 52.512C52.1112 53.0493 52.2228 53.6035 52.5061 54.0413L52.8295 54.5429C52.8777 54.6167 52.8154 54.7181 52.739 54.6912L49.6233 53.5966C49.4223 53.5265 49.2056 53.5528 49.022 53.6704C48.82 53.7999 48.8308 54.1395 49.041 54.2515L50.7922 55.1809C50.8312 55.2016 50.8117 55.2697 50.7695 55.2591L48.8953 54.7981C48.7246 54.7562 48.5724 54.9289 48.606 55.1259L48.8232 56.3925C48.911 56.9047 49.2311 57.3226 49.6617 57.4858L50.9818 57.9856C51.0327 58.005 51.0847 58.0212 51.1373 58.0344L53.6929 58.6586C53.8289 58.6924 53.9681 58.7093 54.1073 58.7093H55.9339V56.4944Z" fill="#FCDDE3"/>
<path d="M63.4817 58.3796L63.2531 58.7443C62.1703 60.4731 60.1683 61.061 58.4988 60.1416L55.798 58.6523L55.9334 56.6427L60.5344 54.6887C61.5447 54.2602 62.6779 54.7018 63.2548 55.7495C63.687 56.5357 63.7715 57.5114 63.4817 58.3796Z" fill="#8DD5D8"/>
<path d="M54.0695 41.8445C54.0695 40.7286 53.3463 39.8236 52.4553 39.8236C51.5637 39.8236 50.8411 40.7286 50.8411 41.8445C50.8411 42.3668 51.0003 42.8403 51.2598 43.1993C51.1596 43.4144 51.1016 43.664 51.1016 43.9305C51.1016 44.3827 51.2657 44.7861 51.523 45.0544C51.3367 45.2715 51.2192 45.5811 51.2192 45.9257C51.2192 46.256 51.3264 46.555 51.5003 46.7708C51.3703 46.9321 51.2901 47.1554 51.2901 47.4025C51.2901 47.8941 51.6081 48.2925 52.0008 48.2925C52.3935 48.2925 52.7115 47.8941 52.7115 47.4025C52.7115 47.2467 52.6795 47.101 52.6237 46.9734C52.9206 46.772 53.1221 46.3786 53.1221 45.9257C53.1221 45.633 53.0376 45.3653 52.8978 45.1583C53.2201 44.8981 53.4341 44.4465 53.4341 43.9305C53.4341 43.7797 53.4157 43.6346 53.3821 43.4976C53.797 43.1324 54.0695 42.5288 54.0695 41.8445Z" fill="black"/>
</g>
</g>
<defs>
<filter id="filter0_d_714_679" x="0" y="0.5" width="83" height="83" filterUnits="userSpaceOnUse" color-interpolation-filters="sRGB">
<feFlood flood-opacity="0" result="BackgroundImageFix"/>
<feColorMatrix in="SourceAlpha" type="matrix" values="0 0 0 0 0 0 0 0 0 0 0 0 0 0 0 0 0 0 127 0" result="hardAlpha"/>
<feOffset dy="4"/>
<feGaussianBlur stdDeviation="2"/>
<feComposite in2="hardAlpha" operator="out"/>
<feColorMatrix type="matrix" values="0 0 0 0 0 0 0 0 0 0 0 0 0 0 0 0 0 0 0.25 0"/>
<feBlend mode="normal" in2="BackgroundImageFix" result="effect1_dropShadow_714_679"/>
<feBlend mode="normal" in="SourceGraphic" in2="effect1_dropShadow_714_679" result="shape"/>
</filter>
<clipPath id="clip0_714_679">
<rect width="52.0014" height="60.0459" fill="white" transform="translate(14.667 7.17175)"/>
</clipPath>
</defs>
</svg>
